<svg width="24" height="24" viewBox="0 0 24 24" fill="none" xmlns="http://www.w3.org/2000/svg">
<g clip-path="url(#clip0_1146_5026)">
<path d="M20.6044 18.6432C20.1977 18.6435 19.8 18.5232 19.4617 18.2975C19.1234 18.0717 18.8597 17.7507 18.7038 17.3751C18.548 16.9994 18.507 16.586 18.5862 16.1871C18.6654 15.7881 18.8611 15.4217 19.1485 15.134C19.436 14.8463 19.8024 14.6503 20.2012 14.5709C20.6001 14.4914 21.0136 14.532 21.3893 14.6876C21.7651 14.8432 22.0863 15.1067 22.3123 15.4448C22.5383 15.783 22.6589 16.1805 22.6589 16.5872C22.6586 17.1322 22.4421 17.6548 22.0569 18.0402C21.6717 18.4257 21.1493 18.6426 20.6044 18.6432ZM20.6044 15.2812C20.346 15.281 20.0934 15.3573 19.8784 15.5006C19.6634 15.6439 19.4958 15.8478 19.3967 16.0864C19.2976 16.325 19.2716 16.5877 19.3218 16.8411C19.372 17.0946 19.4963 17.3274 19.6789 17.5102C19.8615 17.693 20.0942 17.8175 20.3475 17.868C20.6009 17.9186 20.8636 17.8928 21.1023 17.794C21.341 17.6952 21.5451 17.5278 21.6887 17.313C21.8322 17.0982 21.9089 16.8456 21.9089 16.5872C21.9087 16.2412 21.7713 15.9093 21.5267 15.6644C21.2822 15.4196 20.9504 15.2818 20.6044 15.2812Z" fill="#212121"/>
<path d="M9.76894 18.6432C9.36222 18.6436 8.96451 18.5234 8.62614 18.2977C8.28777 18.072 8.02394 17.7511 7.86802 17.3754C7.7121 16.9998 7.6711 16.5863 7.7502 16.1874C7.82931 15.7884 8.02496 15.4219 8.31242 15.1341C8.59988 14.8464 8.96622 14.6504 9.3651 14.5709C9.76398 14.4914 10.1775 14.532 10.5533 14.6876C10.9291 14.8431 11.2503 15.1066 11.4763 15.4448C11.7023 15.7829 11.8229 16.1805 11.8229 16.5872C11.8225 17.1321 11.6061 17.6545 11.221 18.0399C10.836 18.4253 10.3138 18.6423 9.76894 18.6432ZM9.76894 15.2812C9.51055 15.2809 9.25785 15.3571 9.04282 15.5004C8.82779 15.6436 8.66008 15.8475 8.56093 16.0861C8.46177 16.3247 8.43562 16.5873 8.48579 16.8408C8.53596 17.0943 8.66018 17.3272 8.84275 17.51C9.02532 17.6929 9.25802 17.8175 9.51141 17.868C9.76481 17.9186 10.0275 17.8928 10.2663 17.794C10.505 17.6952 10.7091 17.5278 10.8527 17.313C10.9963 17.0982 11.0729 16.8456 11.0729 16.5872C11.0727 16.2413 10.9353 15.9096 10.6908 15.6648C10.4464 15.42 10.1149 15.282 9.76894 15.2812Z" fill="#212121"/>
<path d="M23.3082 16.9633H22.2827C22.1833 16.9633 22.0879 16.9238 22.0176 16.8535C21.9473 16.7832 21.9077 16.6878 21.9077 16.5883C21.9077 16.4889 21.9473 16.3935 22.0176 16.3232C22.0879 16.2529 22.1833 16.2133 22.2827 16.2133H23.2022V14.2248C23.202 13.956 23.1332 13.6917 23.0022 13.4568L20.9722 9.81734C20.9549 9.78628 20.9296 9.76041 20.8989 9.74239C20.8682 9.72438 20.8333 9.71487 20.7977 9.71484H18.0312V16.2148H18.9242C19.0237 16.2148 19.1191 16.2544 19.1894 16.3247C19.2597 16.395 19.2992 16.4904 19.2992 16.5898C19.2992 16.6893 19.2597 16.7847 19.1894 16.855C19.1191 16.9253 19.0237 16.9648 18.9242 16.9648H17.6562C17.5568 16.9648 17.4614 16.9253 17.3911 16.855C17.3208 16.7847 17.2812 16.6893 17.2812 16.5898V9.33984C17.2812 9.24039 17.3208 9.145 17.3911 9.07468C17.4614 9.00435 17.5568 8.96484 17.6562 8.96484H20.7977C20.9669 8.96476 21.1331 9.00986 21.279 9.09547C21.4249 9.18109 21.5453 9.30412 21.6277 9.45184L23.6572 13.0918C23.8502 13.4383 23.9516 13.8283 23.9517 14.2248V16.3198C23.9515 16.4904 23.8836 16.654 23.763 16.7746C23.6424 16.8952 23.4788 16.9631 23.3082 16.9633Z" fill="#212121"/>
<path d="M8.09159 16.9621H4.49609C4.39664 16.9621 4.30126 16.9226 4.23093 16.8523C4.1606 16.782 4.12109 16.6866 4.12109 16.5871V13.7031C4.12109 13.6037 4.1606 13.5083 4.23093 13.438C4.30126 13.3676 4.39664 13.3281 4.49609 13.3281C4.59555 13.3281 4.69093 13.3676 4.76126 13.438C4.83159 13.5083 4.87109 13.6037 4.87109 13.7031V16.2121H8.09159C8.19105 16.2121 8.28643 16.2516 8.35676 16.322C8.42708 16.3923 8.46659 16.4877 8.46659 16.5871C8.46659 16.6866 8.42708 16.782 8.35676 16.8523C8.28643 16.9226 8.19105 16.9621 8.09159 16.9621Z" fill="#212121"/>
<path d="M4.49609 12.3735C4.39664 12.3735 4.30126 12.334 4.23093 12.2636C4.1606 12.1933 4.12109 12.0979 4.12109 11.9985V9.48047C4.12109 9.38101 4.1606 9.28563 4.23093 9.2153C4.30126 9.14498 4.39664 9.10547 4.49609 9.10547C4.59555 9.10547 4.69093 9.14498 4.76126 9.2153C4.83159 9.28563 4.87109 9.38101 4.87109 9.48047V12C4.8707 12.0992 4.83101 12.1942 4.76073 12.2642C4.69045 12.3342 4.59529 12.3735 4.49609 12.3735Z" fill="#212121"/>
<path d="M17.6586 16.9628H11.4501C11.3506 16.9628 11.2553 16.9233 11.1849 16.853C11.1146 16.7827 11.0751 16.6873 11.0751 16.5878C11.0751 16.4884 11.1146 16.393 11.1849 16.3227C11.2553 16.2524 11.3506 16.2128 11.4501 16.2128H17.2836V6.40234H4.87109V7.94684C4.87109 8.0463 4.83159 8.14168 4.76126 8.21201C4.69093 8.28233 4.59555 8.32184 4.49609 8.32184C4.39664 8.32184 4.30126 8.28233 4.23093 8.21201C4.1606 8.14168 4.12109 8.0463 4.12109 7.94684V6.33334C4.12136 6.15273 4.19326 5.97959 4.32102 5.85192C4.44879 5.72425 4.62198 5.65248 4.80259 5.65234H17.3526C17.5331 5.65261 17.7062 5.72444 17.8338 5.8521C17.9615 5.97975 18.0333 6.15281 18.0336 6.33334V16.5878C18.0336 16.6873 17.9941 16.7827 17.9238 16.853C17.8534 16.9233 17.758 16.9628 17.6586 16.9628Z" fill="#212121"/>
<path d="M5.97825 14.0781H1.21875C1.11929 14.0781 1.02391 14.0386 0.953585 13.9683C0.883259 13.898 0.84375 13.8026 0.84375 13.7031C0.84375 13.6037 0.883259 13.5083 0.953585 13.438C1.02391 13.3676 1.11929 13.3281 1.21875 13.3281H5.97825C6.07771 13.3281 6.17309 13.3676 6.24342 13.438C6.31374 13.5083 6.35325 13.6037 6.35325 13.7031C6.35325 13.8026 6.31374 13.898 6.24342 13.9683C6.17309 14.0386 6.07771 14.0781 5.97825 14.0781Z" fill="#212121"/>
<path d="M9.77041 12.373H3.12891C3.02945 12.373 2.93407 12.3335 2.86374 12.2632C2.79342 12.1929 2.75391 12.0975 2.75391 11.998C2.75391 11.8986 2.79342 11.8032 2.86374 11.7329C2.93407 11.6626 3.02945 11.623 3.12891 11.623H9.77041C9.86986 11.623 9.96525 11.6626 10.0356 11.7329C10.1059 11.8032 10.1454 11.8986 10.1454 11.998C10.1454 12.0975 10.1059 12.1929 10.0356 12.2632C9.96525 12.3335 9.86986 12.373 9.77041 12.373Z" fill="#212121"/>
<path d="M2.92163 10.3926H0.328125C0.228669 10.3926 0.133286 10.3531 0.06296 10.2827C-0.00736619 10.2124 -0.046875 10.117 -0.046875 10.0176C-0.046875 9.91812 -0.00736619 9.82274 0.06296 9.75241C0.133286 9.68209 0.228669 9.64258 0.328125 9.64258H2.92163C3.02108 9.64258 3.11646 9.68209 3.18679 9.75241C3.25712 9.82274 3.29663 9.91812 3.29663 10.0176C3.29663 10.117 3.25712 10.2124 3.18679 10.2827C3.11646 10.3531 3.02108 10.3926 2.92163 10.3926Z" fill="#212121"/>
<path d="M7.08191 8.32227H2.50391C2.40445 8.32227 2.30907 8.28276 2.23874 8.21243C2.16842 8.1421 2.12891 8.04672 2.12891 7.94727C2.12891 7.84781 2.16842 7.75243 2.23874 7.6821C2.30907 7.61177 2.40445 7.57227 2.50391 7.57227H7.08191C7.18136 7.57227 7.27674 7.61177 7.34707 7.6821C7.4174 7.75243 7.45691 7.84781 7.45691 7.94727C7.45691 8.04672 7.4174 8.1421 7.34707 8.21243C7.27674 8.28276 7.18136 8.32227 7.08191 8.32227Z" fill="#212121"/>
</g>
<defs>
<clipPath id="clip0_1146_5026">
<rect width="24" height="24" fill="white"/>
</clipPath>
</defs>
</svg>
