<svg width="406" height="264" viewBox="0 0 406 264" fill="none" xmlns="http://www.w3.org/2000/svg">
<path d="M81.8 0.0999756H3.10001V130.4H81.8V0.0999756Z" fill="#E0E0E0"/>
<path d="M79.1 0.0999756H0.399994V130.4H79.1V0.0999756Z" fill="#EBEBEB"/>
<path d="M75.8 2.69995H3.79999V127.7H75.8V2.69995Z" fill="#FAFAFA"/>
<path d="M61.8 18.9H17.5V111.4H61.8V18.9Z" fill="#EBEBEB"/>
<path d="M17.5 78.7C17.4 70.1 25.2 61.6 33.7 60.4C37.8 59.8 42.1 60.6 45.9 59.1C52.7 56.3 54.9 47.3 61.7 44.6L62 111.5H17.5V78.7Z" fill="#E0E0E0"/>
<path d="M400.5 20.1H340.8V82.4H400.5V20.1Z" fill="#E0E0E0"/>
<path d="M396.5 20.1H336.8V82.4H396.5V20.1Z" fill="#FAFAFA"/>
<path d="M396.5 82.3H336.7V20H396.5V82.3ZM336.8 82.3H396.5V20.1H336.8V82.3Z" fill="#E0E0E0"/>
<path d="M388.5 28.4H344.8V73.9H388.5V28.4Z" fill="#FAFAFA"/>
<path d="M344.8 74.3C344.8 74.3 344.4 74.8 343.7 75.6C343 76.3 342 77.3 340.9 78.4C339.8 79.5 338.8 80.4 338 81.1C337.3 81.8 336.8 82.2 336.7 82.2C336.7 82.2 337.1 81.7 337.8 81C338.5 80.3 339.5 79.3 340.6 78.2C341.7 77.1 342.7 76.1 343.5 75.5C344.3 74.6 344.8 74.2 344.8 74.3Z" fill="#E0E0E0"/>
<path d="M388.5 74.1C388.5 74.1 389 74.5 389.8 75.2C390.5 75.9 391.5 76.9 392.6 78C393.7 79.1 394.6 80.1 395.3 80.9C396 81.6 396.4 82.1 396.4 82.2C396.4 82.2 395.9 81.8 395.2 81.1C394.5 80.4 393.5 79.4 392.4 78.3C391.3 77.2 390.3 76.2 389.7 75.4C388.8 74.7 388.4 74.2 388.5 74.1Z" fill="#E0E0E0"/>
<path d="M388.4 28.6C388.4 28.6 388.8 28.1 389.5 27.3C390.2 26.6 391.2 25.6 392.3 24.5C393.4 23.4 394.4 22.5 395.2 21.8C395.9 21.1 396.4 20.7 396.5 20.7C396.5 20.7 396.1 21.2 395.4 21.9C394.7 22.6 393.7 23.6 392.6 24.7C391.5 25.8 390.5 26.8 389.7 27.4C388.9 28.2 388.4 28.6 388.4 28.6Z" fill="#E0E0E0"/>
<path d="M344.7 28.7C344.7 28.7 344.2 28.3 343.4 27.6C342.7 26.9 341.7 25.9 340.6 24.8C339.5 23.7 338.6 22.7 337.9 21.9C337.2 21.2 336.8 20.7 336.8 20.6C336.8 20.6 337.3 21 338 21.7C338.7 22.4 339.7 23.4 340.8 24.5C341.9 25.6 342.9 26.6 343.5 27.4C344.3 28.2 344.7 28.6 344.7 28.7Z" fill="#E0E0E0"/>
<path d="M388.4 74C388.4 74 388.4 73.9 388.4 73.8C388.4 73.6 388.4 73.4 388.4 73.2C388.4 72.6 388.4 71.8 388.4 70.7C388.4 68.5 388.4 65.4 388.4 61.4C388.4 53.4 388.3 42.1 388.3 28.5L388.5 28.7C375.8 28.7 360.9 28.7 345 28.7L345.2 28.5C345.2 45.2 345.2 60.8 345.2 74L345 73.8C358 73.8 368.9 73.9 376.5 73.9C380.3 73.9 383.3 73.9 385.4 73.9C386.4 73.9 387.2 73.9 387.7 73.9C388 73.9 388.2 73.9 388.3 73.9C388.3 73.9 388.4 74 388.4 74C388.4 74 388.3 74 388.2 74C388.1 74 387.9 74 387.6 74C387.1 74 386.3 74 385.3 74C383.3 74 380.3 74 376.5 74C368.9 74 358 74 344.9 74.1H344.7V73.9C344.7 60.7 344.7 45.1 344.7 28.4V28.2H344.9C360.8 28.2 375.7 28.2 388.4 28.2H388.6V28.4C388.6 42 388.5 53.4 388.5 61.4C388.5 65.4 388.5 68.5 388.5 70.6C388.5 71.7 388.5 72.5 388.5 73C388.5 73.3 388.5 73.5 388.5 73.6C388.4 73.9 388.4 74 388.4 74Z" fill="#E0E0E0"/>
<path d="M374 43.9H359.4V58.5H374V43.9Z" fill="#EBEBEB"/>
<path d="M340.1 194.7C337 192.7 333.3 191.5 329.7 191.1C328 190.9 326.1 191 324.8 192C324.5 192.2 324.2 192.5 324.3 192.9C324.3 193.2 324.6 193.4 324.8 193.5C328.9 196.7 335.4 197.2 340.1 194.7Z" fill="#E0E0E0"/>
<path d="M339.8 194.4C337.4 192.6 335.1 190.7 333.1 188.5C331.1 186.3 329.5 183.6 328.9 180.7C328.7 179.8 328.7 178.8 329.2 178.1C334.6 182.2 338.8 187.6 339.8 194.4Z" fill="#E0E0E0"/>
<path d="M340.1 194.6C339.7 191.7 339.5 188.6 340.2 185.7C340.9 182.8 342.4 180 344.9 178.4C345.8 180.6 345.4 183.1 344.8 185.3C343.8 188.8 342.2 192.2 340.1 195.2" fill="#E0E0E0"/>
<path d="M345.3 204.1C342.1 204.5 339.3 206.2 336.9 208.3C334.5 210.5 332.8 213.4 332.1 216.5C335.2 216.3 337.9 214.1 339.8 211.6C341.7 209.1 343.2 206.5 345.3 204.1Z" fill="#E0E0E0"/>
<path d="M346.5 205.6C343.9 199.2 344.9 191.6 348.9 186.1C350.7 192.5 350 199.9 346.5 205.6Z" fill="#E0E0E0"/>
<path d="M353.4 213.9C350.5 213.7 347.5 214.4 345 215.9C342.5 217.4 340.4 219.6 339.1 222.2C338.9 222.6 338.8 223 339 223.3C339.2 223.6 339.6 223.6 339.9 223.6C342.7 223.4 345.2 221.7 347.3 219.8C349.4 217.8 351.2 215.5 353.4 213.9Z" fill="#E0E0E0"/>
<path d="M353.2 213.4C351.7 208.6 351.6 203.4 352.9 198.5C353.4 196.6 354.3 194.6 356.1 193.7C356.3 193.6 356.4 193.6 356.6 193.6C356.8 193.7 356.8 193.8 356.9 194C357.5 195.3 357.7 196.8 357.6 198.3C357.5 199.8 357.2 201.2 356.9 202.6C356.3 205.2 356 208.1 354.6 210.4C354.3 210.9 354 211.5 353.7 212.1C353.4 212.7 353.4 212.9 353.2 213.3" fill="#E0E0E0"/>
<path d="M371.7 216.2C370.3 211 371.8 204.7 375.1 200.4C375.3 200.1 375.7 199.7 376.1 199.8C376.7 199.9 376.9 200.7 376.8 201.3C376.5 206.6 374.7 211.8 371.7 216.2Z" fill="#E0E0E0"/>
<path d="M373.3 217.3C379.6 218.9 386.9 217.3 392.1 213.5C389 211.9 385.3 211.5 381.9 212.3C378.6 213 375.4 214.5 373.3 217.3Z" fill="#E0E0E0"/>
<path d="M374.7 213.9C378.2 208.1 385 204.4 391.8 204C391 206.7 388.8 208.9 386.2 210.2C383.7 211.5 380.8 212.1 378 212.6C376.9 212.8 375.4 213 374.7 213.9Z" fill="#E0E0E0"/>
<path d="M372 197.1C373 193.8 373.9 190.5 374.2 187.1C374.5 183.7 374 180.1 372.2 177.2C368.9 183.6 368.6 191.1 371.9 197.4" fill="#E0E0E0"/>
<path d="M383.1 191.4C387 184.4 394.8 178.8 402.8 178C399.8 185.7 391.4 191.6 383.1 191.4Z" fill="#E0E0E0"/>
<path d="M380.7 192.8C386.5 193.7 391.4 197.4 396.8 199.6C398 200.1 399.2 200.5 400.4 200.3C401.6 200.1 402.9 199.3 403.1 198.1C403.3 197.1 402.9 196 402.1 195.3C401.4 194.6 400.4 194.1 399.5 193.7C393.6 191.3 387.3 191.2 381.2 192.7" fill="#E0E0E0"/>
<path d="M377.4 196.9C378.7 197.3 379.2 197.9 380.2 198.8C383.7 201.8 387.9 203.9 392.4 205.1C392.9 205.2 393.5 205.3 393.7 204.8C393.9 204.4 393.6 204 393.4 203.7C391.5 201.4 388.9 199.8 386 198.7C383.2 197.7 380.8 196.4 377.4 196.7" fill="#E0E0E0"/>
<path d="M373.6 172.5C378.3 176.9 384.9 179.1 391.3 178.5C391.6 178.5 391.9 178.4 392.1 178.2C392.5 177.7 392 177 391.5 176.6C386.3 172.5 380 170.8 373.6 172.5Z" fill="#E0E0E0"/>
<path d="M378.1 170.8C384.3 166.2 392.8 164.8 400.1 167.2C397.3 169.9 393.5 171.4 389.6 171.8C385.7 172.2 381.9 171.8 378.1 170.8Z" fill="#E0E0E0"/>
<path d="M376.3 159.6C375.8 154.4 376.1 150.3 375.8 145.1C375.8 144.7 375.7 144.2 375.3 144C374.8 143.8 374.3 144.5 374.1 145C372.6 149.8 373.4 155.3 376.3 159.4" fill="#E0E0E0"/>
<path d="M375.9 160.2C379.4 158 382 155.2 384.5 151.9C386.2 149.6 387.6 146.8 387.2 144C384.8 144 382.6 145.3 381 147.1C379.5 148.9 378.5 151.2 377.8 153.5C377.2 155.6 376.7 157.9 375.9 160.2Z" fill="#E0E0E0"/>
<path d="M384.4 157.8C392.1 154.9 399.3 150.7 405.5 145.3C403 144.3 400.1 144.9 397.6 145.9C391.8 148.2 387.1 152.2 384.3 157.7" fill="#E0E0E0"/>
<path d="M378.3 163C382.2 163.4 386.2 163.7 390 163.1C393.8 162.5 397.4 161 401 159.5C401.3 159.4 401.6 159.2 401.7 158.9C401.8 158.6 401.7 158.2 401.4 158C401.1 157.8 400.8 157.7 400.5 157.6C396.6 156.5 392.5 157 388.7 158.3C384.9 159.5 381.8 161 378.3 163Z" fill="#E0E0E0"/>
<path d="M356 172.6C353.3 167.2 353.5 161 355.8 155.4C357.4 157.9 357.6 161 357.3 163.9C357 166.8 356.1 169.9 356.1 172.8" fill="#E0E0E0"/>
<path d="M345.4 167.3C338.8 167.2 332.1 170 327.6 174.9C330.9 175.4 334.3 174.6 337.3 173.1C340.3 171.6 343 169.6 345.7 167.5" fill="#E0E0E0"/>
<path d="M338.2 164.9C334.9 164.6 331.8 164.2 328.7 165.2C325.6 166.2 322.7 168.3 321.5 171.3C324.5 171.6 327.6 170.9 330.4 169.6C333.2 168.4 335.7 166.6 338.2 164.9Z" fill="#E0E0E0"/>
<path d="M348.8 165C345.9 163.1 342.9 161.1 339.5 160.3C336.1 159.5 332.1 160.1 329.8 162.7C332.6 164.3 335.9 164.5 339.1 164.5C342.3 164.5 346.2 164.5 349.2 165.5" fill="#E0E0E0"/>
<path d="M348.8 165.1C343.8 160.2 341.9 151.4 343.9 144.7C347.9 150.7 349.7 158 348.8 165.1Z" fill="#E0E0E0"/>
<path d="M362.6 151.2C363.5 149 364.2 146.7 365.1 144.5C365.9 142.3 367 140.1 368.6 138.3C370.2 136.5 372.4 135.2 374.8 135.1C373.3 141.9 368.8 147.9 362.8 151.3" fill="#E0E0E0"/>
<path d="M360.1 154.1C358.5 152 356.7 149 354.6 147.4C352.5 145.8 349.7 144.8 347.1 145.4C349.8 150.2 354.8 153.5 360.1 154.1Z" fill="#E0E0E0"/>
<path d="M360.6 151.4C359.6 148.8 358.5 146.2 358.1 143.4C357.7 140.6 357.9 137.7 359.4 135.3C362.1 140.5 363 146.1 360.8 151.5" fill="#E0E0E0"/>
<path d="M362.6 135.3C364.2 130.2 368.9 126.4 373.9 124.6C374.5 124.4 375.2 124.2 375.9 124.3C376.6 124.4 377.2 124.9 377.4 125.5C377.6 126.4 376.9 127.2 376.2 127.7C372.2 131.2 367.6 133.8 362.6 135.3Z" fill="#E0E0E0"/>
<path d="M362.7 131.1C362.9 127.8 363.1 124.4 364.2 121.3C365.3 118.2 367.4 115.2 370.4 113.8C370.9 117.1 369.4 120.5 367.7 123.4C365.9 126.3 363.8 129 362.7 132.2" fill="#E0E0E0"/>
<path d="M362.6 133.4C361.3 129.7 361.2 124.9 358.9 121.6C357.3 119.3 354.8 117.8 353.5 115.3C352.6 117.6 352.9 120.2 353.8 122.4C354.7 124.6 356.3 126.6 358 128.3C359.6 130.2 361.1 131.5 362.6 133.4Z" fill="#E0E0E0"/>
<path d="M362.6 243.8C362.5 243.8 362.4 218.8 362.4 188C362.4 157.2 362.5 132.2 362.6 132.2C362.7 132.2 362.8 157.2 362.8 188C362.8 218.8 362.7 243.8 362.6 243.8Z" fill="#E0E0E0"/>
<path d="M384.5 168.9C384.5 168.9 384.2 169 383.6 169.3C382.9 169.5 382.1 169.8 381 170.2C378.8 170.9 375.8 172 372.6 173.4C369.4 174.8 366.3 175.9 364.6 177.4C363.7 178.1 363.2 178.9 363 179.5C362.8 180.1 362.7 180.4 362.7 180.4C362.7 180.4 362.7 180.3 362.7 180.1C362.7 179.9 362.8 179.7 362.9 179.4C363.1 178.8 363.6 177.9 364.5 177.1C365.4 176.3 366.6 175.6 368 174.9C369.4 174.3 370.9 173.6 372.6 172.9C375.9 171.6 378.9 170.5 381.1 169.8C382.2 169.5 383.1 169.2 383.7 169C384.1 168.9 384.5 168.8 384.5 168.9Z" fill="#E0E0E0"/>
<path d="M391.6 151.3C391.6 151.3 391.5 151.4 391.3 151.6C391.1 151.8 390.8 152 390.5 152.4C389.8 153.1 388.7 154 387.5 155.1C384.9 157.4 381.4 160.5 377.5 164C373.6 167.5 370.2 170.8 367.9 173.3C366.7 174.5 365.8 175.6 365.2 176.3C364.9 176.6 364.7 176.9 364.5 177.1C364.3 177.3 364.2 177.4 364.2 177.4C364.2 177.4 364.3 177.3 364.4 177.1C364.6 176.9 364.8 176.6 365.1 176.2C365.7 175.5 366.6 174.4 367.7 173.1C370 170.6 373.3 167.2 377.2 163.7C381.1 160.2 384.7 157.1 387.2 154.9C388.5 153.8 389.5 152.9 390.3 152.3C390.6 152 390.9 151.8 391.1 151.6C391.5 151.3 391.6 151.3 391.6 151.3Z" fill="#E0E0E0"/>
<path d="M373.4 167.4C373.3 167.4 374.1 165.5 374.9 163.1C375.7 160.7 376.1 158.7 376.2 158.7C376.3 158.7 376.1 160.8 375.2 163.2C374.8 164.4 374.3 165.5 374 166.2C373.7 167 373.4 167.4 373.4 167.4Z" fill="#E0E0E0"/>
<path d="M362.6 182.6C362.6 182.6 362.4 182.4 362 181.9C361.6 181.4 361.1 180.7 360.5 179.9C359.2 178.2 357.4 175.9 355.4 173.4C353.4 170.9 351.6 168.6 350.2 167C349.6 166.2 349 165.6 348.6 165.1C348.2 164.6 348 164.4 348.1 164.4C348.1 164.4 348.3 164.6 348.7 165.1C349.1 165.5 349.7 166.2 350.4 167C351.8 168.6 353.7 170.8 355.7 173.4C357.7 175.9 359.5 178.3 360.7 180C361.3 180.9 361.8 181.6 362.1 182C362.5 182.3 362.7 182.5 362.6 182.6Z" fill="#E0E0E0"/>
<path d="M357.9 176.4C357.8 176.5 356.6 174.9 355.9 172.6C355.4 171 355.4 169.5 355.4 168.8H355.6C355.5 169.1 355.5 169.2 355.4 169.2C355.4 169.2 355.4 169 355.4 168.7H355.6C355.7 169.4 355.8 170.8 356.2 172.4C356.8 174.8 357.9 176.3 357.9 176.4Z" fill="#E0E0E0"/>
<path d="M351.7 168.6C351.7 168.7 351.2 168.1 350.3 167.8C349.4 167.4 348 167.4 346.4 167.5C344.9 167.6 343.5 167.9 342.5 168.1C341.5 168.3 340.9 168.5 340.9 168.5C340.9 168.5 341.5 168.2 342.4 167.9C343.4 167.6 344.8 167.3 346.4 167.2C348 167.1 349.4 167.2 350.4 167.6C351.3 168 351.7 168.6 351.7 168.6Z" fill="#E0E0E0"/>
<path d="M350.2 166.7C350.2 166.8 349.4 166.4 348.1 165.9C346.8 165.4 344.9 165 342.7 164.8C340.6 164.6 338.6 164.8 337.2 165.1C335.8 165.3 335 165.6 335 165.5C335 165.5 335.2 165.4 335.6 165.3C336 165.2 336.5 165 337.2 164.8C338.6 164.5 340.6 164.2 342.7 164.4C344.9 164.6 346.8 165.1 348.1 165.6C348.8 165.9 349.3 166.1 349.6 166.3C350 166.6 350.2 166.7 350.2 166.7Z" fill="#E0E0E0"/>
<path d="M362.6 158.8C362.5 158.8 361.8 156.4 361 153.4C360.2 150.4 359.7 147.9 359.8 147.9C359.9 147.9 360.6 150.3 361.4 153.3C362.1 156.3 362.7 158.7 362.6 158.8Z" fill="#E0E0E0"/>
<path d="M362.7 158.8C362.6 158.8 362.1 157.2 361 155.5C359.9 153.8 358.4 152.9 358.4 152.9C358.4 152.9 358.8 153 359.4 153.4C360 153.8 360.7 154.5 361.3 155.3C362.5 157 362.8 158.8 362.7 158.8Z" fill="#E0E0E0"/>
<path d="M362.6 230.4C362.6 230.4 362.5 229.8 362.2 228.7C361.9 227.6 361.4 226.1 360.5 224.4C358.8 220.9 355.6 216.4 351.6 211.9C349.6 209.6 347.7 207.5 346.1 205.5C344.5 203.5 343.1 201.5 342.1 199.8C341.1 198.1 340.5 196.6 340.1 195.6C339.9 195.1 339.8 194.7 339.7 194.4C339.6 194.1 339.6 194 339.6 194C339.6 194 339.8 194.6 340.2 195.6C340.6 196.6 341.3 198.1 342.3 199.8C343.3 201.5 344.7 203.4 346.3 205.4C347.9 207.4 349.9 209.5 351.8 211.8C355.8 216.3 358.9 220.8 360.6 224.4C361.4 226.2 361.9 227.7 362.2 228.8C362.3 229.3 362.4 229.8 362.4 230.1C362.6 230.3 362.6 230.4 362.6 230.4Z" fill="#E0E0E0"/>
<path d="M382.4 208.1C382.4 208.1 382 208.3 381.4 208.7C380.7 209.1 379.8 209.6 378.7 210.5C377.6 211.3 376.4 212.4 375.2 213.7C374 215 372.7 216.5 371.4 218.2C368.8 221.5 366.4 224.4 364.9 226.7C364.2 227.8 363.6 228.8 363.3 229.5C362.9 230.2 362.8 230.6 362.7 230.5C362.7 230.5 362.7 230.4 362.8 230.2C362.9 230 363 229.7 363.1 229.4C363.4 228.7 363.9 227.7 364.6 226.5C366 224.1 368.4 221.2 371 218C372.3 216.4 373.6 214.8 374.9 213.5C376.2 212.2 377.4 211.1 378.5 210.3C379.6 209.5 380.6 208.9 381.3 208.6C381.6 208.4 381.9 208.3 382.1 208.2C382.3 208.1 382.4 208.1 382.4 208.1Z" fill="#E0E0E0"/>
<path d="M382.8 215.4C382.8 215.5 382 215.6 380.6 215.7C379.3 215.9 377.4 216.1 375.4 216.7C373.4 217.3 371.8 218.3 370.8 219.1C369.7 219.9 369.2 220.6 369.2 220.6C369.2 220.6 369.3 220.4 369.5 220.1C369.7 219.8 370.1 219.4 370.6 218.9C371.6 218 373.3 217 375.3 216.3C377.3 215.7 379.2 215.5 380.6 215.4C381.9 215.3 382.7 215.3 382.8 215.4Z" fill="#E0E0E0"/>
<path d="M369.7 219.8C369.6 219.7 370.6 218.2 371.3 216.2C372 214.2 372.2 212.4 372.3 212.4C372.3 212.4 372.3 212.9 372.3 213.6C372.2 214.3 372 215.3 371.7 216.4C371.3 217.4 370.8 218.3 370.4 218.9C370.1 219.5 369.8 219.8 369.7 219.8Z" fill="#E0E0E0"/>
<path d="M388.8 188.7C388.8 188.7 388.7 188.8 388.4 188.9C388.1 189 387.8 189.2 387.4 189.4C386.9 189.6 386.4 189.8 385.8 190.2C385.2 190.5 384.5 190.8 383.7 191.3C383.3 191.5 382.9 191.7 382.5 192C382.1 192.2 381.7 192.5 381.2 192.8C380.3 193.3 379.4 194 378.5 194.7C376.7 196.1 374.7 197.8 372.9 199.7C371.1 201.6 369.5 203.6 368.1 205.5C367.5 206.5 366.8 207.4 366.3 208.3C366 208.7 365.8 209.2 365.6 209.6C365.4 210 365.2 210.4 365 210.8C364.6 211.6 364.3 212.3 364 212.9C363.7 213.5 363.5 214.1 363.3 214.5C363.1 214.9 363 215.3 362.9 215.5C362.8 215.7 362.7 215.9 362.7 215.9C362.7 215.9 362.7 215.8 362.8 215.5C362.9 215.2 363 214.9 363.2 214.4C363.4 213.9 363.6 213.4 363.9 212.7C364.2 212.1 364.5 211.3 364.9 210.5C365.1 210.1 365.3 209.7 365.5 209.3C365.7 208.9 366 208.4 366.2 208C366.7 207.1 367.3 206.2 368 205.2C369.3 203.3 370.9 201.3 372.8 199.3C374.7 197.4 376.6 195.7 378.5 194.3C379.5 193.6 380.3 193 381.2 192.5C381.6 192.2 382.1 192 382.5 191.7C382.9 191.5 383.3 191.2 383.7 191C384.5 190.6 385.2 190.2 385.8 189.9C386.4 189.6 387 189.4 387.4 189.2C387.8 189 388.2 188.9 388.5 188.8C388.6 188.7 388.8 188.7 388.8 188.7Z" fill="#E0E0E0"/>
<path d="M373.1 199.2C373.1 199.2 373.2 198.6 374 197.9C374.7 197.2 376 196.6 377.5 196.6C379 196.6 380.3 197 381.1 197.3C382 197.6 382.5 197.9 382.5 198C382.5 198.1 381.9 197.9 381 197.6C380.1 197.3 378.9 197 377.5 197C376.1 197 374.9 197.6 374.2 198.2C373.4 198.7 373.2 199.2 373.1 199.2Z" fill="#E0E0E0"/>
<path d="M370.8 201.6C370.7 201.5 371.6 200.3 371.8 198.4C372 196.6 371.5 195.1 371.6 195.1C371.6 195.1 371.8 195.4 372 196C372.2 196.6 372.3 197.5 372.2 198.4C372.1 199.4 371.8 200.2 371.5 200.7C371.1 201.3 370.8 201.6 370.8 201.6Z" fill="#E0E0E0"/>
<path d="M345.4 234C345.9 243.6 348.8 253.3 353.2 263.1H372.5C376.7 253.4 379.4 243.7 379.9 234H345.4Z" fill="#E0E0E0"/>
<path d="M376.7 249.5C376.7 249.6 370.4 249.7 362.5 249.7C354.7 249.7 348.3 249.6 348.3 249.5C348.3 249.4 354.6 249.3 362.5 249.3C370.4 249.3 376.7 249.4 376.7 249.5Z" fill="#FAFAFA"/>
<path d="M376.3 252.9C376.3 253 370.4 253.1 363 253.1C355.7 253.1 349.7 253 349.7 252.9C349.7 252.8 355.6 252.7 363 252.7C370.3 252.8 376.3 252.8 376.3 252.9Z" fill="#FAFAFA"/>
<path d="M353.5 240.3C353.6 240.3 353.7 242.3 353.7 244.7C353.7 247.2 353.6 249.1 353.5 249.1C353.4 249.1 353.3 247.1 353.3 244.7C353.3 242.3 353.4 240.3 353.5 240.3Z" fill="#FAFAFA"/>
<path d="M363.8 240.3C363.9 240.3 364 242.4 364 244.9C364 247.4 363.9 249.5 363.8 249.5C363.7 249.5 363.6 247.4 363.6 244.9C363.6 242.3 363.7 240.3 363.8 240.3Z" fill="#FAFAFA"/>
<path d="M373.5 240.2C373.6 240.2 373.7 242.3 373.7 244.9C373.7 247.5 373.6 249.6 373.5 249.6C373.4 249.6 373.3 247.5 373.3 244.9C373.3 242.3 373.4 240.2 373.5 240.2Z" fill="#FAFAFA"/>
<path d="M379.2 240.3C379.2 240.4 371.8 240.5 362.6 240.5C353.4 240.5 346 240.4 346 240.3C346 240.2 353.4 240.1 362.6 240.1C371.8 240.1 379.2 240.2 379.2 240.3Z" fill="#FAFAFA"/>
<path d="M348.6 6.69995H57.5C52.5 6.69995 48.4 10.8 48.4 15.8V221.4C48.4 226.4 52.5 230.5 57.5 230.5H169.2C169.2 230.5 176.3 252.5 154.3 263.9H258.8C258.8 263.9 233.9 255.4 240.3 230.5H348.6C353.6 230.5 357.7 226.4 357.7 221.4V15.8C357.7 10.8 353.6 6.69995 348.6 6.69995Z" fill="#3A3482"/>
<path d="M206.9 208.9C210.9 214.6 204.7 220.8 199 216.8C198.8 216.7 198.6 216.5 198.5 216.3C194.6 210.6 200.7 204.5 206.4 208.4C206.6 208.5 206.8 208.7 206.9 208.9Z" fill="#263238"/>
<path d="M352.5 192.9H53.2V20.1999C53.2 14.7999 57.5 10.4999 62.9 10.4999H342.8C348.2 10.4999 352.5 14.7999 352.5 20.1999V192.9V192.9Z" fill="white"/>
<path d="M296.6 230.6C296.6 230.7 255.2 230.8 204.1 230.8C153 230.8 111.6 230.7 111.6 230.6C111.6 230.5 153 230.4 204.1 230.4C255.1 230.4 296.6 230.5 296.6 230.6Z" fill="#263238"/>
<path d="M226.4 115.8H180.6V110.1H224L237.9 83H163.1V77.3H243.2C244.4 77.3 245.5 77.8 246.1 78.6C246.7 79.4 246.9 80.4 246.4 81.3L229.6 114.1C229 115.1 227.8 115.8 226.4 115.8Z" fill="#F79AD6"/>
<path d="M214.6 114.1L208.1 111.8L225.1 79.1L231.5 81.3L214.6 114.1Z" fill="#F79AD6"/>
<path d="M199.4 114.1L193 111.8L210 79.1L216.4 81.3L199.4 114.1Z" fill="#F79AD6"/>
<path d="M184.6 114.1L178.2 111.8L195.2 79.1L201.6 81.3L184.6 114.1Z" fill="#F79AD6"/>
<path d="M176.2 102.1L169.8 99.8L180.6 79L187 81.2L176.2 102.1Z" fill="#F79AD6"/>
<path d="M227.6 127.6H185.6C184.2 127.6 182.9 126.9 182.4 125.9L155 73.9H138C136.1 73.9 134.5 72.6 134.5 71C134.5 69.4 136.1 68.1 138 68.1H157.3C158.7 68.1 160 68.8 160.5 69.8L187.9 121.8H227.6C229.5 121.8 231.1 123.1 231.1 124.7C231.1 126.3 229.6 127.6 227.6 127.6Z" fill="#F79AD6"/>
<path d="M227.6 143.4C220.3 143.4 214.4 138.6 214.4 132.6C214.4 126.7 220.3 121.8 227.6 121.8C234.9 121.8 240.8 126.6 240.8 132.6C240.8 138.6 234.9 143.4 227.6 143.4ZM227.6 127.6C224.2 127.6 221.4 129.9 221.4 132.7C221.4 135.5 224.2 137.8 227.6 137.8C231 137.8 233.8 135.5 233.8 132.7C233.8 129.9 231.1 127.6 227.6 127.6Z" fill="#F79AD6"/>
<path d="M193 143.4C185.7 143.4 179.8 138.6 179.8 132.6C179.8 126.7 185.7 121.8 193 121.8C200.3 121.8 206.2 126.6 206.2 132.6C206.1 138.6 200.2 143.4 193 143.4ZM193 127.6C189.6 127.6 186.8 129.9 186.8 132.7C186.8 135.5 189.6 137.8 193 137.8C196.4 137.8 199.2 135.5 199.2 132.7C199.2 129.9 196.4 127.6 193 127.6Z" fill="#F79AD6"/>
<path d="M332.2 62.2H294.4V51.3C294.4 41.2 302.6 33 312.7 33H313.9C324 33 332.2 41.2 332.2 51.3V62.2Z" fill="#D5D5FC"/>
<path d="M313.8 81.7H312.6C302.5 81.7 294.3 73.5 294.3 63.4V62.3H332.1V63.4C332.2 73.5 324 81.7 313.8 81.7Z" fill="white"/>
<path d="M328 67.1H298.6C298 67.1 297.5 66.7 297.5 66.1C297.5 65.6 298 65.1 298.6 65.1H328C328.6 65.1 329.1 65.5 329.1 66.1C329 66.7 328.5 67.1 328 67.1Z" fill="#B1B0FB"/>
<path d="M323.8 71H298.6C298 71 297.5 70.6 297.5 70C297.5 69.5 298 69 298.6 69H323.8C324.4 69 324.9 69.4 324.9 70C324.8 70.6 324.3 71 323.8 71Z" fill="#D5D5FC"/>
<path d="M313.3 74.9H298.6C298 74.9 297.5 74.5 297.5 73.9C297.5 73.4 298 72.9 298.6 72.9H313.3C313.9 72.9 314.4 73.3 314.4 73.9C314.3 74.5 313.8 74.9 313.3 74.9Z" fill="#7ACAC2"/>
<path d="M298.9 76.9L299.3 77.5L300.1 77.6L299.5 78.1L299.7 78.8L298.9 78.5L298.2 78.8L298.4 78.1L297.8 77.6L298.6 77.5L298.9 76.9Z" fill="#F0C62F"/>
<path d="M302.8 76.9L303.2 77.5L304 77.6L303.4 78.1L303.5 78.8L302.8 78.5L302.1 78.8L302.3 78.1L301.7 77.6L302.5 77.5L302.8 76.9Z" fill="#F0C62F"/>
<path d="M306.7 76.9L307.1 77.5L307.9 77.6L307.3 78.1L307.4 78.8L306.7 78.5L306 78.8L306.1 78.1L305.6 77.6L306.4 77.5L306.7 76.9Z" fill="#F0C62F"/>
<path d="M310.6 76.9L311 77.5L311.8 77.6L311.2 78.1L311.3 78.8L310.6 78.5L309.9 78.8L310 78.1L309.4 77.6L310.2 77.5L310.6 76.9Z" fill="#F0C62F"/>
<path d="M315.6 77.6L314.8 77.5L314.4 76.9L314 77.5L313.2 77.6L313.8 78.1L313.7 78.8L314.4 78.5L315.1 78.8L315 78.1L315.6 77.6ZM314.6 78.3H314.4L314 78.5L314.1 78.2V78.1L314 78L313.7 77.8L314.1 77.7H314.2V77.6L314.4 77.3L314.6 77.6V77.7H314.7L315.1 77.8L314.8 78L314.7 78.1V78.2L314.8 78.5L314.6 78.3Z" fill="#F0C62F"/>
<path d="M313.3 48.5C310.8 48.5 308.7 46.6 308.7 44.2C308.7 41.8 310.8 39.9 313.3 39.9C315.8 39.9 317.9 41.8 317.9 44.2C317.9 46.6 315.8 48.5 313.3 48.5ZM313.3 40.9C311.3 40.9 309.7 42.4 309.7 44.3C309.7 46.2 311.3 47.7 313.3 47.7C315.3 47.7 316.9 46.2 316.9 44.3C316.9 42.4 315.3 40.9 313.3 40.9Z" fill="#B1B0FB"/>
<path d="M319.6 54.9H306.9C305 54.9 303.7 53.3001 304.1 51.6001L305.8 45.3C306 44.7 306.5 44.3 307.2 44.3H319.3C320 44.3 320.5 44.7 320.7 45.3L322.4 51.6001C322.9 53.2001 321.5 54.9 319.6 54.9Z" fill="white"/>
<path d="M315.2 47.9C315.7 48.4 315.7 49.2 315.2 49.7L313.3 51.5L311.4 49.7C310.9 49.2 310.9 48.4 311.4 47.9C311.9 47.4 312.8 47.4 313.3 47.9C313.8 47.4 314.7 47.4 315.2 47.9Z" fill="#C83F68"/>
<path d="M124.9 156H91.5V143C91.5 134.8 98.2 128.1 106.4 128.1H110C118.2 128.1 124.9 134.8 124.9 143V156Z" fill="#D5D5FC"/>
<path d="M110 174.5H106.4C98.2 174.5 91.5 167.8 91.5 159.6V156H124.9V159.7C124.9 167.9 118.2 174.5 110 174.5Z" fill="white"/>
<path d="M121.2 160.6H95.2C94.7 160.6 94.3 160.2 94.3 159.7C94.3 159.2 94.7 158.8 95.2 158.8H121.2C121.7 158.8 122.1 159.2 122.1 159.7C122.1 160.2 121.7 160.6 121.2 160.6Z" fill="#B1B0FB"/>
<path d="M121.2 164.3H95.2C94.7 164.3 94.3 163.9 94.3 163.4C94.3 162.9 94.7 162.5 95.2 162.5H121.2C121.7 162.5 122.1 162.9 122.1 163.4C122.1 163.9 121.7 164.3 121.2 164.3Z" fill="#D5D5FC"/>
<path d="M108.2 168H95.2C94.7 168 94.3 167.6 94.3 167.1C94.3 166.6 94.7 166.2 95.2 166.2H108.2C108.7 166.2 109.1 166.6 109.1 167.1C109.1 167.6 108.7 168 108.2 168Z" fill="#7ACAC2"/>
<path d="M95.5 169.9L95.8 170.6L96.5 170.7L96 171.1L96.2 171.8L95.5 171.5L94.9 171.8L95 171.1L94.5 170.7L95.2 170.6L95.5 169.9Z" fill="#F0C62F"/>
<path d="M99 169.9L99.3 170.6L100 170.7L99.5 171.1L99.6 171.8L99 171.5L98.3 171.8L98.4 171.1L97.9 170.7L98.6 170.6L99 169.9Z" fill="#F0C62F"/>
<path d="M102.4 169.9L102.7 170.6L103.4 170.7L102.9 171.1L103 171.8L102.4 171.5L101.8 171.8L101.9 171.1L101.4 170.7L102.1 170.6L102.4 169.9Z" fill="#F0C62F"/>
<path d="M105.8 169.9L106.1 170.6L106.8 170.7L106.3 171.1L106.5 171.8L105.8 171.5L105.2 171.8L105.3 171.1L104.8 170.7L105.5 170.6L105.8 169.9Z" fill="#F0C62F"/>
<path d="M109.3 169.9L109.6 170.6L110.3 170.7L109.8 171.1L109.9 171.8L109.3 171.5L108.6 171.8L108.7 171.1L108.2 170.7L108.9 170.6L109.3 169.9Z" fill="#F0C62F"/>
<path d="M100.6 150.6H100.5C99.3 150.6 98.3 149.6 98.3 148.4V146.8C98.3 145.6 99.3 144.6 100.5 144.6H100.6C101.8 144.6 102.8 145.6 102.8 146.8V148.4C102.9 149.6 101.9 150.6 100.6 150.6Z" fill="#B1B0FB"/>
<path d="M102.3 144.5H98.8V140.6C98.8 139.7 99.5 138.9 100.5 138.9H100.6C101.5 138.9 102.3 139.6 102.3 140.6V144.5Z" fill="white"/>
<path d="M101.8 138.9H99.3V135.2C99.3 134.9 99.4 134.7 99.7 134.6L101.4 133.6C101.6 133.5 101.9 133.6 101.9 133.9V138.9H101.8Z" fill="#C83F68"/>
<path d="M118.1 135.5H107.7V149.8H118.1V135.5Z" fill="#B1B0FB"/>
<path d="M115.5 135.5H105.1V149.8H115.5V135.5Z" fill="white"/>
<path d="M112.2 140.9C112.7 141.4 112.7 142.3 112.2 142.8L110.3 144.7L108.4 142.8C107.9 142.3 107.9 141.4 108.4 140.9C108.9 140.4 109.8 140.4 110.3 140.9C110.8 140.4 111.7 140.4 112.2 140.9Z" fill="#C83F68"/>
<path d="M122.1 63.3H87.5V51.2C87.5 41.9 95 34.4 104.3 34.4H105.4C114.7 34.4 122.2 41.9 122.2 51.2V63.3H122.1Z" fill="#D5D5FC"/>
<path d="M105.3 82.5H104.2C94.9 82.5 87.4 75 87.4 65.7V63.2H122V65.7C122.1 75 114.6 82.5 105.3 82.5Z" fill="white"/>
<path d="M118.2 68.1H91.4C90.9 68.1 90.4 67.7 90.4 67.1C90.4 66.6 90.8 66.1 91.4 66.1H118.3C118.8 66.1 119.3 66.5 119.3 67.1C119.2 67.7 118.8 68.1 118.2 68.1Z" fill="#B1B0FB"/>
<path d="M116.3 71.9H91.3C90.8 71.9 90.3 71.5 90.3 70.9C90.3 70.4 90.7 69.9 91.3 69.9H116.3C116.8 69.9 117.3 70.3 117.3 70.9C117.3 71.5 116.9 71.9 116.3 71.9Z" fill="#D5D5FC"/>
<path d="M104.8 75.8H91.4C90.9 75.8 90.4 75.4 90.4 74.8C90.4 74.3 90.8 73.8 91.4 73.8H104.8C105.3 73.8 105.8 74.2 105.8 74.8C105.8 75.3 105.3 75.8 104.8 75.8Z" fill="#7ACAC2"/>
<path d="M91.7 77.7L92 78.3999L92.8 78.5L92.2 79L92.4 79.7L91.7 79.3L91.1 79.7L91.2 79L90.7 78.5L91.4 78.3999L91.7 77.7Z" fill="#F0C62F"/>
<path d="M95.3 77.7L95.6 78.3999L96.3 78.5L95.8 79L95.9 79.7L95.3 79.3L94.6 79.7L94.7 79L94.2 78.5L94.9 78.3999L95.3 77.7Z" fill="#F0C62F"/>
<path d="M98.8 77.7L99.2 78.3999L99.9 78.5L99.4 79L99.5 79.7L98.8 79.3L98.2 79.7L98.3 79L97.8 78.5L98.5 78.3999L98.8 77.7Z" fill="#F0C62F"/>
<path d="M103.4 78.4999L102.7 78.3999L102.4 77.7999L102.1 78.3999L101.4 78.4999L101.9 78.9999L101.8 79.6999L102.5 79.3999L103.2 79.6999L103.1 78.9999L103.4 78.4999ZM102.5 79.1999H102.3L102 79.3999L102.1 79.0999V78.9999L102 78.8999L101.7 78.6999H102.1H102.2V78.5999L102.4 78.2999L102.6 78.5999V78.6999H102.7H103.1L102.8 78.8999L102.7 78.9999V79.0999L102.8 79.3999L102.5 79.1999Z" fill="#F0C62F"/>
<path d="M107 78.4999L106.3 78.3999L106 77.7999L105.7 78.3999L105 78.4999L105.5 78.9999L105.4 79.6999L106.1 79.3999L106.8 79.6999L106.7 78.9999L107 78.4999ZM106 79.1999H105.8L105.5 79.3999L105.6 79.0999V78.9999L105.5 78.8999L105.2 78.6999H105.6H105.7V78.5999L105.9 78.2999L106.1 78.5999V78.6999H106.2H106.6L106.3 78.8999L106.2 78.9999V79.0999L106.3 79.3999L106 79.1999Z" fill="#F0C62F"/>
<path d="M116.1 46L114.9 47.2C114.5 47.6 113.9 47.6 113.5 47.2L111.4 45.1C111.4 45.1 110.5 47.8 110.5 50.8C110.5 53.8 111.4 56.9 111.4 56.9C111.4 57.4 111 57.9 110.4 57.9H98.9C98.4 57.9 97.9 57.5 97.9 56.9C97.9 56.9 98.8 53.1 98.8 50.6C98.8 48.1 97.9 45.2 97.9 45.2L95.8 47.3C95.4 47.7 94.8 47.7 94.4 47.3L93.2 46.1C92.8 45.7 92.8 45.1 93.2 44.7L95.7 42.2C97 40.9 98.9 40.1 100.8 40.1H108.2C110.1 40.1 111.9 40.9 113.3 42.2L115.8 44.7C116.5 45 116.5 45.6 116.1 46Z" fill="white"/>
<path d="M101.9 40C101.9 41.6 103.2 42.9 104.8 42.9C106.4 42.9 107.7 41.6 107.7 40H101.9Z" fill="#D5D5FC"/>
<path d="M107.1 40C107.1 41.3 106.1 42.3 104.8 42.3C103.5 42.3 102.5 41.3 102.5 40H107.1Z" fill="white"/>
<path d="M331 152.2H297.1V140.4C297.1 131.3 304.4 124 313.5 124H314.5C323.6 124 330.9 131.3 330.9 140.4V152.2H331Z" fill="#D5D5FC"/>
<path d="M314.6 171.1H313.6C304.5 171.1 297.2 163.8 297.2 154.7V152.3H331V154.7C331 163.7 323.7 171.1 314.6 171.1Z" fill="white"/>
<path d="M327.3 157H301C300.5 157 300.1 156.6 300.1 156.1C300.1 155.6 300.5 155.2 301 155.2H327.3C327.8 155.2 328.2 155.6 328.2 156.1C328.2 156.5 327.8 157 327.3 157Z" fill="#B1B0FB"/>
<path d="M321.6 160.7H300.9C300.4 160.7 300 160.3 300 159.8C300 159.3 300.4 158.9 300.9 158.9H321.6C322.1 158.9 322.5 159.3 322.5 159.8C322.6 160.3 322.1 160.7 321.6 160.7Z" fill="#D5D5FC"/>
<path d="M314.1 164.5H300.9C300.4 164.5 300 164.1 300 163.6C300 163.1 300.4 162.7 300.9 162.7H314.1C314.6 162.7 315 163.1 315 163.6C315 164.1 314.6 164.5 314.1 164.5Z" fill="#7ACAC2"/>
<path d="M301.3 166.4L301.6 167L302.3 167.1L301.8 167.6L301.9 168.3L301.3 168L300.6 168.3L300.8 167.6L300.2 167.1L301 167L301.3 166.4Z" fill="#F0C62F"/>
<path d="M304.8 166.4L305.1 167L305.8 167.1L305.3 167.6L305.4 168.3L304.8 168L304.1 168.3L304.2 167.6L303.7 167.1L304.4 167L304.8 166.4Z" fill="#F0C62F"/>
<path d="M308.2 166.4L308.6 167L309.3 167.1L308.8 167.6L308.9 168.3L308.2 168L307.6 168.3L307.7 167.6L307.2 167.1L307.9 167L308.2 166.4Z" fill="#F0C62F"/>
<path d="M311.7 166.4L312 167L312.8 167.1L312.2 167.6L312.4 168.3L311.7 168L311.1 168.3L311.2 167.6L310.7 167.1L311.4 167L311.7 166.4Z" fill="#F0C62F"/>
<path d="M316.2 167.1L315.5 167L315.2 166.4L314.9 167L314.2 167.1L314.7 167.6L314.6 168.3L315.2 168L315.8 168.3L315.7 167.6L316.2 167.1ZM315.3 167.8C315.3 167.8 315.2 167.8 315.3 167.8C315.2 167.8 315.2 167.8 315.1 167.8L314.8 168L314.9 167.7C314.9 167.6 314.9 167.6 314.8 167.5L314.6 167.3H314.9C315 167.3 315 167.3 315 167.2L315.2 166.9L315.4 167.2C315.4 167.3 315.5 167.3 315.5 167.3H315.8L315.6 167.5C315.6 167.5 315.5 167.6 315.5 167.7L315.6 168L315.3 167.8Z" fill="#F0C62F"/>
<path d="M314.1 129.4H317.9L318.3 146.9H316.5L315.5 139.1L314.1 131.9V129.4Z" fill="white"/>
<path d="M314.1 129.4H310.3L310 146.9H311.7L312.7 139.1L314.1 131.9V129.4Z" fill="white"/>
<path d="M317.9 129H310.3C310.2 129 310.1 129.1 310.1 129.2C310.1 129.3 310.2 129.4 310.3 129.4H317.9C318 129.4 318.1 129.3 318.1 129.2C318.1 129.1 318 129 317.9 129Z" fill="#B1B0FB"/>
<path d="M311.7 146.9H309.9C309.8 146.9 309.7 147 309.7 147.1C309.7 147.2 309.8 147.3 309.9 147.3H311.7C311.8 147.3 311.9 147.2 311.9 147.1C311.9 147 311.8 146.9 311.7 146.9Z" fill="#B1B0FB"/>
<path d="M318.2 146.9H316.4C316.3 146.9 316.2 147 316.2 147.1C316.2 147.2 316.3 147.3 316.4 147.3H318.2C318.3 147.3 318.4 147.2 318.4 147.1C318.5 147 318.4 146.9 318.2 146.9Z" fill="#B1B0FB"/>
</svg>
