<svg width="24" height="24" viewBox="0 0 24 24" fill="none" xmlns="http://www.w3.org/2000/svg">
<path d="M23.0005 8.69682L14.3267 0.941822C14.2188 0.845715 14.0854 0.782839 13.9426 0.760759C13.7997 0.738678 13.6536 0.758334 13.5216 0.81736C13.3897 0.876387 13.2777 0.97227 13.199 1.09348C13.1203 1.21468 13.0782 1.35605 13.078 1.50057V5.19057C5.47672 5.21682 -0.44453 14.1906 0.92422 22.7368C0.955529 22.8305 1.00505 22.9171 1.06992 22.9916C1.1348 23.0662 1.21376 23.1271 1.30227 23.171C1.39078 23.2149 1.48709 23.2409 1.58568 23.2475C1.68426 23.2541 1.78317 23.2411 1.87672 23.2093C1.99262 23.1694 2.09697 23.1017 2.18065 23.0122C2.26433 22.9226 2.32478 22.8139 2.35672 22.6956C3.89047 17.0368 8.18797 13.2456 13.078 13.3206V16.9993C13.0782 17.1438 13.1203 17.2852 13.199 17.4064C13.2777 17.5276 13.3897 17.6235 13.5216 17.6825C13.6536 17.7416 13.7997 17.7612 13.9426 17.7391C14.0854 17.7171 14.2188 17.6542 14.3267 17.5581L23.0005 9.81432C23.079 9.74398 23.1419 9.65785 23.1849 9.56158C23.2279 9.4653 23.2502 9.36103 23.2502 9.25557C23.2502 9.15012 23.2279 9.04585 23.1849 8.94957C23.1419 8.85329 23.079 8.76717 23.0005 8.69682ZM14.578 15.3343V12.6231C14.5759 12.5193 14.5529 12.417 14.5104 12.3222C14.4678 12.2275 14.4066 12.1424 14.3305 12.0718C14.2092 11.9632 14.0572 11.8951 13.8955 11.8768C9.13297 11.4418 4.79047 14.1718 2.33422 18.7168C3.00172 11.7793 7.89547 6.42807 13.813 6.69057C14.0119 6.69057 14.2026 6.61155 14.3433 6.4709C14.484 6.33025 14.563 6.13948 14.563 5.94057V3.17682L21.3767 9.25557L14.578 15.3343Z" fill="#9EA5AD"/>
</svg>
