<svg width="89" height="81" viewBox="0 0 89 81" fill="none" xmlns="http://www.w3.org/2000/svg">
<path d="M10.1491 69.7441C11.8145 69.7441 13.1669 71.0923 13.1669 72.7577C13.1669 74.4273 11.8145 75.7755 10.1491 75.7755C8.47953 75.7755 7.13135 74.4273 7.13135 72.7577C7.13135 71.0923 8.47953 69.7441 10.1491 69.7441Z" fill="#34B715"/>
<path d="M19.6416 77.0312C20.7352 77.0312 21.6242 77.9203 21.6242 79.0139C21.6242 80.1116 20.7352 81.0007 19.6416 81.0007C18.5438 81.0007 17.6548 80.1116 17.6548 79.0139C17.6548 77.9203 18.5438 77.0312 19.6416 77.0312Z" fill="#34B715"/>
<path d="M3.98515 11.916C5.68394 11.916 7.06135 13.2934 7.06135 14.9922C7.06135 16.6952 5.68394 18.0726 3.98515 18.0726C2.28218 18.0726 0.904785 16.6952 0.904785 14.9922C0.904785 13.2934 2.28218 11.916 3.98515 11.916Z" fill="#34B715"/>
<path d="M10.9891 5.30273C12.1202 5.30273 13.0343 6.221 13.0343 7.34796C13.0343 8.4791 12.1202 9.39737 10.9891 9.39737C9.85794 9.39737 8.94385 8.4791 8.94385 7.34796C8.94385 6.221 9.85794 5.30273 10.9891 5.30273Z" fill="#34B715"/>
<path d="M85.6408 11.8516C86.9973 11.8516 88.0951 12.9493 88.0951 14.3058C88.0951 15.6624 86.9973 16.7601 85.6408 16.7601C84.2843 16.7601 83.1865 15.6624 83.1865 14.3058C83.1865 12.9493 84.2843 11.8516 85.6408 11.8516Z" fill="#34B715"/>
<path d="M79.7945 1.01562C81.6644 1.01562 83.1796 2.53076 83.1796 4.40069C83.1796 6.27061 81.6644 7.78575 79.7945 7.78575C77.9246 7.78575 76.4053 6.27061 76.4053 4.40069C76.4053 2.53076 77.9246 1.01562 79.7945 1.01562Z" fill="#34B715"/>
<path d="M82.7709 64.8945C83.7685 64.8945 84.5782 65.7043 84.5782 66.6977C84.5782 67.6952 83.7685 68.505 82.7709 68.505C81.7775 68.505 80.9678 67.6952 80.9678 66.6977C80.9678 65.7043 81.7775 64.8945 82.7709 64.8945Z" fill="#34B715"/>
<path d="M71.4162 73.4707C72.9563 73.4707 74.2043 74.7229 74.2043 76.2631C74.2043 77.8033 72.9563 79.0513 71.4162 79.0513C69.876 79.0513 68.6238 77.8033 68.6238 76.2631C68.6238 74.7229 69.876 73.4707 71.4162 73.4707Z" fill="#34B715"/>
<path d="M85.6194 56.1914C86.7923 56.1914 87.7398 57.1431 87.7398 58.3118C87.7398 59.4846 86.7923 60.4321 85.6194 60.4321C84.4465 60.4321 83.499 59.4846 83.499 58.3118C83.499 57.1431 84.4465 56.1914 85.6194 56.1914Z" fill="#34B715"/>
<path d="M83.7052 38.826C83.7052 60.2675 66.3207 77.652 44.8792 77.652C23.4335 77.652 6.05322 60.2675 6.05322 38.826C6.05322 17.3845 23.4335 0 44.8792 0C66.3207 0 83.7052 17.3845 83.7052 38.826V38.826Z" fill="#34B715"/>
<g style="mix-blend-mode:multiply" opacity="0.6">
<path d="M80.2984 38.8314C80.2984 58.3697 64.4583 74.2098 44.9201 74.2098C25.3777 74.2098 9.5376 58.3697 9.5376 38.8314C9.5376 19.2932 25.3777 3.45312 44.9201 3.45312C64.4583 3.45312 80.2984 19.2932 80.2984 38.8314Z" fill="white"/>
<path d="M80.1699 38.8298C80.1699 58.3054 64.3799 74.0913 44.9084 74.0913C25.4328 74.0913 9.64697 58.3054 9.64697 38.8298C9.64697 19.3542 25.4328 3.56836 44.9084 3.56836C64.3799 3.56836 80.1699 19.3542 80.1699 38.8298V38.8298Z" fill="#FDFEFD"/>
<path d="M80.057 38.834C80.057 58.2429 64.3254 73.9786 44.9166 73.9786C25.5077 73.9786 9.77197 58.2429 9.77197 38.834C9.77197 19.4252 25.5077 3.68945 44.9166 3.68945C64.3254 3.68945 80.057 19.4252 80.057 38.834Z" fill="#FCFDFB"/>
<path d="M79.9518 38.8302C79.9518 58.1722 64.2703 73.8537 44.9283 73.8537C25.5821 73.8537 9.90479 58.1722 9.90479 38.8302C9.90479 19.4881 25.5821 3.80664 44.9283 3.80664C64.2703 3.80664 79.9518 19.4881 79.9518 38.8302Z" fill="#FAFBF9"/>
<path d="M79.8119 38.8325C79.8119 58.1119 64.1805 73.7391 44.9052 73.7391C25.6258 73.7391 9.99854 58.1119 9.99854 38.8325C9.99854 19.553 25.6258 3.92578 44.9052 3.92578C64.1805 3.92578 79.8119 19.553 79.8119 38.8325V38.8325Z" fill="#F9FAF7"/>
<path d="M79.7224 38.8308C79.7224 58.0435 64.1494 73.6164 44.9368 73.6164C25.7241 73.6164 10.147 58.0435 10.147 38.8308C10.147 19.6182 25.7241 4.04102 44.9368 4.04102C64.1494 4.04102 79.7224 19.6182 79.7224 38.8308Z" fill="#F7F9F5"/>
<path d="M79.586 38.8328C79.586 57.9787 64.0631 73.5015 44.9173 73.5015C25.7672 73.5015 10.2485 57.9787 10.2485 38.8328C10.2485 19.6869 25.7672 4.16406 44.9173 4.16406C64.0631 4.16406 79.586 19.6869 79.586 38.8328Z" fill="#F6F8F3"/>
<path d="M79.4731 38.8331C79.4731 57.9164 64.0045 73.385 44.9254 73.385C25.8422 73.385 10.3735 57.9164 10.3735 38.8331C10.3735 19.7499 25.8422 4.28125 44.9254 4.28125C64.0045 4.28125 79.4731 19.7499 79.4731 38.8331V38.8331Z" fill="#F4F7F1"/>
<path d="M79.3331 38.8312C79.3331 57.8477 63.9188 73.262 44.9023 73.262C25.8858 73.262 10.4673 57.8477 10.4673 38.8312C10.4673 19.8148 25.8858 4.40039 44.9023 4.40039C63.9188 4.40039 79.3331 19.8148 79.3331 38.8312Z" fill="#F3F6EF"/>
<path d="M79.228 38.8315C79.228 57.7812 63.8637 73.1455 44.9141 73.1455C25.9602 73.1455 10.6001 57.7812 10.6001 38.8315C10.6001 19.8819 25.9602 4.51758 44.9141 4.51758C63.8637 4.51758 79.228 19.8819 79.228 38.8315Z" fill="#F1F4ED"/>
<path d="M79.1151 38.8338C79.1151 57.7209 63.8051 73.0267 44.9222 73.0267C26.0351 73.0267 10.7251 57.7209 10.7251 38.8338C10.7251 19.9467 26.0351 4.63672 44.9222 4.63672C63.8051 4.63672 79.1151 19.9467 79.1151 38.8338V38.8338Z" fill="#F0F3EB"/>
<path d="M78.9788 38.8319C78.9788 57.6522 63.723 72.908 44.9027 72.908C26.0824 72.908 10.8267 57.6522 10.8267 38.8319C10.8267 20.0116 26.0824 4.75586 44.9027 4.75586C63.723 4.75586 78.9788 20.0116 78.9788 38.8319Z" fill="#EEF2E9"/>
<path d="M78.8346 38.8342C78.8346 57.5877 63.6331 72.7934 44.8796 72.7934C26.1261 72.7934 10.9204 57.5877 10.9204 38.8342C10.9204 20.0807 26.1261 4.875 44.8796 4.875C63.6331 4.875 78.8346 20.0807 78.8346 38.8342Z" fill="#EDF1E7"/>
<path d="M78.7493 38.8323C78.7493 57.519 63.5979 72.6704 44.9112 72.6704C26.2203 72.6704 11.0688 57.519 11.0688 38.8323C11.0688 20.1414 26.2203 4.99414 44.9112 4.99414C63.5979 4.99414 78.7493 20.1414 78.7493 38.8323V38.8323Z" fill="#EBF0E5"/>
<path d="M78.6442 38.8345C78.6442 57.4587 63.547 72.5558 44.9229 72.5558C26.2988 72.5558 11.2017 57.4587 11.2017 38.8345C11.2017 20.2104 26.2988 5.11328 44.9229 5.11328C63.547 5.11328 78.6442 20.2104 78.6442 38.8345Z" fill="#EAEEE3"/>
<path d="M78.5391 38.8271C78.5391 57.3844 63.4962 72.4273 44.9389 72.4273C26.3815 72.4273 11.3345 57.3844 11.3345 38.8271C11.3345 20.2697 26.3815 5.22266 44.9389 5.22266C63.4962 5.22266 78.5391 20.2697 78.5391 38.8271Z" fill="#E8EDE1"/>
<path d="M78.4028 38.833C78.4028 57.3235 63.4099 72.3163 44.9194 72.3163C26.4247 72.3163 11.436 57.3235 11.436 38.833C11.436 20.3382 26.4247 5.34961 44.9194 5.34961C63.4099 5.34961 78.4028 20.3382 78.4028 38.833V38.833Z" fill="#E7ECDF"/>
<path d="M78.2742 38.8313C78.2742 57.2593 63.3398 72.1978 44.9119 72.1978C26.4839 72.1978 11.5454 57.2593 11.5454 38.8313C11.5454 20.4034 26.4839 5.46484 44.9119 5.46484C63.3398 5.46484 78.2742 20.4034 78.2742 38.8313Z" fill="#E5EBDD"/>
<path d="M78.1654 38.8333C78.1654 57.1945 63.2812 72.0788 44.92 72.0788C26.5588 72.0788 11.6704 57.1945 11.6704 38.8333C11.6704 20.4722 26.5588 5.58789 44.92 5.58789C63.2812 5.58789 78.1654 20.4722 78.1654 38.8333Z" fill="#E4EADB"/>
<path d="M78.0526 38.8317C78.0526 57.1261 63.2184 71.9603 44.924 71.9603C26.6254 71.9603 11.7954 57.1261 11.7954 38.8317C11.7954 20.5331 26.6254 5.70312 44.924 5.70312C63.2184 5.70312 78.0526 20.5331 78.0526 38.8317V38.8317Z" fill="#E2E8D9"/>
<path d="M77.9162 38.8359C77.9162 57.0677 63.1404 71.8434 44.9087 71.8434C26.6769 71.8434 11.897 57.0677 11.897 38.8359C11.897 20.6041 26.6769 5.82422 44.9087 5.82422C63.1404 5.82422 77.9162 20.6041 77.9162 38.8359Z" fill="#E1E7D7"/>
<path d="M77.8267 38.832C77.8267 56.997 63.101 71.7227 44.936 71.7227C26.7711 71.7227 12.0454 56.997 12.0454 38.832C12.0454 20.6671 26.7711 5.94141 44.936 5.94141C63.101 5.94141 77.8267 20.6671 77.8267 38.832Z" fill="#DFE6D5"/>
<path d="M77.6945 38.8343C77.6945 56.9325 63.019 71.6081 44.9208 71.6081C26.8184 71.6081 12.147 56.9325 12.147 38.8343C12.147 20.7361 26.8184 6.06055 44.9208 6.06055C63.019 6.06055 77.6945 20.7361 77.6945 38.8343V38.8343Z" fill="#DEE5D4"/>
<path d="M77.5816 38.8324C77.5816 56.868 62.9603 71.4852 44.9289 71.4852C26.8933 71.4852 12.272 56.868 12.272 38.8324C12.272 20.7968 26.8933 6.17969 44.9289 6.17969C62.9603 6.17969 77.5816 20.7968 77.5816 38.8324V38.8324Z" fill="#DCE4D2"/>
<path d="M77.4374 38.8347C77.4374 56.8035 62.8704 71.3705 44.9016 71.3705C26.9328 71.3705 12.3657 56.8035 12.3657 38.8347C12.3657 20.8659 26.9328 6.29883 44.9016 6.29883C62.8704 6.29883 77.4374 20.8659 77.4374 38.8347Z" fill="#DBE3D0"/>
<path d="M77.3323 38.8291C77.3323 56.7312 62.8195 71.2481 44.9175 71.2481C27.0113 71.2481 12.4985 56.7312 12.4985 38.8291C12.4985 20.9271 27.0113 6.41016 44.9175 6.41016C62.8195 6.41016 77.3323 20.9271 77.3323 38.8291V38.8291Z" fill="#D9E1CE"/>
<path d="M77.2194 38.8351C77.2194 56.6745 62.7567 71.133 44.9215 71.133C27.0821 71.133 12.6235 56.6745 12.6235 38.8351C12.6235 20.9956 27.0821 6.53711 44.9215 6.53711C62.7567 6.53711 77.2194 20.9956 77.2194 38.8351V38.8351Z" fill="#D8E0CC"/>
<path d="M77.0794 38.8276C77.0794 56.6002 62.671 71.0086 44.8984 71.0086C27.1257 71.0086 12.7173 56.6002 12.7173 38.8276C12.7173 21.0549 27.1257 6.64648 44.8984 6.64648C62.671 6.64648 77.0794 21.0549 77.0794 38.8276Z" fill="#D6DFCA"/>
<path d="M76.9431 38.8335C76.9431 56.5393 62.5889 70.8935 44.8831 70.8935C27.173 70.8935 12.8188 56.5393 12.8188 38.8335C12.8188 21.1276 27.173 6.77344 44.8831 6.77344C62.5889 6.77344 76.9431 21.1276 76.9431 38.8335Z" fill="#D5DEC8"/>
<path d="M76.8614 38.8318C76.8614 56.4751 62.5573 70.775 44.9183 70.775C27.275 70.775 12.9751 56.4751 12.9751 38.8318C12.9751 21.1886 27.275 6.88867 44.9183 6.88867C62.5573 6.88867 76.8614 21.1886 76.8614 38.8318V38.8318Z" fill="#D3DDC6"/>
<path d="M76.7485 38.8321C76.7485 56.4086 62.5029 70.6584 44.9264 70.6584C27.3499 70.6584 13.1001 56.4086 13.1001 38.8321C13.1001 21.2557 27.3499 7.00586 44.9264 7.00586C62.5029 7.00586 76.7485 21.2557 76.7485 38.8321Z" fill="#D2DBC4"/>
<path d="M76.6434 38.8303C76.6434 56.3399 62.4479 70.5355 44.9382 70.5355C27.4243 70.5355 13.2329 56.3399 13.2329 38.8303C13.2329 21.3206 27.4243 7.125 44.9382 7.125C62.4479 7.125 76.6434 21.3206 76.6434 38.8303Z" fill="#D0DAC2"/>
<path d="M76.5112 38.8306C76.5112 56.2776 62.3657 70.4189 44.9228 70.4189C27.4758 70.4189 13.3345 56.2776 13.3345 38.8306C13.3345 21.3835 27.4758 7.24219 44.9228 7.24219C62.3657 7.24219 76.5112 21.3835 76.5112 38.8306V38.8306Z" fill="#CFD9C0"/>
<path d="M76.3827 38.8309C76.3827 56.2112 62.2956 70.2982 44.9154 70.2982C27.5351 70.2982 13.4438 56.2112 13.4438 38.8309C13.4438 21.4506 27.5351 7.35938 44.9154 7.35938C62.2956 7.35938 76.3827 21.4506 76.3827 38.8309Z" fill="#CDD8BE"/>
<path d="M76.2698 38.8309C76.2698 56.1444 62.2328 70.1814 44.9193 70.1814C27.6058 70.1814 13.5688 56.1444 13.5688 38.8309C13.5688 21.5174 27.6058 7.48047 44.9193 7.48047C62.2328 7.48047 76.2698 21.5174 76.2698 38.8309Z" fill="#CCD7BC"/>
<path d="M76.1569 38.8293C76.1569 56.0802 62.1742 70.0629 44.9274 70.0629C27.6765 70.0629 13.6938 56.0802 13.6938 38.8293C13.6938 21.5784 27.6765 7.5957 44.9274 7.5957C62.1742 7.5957 76.1569 21.5784 76.1569 38.8293V38.8293Z" fill="#CAD5BA"/>
<path d="M76.0247 38.8352C76.0247 56.0193 62.0962 69.9478 44.9121 69.9478C27.728 69.9478 13.7954 56.0193 13.7954 38.8352C13.7954 21.6511 27.728 7.72266 44.9121 7.72266C62.0962 7.72266 76.0247 21.6511 76.0247 38.8352Z" fill="#C9D4B8"/>
<path d="M75.9352 38.8297C75.9352 55.947 62.0569 69.8254 44.9395 69.8254C27.8222 69.8254 13.9438 55.947 13.9438 38.8297C13.9438 21.7123 27.8222 7.83398 44.9395 7.83398C62.0569 7.83398 75.9352 21.7123 75.9352 38.8297Z" fill="#C7D3B6"/>
<path d="M75.7911 38.8319C75.7911 55.8825 61.967 69.7066 44.9164 69.7066C27.8617 69.7066 14.0376 55.8825 14.0376 38.8319C14.0376 21.7772 27.8617 7.95312 44.9164 7.95312C61.967 7.95312 75.7911 21.7772 75.7911 38.8319V38.8319Z" fill="#C6D2B4"/>
<path d="M75.6862 38.8281C75.6862 55.816 61.9164 69.5858 44.9284 69.5858C27.9405 69.5858 14.1707 55.816 14.1707 38.8281C14.1707 21.8401 27.9405 8.07031 44.9284 8.07031C61.9164 8.07031 75.6862 21.8401 75.6862 38.8281Z" fill="#C4D1B2"/>
<path d="M75.5418 38.8323C75.5418 55.7535 61.8262 69.4732 44.9051 69.4732C27.9839 69.4732 14.2642 55.7535 14.2642 38.8323C14.2642 21.9111 27.9839 8.19141 44.9051 8.19141C61.8262 8.19141 75.5418 21.9111 75.5418 38.8323Z" fill="#C3D0B0"/>
<path d="M75.4409 38.8284C75.4409 55.6828 61.7754 69.3483 44.921 69.3483C28.0624 69.3483 14.397 55.6828 14.397 38.8284C14.397 21.9699 28.0624 8.30859 44.921 8.30859C61.7754 8.30859 75.4409 21.9699 75.4409 38.8284V38.8284Z" fill="#C1CEAE"/>
<path d="M75.3279 38.8307C75.3279 55.6225 61.7167 69.2337 44.9249 69.2337C28.1332 69.2337 14.522 55.6225 14.522 38.8307C14.522 22.039 28.1332 8.42773 44.9249 8.42773C61.7167 8.42773 75.3279 22.039 75.3279 38.8307Z" fill="#C0CDAC"/>
<path d="M75.1838 38.831C75.1838 55.556 61.6268 69.113 44.9018 69.113C28.1768 69.113 14.6157 55.556 14.6157 38.831C14.6157 22.1061 28.1768 8.54492 44.9018 8.54492C61.6268 8.54492 75.1838 22.1061 75.1838 38.831Z" fill="#BECCAA"/>
<path d="M75.0474 38.8311C75.0474 55.4893 61.5406 68.9962 44.8824 68.9962C28.22 68.9962 14.7173 55.4893 14.7173 38.8311C14.7173 22.1729 28.22 8.66602 44.8824 8.66602C61.5406 8.66602 75.0474 22.1729 75.0474 38.8311V38.8311Z" fill="#BCCBA8"/>
<path d="M74.9579 38.8314C74.9579 55.427 61.5053 68.8796 44.9139 68.8796C28.3183 68.8796 14.8657 55.427 14.8657 38.8314C14.8657 22.2358 28.3183 8.7832 44.9139 8.7832C61.5053 8.7832 74.9579 22.2358 74.9579 38.8314Z" fill="#BBCAA6"/>
<path d="M74.857 38.8315C74.857 55.3603 61.4587 68.7586 44.9299 68.7586C28.4011 68.7586 14.9985 55.3603 14.9985 38.8315C14.9985 22.3026 28.4011 8.9043 44.9299 8.9043C61.4587 8.9043 74.857 22.3026 74.857 38.8315Z" fill="#B9C8A4"/>
<path d="M74.7519 38.8298C74.7519 55.2918 61.4037 68.6401 44.9416 68.6401C28.4754 68.6401 15.1313 55.2918 15.1313 38.8298C15.1313 22.3678 28.4754 9.01953 44.9416 9.01953C61.4037 9.01953 74.7519 22.3678 74.7519 38.8298V38.8298Z" fill="#B8C7A2"/>
<path d="M74.6078 38.8321C74.6078 55.2315 61.3137 68.5213 44.9185 68.5213C28.5191 68.5213 15.2251 55.2315 15.2251 38.8321C15.2251 22.4327 28.5191 9.13867 44.9185 9.13867C61.3137 9.13867 74.6078 22.4327 74.6078 38.8321Z" fill="#B6C6A0"/>
<path d="M74.4636 38.8302C74.4636 55.1628 61.2238 68.4025 44.8912 68.4025C28.5586 68.4025 15.3188 55.1628 15.3188 38.8302C15.3188 22.4975 28.5586 9.25781 44.8912 9.25781C61.2238 9.25781 74.4636 22.4975 74.4636 38.8302Z" fill="#B5C59E"/>
<path d="M74.3783 38.8324C74.3783 55.0983 61.1886 68.2879 44.9228 68.2879C28.6528 68.2879 15.4673 55.0983 15.4673 38.8324C15.4673 22.5666 28.6528 9.37695 44.9228 9.37695C61.1886 9.37695 74.3783 22.5666 74.3783 38.8324V38.8324Z" fill="#B3C49C"/>
<path d="M74.2654 38.8286C74.2654 55.0318 61.13 68.163 44.9309 68.163C28.7277 68.163 15.5923 55.0318 15.5923 38.8286C15.5923 22.6254 28.7277 9.49414 44.9309 9.49414C61.13 9.49414 74.2654 22.6254 74.2654 38.8286V38.8286Z" fill="#B2C39A"/>
<path d="M74.129 38.8309C74.129 54.9673 61.0479 68.0484 44.9114 68.0484C28.775 68.0484 15.6938 54.9673 15.6938 38.8309C15.6938 22.6944 28.775 9.61328 44.9114 9.61328C61.0479 9.61328 74.129 22.6944 74.129 38.8309Z" fill="#B0C198"/>
<path d="M74.0395 38.8331C74.0395 54.9028 61.0127 67.9338 44.943 67.9338C28.8692 67.9338 15.8423 54.9028 15.8423 38.8331C15.8423 22.7635 28.8692 9.73242 44.943 9.73242C61.0127 9.73242 74.0395 22.7635 74.0395 38.8331V38.8331Z" fill="#AFC096"/>
<path d="M73.9032 38.8312C73.9032 54.8383 60.9264 67.8109 44.9235 67.8109C28.9165 67.8109 15.9438 54.8383 15.9438 38.8312C15.9438 22.8242 28.9165 9.85156 44.9235 9.85156C60.9264 9.85156 73.9032 22.8242 73.9032 38.8312V38.8312Z" fill="#ADBF94"/>
<path d="M73.7788 38.8315C73.7788 54.7718 60.8563 67.6943 44.916 67.6943C28.9757 67.6943 16.0532 54.7718 16.0532 38.8315C16.0532 22.8913 28.9757 9.96875 44.916 9.96875C60.8563 9.96875 73.7788 22.8913 73.7788 38.8315Z" fill="#ACBE92"/>
<path d="M73.6503 38.8316C73.6503 54.7051 60.782 67.5734 44.9085 67.5734C29.0309 67.5734 16.1626 54.7051 16.1626 38.8316C16.1626 22.9581 29.0309 10.0898 44.9085 10.0898C60.782 10.0898 73.6503 22.9581 73.6503 38.8316Z" fill="#AABD90"/>
<path d="M73.5452 38.8319C73.5452 54.6428 60.727 67.4568 44.9203 67.4568C29.1094 67.4568 16.2954 54.6428 16.2954 38.8319C16.2954 23.021 29.1094 10.207 44.9203 10.207C60.727 10.207 73.5452 23.021 73.5452 38.8319V38.8319Z" fill="#A9BB8E"/>
<path d="M73.4323 38.8322C73.4323 54.5763 60.6725 67.3402 44.9284 67.3402C29.1843 67.3402 16.4204 54.5763 16.4204 38.8322C16.4204 23.0881 29.1843 10.3242 44.9284 10.3242C60.6725 10.3242 73.4323 23.0881 73.4323 38.8322Z" fill="#A7BA8C"/>
<path d="M73.2881 38.8303C73.2881 54.5077 60.5785 67.2173 44.9011 67.2173C29.2238 67.2173 16.5142 54.5077 16.5142 38.8303C16.5142 23.153 29.2238 10.4434 44.9011 10.4434C60.5785 10.4434 73.2881 23.153 73.2881 38.8303Z" fill="#A6B98A"/>
<path d="M73.1481 38.8326C73.1481 54.4431 60.4885 67.1027 44.878 67.1027C29.2633 67.1027 16.6079 54.4431 16.6079 38.8326C16.6079 23.2179 29.2633 10.5625 44.878 10.5625C60.4885 10.5625 73.1481 23.2179 73.1481 38.8326V38.8326Z" fill="#A4B888"/>
<path d="M73.0352 38.831C73.0352 54.3789 60.4341 66.98 44.8861 66.98C29.3382 66.98 16.7329 54.3789 16.7329 38.831C16.7329 23.283 29.3382 10.6777 44.8861 10.6777C60.4341 10.6777 73.0352 23.283 73.0352 38.831Z" fill="#A3B786"/>
<path d="M72.9613 38.833C72.9613 54.3141 60.4103 66.8652 44.9292 66.8652C29.448 66.8652 16.897 54.3141 16.897 38.833C16.897 23.3518 29.448 10.8008 44.9292 10.8008C60.4103 10.8008 72.9613 23.3518 72.9613 38.833Z" fill="#A1B584"/>
<path d="M72.8484 38.8313C72.8484 54.2457 60.3516 66.7466 44.9373 66.7466C29.5187 66.7466 17.022 54.2457 17.022 38.8313C17.022 23.4128 29.5187 10.916 44.9373 10.916C60.3516 10.916 72.8484 23.4128 72.8484 38.8313V38.8313Z" fill="#A0B482"/>
<path d="M72.7163 38.8314C72.7163 54.1831 60.2737 66.6256 44.922 66.6256C29.5702 66.6256 17.1235 54.1831 17.1235 38.8314C17.1235 23.4796 29.5702 11.0371 44.922 11.0371C60.2737 11.0371 72.7163 23.4796 72.7163 38.8314Z" fill="#9EB380"/>
<path d="M72.5721 38.8336C72.5721 54.1186 60.1796 66.511 44.8947 66.511C29.6097 66.511 17.2173 54.1186 17.2173 38.8336C17.2173 23.5487 29.6097 11.1562 44.8947 11.1562C60.1796 11.1562 72.5721 23.5487 72.5721 38.8336Z" fill="#9DB27F"/>
<path d="M72.4826 38.834C72.4826 54.0522 60.1444 66.3903 44.9262 66.3903C29.7039 66.3903 17.3657 54.0522 17.3657 38.834C17.3657 23.6116 29.7039 11.2734 44.9262 11.2734C60.1444 11.2734 72.4826 23.6116 72.4826 38.834V38.834Z" fill="#9BB17D"/>
<path d="M72.3697 38.8321C72.3697 53.9876 60.0858 66.2715 44.9302 66.2715C29.7746 66.2715 17.4907 53.9876 17.4907 38.8321C17.4907 23.6765 29.7746 11.3926 44.9302 11.3926C60.0858 11.3926 72.3697 23.6765 72.3697 38.8321Z" fill="#9AB07B"/>
<path d="M72.2333 38.8343C72.2333 53.9231 60.0037 66.1569 44.9149 66.1569C29.8261 66.1569 17.5923 53.9231 17.5923 38.8343C17.5923 23.7455 29.8261 11.5117 44.9149 11.5117C60.0037 11.5117 72.2333 23.7455 72.2333 38.8343Z" fill="#98AE79"/>
<path d="M72.148 38.8324C72.148 53.8544 59.9685 66.034 44.9465 66.034C29.9203 66.034 17.7407 53.8544 17.7407 38.8324C17.7407 23.8104 29.9203 11.6309 44.9465 11.6309C59.9685 11.6309 72.148 23.8104 72.148 38.8324V38.8324Z" fill="#97AD77"/>
<path d="M72.0117 38.8327C72.0117 53.7921 59.8822 65.9174 44.927 65.9174C29.9676 65.9174 17.8423 53.7921 17.8423 38.8327C17.8423 23.8733 29.9676 11.748 44.927 11.748C59.8822 11.748 72.0117 23.8733 72.0117 38.8327Z" fill="#95AC75"/>
<path d="M71.8831 38.8311C71.8831 53.7237 59.8121 65.7948 44.9195 65.7948C30.0269 65.7948 17.9517 53.7237 17.9517 38.8311C17.9517 23.9385 30.0269 11.8633 44.9195 11.8633C59.8121 11.8633 71.8831 23.9385 71.8831 38.8311Z" fill="#94AB73"/>
<path d="M71.7546 38.8331C71.7546 53.6589 59.7336 65.6799 44.9078 65.6799C30.0778 65.6799 18.061 53.6589 18.061 38.8331C18.061 24.0073 30.0778 11.9863 44.9078 11.9863C59.7336 11.9863 71.7546 24.0073 71.7546 38.8331V38.8331Z" fill="#92AA71"/>
<path d="M71.6495 38.8315C71.6495 53.5947 59.6828 65.5614 44.9238 65.5614C30.1605 65.5614 18.1938 53.5947 18.1938 38.8315C18.1938 24.0683 30.1605 12.1016 44.9238 12.1016C59.6828 12.1016 71.6495 24.0683 71.6495 38.8315Z" fill="#91A86F"/>
<path d="M71.5407 38.8335C71.5407 53.5299 59.6283 65.4423 44.9319 65.4423C30.2354 65.4423 18.3188 53.5299 18.3188 38.8335C18.3188 24.137 30.2354 12.2246 44.9319 12.2246C59.6283 12.2246 71.5407 24.137 71.5407 38.8335Z" fill="#8FA76D"/>
<path d="M71.3966 38.8318C71.3966 53.4615 59.5343 65.3238 44.9046 65.3238C30.2708 65.3238 18.4126 53.4615 18.4126 38.8318C18.4126 24.2022 30.2708 12.3398 44.9046 12.3398C59.5343 12.3398 71.3966 24.2022 71.3966 38.8318V38.8318Z" fill="#8EA66B"/>
<path d="M71.2524 38.8341C71.2524 53.4012 59.4443 65.2051 44.8815 65.2051C30.3144 65.2051 18.5063 53.4012 18.5063 38.8341C18.5063 24.2671 30.3144 12.459 44.8815 12.459C59.4443 12.459 71.2524 24.2671 71.2524 38.8341Z" fill="#8CA569"/>
<path d="M71.1395 38.8322C71.1395 53.3325 59.3857 65.0863 44.8854 65.0863C30.3852 65.0863 18.6313 53.3325 18.6313 38.8322C18.6313 24.3319 30.3852 12.5781 44.8854 12.5781C59.3857 12.5781 71.1395 24.3319 71.1395 38.8322Z" fill="#8BA467"/>
<path d="M71.0698 38.8345C71.0698 53.268 59.3661 64.9717 44.9326 64.9717C30.495 64.9717 18.7954 53.268 18.7954 38.8345C18.7954 24.401 30.495 12.6973 44.9326 12.6973C59.3661 12.6973 71.0698 24.401 71.0698 38.8345V38.8345Z" fill="#89A265"/>
<path d="M70.9569 38.8326C70.9569 53.2035 59.3075 64.8488 44.9408 64.8488C30.5699 64.8488 18.9204 53.2035 18.9204 38.8326C18.9204 24.4617 30.5699 12.8164 44.9408 12.8164C59.3075 12.8164 70.9569 24.4617 70.9569 38.8326V38.8326Z" fill="#88A163"/>
<path d="M70.8206 38.8348C70.8206 53.1389 59.2254 64.7341 44.9213 64.7341C30.6172 64.7341 19.022 53.1389 19.022 38.8348C19.022 24.5308 30.6172 12.9355 44.9213 12.9355C59.2254 12.9355 70.8206 24.5308 70.8206 38.8348Z" fill="#86A061"/>
<path d="M70.6764 38.8332C70.6764 53.0705 59.1355 64.6157 44.8981 64.6157C30.6608 64.6157 19.1157 53.0705 19.1157 38.8332C19.1157 24.5959 30.6608 13.0508 44.8981 13.0508C59.1355 13.0508 70.6764 24.5959 70.6764 38.8332V38.8332Z" fill="#859F5F"/>
<path d="M70.5869 38.8333C70.5869 53.0038 59.0961 64.4946 44.9255 64.4946C30.7508 64.4946 19.2642 53.0038 19.2642 38.8333C19.2642 24.6586 30.7508 13.1719 44.9255 13.1719C59.0961 13.1719 70.5869 24.6586 70.5869 38.8333V38.8333Z" fill="#839E5D"/>
<path d="M70.4704 38.8316C70.4704 52.9395 59.0338 64.3761 44.9259 64.3761C30.8179 64.3761 19.3813 52.9395 19.3813 38.8316C19.3813 24.7237 30.8179 13.2871 44.9259 13.2871C59.0338 13.2871 70.4704 24.7237 70.4704 38.8316Z" fill="#829D5B"/>
<path d="M70.334 38.8336C70.334 52.8748 58.9517 64.2571 44.9106 64.2571C30.8694 64.2571 19.4829 52.8748 19.4829 38.8336C19.4829 24.7925 30.8694 13.4102 44.9106 13.4102C58.9517 13.4102 70.334 24.7925 70.334 38.8336Z" fill="#809B59"/>
<path d="M70.2524 38.832C70.2524 52.8063 58.9201 64.1386 44.9458 64.1386C30.9672 64.1386 19.6392 52.8063 19.6392 38.832C19.6392 24.8535 30.9672 13.5254 44.9458 13.5254C58.9201 13.5254 70.2524 24.8535 70.2524 38.832V38.832Z" fill="#7F9A57"/>
<path d="M70.1082 38.8362C70.1082 52.748 58.8344 64.0259 44.9226 64.0259C31.0109 64.0259 19.7329 52.748 19.7329 38.8362C19.7329 24.9245 31.0109 13.6465 44.9226 13.6465C58.8344 13.6465 70.1082 24.9245 70.1082 38.8362Z" fill="#7D9955"/>
<path d="M69.9875 38.8324C69.9875 52.6773 58.7637 63.901 44.9188 63.901C31.0738 63.901 19.8501 52.6773 19.8501 38.8324C19.8501 24.9874 31.0738 13.7637 44.9188 13.7637C58.7637 13.7637 69.9875 24.9874 69.9875 38.8324Z" fill="#7B9853"/>
<path d="M69.8631 38.8346C69.8631 52.6128 58.6895 63.7864 44.9113 63.7864C31.1289 63.7864 19.9595 52.6128 19.9595 38.8346C19.9595 25.0523 31.1289 13.8828 44.9113 13.8828C58.6895 13.8828 69.8631 25.0523 69.8631 38.8346V38.8346Z" fill="#7A9751"/>
<path d="M69.7502 38.833C69.7502 52.5486 58.635 63.6638 44.9194 63.6638C31.2038 63.6638 20.0845 52.5486 20.0845 38.833C20.0845 25.1174 31.2038 13.998 44.9194 13.998C58.635 13.998 69.7502 25.1174 69.7502 38.833Z" fill="#78954F"/>
<path d="M69.6451 38.835C69.6451 52.4838 58.58 63.5489 44.9312 63.5489C31.2824 63.5489 20.2173 52.4838 20.2173 38.835C20.2173 25.1862 31.2824 14.1211 44.9312 14.1211C58.58 14.1211 69.6451 25.1862 69.6451 38.835Z" fill="#77944D"/>
<path d="M69.5009 38.8334C69.5009 52.4154 58.4901 63.4304 44.9081 63.4304C31.3219 63.4304 20.311 52.4154 20.311 38.8334C20.311 25.2514 31.3219 14.2363 44.9081 14.2363C58.4901 14.2363 69.5009 25.2514 69.5009 38.8334V38.8334Z" fill="#75934B"/>
<path d="M69.3609 38.8354C69.3609 52.3548 58.4002 63.3113 44.8849 63.3113C31.3655 63.3113 20.4048 52.3548 20.4048 38.8354C20.4048 25.316 31.3655 14.3594 44.8849 14.3594C58.4002 14.3594 69.3609 25.316 69.3609 38.8354Z" fill="#749249"/>
<path d="M69.248 38.8337C69.248 52.2863 58.3415 63.1928 44.8889 63.1928C31.4363 63.1928 20.5298 52.2863 20.5298 38.8337C20.5298 25.3811 31.4363 14.4746 44.8889 14.4746C58.3415 14.4746 69.248 25.3811 69.248 38.8337Z" fill="#729147"/>
<path d="M69.1664 38.836C69.1664 52.2218 58.3141 63.0741 44.9283 63.0741C31.5383 63.0741 20.686 52.2218 20.686 38.836C20.686 25.4502 31.5383 14.5938 44.9283 14.5938C58.3141 14.5938 69.1664 25.4502 69.1664 38.836V38.836Z" fill="#719045"/>
<path d="M69.0613 38.8321C69.0613 52.1554 58.2591 62.9533 44.94 62.9533C31.6168 62.9533 20.8188 52.1554 20.8188 38.8321C20.8188 25.5089 31.6168 14.7109 44.94 14.7109C58.2591 14.7109 69.0613 25.5089 69.0613 38.8321Z" fill="#6F8E43"/>
<path d="M68.9249 38.8344C68.9249 52.0908 58.1812 62.8387 44.9247 62.8387C31.6683 62.8387 20.9204 52.0908 20.9204 38.8344C20.9204 25.578 31.6683 14.8301 44.9247 14.8301C58.1812 14.8301 68.9249 25.578 68.9249 38.8344Z" fill="#6E8D41"/>
<path d="M68.7771 38.8325C68.7771 52.0222 58.0835 62.7158 44.8938 62.7158C31.7 62.7158 21.0063 52.0222 21.0063 38.8325C21.0063 25.6429 31.7 14.9492 44.8938 14.9492C58.0835 14.9492 68.7771 25.6429 68.7771 38.8325V38.8325Z" fill="#6C8C3F"/>
<path d="M68.6954 38.8367C68.6954 51.9638 58.0519 62.6031 44.929 62.6031C31.802 62.6031 21.1626 51.9638 21.1626 38.8367C21.1626 25.7097 31.802 15.0703 44.929 15.0703C58.0519 15.0703 68.6954 25.7097 68.6954 38.8367Z" fill="#6B8B3D"/>
<path d="M68.5747 38.8312C68.5747 51.8914 57.9896 62.4765 44.9293 62.4765C31.8691 62.4765 21.2798 51.8914 21.2798 38.8312C21.2798 25.7709 31.8691 15.1816 44.9293 15.1816C57.9896 15.1816 68.5747 25.7709 68.5747 38.8312Z" fill="#698A3B"/>
<path d="M68.4384 38.8351C68.4384 51.8286 57.9033 62.3636 44.9098 62.3636C31.9122 62.3636 21.3813 51.8286 21.3813 38.8351C21.3813 25.8417 31.9122 15.3066 44.9098 15.3066C57.9033 15.3066 68.4384 25.8417 68.4384 38.8351V38.8351Z" fill="#688839"/>
<path d="M68.3567 38.8335C68.3567 51.7644 57.8759 62.2451 44.9492 62.2451C32.0184 62.2451 21.5376 51.7644 21.5376 38.8335C21.5376 25.9026 32.0184 15.4219 44.9492 15.4219C57.8759 15.4219 68.3567 25.9026 68.3567 38.8335Z" fill="#668737"/>
<path d="M68.2089 38.8355C68.2089 51.6996 57.7824 62.1261 44.9183 62.1261C32.0542 62.1261 21.6235 51.6996 21.6235 38.8355C21.6235 25.9714 32.0542 15.5449 44.9183 15.5449C57.7824 15.5449 68.2089 25.9714 68.2089 38.8355Z" fill="#658635"/>
<path d="M68.096 38.8339C68.096 51.6312 57.7196 62.0076 44.9223 62.0076C32.1208 62.0076 21.7485 51.6312 21.7485 38.8339C21.7485 26.0366 32.1208 15.6602 44.9223 15.6602C57.7196 15.6602 68.096 26.0366 68.096 38.8339V38.8339Z" fill="#638533"/>
<path d="M67.9674 38.8361C67.9674 51.5708 57.6453 61.8888 44.9148 61.8888C32.1801 61.8888 21.8579 51.5708 21.8579 38.8361C21.8579 26.1015 32.1801 15.7793 44.9148 15.7793C57.6453 15.7793 67.9674 26.1015 67.9674 38.8361Z" fill="#628431"/>
<path d="M67.8545 38.8342C67.8545 51.5022 57.5866 61.77 44.9187 61.77C32.2508 61.77 21.9829 51.5022 21.9829 38.8342C21.9829 26.1663 32.2508 15.8984 44.9187 15.8984C57.5866 15.8984 67.8545 26.1663 67.8545 38.8342Z" fill="#60822F"/>
<path d="M67.7536 38.8365C67.7536 51.4376 57.5358 61.6554 44.9346 61.6554C32.3335 61.6554 22.1157 51.4376 22.1157 38.8365C22.1157 26.2354 32.3335 16.0176 44.9346 16.0176C57.5358 16.0176 67.7536 26.2354 67.7536 38.8365V38.8365Z" fill="#5F812D"/>
<path d="M67.6094 38.8327C67.6094 51.367 57.4459 61.5305 44.9115 61.5305C32.373 61.5305 22.2095 51.367 22.2095 38.8327C22.2095 26.2941 32.373 16.1348 44.9115 16.1348C57.4459 16.1348 67.6094 26.2941 67.6094 38.8327V38.8327Z" fill="#5D802B"/>
<path d="M67.4653 38.8349C67.4653 51.3067 57.356 61.4159 44.8842 61.4159C32.4125 61.4159 22.3032 51.3067 22.3032 38.8349C22.3032 26.3632 32.4125 16.2539 44.8842 16.2539C57.356 16.2539 67.4653 26.3632 67.4653 38.8349Z" fill="#5C7F2A"/>
<path d="M67.3523 38.8313C67.3523 51.2363 57.2973 61.2955 44.8924 61.2955C32.4874 61.2955 22.4282 51.2363 22.4282 38.8313C22.4282 26.4264 32.4874 16.3672 44.8924 16.3672C57.2973 16.3672 67.3523 26.4264 67.3523 38.8313V38.8313Z" fill="#5A7E28"/>
<path d="M67.2707 38.8353C67.2707 51.1735 57.2657 61.1784 44.9276 61.1784C32.5852 61.1784 22.5845 51.1735 22.5845 38.8353C22.5845 26.4929 32.5852 16.4922 44.9276 16.4922C57.2657 16.4922 67.2707 26.4929 67.2707 38.8353V38.8353Z" fill="#597D26"/>
<path d="M67.1697 38.8317C67.1697 51.1073 57.2191 61.0579 44.9435 61.0579C32.668 61.0579 22.7173 51.1073 22.7173 38.8317C22.7173 26.5561 32.668 16.6055 44.9435 16.6055C57.2191 16.6055 67.1697 26.5561 67.1697 38.8317Z" fill="#577B24"/>
<path d="M67.0256 38.8357C67.0256 51.0444 57.1292 60.9408 44.9204 60.9408C32.7116 60.9408 22.811 51.0444 22.811 38.8357C22.811 26.6269 32.7116 16.7305 44.9204 16.7305C57.1292 16.7305 67.0256 26.6269 67.0256 38.8357Z" fill="#567A22"/>
<path d="M66.8814 38.8301C66.8814 50.9721 57.0351 60.8184 44.8931 60.8184C32.7469 60.8184 22.9048 50.9721 22.9048 38.8301C22.9048 26.684 32.7469 16.8418 44.8931 16.8418C57.0351 16.8418 66.8814 26.684 66.8814 38.8301V38.8301Z" fill="#547920"/>
<path d="M66.7998 38.8382C66.7998 50.9176 57.0119 60.7097 44.9325 60.7097C32.8531 60.7097 23.061 50.9176 23.061 38.8382C23.061 26.7589 32.8531 16.9668 44.9325 16.9668C57.0119 16.9668 66.7998 26.7589 66.7998 38.8382Z" fill="#53781E"/>
<path d="M66.679 38.8344C66.679 50.847 56.9412 60.5848 44.9286 60.5848C32.916 60.5848 23.1782 50.847 23.1782 38.8344C23.1782 26.8218 32.916 17.084 44.9286 17.084C56.9412 17.084 66.679 26.8218 66.679 38.8344Z" fill="#51771C"/>
<path d="M66.539 38.8367C66.539 50.7825 56.8513 60.4702 44.9055 60.4702C32.9555 60.4702 23.272 50.7825 23.272 38.8367C23.272 26.8908 32.9555 17.2031 44.9055 17.2031C56.8513 17.2031 66.539 26.8908 66.539 38.8367V38.8367Z" fill="#50751A"/>
<path d="M66.4261 38.8272C66.4261 50.7104 56.7927 60.3397 44.9136 60.3397C33.0304 60.3397 23.397 50.7104 23.397 38.8272C23.397 26.944 33.0304 17.3105 44.9136 17.3105C56.7927 17.3105 66.4261 26.944 66.4261 38.8272Z" fill="#4E7418"/>
<path d="M66.321 38.837C66.321 50.6534 56.7418 60.2326 44.9254 60.2326C33.109 60.2326 23.5298 50.6534 23.5298 38.837C23.5298 27.0206 33.109 17.4414 44.9254 17.4414C56.7418 17.4414 66.321 27.0206 66.321 38.837Z" fill="#4D7316"/>
<path d="M66.2003 38.8276C66.2003 50.5772 56.6754 60.1063 44.9257 60.1063C33.1719 60.1063 23.647 50.5772 23.647 38.8276C23.647 27.0779 33.1719 17.5488 44.9257 17.5488C56.6754 17.5488 66.2003 27.0779 66.2003 38.8276V38.8276Z" fill="#4B7214"/>
<path d="M66.0603 38.8354C66.0603 50.5225 56.5855 59.9931 44.9026 59.9931C33.2156 59.9931 23.7407 50.5225 23.7407 38.8354C23.7407 27.1484 33.2156 17.6777 44.9026 17.6777C56.5855 17.6777 66.0603 27.1484 66.0603 38.8354Z" fill="#4A7112"/>
<path d="M65.963 38.826C65.963 50.4462 56.5424 59.8668 44.9222 59.8668C33.3019 59.8668 23.8813 50.4462 23.8813 38.826C23.8813 27.2057 33.3019 17.7852 44.9222 17.7852C56.5424 17.7852 65.963 27.2057 65.963 38.826Z" fill="#486F10"/>
<path d="M65.8501 38.8322C65.8501 50.3856 56.4838 59.752 44.9303 59.752C33.3727 59.752 24.0063 50.3856 24.0063 38.8322C24.0063 27.2787 33.3727 17.9082 44.9303 17.9082C56.4838 17.9082 65.8501 27.2787 65.8501 38.8322V38.8322Z" fill="#476E0E"/>
<path d="M65.7137 38.8322C65.7137 50.3231 56.3975 59.6351 44.9108 59.6351C33.42 59.6351 24.1079 50.3231 24.1079 38.8322C24.1079 27.3414 33.42 18.0293 44.9108 18.0293C56.3975 18.0293 65.7137 27.3414 65.7137 38.8322Z" fill="#456D0C"/>
<path d="M65.5696 38.8325C65.5696 50.2566 56.3118 59.5186 44.8877 59.5186C33.4636 59.5186 24.2017 50.2566 24.2017 38.8325C24.2017 27.4085 33.4636 18.1465 44.8877 18.1465C56.3118 18.1465 65.5696 27.4085 65.5696 38.8325Z" fill="#446C0A"/>
<path d="M65.4608 38.8326C65.4608 50.1899 56.2531 59.3976 44.8958 59.3976C33.5344 59.3976 24.3267 50.1899 24.3267 38.8326C24.3267 27.4753 33.5344 18.2676 44.8958 18.2676C56.2531 18.2676 65.4608 27.4753 65.4608 38.8326V38.8326Z" fill="#426B08"/>
<path d="M65.3792 38.8309C65.3792 50.1256 56.2216 59.2791 44.931 59.2791C33.6364 59.2791 24.4829 50.1256 24.4829 38.8309C24.4829 27.5363 33.6364 18.3828 44.931 18.3828C56.2216 18.3828 65.3792 27.5363 65.3792 38.8309Z" fill="#416A06"/>
<path d="M65.2743 38.8293C65.2743 50.0572 56.1751 59.1564 44.9472 59.1564C33.7193 59.1564 24.616 50.0572 24.616 38.8293C24.616 27.6014 33.7193 18.498 44.9472 18.498C56.1751 18.498 65.2743 27.6014 65.2743 38.8293Z" fill="#3F6804"/>
<path d="M65.1302 38.8372C65.1302 49.9983 56.081 59.0474 44.9199 59.0474C33.7588 59.0474 24.7097 49.9983 24.7097 38.8372C24.7097 27.6761 33.7588 18.627 44.9199 18.627C56.081 18.627 65.1302 27.6761 65.1302 38.8372V38.8372Z" fill="#3E6702"/>
<path d="M64.986 38.8277C64.986 49.9221 55.9911 58.9211 44.8968 58.9211C33.7983 58.9211 24.8035 49.9221 24.8035 38.8277C24.8035 27.7292 33.7983 18.7344 44.8968 18.7344C55.9911 18.7344 64.986 27.7292 64.986 38.8277Z" fill="#3C6600"/>
</g>
<path d="M75.8198 38.8288C75.8198 55.9043 61.979 69.7493 44.9035 69.7493C27.8279 69.7493 13.9829 55.9043 13.9829 38.8288C13.9829 21.7532 27.8279 7.9082 44.9035 7.9082C61.979 7.9082 75.8198 21.7532 75.8198 38.8288V38.8288Z" fill="white"/>
<path d="M60.6262 34.1809L46.2762 48.5309L43.8929 50.9101C42.0438 52.7591 39.0469 52.7591 37.1979 50.9101L30.1397 43.852C28.5286 42.245 28.5578 39.6196 30.219 38.0418C31.8218 36.5267 34.3679 36.6227 35.929 38.1837L40.5454 42.8001L54.8954 28.4501C56.4773 26.8682 59.0443 26.8682 60.6262 28.4501C62.2081 30.032 62.2081 32.599 60.6262 34.1809V34.1809Z" fill="#34B715"/>
<g style="mix-blend-mode:multiply" opacity="0.5">
<path d="M60.5717 34.1809L46.2217 48.5309L43.8384 50.9101C41.9894 52.7591 38.9925 52.7591 37.1434 50.9101L30.0853 43.852C28.4741 42.245 28.5034 39.6196 30.1646 38.0418C31.7674 36.5267 34.3135 36.6227 35.8745 38.1837L40.4909 42.8001L54.8409 28.4501C56.4229 26.8682 58.9898 26.8682 60.5717 28.4501C62.1537 30.032 62.1537 32.599 60.5717 34.1809V34.1809Z" fill="#75AA31"/>
<path d="M60.5425 34.3087L46.1716 48.6796L43.8008 51.0546C41.9601 52.8911 38.9758 52.8911 37.1351 51.0546L30.0769 43.9965C28.4783 42.3937 28.5034 39.7808 30.1604 38.2156C31.7549 36.7046 34.2884 36.8006 35.8411 38.3533L40.4659 42.978L54.8368 28.6071C56.4145 27.0294 58.969 27.0294 60.5425 28.6071C62.1161 30.1807 62.1161 32.7352 60.5425 34.3087Z" fill="#7CAE3C"/>
<path d="M60.5128 34.4403L46.1211 48.8362L43.7586 51.1987C41.9263 53.0269 38.9586 53.0269 37.1262 51.1987L30.0723 44.1447C28.4778 42.5503 28.507 39.9499 30.1557 38.3889C31.7418 36.8862 34.2629 36.9781 35.8114 38.5266L40.4403 43.1597L54.8363 28.7638C56.4057 27.1985 58.9476 27.1985 60.5128 28.7638C62.0822 30.3332 62.0822 32.8751 60.5128 34.4403V34.4403Z" fill="#84B347"/>
<path d="M60.4815 34.5704L46.0689 48.9871L43.719 51.3371C41.895 53.1569 38.9398 53.1569 37.1158 51.3371L30.066 44.2873C28.4799 42.7012 28.5091 40.1092 30.1495 38.5565C31.7272 37.0622 34.2358 37.154 35.776 38.6942L40.4174 43.3356L54.8342 28.9188C56.391 27.3578 58.9205 27.3578 60.4815 28.9188C62.0426 30.4799 62.0426 33.0093 60.4815 34.5704V34.5704Z" fill="#8BB752"/>
<path d="M60.433 34.6989L45.9911 49.1366H45.9953L43.6537 51.4782C41.8422 53.2897 38.8996 53.2897 37.084 51.4782L30.0383 44.4326C28.4606 42.8506 28.4856 40.2753 30.1177 38.731C31.6912 37.2409 34.1872 37.3327 35.7233 38.8645L40.3688 43.5143L54.8065 29.0766C56.3592 27.5239 58.8761 27.5239 60.433 29.0766C61.9857 30.6293 61.9857 33.1462 60.433 34.6989V34.6989Z" fill="#92BC5C"/>
<path d="M60.3955 34.8368L45.9328 49.2953L43.6079 51.6244C41.8006 53.4275 38.8746 53.4275 37.0673 51.6244L30.0259 44.5829C28.4523 43.0094 28.4815 40.4466 30.1052 38.9064C31.6704 37.4246 34.1581 37.5165 35.6816 39.0441L40.3355 43.6981L54.7982 29.2395C56.3426 27.691 58.8469 27.691 60.3955 29.2395C61.9398 30.7839 61.9398 33.2883 60.3955 34.8368V34.8368Z" fill="#99C067"/>
<path d="M60.3642 34.9664L45.8806 49.45L43.5682 51.7665C41.7693 53.5613 38.8558 53.5613 37.0569 51.7665L30.0196 44.7292C28.4544 43.164 28.4836 40.6096 30.0989 39.0819C31.6558 37.6043 34.1309 37.6962 35.6461 39.2155L40.3125 43.8778L54.792 29.3942C56.3321 27.8582 58.824 27.8582 60.3642 29.3942C61.9044 30.9344 61.9044 33.4304 60.3642 34.9664V34.9664Z" fill="#A1C572"/>
<path d="M60.3344 35.0964L45.8299 49.5967V49.6009L43.5259 51.9049C41.7395 53.6913 38.8386 53.6913 37.048 51.9049L30.0149 44.8718C28.458 43.3149 28.4831 40.773 30.0942 39.2495C31.6427 37.7803 34.1053 37.8721 35.6163 39.3831L40.2869 44.0537L54.7914 29.5493C56.3232 28.0174 58.8025 28.0174 60.3344 29.5493C61.8662 31.0811 61.8662 33.5646 60.3344 35.0964V35.0964Z" fill="#A8C97D"/>
<path d="M60.3031 35.227L45.7778 49.7523L43.4863 52.0479C41.704 53.826 38.8198 53.826 37.0375 52.0479L30.0086 45.0149C28.4601 43.4663 28.4851 40.9411 30.0879 39.4218C31.6281 37.9609 34.0782 38.0527 35.5808 39.5553L40.2598 44.2343L54.7893 29.709C56.3128 28.1855 58.7796 28.1855 60.3031 29.709C61.8266 31.2325 61.8266 33.7035 60.3031 35.227V35.227Z" fill="#AFCE88"/>
<path d="M60.2796 35.3595L45.7292 49.9098L43.4461 52.193C41.6763 53.9627 38.8047 53.9627 37.0307 52.193L30.006 45.164C28.4616 43.6239 28.4867 41.107 30.0811 39.6002C31.6171 38.1435 34.0547 38.2353 35.5532 39.7337L40.2405 44.4169L54.7867 29.8707C56.3018 28.3556 58.7603 28.3556 60.2796 29.8707C61.7947 31.3859 61.7947 33.8443 60.2796 35.3595V35.3595Z" fill="#B6D293"/>
<path d="M60.2405 35.4934L45.6692 50.0646L43.3986 52.3353C41.6331 54.0967 38.7781 54.0967 37.0125 52.3353L29.9919 45.3105C28.4559 43.7787 28.481 41.2743 30.0671 39.7717C31.5989 38.3233 34.024 38.4152 35.5099 39.9053L40.2056 44.5968L54.7768 30.0297C56.2836 28.5187 58.7295 28.5187 60.2405 30.0297C61.7473 31.5365 61.7473 33.9824 60.2405 35.4934V35.4934Z" fill="#BED79D"/>
<path d="M60.2019 35.6211L45.6098 50.2132L43.3475 52.4754C41.5945 54.2285 38.752 54.2285 36.9948 52.4754L29.9742 45.4549C28.4507 43.9272 28.4758 41.4354 30.0535 39.9411C31.577 38.5011 33.9896 38.5929 35.4713 40.0747L40.1712 44.7745L54.7633 30.1824C56.2659 28.684 58.6993 28.684 60.2019 30.1824C61.7045 31.685 61.7045 34.1184 60.2019 35.6211V35.6211Z" fill="#C5DBA8"/>
<path d="M60.1347 35.755L45.5217 50.368L43.272 52.6177C41.5272 54.3624 38.6973 54.3624 36.9484 52.6177L29.932 45.6013C28.4127 44.082 28.4378 41.6027 30.0113 40.1168C31.5265 38.6809 33.9265 38.7728 35.3999 40.2462L40.1123 44.9544L54.7252 30.3414C56.2195 28.8471 58.6404 28.8471 60.1347 30.3414C61.6289 31.8357 61.6289 34.2607 60.1347 35.755Z" fill="#CCE0B3"/>
<path d="M60.1075 35.8875L45.4695 50.5255L43.2323 52.7627C41.4918 54.4991 38.6785 54.4991 36.938 52.7627L29.9258 45.7505C28.4148 44.2395 28.4399 41.7728 30.0051 40.291C31.5119 38.8635 33.8994 38.9553 35.3686 40.4204L40.0851 45.1411L54.719 30.5031C56.2091 29.0172 58.6174 29.0172 60.1075 30.5031C61.5935 31.989 61.5935 34.4016 60.1075 35.8875V35.8875Z" fill="#D3E4BE"/>
<path d="M60.0689 36.0153L45.41 50.6742L43.1812 52.9031C41.4531 54.6311 38.6524 54.6311 36.9202 52.9031L29.9122 45.895C28.4096 44.3882 28.4346 41.934 29.9873 40.4606C31.49 39.0414 33.8649 39.1332 35.3258 40.5941L40.0507 45.319L54.7096 30.6601C56.1913 29.1784 58.5872 29.1784 60.0689 30.6601C61.5465 32.1377 61.5465 34.5377 60.0689 36.0153V36.0153Z" fill="#DBE9C9"/>
<path d="M60.0407 36.15L45.361 50.8298L43.1446 53.0461C41.425 54.7658 38.6326 54.7658 36.9129 53.0461L29.9091 46.0423C28.4106 44.5438 28.4357 42.1021 29.9842 40.637C31.4785 39.222 33.8451 39.3139 35.2976 40.7664L40.0309 45.4996L54.7106 30.8199C56.1799 29.3465 58.5673 29.3465 60.0407 30.8199C61.5141 32.2891 61.5141 34.6766 60.0407 36.15V36.15Z" fill="#E2EDD4"/>
<path d="M60.0094 36.2769L45.3088 50.9817L43.1008 53.1855C41.3895 54.8969 38.6138 54.8969 36.9025 53.1855L29.9028 46.1859C28.4127 44.6958 28.4378 42.2624 29.9779 40.8056C31.4639 39.4032 33.818 39.4909 35.2622 40.935L40.0037 45.6766L54.7044 30.9718C56.1694 29.5068 58.5444 29.5068 60.0094 30.9718C61.4745 32.4369 61.4745 34.8119 60.0094 36.2769V36.2769Z" fill="#E9F2DE"/>
<path d="M59.9781 36.4077L45.2567 51.1292L43.0612 53.3247C41.3582 55.0277 38.595 55.0277 36.8921 53.3247L29.8966 46.3292C28.4148 44.8474 28.4398 42.4265 29.9717 40.9782C31.4493 39.5799 33.7908 39.6676 35.2308 41.1034L39.9766 45.8533L54.7023 31.1277C56.159 29.671 58.5214 29.671 59.9781 31.1277C61.439 32.5844 61.439 34.9468 59.9781 36.4077V36.4077Z" fill="#F0F6E9"/>
<path d="M59.9463 36.5414L45.1998 51.2879L43.0168 53.4709C41.3222 55.1655 38.5716 55.1655 36.877 53.4709L29.8856 46.4795C28.408 45.002 28.4331 42.5978 29.9607 41.1536C31.43 39.7637 33.759 39.8513 35.1907 41.2788L39.9448 46.0371L54.6913 31.2906C56.1439 29.838 58.4938 29.838 59.9463 31.2906C61.3947 32.7389 61.3947 35.093 59.9463 36.5414V36.5414Z" fill="#F8FBF4"/>
<path d="M59.9077 36.6722L45.1403 51.4396L42.9657 53.61C41.2794 55.2963 38.5455 55.2963 36.8592 53.61L29.872 46.6187C28.4028 45.1536 28.4279 42.7578 29.943 41.322C31.408 39.9404 33.7246 40.028 35.1479 41.4514L39.9145 46.2138L54.6819 31.4464C56.1261 30.0022 58.4635 30.0022 59.9077 31.4464C61.3519 32.8864 61.3519 35.228 59.9077 36.6722V36.6722Z" fill="white"/>
</g>
</svg>
