<svg width="100" height="100" viewBox="0 0 100 100" fill="none" xmlns="http://www.w3.org/2000/svg">
<path fill-rule="evenodd" clip-rule="evenodd" d="M67.9 29.5C65.4 36.2 60.3 41.5 53.7 44.1H74.8V29.9C74.8 29.7 74.6 29.5 74.4 29.5H67.9Z" fill="#CA3060"/>
<path fill-rule="evenodd" clip-rule="evenodd" d="M35.2 44.1C28.6 41.5 23.4 36.2 21 29.5H15.4C11.4 29.5 8.10001 32.8 8.10001 36.8C8.10001 40.8 11.4 44.1 15.4 44.1H35.2V44.1Z" fill="#CA3060"/>
<path fill-rule="evenodd" clip-rule="evenodd" d="M59.1 6.2C51 -1.9 37.9 -1.9 29.9 6.2C21.9 14.3 21.8 27.4 29.9 35.4C38 43.4 51.1 43.5 59.1 35.4C63 31.5 65.2 26.3 65.2 20.8C65.1 15.4 63 10.1 59.1 6.2Z" fill="#CA3060"/>
<path fill-rule="evenodd" clip-rule="evenodd" d="M91.4 66.8H79.3C75.2 66.8 72 70.1 72 74.2C72 78.2 75.3 81.5 79.3 81.5H91.4V66.8V66.8Z" fill="#CA3060"/>
<path fill-rule="evenodd" clip-rule="evenodd" d="M81.6 76.3C82.9 76.3 83.8 75.3 83.8 74.1C83.8 72.9 82.8 71.9 81.6 71.9H81.5C80.3 71.9 79.3 72.9 79.3 74.1C79.5 75.3 80.4 76.3 81.6 76.3Z" fill="white"/>
<path fill-rule="evenodd" clip-rule="evenodd" d="M79.3 62.4H84.9V48.8C84.9 48.7 84.9 48.6 84.8 48.5C84.7 48.4 84.6 48.4 84.5 48.4H15.4C12.7 48.4 10.2 47.5 8.10001 45.8V92.5C8.10001 96.5 11.4 99.8 15.4 99.8H84.6C84.7 99.8 84.8 99.8 84.9 99.7C85 99.6 85 99.5 85 99.4V85.8H79.4C72.9 85.8 67.7 80.6 67.7 74.1C67.6 67.7 72.8 62.4 79.3 62.4Z" fill="#CA3060"/>
<path fill-rule="evenodd" clip-rule="evenodd" d="M18.9 91.4H43.4C44.6 91.4 45.6 90.4 45.6 89.2C45.6 88 44.6 87 43.4 87H18.9C17.7 87 16.7 88 16.7 89.2C16.8 90.5 17.7 91.4 18.9 91.4Z" fill="white"/>
<path fill-rule="evenodd" clip-rule="evenodd" d="M52.4 21.8L46.7 27.5V8.90001C46.7 7.70001 45.7 6.70001 44.5 6.70001C43.3 6.70001 42.3 7.70001 42.3 8.90001V27.5L36.6 21.8C35.8 21 34.4 21 33.5 21.8C32.7 22.6 32.7 24 33.5 24.9L42.9 34.3C43.7 35.1 45.1 35.1 46 34.3L55.4 24.9C56.2 24 56.2 22.7 55.4 21.8C54.5 21 53.2 21 52.4 21.8Z" fill="white"/>
</svg>
