<svg width="100" height="100" viewBox="0 0 100 100" fill="none" xmlns="http://www.w3.org/2000/svg">
<path fill-rule="evenodd" clip-rule="evenodd" d="M35.5 44.2C28.9 41.6 23.8 36.3 21.3 29.7H15.7C11.7 29.7 8.39999 33 8.39999 37C8.39999 41 11.7 44.3 15.7 44.3H35.5V44.2Z" fill="#CA3060"/>
<path fill-rule="evenodd" clip-rule="evenodd" d="M68.1 29.7C65.6 36.3 60.5 41.6 53.9 44.2H74.9V30C74.9 29.9 74.9 29.8 74.8 29.7C74.7 29.6 74.6 29.6 74.5 29.6L68.1 29.7Z" fill="#CA3060"/>
<path fill-rule="evenodd" clip-rule="evenodd" d="M59.3 6.5C51.3 -1.5 38.2 -1.5 30.2 6.5C22.2 14.5 22.2 27.6 30.2 35.6C38.2 43.6 51.3 43.6 59.3 35.6C63.2 31.7 65.3 26.5 65.3 21.1C65.3 15.6 63.1 10.4 59.3 6.5Z" fill="#CA3060"/>
<path fill-rule="evenodd" clip-rule="evenodd" d="M91.4 66.7H79.4C75.4 66.7 72.1 70 72.1 74.1C72.1 78.1 75.4 81.3 79.4 81.4H91.5V66.7H91.4Z" fill="#CA3060"/>
<path fill-rule="evenodd" clip-rule="evenodd" d="M81.7 76.2C82.9 76.2 83.9 75.2 83.9 74C83.9 72.8 82.9 71.8 81.7 71.8H81.6C80.4 71.8 79.4 72.8 79.4 74C79.6 75.3 80.5 76.2 81.7 76.2Z" fill="white"/>
<path fill-rule="evenodd" clip-rule="evenodd" d="M79.4 62.4H85V48.9C85 48.7 84.8 48.5 84.6 48.5H15.8C13.2 48.5 10.6 47.6 8.5 45.9V92.3C8.5 96.3 11.8 99.5 15.8 99.6H84.6C84.7 99.6 84.8 99.6 84.9 99.5C85 99.4 85 99.3 85 99.2V85.7H79.4C73 85.7 67.8 80.5 67.8 74.1C67.8 67.6 73 62.4 79.4 62.4Z" fill="#CA3060"/>
<path fill-rule="evenodd" clip-rule="evenodd" d="M26.6 82.4H45.2C46.1 82.4 46.8 81.7 46.8 80.8C46.8 79.9 46.1 79.2 45.2 79.2H26.6C25.7 79.2 25 79.9 25 80.8C24.9 81.7 25.7 82.4 26.6 82.4Z" fill="white"/>
<path fill-rule="evenodd" clip-rule="evenodd" d="M55.6 17.1L46.2 7.69998C45.4 6.89998 44 6.89998 43.2 7.69998L33.8 17.1C33 17.9 33 19.3 33.8 20.1C34.6 20.9 36 20.9 36.8 20.1L42.5 14.4V32.9C42.5 34.1 43.5 35.1 44.7 35.1C45.9 35.1 46.9 34.1 46.9 32.9V14.4L52.6 20.1C53.4 20.9 54.8 20.9 55.6 20.1C56.5 19.3 56.5 17.9 55.6 17.1Z" fill="white"/>
</svg>
