<svg width="65" height="65" viewBox="0 0 65 65" fill="none" xmlns="http://www.w3.org/2000/svg">
<path d="M39.6262 36.6379H50.2842L54.3954 47.6958L56.6237 50.4984H58.6557L63.5085 63.0939L25.6312 63.85L31.062 50.4948L34.0609 49.626L39.6262 36.6379Z" fill="#D6992B"/>
<path d="M33.7943 18.9278H14.8702C12.631 18.9278 10.8135 17.1139 10.8135 14.8711C10.8135 12.6319 12.6274 10.8143 14.8702 10.8143H33.7943C36.0335 10.8143 37.8511 12.6282 37.8511 14.8711C37.8511 17.1103 36.0372 18.9278 33.7943 18.9278ZM14.8702 13.5188C14.125 13.5188 13.518 14.1259 13.518 14.8711C13.518 15.6163 14.125 16.2233 14.8702 16.2233H33.7943C34.5395 16.2233 35.1466 15.6163 35.1466 14.8711C35.1466 14.1259 34.5395 13.5188 33.7943 13.5188H14.8702Z" fill="white"/>
<path d="M31.0938 13.5189C30.345 13.5189 29.7415 12.9119 29.7452 12.163C29.7452 11.7523 29.9306 11.367 30.2505 11.1089L37.7459 5.11106C38.204 4.75846 38.3821 4.14776 38.1785 3.60614C37.9968 3.05724 37.4806 2.69374 36.9026 2.70465H11.7625C11.1846 2.69374 10.6684 3.06088 10.4866 3.60614C10.2831 4.14776 10.4576 4.76209 10.9192 5.11106L18.4183 11.1089C18.9854 11.596 19.0472 12.4502 18.5601 13.0173C18.0985 13.5553 17.2987 13.6425 16.7317 13.2208L9.22891 7.223C7.86939 6.15429 7.34594 4.33675 7.93119 2.71188C8.49099 1.07611 10.0359 -0.0143966 11.7625 0.000143651H36.9026C38.6293 -0.0143966 40.1705 1.07974 40.7303 2.71188C41.3156 4.33675 40.7921 6.15793 39.4326 7.223L31.9335 13.2208C31.6972 13.4135 31.3991 13.5189 31.0938 13.5189Z" fill="white"/>
<path d="M18.9277 64.8897H14.871C4.59835 64.8897 0 56.0638 0 47.3178C0 34.766 6.62672 21.767 15.7543 16.4089C15.9615 16.2889 16.1978 16.2235 16.4377 16.2235H32.2284C32.4683 16.2235 32.7046 16.2853 32.9118 16.4089C37.4484 19.0698 41.3597 23.4682 44.2277 29.1316C44.5658 29.7968 44.2968 30.6111 43.6316 30.9455C42.9664 31.2836 42.1521 31.0146 41.8177 30.3493C39.2514 25.2893 35.8126 21.3453 31.854 18.928H16.8121C8.61872 23.9371 2.70448 35.8056 2.70448 47.3142C2.70448 54.1735 5.89243 62.1852 14.871 62.1852H18.9277C19.6729 62.1852 20.28 62.7923 20.28 63.5374C20.28 64.2826 19.6729 64.8897 18.9277 64.8897Z" fill="white"/>
<path d="M47.3141 64.8898H25.6855C24.9403 64.8898 24.3333 64.2827 24.3333 63.5375C24.3333 63.3667 24.366 63.1958 24.4314 63.0359L29.8367 49.5171C30.0403 49.0046 30.5383 48.6665 31.0908 48.6665H41.9051C42.4577 48.6665 42.9557 49.0009 43.1592 49.5135L48.5682 63.0323C48.8445 63.7266 48.51 64.5117 47.8157 64.7916C47.6558 64.857 47.4849 64.8898 47.3141 64.8898ZM27.6811 62.1853H45.3184L40.9927 51.371H32.0069L27.6811 62.1853Z" fill="white"/>
<path d="M63.537 64.8897H41.9084C41.1632 64.8897 40.5562 64.2827 40.5562 63.5375C40.5562 62.7923 41.1632 62.1853 41.9084 62.1853H61.5413L57.2156 51.371H48.2298L45.867 57.2815C45.5907 57.9758 44.8019 58.3139 44.1112 58.0376C43.4169 57.7614 43.0789 56.9725 43.3552 56.2819L46.0596 49.5243C46.2632 49.0081 46.7612 48.6701 47.3137 48.6737H58.128C58.6806 48.6737 59.1786 49.0081 59.3821 49.5207L64.7911 63.0395C65.0674 63.7338 64.7329 64.5189 64.0386 64.7988C63.8787 64.857 63.7078 64.8897 63.537 64.8897Z" fill="white"/>
<path d="M55.4277 51.3708H33.7991C33.054 51.3708 32.4469 50.7638 32.4469 50.0186C32.4469 49.8477 32.4796 49.6769 32.545 49.5169L37.9504 35.9982C38.1539 35.4856 38.6519 35.1476 39.2045 35.1476H50.0188C50.5713 35.1476 51.0693 35.482 51.2729 35.9945L56.6818 49.5133C56.9581 50.2076 56.6237 50.9928 55.9294 51.2727C55.7694 51.3381 55.5986 51.3708 55.4277 51.3708ZM35.7912 48.6663H53.4285L49.1027 37.852H40.1169L35.7912 48.6663Z" fill="white"/>
</svg>
