<svg width="68" height="64" viewBox="0 0 68 64" fill="none" xmlns="http://www.w3.org/2000/svg">
<path d="M1.78394 39.4297L4.17641 35.5587L8.90646 33.51L15.0334 32.1926L21.6091 31.4746L30.978 33.512L36.3324 35.5607L37.9482 37.1491V57.1026L33.0096 60.9469L20.2712 62.7033L11.419 61.9538L4.90026 59.8265L2.37468 57.7839L1.78394 39.4297Z" fill="#D6992B"/>
<path d="M20.0864 64C10.6424 64 0.608154 61.0758 0.608154 55.6519C0.608154 55.2829 0.754754 54.929 1.0157 54.668C1.27665 54.4071 1.63057 54.2605 1.99961 54.2605C2.36865 54.2605 2.72257 54.4071 2.98352 54.668C3.24447 54.929 3.39107 55.2829 3.39107 55.6519C3.39107 57.9754 9.74168 61.2163 20.0864 61.2163C30.4312 61.2163 36.7818 57.9746 36.7818 55.6512C36.7818 55.2822 36.9284 54.9283 37.1894 54.6673C37.4503 54.4064 37.8042 54.2598 38.1733 54.2598C38.5423 54.2598 38.8962 54.4064 39.1572 54.6673C39.4181 54.9283 39.5647 55.2822 39.5647 55.6512C39.5647 61.0758 29.5305 64 20.0864 64Z" fill="#393186"/>
<path d="M20.0864 55.6523C10.6424 55.6523 0.608154 52.7282 0.608154 47.3043C0.608154 46.9352 0.754754 46.5813 1.0157 46.3204C1.27665 46.0594 1.63057 45.9128 1.99961 45.9128C2.36865 45.9128 2.72257 46.0594 2.98352 46.3204C3.24447 46.5813 3.39107 46.9352 3.39107 47.3043C3.39107 49.6277 9.74168 52.8687 20.0864 52.8687C30.4312 52.8687 36.7818 49.627 36.7818 47.3036C36.7818 46.9345 36.9284 46.5806 37.1894 46.3197C37.4503 46.0587 37.8042 45.9121 38.1733 45.9121C38.5423 45.9121 38.8962 46.0587 39.1572 46.3197C39.4181 46.5806 39.5647 46.9345 39.5647 47.3036C39.5647 52.7282 29.5305 55.6523 20.0864 55.6523Z" fill="#393186"/>
<path d="M20.0864 47.3048C10.6424 47.3048 0.608154 44.3799 0.608154 38.9574C0.608154 33.5349 10.6424 30.6094 20.0864 30.6094C29.5305 30.6094 39.5647 33.537 39.5647 38.9574C39.5647 44.3778 29.5305 47.3048 20.0864 47.3048ZM20.0864 33.3937C9.74168 33.3923 3.39107 36.634 3.39107 38.9574C3.39107 41.2808 9.74168 44.5204 20.0864 44.5204C30.4312 44.5204 36.7818 41.2787 36.7818 38.9553C36.7818 36.6319 30.4319 33.3923 20.0864 33.3923V33.3937Z" fill="#393186"/>
<path d="M1.99926 57.045C1.63037 57.0449 1.27665 56.8982 1.01581 56.6374C0.754963 56.3766 0.60834 56.0228 0.608154 55.6539L0.608154 38.9579C0.608154 38.5888 0.754754 38.2349 1.0157 37.974C1.27665 37.713 1.63057 37.5664 1.99961 37.5664C2.36865 37.5664 2.72257 37.713 2.98352 37.974C3.24447 38.2349 3.39107 38.5888 3.39107 38.9579V55.6539C3.39088 56.023 3.24416 56.3768 2.98317 56.6376C2.72217 56.8985 2.36827 57.045 1.99926 57.045Z" fill="#393186"/>
<path d="M38.1731 57.045C37.8042 57.0449 37.4505 56.8982 37.1896 56.6374C36.9288 56.3766 36.7822 56.0228 36.782 55.6539V38.9579C36.782 38.5888 36.9286 38.2349 37.1895 37.974C37.4505 37.713 37.8044 37.5664 38.1734 37.5664C38.5425 37.5664 38.8964 37.713 39.1573 37.974C39.4183 38.2349 39.5649 38.5888 39.5649 38.9579V55.6539C39.5647 56.023 39.418 56.3768 39.157 56.6376C38.896 56.8985 38.5421 57.045 38.1731 57.045Z" fill="#393186"/>
<path d="M47.9136 30.6086C38.4695 30.6086 28.4353 27.6845 28.4353 22.2606C28.4353 21.8916 28.5819 21.5376 28.8429 21.2767C29.1038 21.0157 29.4577 20.8691 29.8268 20.8691C30.1958 20.8691 30.5497 21.0157 30.8107 21.2767C31.0716 21.5376 31.2182 21.8916 31.2182 22.2606C31.2182 24.584 37.5681 27.8257 47.9136 27.8257C58.2591 27.8257 64.609 24.584 64.609 22.2606C64.609 21.8916 64.7556 21.5376 65.0165 21.2767C65.2775 21.0157 65.6314 20.8691 66.0004 20.8691C66.3695 20.8691 66.7234 21.0157 66.9843 21.2767C67.2453 21.5376 67.3919 21.8916 67.3919 22.2606C67.3919 27.6845 57.3577 30.6086 47.9136 30.6086Z" fill="#393186"/>
<path d="M47.9136 47.3059C46.4705 47.3153 45.028 47.2475 43.5921 47.1029C43.2304 47.0576 42.9009 46.8721 42.6745 46.5864C42.4481 46.3006 42.343 45.9374 42.3816 45.575C42.4203 45.2125 42.5997 44.8797 42.8813 44.6481C43.1628 44.4165 43.524 44.3048 43.8872 44.3368C45.2252 44.4689 46.5692 44.5311 47.9136 44.523C58.2591 44.523 64.609 41.2813 64.609 38.9579C64.609 38.5888 64.7556 38.2349 65.0166 37.974C65.2775 37.713 65.6314 37.5664 66.0005 37.5664C66.3695 37.5664 66.7234 37.713 66.9844 37.974C67.2453 38.2349 67.3919 38.5888 67.3919 38.9579C67.3919 44.3818 57.3577 47.3059 47.9136 47.3059Z" fill="#393186"/>
<path d="M47.9134 55.6536C46.4703 55.6629 45.0277 55.5952 43.5918 55.4505C43.4077 55.4343 43.2287 55.3815 43.0652 55.2953C42.9017 55.2091 42.7571 55.0912 42.6397 54.9484C42.5223 54.8057 42.4345 54.6409 42.3815 54.4639C42.3285 54.2868 42.3112 54.101 42.3308 53.9172C42.3505 53.7334 42.4065 53.5554 42.4957 53.3935C42.5848 53.2317 42.7054 53.0892 42.8503 52.9744C42.9951 52.8596 43.1614 52.7749 43.3394 52.7251C43.5174 52.6753 43.7035 52.6615 43.8869 52.6845C45.2249 52.8166 46.5689 52.8787 47.9134 52.8706C58.2589 52.8706 64.6088 49.6289 64.6088 47.3055C64.6088 46.9365 64.7554 46.5826 65.0163 46.3216C65.2773 46.0607 65.6312 45.9141 66.0002 45.9141C66.3693 45.9141 66.7232 46.0607 66.9841 46.3216C67.2451 46.5826 67.3917 46.9365 67.3917 47.3055C67.3917 52.7294 57.3574 55.6536 47.9134 55.6536Z" fill="#393186"/>
<path d="M47.9136 38.9582C46.4705 38.9676 45.028 38.8998 43.5921 38.7552C43.2304 38.7099 42.9009 38.5245 42.6745 38.2387C42.4481 37.953 42.343 37.5898 42.3816 37.2273C42.4203 36.8648 42.5997 36.532 42.8813 36.3004C43.1628 36.0689 43.524 35.9571 43.8872 35.9891C45.2252 36.1213 46.5692 36.1834 47.9136 36.1753C58.2591 36.1753 64.609 32.9336 64.609 30.6102C64.609 30.2412 64.7556 29.8872 65.0166 29.6263C65.2775 29.3653 65.6314 29.2188 66.0005 29.2188C66.3695 29.2188 66.7234 29.3653 66.9844 29.6263C67.2453 29.8872 67.3919 30.2412 67.3919 30.6102C67.3919 36.0341 57.3577 38.9582 47.9136 38.9582Z" fill="#393186"/>
<path d="M47.9136 22.2618C38.4695 22.2618 28.4353 19.3369 28.4353 13.9144C28.4353 8.49194 38.4695 5.56641 47.9136 5.56641C57.3577 5.56641 67.3919 8.49405 67.3919 13.9144C67.3919 19.3348 57.3577 22.2618 47.9136 22.2618ZM47.9136 8.35073C37.5681 8.35073 31.2182 11.5924 31.2182 13.9159C31.2182 16.2393 37.5688 19.4775 47.9136 19.4775C58.2584 19.4775 64.609 16.2358 64.609 13.9123C64.609 11.5889 58.2591 8.34932 47.9136 8.34932V8.35073Z" fill="#393186"/>
<path d="M29.8264 23.654C29.4575 23.6539 29.1038 23.5072 28.843 23.2464C28.5821 22.9855 28.4355 22.6318 28.4353 22.2629V13.9149C28.4353 13.5459 28.5819 13.1919 28.8429 12.931C29.1038 12.67 29.4577 12.5234 29.8268 12.5234C30.1958 12.5234 30.5497 12.67 30.8107 12.931C31.0716 13.1919 31.2182 13.5459 31.2182 13.9149V22.2629C31.218 22.6319 31.0713 22.9858 30.8103 23.2466C30.5493 23.5075 30.1954 23.654 29.8264 23.654Z" fill="#393186"/>
<path d="M65.9993 48.6975C65.6304 48.6973 65.2766 48.5506 65.0158 48.2898C64.755 48.029 64.6083 47.6752 64.6082 47.3064V13.9149C64.6082 13.5459 64.7548 13.1919 65.0157 12.931C65.2767 12.67 65.6306 12.5234 65.9996 12.5234C66.3686 12.5234 66.7226 12.67 66.9835 12.931C67.2445 13.1919 67.3911 13.5459 67.3911 13.9149V47.3064C67.3909 47.6754 67.2442 48.0292 66.9832 48.2901C66.7222 48.5509 66.3683 48.6975 65.9993 48.6975Z" fill="#393186"/>
<path d="M1.99974 16.6961C1.72461 16.6965 1.45556 16.6152 1.22668 16.4625C0.997797 16.3098 0.819384 16.0926 0.714045 15.8385C0.608707 15.5843 0.581183 15.3046 0.634961 15.0348C0.68874 14.7649 0.8214 14.5171 1.01613 14.3228L7.97166 7.36726C8.17867 7.16089 8.4452 7.02468 8.73371 6.97779C9.02222 6.9309 9.31817 6.97571 9.57987 7.1059L14.2492 9.44057L23.278 0.409619C23.4067 0.2783 23.5602 0.173796 23.7295 0.102149C23.8988 0.030502 24.0807 -0.00686613 24.2646 -0.00779476C24.4484 -0.00872338 24.6306 0.026806 24.8007 0.0967389C24.9707 0.166672 25.1252 0.269621 25.2553 0.399633C25.3853 0.529645 25.4882 0.684141 25.5581 0.854187C25.6281 1.02423 25.6636 1.20646 25.6627 1.39032C25.6617 1.57418 25.6244 1.75604 25.5527 1.92537C25.4811 2.0947 25.3766 2.24815 25.2453 2.37684L15.5068 12.116C15.2988 12.3208 15.0322 12.4557 14.744 12.5021C14.4558 12.5484 14.1603 12.5038 13.8986 12.3745L9.23209 10.0399L2.98546 16.2928C2.72398 16.5526 2.37045 16.6986 2.00185 16.6989L1.99974 16.6961Z" fill="#393186"/>
<path d="M24.2611 11.1303C23.8922 11.1301 23.5385 10.9834 23.2776 10.7226C23.0168 10.4618 22.8702 10.108 22.87 9.73915V2.78362H15.913C15.5439 2.78362 15.1899 2.63698 14.9289 2.37597C14.6679 2.11495 14.5212 1.76094 14.5212 1.39181C14.5212 1.02268 14.6679 0.668666 14.9289 0.407651C15.1899 0.146637 15.5439 0 15.913 0H24.2611C24.63 0.000186166 24.9837 0.146808 25.2445 0.407651C25.5054 0.668494 25.652 1.02222 25.6522 1.39111V9.73915C25.652 10.108 25.5054 10.4618 25.2445 10.7226C24.9837 10.9834 24.63 11.1301 24.2611 11.1303Z" fill="#393186"/>
</svg>
