<svg width="74" height="73" viewBox="0 0 74 73" fill="none" xmlns="http://www.w3.org/2000/svg">
<path d="M42.3133 40.4185H52.9713L57.0826 51.4763L59.3109 54.2789H61.3429L66.1957 66.8744L28.3184 67.6305L33.7491 54.2753L36.7481 53.4065L42.3133 40.4185Z" fill="#D6992B"/>
<path d="M36.4816 22.7083H17.5575C15.3183 22.7083 13.5007 20.8944 13.5007 18.6516C13.5007 16.4124 15.3146 14.5948 17.5575 14.5948H36.4816C38.7208 14.5948 40.5383 16.4088 40.5383 18.6516C40.5383 20.8908 38.7244 22.7083 36.4816 22.7083ZM17.5575 17.2994C16.8123 17.2994 16.2052 17.9064 16.2052 18.6516C16.2052 19.3968 16.8123 20.0038 17.5575 20.0038H36.4816C37.2268 20.0038 37.8338 19.3968 37.8338 18.6516C37.8338 17.9064 37.2268 17.2994 36.4816 17.2994H17.5575Z" fill="#393186"/>
<path d="M33.7809 17.2995C33.0321 17.2995 32.4287 16.6924 32.4323 15.9436C32.4323 15.5328 32.6177 15.1475 32.9376 14.8894L40.4331 8.89157C40.8911 8.53897 41.0692 7.92828 40.8656 7.38665C40.6839 6.83776 40.1677 6.47426 39.5897 6.48517H14.4497C13.8717 6.47426 13.3555 6.8414 13.1738 7.38665C12.9702 7.92828 13.1447 8.54261 13.6063 8.89157L21.1055 14.8894C21.6725 15.3765 21.7343 16.2308 21.2472 16.7978C20.7856 17.3358 19.9859 17.423 19.4188 17.0014L11.916 11.0035C10.5565 9.93481 10.0331 8.11727 10.6183 6.4924C11.1781 4.85662 12.723 3.76612 14.4497 3.78066H39.5897C41.3164 3.76612 42.8577 4.86026 43.4175 6.4924C44.0027 8.11727 43.4793 9.93845 42.1197 11.0035L34.6206 17.0014C34.3843 17.194 34.0863 17.2995 33.7809 17.2995Z" fill="#393186"/>
<path d="M21.615 68.6702H17.5583C7.2856 68.6702 2.68726 59.8443 2.68726 51.0983C2.68726 38.5465 9.31397 25.5475 18.4416 20.1894C18.6488 20.0695 18.8851 20.004 19.125 20.004H34.9157C35.1556 20.004 35.3919 20.0658 35.5991 20.1894C40.1356 22.8503 44.0469 27.2487 46.915 32.9121C47.2531 33.5773 46.9841 34.3916 46.3189 34.726C45.6536 35.0641 44.8394 34.7951 44.505 34.1299C41.9386 29.0699 38.4998 25.1258 34.5413 22.7085H19.4994C11.306 27.7176 5.39174 39.5861 5.39174 51.0947C5.39174 57.9541 8.57968 65.9657 17.5583 65.9657H21.615C22.3602 65.9657 22.9672 66.5728 22.9672 67.318C22.9672 68.0632 22.3602 68.6702 21.615 68.6702Z" fill="#393186"/>
<path d="M50.0013 68.6702H28.3727C27.6276 68.6702 27.0205 68.0632 27.0205 67.318C27.0205 67.1471 27.0532 66.9763 27.1187 66.8164L32.524 53.2976C32.7275 52.785 33.2256 52.447 33.7781 52.447H44.5924C45.1449 52.447 45.6429 52.7814 45.8465 53.2939L51.2554 66.8127C51.5317 67.507 51.1973 68.2922 50.503 68.5721C50.343 68.6375 50.1722 68.6702 50.0013 68.6702ZM30.3684 65.9658H48.0057L43.68 55.1515H34.6941L30.3684 65.9658Z" fill="#393186"/>
<path d="M66.2242 68.6702H44.5957C43.8505 68.6702 43.2434 68.0632 43.2434 67.318C43.2434 66.5728 43.8505 65.9658 44.5957 65.9658H64.2286L59.9029 55.1515H50.917L48.5542 61.062C48.278 61.7563 47.4892 62.0944 46.7985 61.8182C46.1042 61.5419 45.7661 60.7531 46.0424 60.0624L48.7469 53.3048C48.9505 52.7887 49.4485 52.4506 50.001 52.4543H60.8153C61.3678 52.4543 61.8658 52.7887 62.0694 53.3012L67.4783 66.82C67.7546 67.5143 67.4202 68.2995 66.7259 68.5794C66.5659 68.6375 66.3951 68.6702 66.2242 68.6702Z" fill="#393186"/>
<path d="M58.1151 55.1514H36.4865C35.7413 55.1514 35.1343 54.5443 35.1343 53.7991C35.1343 53.6282 35.167 53.4574 35.2324 53.2974L40.6378 39.7787C40.8413 39.2661 41.3393 38.9281 41.8919 38.9281H52.7062C53.2587 38.9281 53.7567 39.2625 53.9602 39.7751L59.3692 53.2938C59.6455 53.9881 59.3111 54.7733 58.6168 55.0532C58.4568 55.1186 58.286 55.1514 58.1151 55.1514ZM38.4785 52.4469H56.1158L51.7901 41.6326H42.8043L38.4785 52.4469Z" fill="#393186"/>
</svg>
