<svg width="68" height="40" viewBox="0 0 68 40" fill="none" xmlns="http://www.w3.org/2000/svg">
<path d="M24.0204 37.9828C27.1061 37.9828 29.6075 35.4813 29.6075 32.3957C29.6075 29.31 27.1061 26.8086 24.0204 26.8086C20.9348 26.8086 18.4333 29.31 18.4333 32.3957C18.4333 35.4813 20.9348 37.9828 24.0204 37.9828Z" fill="#D6992B"/>
<path d="M54.1808 37.9828C57.2665 37.9828 59.7679 35.4813 59.7679 32.3957C59.7679 29.31 57.2665 26.8086 54.1808 26.8086C51.0952 26.8086 48.5938 29.31 48.5938 32.3957C48.5938 35.4813 51.0952 37.9828 54.1808 37.9828Z" fill="#D6992B"/>
<path d="M18.1535 33.5116H12.5664C11.7957 33.5116 11.1705 32.8864 11.1705 32.1157C11.1705 31.3451 11.7957 30.7198 12.5664 30.7198H18.1535C18.9241 30.7198 19.5493 31.3451 19.5493 32.1157C19.5493 32.8864 18.9241 33.5116 18.1535 33.5116Z" fill="white"/>
<path d="M63.5371 33.5117H60.0438C59.2732 33.5117 58.648 32.8865 58.648 32.1158C58.648 31.3452 59.2732 30.7199 60.0438 30.7199H62.3776L64.2605 20.6872C64.2351 15.5545 59.8512 11.1706 54.4604 11.1706H45.2928L40.8507 30.7199H48.8769C49.6476 30.7199 50.2728 31.3452 50.2728 32.1158C50.2728 32.8865 49.6476 33.5117 48.8769 33.5117H39.1023C38.3316 33.5117 37.7064 32.8865 37.7064 32.1158C37.7064 32.014 37.7173 31.9086 37.7391 31.8068L42.8173 9.46576C42.9627 8.82963 43.5261 8.37524 44.1805 8.37524H54.464C61.3997 8.38251 67.0232 14.006 67.0304 20.9417L64.9075 32.3703C64.784 33.0318 64.206 33.5117 63.5371 33.5117Z" fill="white"/>
<path d="M54.4607 39.0987C50.6039 39.0987 47.4778 35.9726 47.4778 32.1158C47.4778 28.259 50.6039 25.1328 54.4607 25.1328C58.3175 25.1328 61.4437 28.259 61.4437 32.1158C61.4401 35.9726 58.3139 39.0951 54.4607 39.0987ZM54.4607 27.9282C52.1488 27.9282 50.2731 29.8039 50.2731 32.1158C50.2731 34.4277 52.1488 36.3034 54.4607 36.3034C56.7726 36.3034 58.6483 34.4277 58.6483 32.1158C58.6483 29.8039 56.7726 27.9318 54.4607 27.9282Z" fill="white"/>
<path d="M18.1532 8.37886H6.98266C6.21203 8.37886 5.58679 7.75364 5.58679 6.98301C5.58679 6.21238 6.21203 5.58716 6.98266 5.58716H18.1532C18.9238 5.58716 19.5491 6.21238 19.5491 6.98301C19.5491 7.75364 18.9238 8.37886 18.1532 8.37886Z" fill="white"/>
<path d="M18.1535 16.7577H4.19128C3.42065 16.7577 2.79541 16.1324 2.79541 15.3618C2.79541 14.5912 3.42065 13.9659 4.19128 13.9659H18.1535C18.9242 13.9659 19.5494 14.5912 19.5494 15.3618C19.5494 16.1324 18.9242 16.7577 18.1535 16.7577Z" fill="white"/>
<path d="M18.1535 25.1364H1.39587C0.62524 25.1364 0 24.5112 0 23.7406C0 22.9699 0.62524 22.3447 1.39587 22.3447H18.1535C18.9241 22.3447 19.5493 22.9699 19.5493 23.7406C19.5493 24.5112 18.9241 25.1364 18.1535 25.1364Z" fill="white"/>
<path d="M39.0987 33.5116H29.324C28.5534 33.5116 27.9281 32.8864 27.9281 32.1158C27.9281 31.3451 28.5534 30.7199 29.324 30.7199H37.9827L44.3295 2.79174H12.5664C11.7957 2.79174 11.1705 2.16653 11.1705 1.39589C11.1705 0.625262 11.7957 0 12.5664 0H46.0816C46.8523 0 47.4775 0.625262 47.4775 1.39589C47.4775 1.50131 47.4666 1.60308 47.4448 1.70487L40.4618 32.4247C40.3201 33.0609 39.753 33.5153 39.0987 33.5116Z" fill="white"/>
<path d="M23.7409 39.0987C19.8841 39.0987 16.7579 35.9726 16.7579 32.1158C16.7579 28.259 19.8841 25.1328 23.7409 25.1328C27.5977 25.1328 30.7238 28.259 30.7238 32.1158C30.7166 35.9726 27.594 39.0951 23.7409 39.0987ZM23.7409 27.9282C21.429 27.9282 19.5533 29.8039 19.5533 32.1158C19.5533 34.4277 21.429 36.3034 23.7409 36.3034C26.0528 36.3034 27.9285 34.4277 27.9285 32.1158C27.9248 29.8039 26.0528 27.9318 23.7409 27.9282Z" fill="white"/>
</svg>
