<svg width="74" height="73" viewBox="0 0 74 73" fill="none" xmlns="http://www.w3.org/2000/svg">
<path d="M27.435 59.1934C30.5206 59.1934 33.0221 56.692 33.0221 53.6063C33.0221 50.5206 30.5206 48.0192 27.435 48.0192C24.3493 48.0192 21.8479 50.5206 21.8479 53.6063C21.8479 56.692 24.3493 59.1934 27.435 59.1934Z" fill="#D6992B"/>
<path d="M57.5954 59.1933C60.681 59.1933 63.1825 56.6919 63.1825 53.6062C63.1825 50.5206 60.681 48.0192 57.5954 48.0192C54.5097 48.0192 52.0083 50.5206 52.0083 53.6062C52.0083 56.6919 54.5097 59.1933 57.5954 59.1933Z" fill="#D6992B"/>
<path d="M21.5681 54.7223H15.9811C15.2104 54.7223 14.5852 54.0971 14.5852 53.3264C14.5852 52.5558 15.2104 51.9305 15.9811 51.9305H21.5681C22.3388 51.9305 22.964 52.5558 22.964 53.3264C22.964 54.0971 22.3388 54.7223 21.5681 54.7223Z" fill="#393186"/>
<path d="M66.9518 54.7222H63.4585C62.6879 54.7222 62.0627 54.097 62.0627 53.3264C62.0627 52.5558 62.6879 51.9305 63.4585 51.9305H65.7922L67.6752 41.8978C67.6497 36.7651 63.2659 32.3812 57.8751 32.3812H48.7075L44.2654 51.9305H52.2916C53.0623 51.9305 53.6875 52.5558 53.6875 53.3264C53.6875 54.097 53.0623 54.7222 52.2916 54.7222H42.5169C41.7463 54.7222 41.1211 54.097 41.1211 53.3264C41.1211 53.2246 41.132 53.1192 41.1538 53.0174L46.232 30.6763C46.3774 30.0402 46.9408 29.5858 47.5951 29.5858H57.8787C64.8144 29.5931 70.4378 35.2165 70.4451 42.1522L68.3222 53.5808C68.1986 54.2424 67.6207 54.7222 66.9518 54.7222Z" fill="#393186"/>
<path d="M57.8753 60.3094C54.0185 60.3094 50.8923 57.1833 50.8923 53.3265C50.8923 49.4697 54.0185 46.3435 57.8753 46.3435C61.7321 46.3435 64.8582 49.4697 64.8582 53.3265C64.8546 57.1833 61.7285 60.3058 57.8753 60.3094ZM57.8753 49.1389C55.5634 49.1389 53.6877 51.0146 53.6877 53.3265C53.6877 55.6384 55.5634 57.5141 57.8753 57.5141C60.1872 57.5141 62.0629 55.6384 62.0629 53.3265C62.0629 51.0146 60.1872 49.1425 57.8753 49.1389Z" fill="#393186"/>
<path d="M21.5679 29.5895H10.3973C9.6267 29.5895 9.00146 28.9643 9.00146 28.1936C9.00146 27.423 9.6267 26.7978 10.3973 26.7978H21.5679C22.3385 26.7978 22.9637 27.423 22.9637 28.1936C22.9637 28.9643 22.3385 29.5895 21.5679 29.5895Z" fill="#393186"/>
<path d="M21.5681 37.9683H7.60583C6.8352 37.9683 6.20996 37.343 6.20996 36.5724C6.20996 35.8017 6.8352 35.1765 7.60583 35.1765H21.5681C22.3387 35.1765 22.964 35.8017 22.964 36.5724C22.964 37.343 22.3387 37.9683 21.5681 37.9683Z" fill="#393186"/>
<path d="M21.568 46.3471H4.81042C4.03979 46.3471 3.41455 45.7218 3.41455 44.9512C3.41455 44.1806 4.03979 43.5554 4.81042 43.5554H21.568C22.3387 43.5554 22.9639 44.1806 22.9639 44.9512C22.9639 45.7218 22.3387 46.3471 21.568 46.3471Z" fill="#393186"/>
<path d="M42.5133 54.7223H32.7387C31.9681 54.7223 31.3428 54.097 31.3428 53.3264C31.3428 52.5558 31.9681 51.9305 32.7387 51.9305H41.3974L47.7442 24.0024H15.9811C15.2104 24.0024 14.5852 23.3772 14.5852 22.6065C14.5852 21.8359 15.2104 21.2106 15.9811 21.2106H49.4963C50.2669 21.2106 50.8922 21.8359 50.8922 22.6065C50.8922 22.7119 50.8813 22.8137 50.8594 22.9155L43.8765 53.6354C43.7347 54.2715 43.1677 54.7259 42.5133 54.7223Z" fill="#393186"/>
<path d="M27.1553 60.3094C23.2985 60.3094 20.1724 57.1833 20.1724 53.3265C20.1724 49.4697 23.2985 46.3435 27.1553 46.3435C31.0121 46.3435 34.1383 49.4697 34.1383 53.3265C34.131 57.1833 31.0085 60.3058 27.1553 60.3094ZM27.1553 49.1389C24.8434 49.1389 22.9677 51.0146 22.9677 53.3265C22.9677 55.6384 24.8434 57.5141 27.1553 57.5141C29.4672 57.5141 31.3429 55.6384 31.3429 53.3265C31.3393 51.0146 29.4672 49.1425 27.1553 49.1389Z" fill="#393186"/>
</svg>
