<svg width="41" height="56" viewBox="0 0 41 56" fill="none" xmlns="http://www.w3.org/2000/svg">
<path d="M23.4316 46.4157L23.2947 46.4091L22.4189 46.342L22.491 45.4617C22.5709 44.9586 22.6139 44.4503 22.6194 43.9409C22.6086 41.3129 21.5727 38.7938 19.7346 36.9242C17.8965 35.0546 15.4026 33.9835 12.7875 33.9406L11.8474 33.9296L11.9902 32.9942C12.3281 30.7927 13.2874 28.7348 14.7542 27.0646C16.2209 25.3944 18.1332 24.182 20.265 23.5712C22.3968 22.9603 24.6588 22.9768 26.7817 23.6185C28.9045 24.2601 30.7996 25.5002 32.2422 27.1915C33.6849 28.8828 34.6144 30.9544 34.9207 33.1605C35.2269 35.3667 34.8969 37.6148 33.9699 39.6382C33.043 41.6616 31.5576 43.3754 29.6905 44.5763C27.8235 45.7772 25.6527 46.4148 23.4359 46.4135M13.7836 32.3505C16.6455 32.6412 19.2989 33.9861 21.2323 36.1261C23.1657 38.2661 24.2421 41.0496 24.254 43.9398C24.254 44.1973 24.2433 44.4625 24.2203 44.7376C26.0486 44.5949 27.8018 43.9478 29.2874 42.8675C30.7729 41.7873 31.9332 40.3159 32.6395 38.6154C33.3459 36.915 33.5712 35.0516 33.2908 33.2307C33.0105 31.4097 32.2351 29.7019 31.0503 28.2955C29.8656 26.8891 28.3173 25.8387 26.5763 25.26C24.8353 24.6814 22.9693 24.5969 21.1837 25.016C19.398 25.4352 17.7624 26.3416 16.4567 27.6354C15.151 28.9292 14.2257 30.56 13.7836 32.3483" fill="#013443"/>
<path d="M23.4253 46.8238L23.2713 46.8172L21.9714 46.7182L22.0752 45.4296C22.1545 44.9376 22.1969 44.4403 22.2014 43.9419C22.1919 41.4217 21.1994 39.0057 19.4369 37.2127C17.6743 35.4196 15.2825 34.3925 12.7748 34.3519L11.3652 34.3343L11.5764 32.9369C11.9259 30.6581 12.9187 28.5278 14.4367 26.7988C15.9547 25.0698 17.934 23.8147 20.1406 23.1821C22.3471 22.5496 24.6881 22.5663 26.8855 23.2303C29.0829 23.8943 31.0447 25.1777 32.5381 26.9282C34.0315 28.6787 34.994 30.8229 35.3111 33.1064C35.6283 35.3899 35.2866 37.717 34.3273 39.8114C33.3679 41.9059 31.8307 43.6799 29.8982 44.9231C27.9656 46.1662 25.7189 46.8262 23.4243 46.8249L23.4253 46.8238ZM22.8473 45.9666L23.4355 46.0062C25.5755 46.0067 27.6706 45.3904 29.4725 44.2305C31.2744 43.0705 32.7076 41.4155 33.6016 39.4619C34.4957 37.5082 34.8131 35.3378 34.5165 33.2082C34.22 31.0787 33.3218 29.0793 31.9285 27.4472C30.5352 25.8151 28.7052 24.6188 26.6556 24.0002C24.606 23.3817 22.4234 23.3669 20.3657 23.9575C18.308 24.5482 16.462 25.7195 15.0468 27.3325C13.6316 28.9455 12.7063 30.9326 12.3812 33.0579L12.3112 33.5278L12.7822 33.5344C15.5038 33.5793 18.0993 34.6941 20.0122 36.6398C21.9252 38.5854 23.003 41.2069 23.0147 43.9419C23.0115 44.472 22.9676 45.001 22.8826 45.5242L22.8473 45.9666ZM23.766 45.1864L23.8055 44.7067C23.8285 44.4415 23.8371 44.1884 23.8371 43.9419C23.815 41.1561 22.7731 38.476 20.9095 36.4134C19.0458 34.3508 16.4915 33.0501 13.7341 32.7597L13.2651 32.7157L13.3747 32.2568C13.8357 30.3975 14.7984 28.7022 16.1569 27.3575C17.5154 26.0128 19.2171 25.071 21.0742 24.6357C22.9313 24.2005 24.8714 24.2888 26.6818 24.8908C28.4922 25.4929 30.1024 26.5853 31.3344 28.0478C32.5665 29.5103 33.3728 31.2861 33.6647 33.1797C33.9567 35.0732 33.7227 37.011 32.9888 38.7796C32.255 40.5481 31.0493 42.0788 29.5051 43.203C27.9609 44.3273 26.1381 45.0014 24.2371 45.1512L23.766 45.1864ZM14.2923 32.0037C17.153 32.4232 19.77 33.8575 21.6699 36.0471C23.5697 38.2366 24.6271 41.037 24.6509 43.9419C24.6509 44.0519 24.6511 44.1696 24.6456 44.2863C26.3508 44.0682 27.9657 43.3917 29.3201 42.3282C30.6746 41.2646 31.7185 39.8534 32.3413 38.2435C32.9641 36.6336 33.1429 34.8847 32.8589 33.1812C32.5749 31.4776 31.8384 29.8828 30.7275 28.5647C29.6166 27.2466 28.1725 26.2542 26.5471 25.6923C24.9216 25.1303 23.1752 25.0195 21.4923 25.3717C19.8095 25.7239 18.2522 26.5258 16.9852 27.6931C15.7181 28.8604 14.7872 30.3496 14.2923 32.0037Z" fill="#013443"/>
<path d="M33.8758 37.9676L33.0501 37.4834L32.7015 38.3803C32.0322 40.1403 30.8789 41.6728 29.3755 42.799C27.8722 43.9252 26.081 44.5986 24.2112 44.7405C24.232 44.4621 24.2433 44.1969 24.2433 43.9416C24.2463 42.0719 23.7969 40.2295 22.9343 38.5729L22.5204 37.7718L21.7985 38.2416C22.5499 39.4435 23.0555 40.7839 23.2851 42.1843C23.5146 43.5848 23.4638 45.0172 23.1359 46.3977L23.2883 46.4098L23.4251 46.4164C25.5949 46.4253 27.723 45.8176 29.5638 44.6634C31.4045 43.5092 32.883 41.8555 33.8287 39.8933C35.1209 40.8185 36.1752 42.0396 36.9044 43.4557C37.6336 44.8717 38.0163 46.4419 38.0215 48.0362C38.0214 49.5115 37.6929 50.968 37.06 52.2991C36.5578 52.8228 35.9554 53.239 35.289 53.5226C34.6226 53.8063 33.906 53.9516 33.1822 53.9497H20.0334C19.7094 53.5071 19.4217 53.0386 19.1736 52.5489C18.7406 52.885 18.283 53.1877 17.8047 53.4545C18.1424 54.0994 18.5391 54.7113 18.9896 55.2823L19.2361 55.5926H33.1822C34.1503 55.5953 35.1088 55.3962 35.9965 55.0079C36.8841 54.6197 37.6814 54.0506 38.3391 53.3368L38.476 53.1365C39.2511 51.5503 39.6544 49.8066 39.6545 48.0395C39.649 46.0001 39.1127 43.9976 38.099 42.2307C37.0852 40.4639 35.6295 38.9942 33.8758 37.9676Z" fill="#013443"/>
<path d="M33.1798 55.9985H19.0385L18.6706 55.5342C18.2052 54.9426 17.7946 54.3094 17.444 53.6426L17.2568 53.2872L17.6098 53.0946C18.0693 52.8383 18.5084 52.547 18.9236 52.2231L19.3112 51.926L19.5305 52.3662C19.7377 52.7756 19.9734 53.1697 20.2358 53.5458H33.1755C33.8334 53.5471 34.4848 53.4174 35.0925 53.1641C35.7002 52.9108 36.2521 52.539 36.7159 52.0701C37.3025 50.8097 37.6065 49.4352 37.6062 48.0438C37.6038 46.5944 37.2752 45.1644 36.6448 43.8608C36.0144 42.5572 35.0988 41.4137 33.9664 40.516C32.9462 42.4324 31.4253 44.0329 29.5672 45.1453C27.7091 46.2577 25.5839 46.8397 23.4211 46.829L22.6319 46.7707L22.7415 46.3085C22.9223 45.5337 23.0152 44.7407 23.0185 43.9449C23.0157 42.0058 22.4731 40.1061 21.4523 38.4605L21.2432 38.1194L22.6736 37.1874L23.2944 38.3857C24.1881 40.1001 24.6532 42.0073 24.6499 43.9427C24.6499 44.0527 24.6501 44.1726 24.6435 44.2893C26.3504 44.0775 27.9673 43.4021 29.3207 42.3357C30.6741 41.2693 31.713 39.8523 32.3248 38.2371L32.8424 36.8936L34.0813 37.6187C35.895 38.6816 37.4005 40.2025 38.4489 42.0303C39.4974 43.8582 40.0523 45.9297 40.0584 48.0394C40.0598 49.8706 39.6425 51.6776 38.8393 53.3213L38.6719 53.5744C37.9751 54.3406 37.1264 54.9522 36.1806 55.3696C35.2349 55.7871 34.2128 56.0013 33.1798 55.9985ZM19.4294 55.182H33.1798C34.0922 55.1843 34.995 54.9965 35.8315 54.6304C36.668 54.2643 37.4201 53.7278 38.0399 53.055L38.1383 52.9021C38.8691 51.3852 39.2479 49.7214 39.2457 48.0362C39.24 46.0691 38.7227 44.1376 37.7447 42.4335C36.7667 40.7295 35.3622 39.3121 33.6707 38.3219L33.2552 38.0787L33.0771 38.5298C32.3833 40.3635 31.1829 41.9601 29.6175 43.1323C28.0521 44.3046 26.1863 45.0037 24.2392 45.1476L23.7649 45.1839L23.8034 44.7074C23.8242 44.4412 23.8339 44.188 23.8339 43.9372C23.8378 42.1329 23.4046 40.3548 22.5714 38.7565L22.3634 38.3538L22.3479 38.3637C23.6751 40.6712 24.1315 43.3817 23.6329 45.9993C25.691 45.9716 27.7007 45.3684 29.4367 44.2572C31.1728 43.146 32.566 41.5709 33.461 39.7084L33.6717 39.2748L34.0626 39.5554C35.4068 40.5183 36.5035 41.7891 37.2618 43.2625C38.0202 44.7359 38.4182 46.3696 38.4233 48.0284C38.4233 49.5641 38.0816 51.0804 37.4233 52.4663L37.3458 52.5763C36.8055 53.1382 36.1573 53.5846 35.4411 53.8888C34.7249 54.1931 33.9552 54.3489 33.1776 54.3469H19.8251L19.7043 54.1807C19.4607 53.8493 19.2377 53.5031 19.0364 53.1441C18.8031 53.3103 18.5754 53.4611 18.3509 53.5964C18.6328 54.0936 18.9522 54.5685 19.3059 55.017L19.4294 55.182Z" fill="#013443"/>
<path d="M12.498 55.5906C10.2051 55.5901 7.96364 54.9065 6.05732 53.6261C4.15099 52.3458 2.66528 50.5262 1.7881 48.3974C0.910915 46.2686 0.681718 43.9263 1.12932 41.6666C1.57692 39.4069 2.68137 37.3313 4.30289 35.7023C5.92442 34.0732 7.99043 32.9639 10.2394 32.5145C12.4883 32.0652 14.8189 32.2961 16.9373 33.1779C19.0557 34.0597 20.8663 35.5529 22.1401 37.4687C23.414 39.3844 24.094 41.6367 24.094 43.9407C24.0902 47.0297 22.8671 49.991 20.6932 52.175C18.5192 54.359 15.5722 55.5874 12.498 55.5906ZM12.498 33.936C10.5286 33.9362 8.60322 34.5232 6.96581 35.6228C5.32839 36.7223 4.0522 38.2852 3.29869 40.1135C2.54517 41.9419 2.3486 43.9537 2.73295 45.8945C3.1173 47.8354 4.06575 49.6182 5.45843 51.0174C6.8511 52.4167 8.6254 53.3695 10.557 53.7555C12.4886 54.1415 14.4906 53.9432 16.3101 53.1859C18.1296 52.4285 19.6846 51.1461 20.7787 49.5007C21.8729 47.8553 22.4567 45.9208 22.4567 43.9418C22.4547 41.2886 21.4049 38.7445 19.5377 36.8685C17.6704 34.9924 15.1386 33.9377 12.498 33.936Z" fill="#013443"/>
<path d="M12.5004 55.9988C10.1269 55.9988 7.80687 55.2917 5.83345 53.9667C3.86002 52.6417 2.32171 50.7585 1.41344 48.5551C0.505169 46.3518 0.267566 43.9273 0.730597 41.5883C1.19363 39.2493 2.3366 37.1007 4.01486 35.4144C5.69312 33.728 7.83153 32.5796 10.1593 32.1144C12.4872 31.6491 14.8998 31.8879 17.0926 32.8006C19.2853 33.7132 21.1597 35.2587 22.4783 37.2416C23.7969 39.2245 24.5006 41.5559 24.5006 43.9407C24.4965 47.1375 23.2312 50.2021 20.9816 52.4626C18.732 54.723 15.6818 55.9948 12.5004 55.9988ZM12.5004 32.6991C10.2876 32.6989 8.1247 33.3581 6.28475 34.5932C4.44481 35.8283 3.01059 37.5839 2.16365 39.638C1.31672 41.6921 1.09471 43.9525 1.52626 46.1332C1.95782 48.3139 3.0235 50.3171 4.58808 51.8894C6.15266 53.4616 8.14633 54.5324 10.3166 54.9663C12.4868 55.4001 14.7359 55.1776 16.7803 54.3268C18.8246 53.4759 20.5719 52.0351 21.8013 50.1864C23.0307 48.3377 23.6867 46.1642 23.6867 43.9407C23.6838 40.9604 22.5045 38.1029 20.4073 35.9953C18.3101 33.8878 15.4664 32.7023 12.5004 32.6991ZM12.5004 54.3538C10.4503 54.3535 8.44637 53.7425 6.74194 52.5979C5.03751 51.4532 3.70941 49.8265 2.9251 47.9233C2.14078 46.0201 1.93568 43.9259 2.33583 41.9056C2.73599 39.8853 3.72331 38.0295 5.17307 36.5731C6.62282 35.1166 8.46948 34.1249 10.4802 33.7232C12.4909 33.3216 14.5752 33.528 16.4691 34.3165C18.363 35.105 19.9818 36.4402 21.1206 38.1531C22.2594 39.866 22.8667 41.8797 22.8665 43.9397C22.8624 46.7008 21.7693 49.3476 19.826 51.2998C17.8828 53.252 15.2482 54.3503 12.5004 54.3538ZM12.5004 34.3409C10.6113 34.3409 8.76501 34.9038 7.19432 35.9583C5.62362 37.0128 4.39938 38.5116 3.67638 40.2652C2.95338 42.0188 2.76366 43.9484 3.13203 45.8101C3.5004 47.6718 4.41016 49.382 5.74575 50.7243C7.08134 52.0666 8.78311 52.9809 10.6358 53.3515C12.4885 53.7221 14.4088 53.5323 16.1541 52.8062C17.8995 52.0801 19.3912 50.8503 20.441 49.2723C21.4908 47.6943 22.0517 45.8389 22.0521 43.9407C22.0498 41.3958 21.0425 38.9557 19.2518 37.156C17.4611 35.3562 15.0331 34.3438 12.5004 34.3409Z" fill="#013443"/>
<path d="M33.0325 0.40934H13.5243C11.6523 0.411086 9.85716 1.15881 8.53318 2.48856C7.2092 3.8183 6.46428 5.62146 6.46167 7.50244V34.9759C6.97869 34.6259 7.52525 34.3218 8.09471 34.067V7.50244C8.09674 6.0566 8.66922 4.67052 9.68658 3.64805C10.7039 2.62558 12.0832 2.0501 13.5221 2.04777H33.0293C34.4686 2.04952 35.8481 2.62478 36.866 3.64731C37.8838 4.66985 38.4569 6.05622 38.4589 7.50244V48.4942C38.4577 49.9407 37.885 51.3276 36.867 52.3503C35.849 53.373 34.4689 53.948 33.0293 53.9488H16.6155C14.3673 54.8869 11.8683 55.0266 9.53044 54.345C10.7043 55.1579 12.0965 55.5927 13.5221 55.5917H33.0293C34.9026 55.5905 36.6987 54.8425 38.0236 53.5118C39.3486 52.1811 40.0936 50.3766 40.0957 48.4942V7.50244C40.0925 5.62145 39.3472 3.81848 38.0231 2.48883C36.699 1.15918 34.9045 0.411376 33.0325 0.40934Z" fill="#013443"/>
<path d="M33.0301 55.9989H13.5197C12.012 56.0002 10.5397 55.5395 9.29916 54.6784L7.24583 53.2611L9.64085 53.9488C11.8905 54.6044 14.2948 54.4705 16.4585 53.5692L16.6131 53.5373H33.028C34.3596 53.5361 35.6364 53.004 36.578 52.0579C37.5196 51.1118 38.0489 49.8289 38.0501 48.4909V7.50135C38.0486 6.16341 37.519 4.88068 36.5775 3.93462C35.6359 2.98855 34.3595 2.45641 33.028 2.45496H13.5197C12.1883 2.45641 10.9116 2.98858 9.97023 3.93468C9.02888 4.88078 8.49984 6.16351 8.49868 7.50135V34.331L8.25752 34.4411C7.70874 34.686 7.18218 34.9783 6.68383 35.3148L6.04858 35.7473V7.50135C6.05148 5.51181 6.83983 3.60464 8.24041 2.19833C9.64099 0.792024 11.5397 0.00142065 13.5197 -3.43323e-05H33.0269C35.0069 0.00171064 36.905 0.792387 38.3057 2.1986C39.7064 3.60481 40.4951 5.51179 40.4986 7.50135V48.4931C40.496 50.4828 39.7084 52.3902 38.3084 53.7972C36.9083 55.2042 35.0102 55.996 33.0301 55.9989ZM13.0411 55.1648C13.1999 55.1747 13.3587 55.1824 13.5208 55.1824H33.029C34.7941 55.1803 36.4864 54.475 37.7346 53.221C38.9828 51.967 39.6851 50.2667 39.6874 48.4931V7.50135C39.6848 5.72816 38.9823 4.02841 37.7341 2.77499C36.4858 1.52157 34.7937 0.816841 33.029 0.815386H13.5197C11.7552 0.817132 10.0632 1.522 8.81523 2.77539C7.56724 4.02878 6.86504 5.72835 6.86243 7.50135V34.2408C7.12416 34.0879 7.40008 33.9449 7.6859 33.8073V7.50793C7.68735 5.95325 8.30286 4.46269 9.39701 3.36347C10.4912 2.26425 11.9746 1.64621 13.5219 1.64504H33.029C34.5762 1.6465 36.0593 2.26464 37.1534 3.3638C38.2474 4.46296 38.8633 5.95334 38.865 7.50793V48.4997C38.8633 50.0543 38.2474 51.5447 37.1534 52.6438C36.0593 53.743 34.5762 54.3611 33.029 54.3626H16.6954C15.5312 54.8358 14.2957 55.1063 13.0411 55.1648Z" fill="#013443"/>
<path d="M12.499 33.9346C10.5297 33.9348 8.6042 34.5217 6.96681 35.6213C5.32942 36.7208 4.05324 38.2836 3.29969 40.1118C2.54614 41.9401 2.34916 43.9519 2.73342 45.8927C3.11768 47.8336 4.0658 49.6163 5.45836 51.0156C6.85092 52.4149 8.62541 53.3679 10.5569 53.754C12.4885 54.1401 14.4905 53.942 16.31 53.1848C18.1295 52.4277 19.6849 51.1453 20.7792 49.5C21.8735 47.8547 22.4575 45.9204 22.4577 43.9415C22.4545 41.2885 21.404 38.745 19.5371 36.869C17.6701 34.9931 15.1393 33.9378 12.499 33.9346Z" fill="#D6992B"/>
</svg>
