<svg width="64" height="64" viewBox="0 0 64 64" fill="none" xmlns="http://www.w3.org/2000/svg">
<g clip-path="url(#clip0_136_9589)">
<path d="M56.9742 25.0333H52.7588V39.0847H56.9742V25.0333Z" fill="#D6992B"/>
<path d="M46.4357 21.5204C48.3758 21.5204 49.9486 20.1049 49.9486 18.3588C49.9486 16.6127 48.3758 15.1973 46.4357 15.1973C44.4956 15.1973 42.9229 16.6127 42.9229 18.3588C42.9229 20.1049 44.4956 21.5204 46.4357 21.5204Z" fill="#D6992B"/>
<path d="M19.7376 21.5195H12.7119V27.8427H19.7376V21.5195Z" fill="#D6992B"/>
<path d="M16.2249 43.3008H9.19922V48.9213H16.2249V43.3008Z" fill="#D6992B"/>
<path d="M33.0321 0V7.31025C31.7488 8.04973 30.6885 9.12136 29.9627 10.4124C29.2368 11.7035 28.8724 13.1663 28.9075 14.647C28.9427 16.1277 29.3762 17.5715 30.1624 18.8267C30.9487 20.0819 32.0587 21.102 33.3756 21.7797L28.875 23.4659C28.8085 22.6969 28.4567 21.9805 27.8888 21.4578C27.3209 20.935 26.578 20.6436 25.8061 20.6408H7.22594C6.40487 20.6418 5.61769 20.9683 5.03711 21.5489C4.45652 22.1295 4.12994 22.9167 4.12901 23.7378V40.2573C4.13238 40.6097 4.19655 40.9588 4.3187 41.2894H3.09693C2.27574 41.2903 1.48846 41.617 0.90785 42.1977C0.327243 42.7785 0.000743814 43.5658 0 44.387V60.9031C0.000929762 61.7241 0.327511 62.5113 0.908097 63.0919C1.48868 63.6725 2.27586 63.9991 3.09693 64H21.6771C22.4982 63.9991 23.2854 63.6725 23.866 63.0919C24.4465 62.5113 24.7731 61.7241 24.7741 60.9031V44.387C24.7707 44.0347 24.7065 43.6855 24.5844 43.355H25.8068C26.6279 43.3538 27.415 43.0271 27.9955 42.4464C28.5759 41.8656 28.9023 41.0784 28.9031 40.2573V32.2803L30.7684 31.5778L28.7647 47.484H30.9672V58.8382C30.9673 59.7608 31.2147 60.6666 31.6837 61.4611C32.1526 62.2557 32.8259 62.91 33.6336 63.3561C34.4412 63.8021 35.3537 64.0235 36.2759 63.9973C37.1982 63.971 38.0965 63.6981 38.8775 63.2068C39.5773 63.7201 40.4222 63.9976 41.2901 63.9993H64V0H33.0321ZM53.6764 57.1682V40.0676C54.007 40.1898 54.3561 40.2539 54.7085 40.2573C55.5296 40.2564 56.3167 39.9298 56.8973 39.3492C57.4779 38.7686 57.8045 37.9815 57.8054 37.1604V26.8382C57.8045 26.0171 57.4779 25.23 56.8973 24.6494C56.3167 24.0688 55.5296 23.7422 54.7085 23.7413C54.3561 23.7446 54.007 23.8088 53.6764 23.931V6.8311L61.9351 2.70209V61.2965L53.6764 57.1682ZM53.6764 26.8382C53.6764 26.5644 53.7852 26.3018 53.9788 26.1082C54.1724 25.9146 54.435 25.8058 54.7089 25.8058C54.9827 25.8058 55.2453 25.9146 55.4389 26.1082C55.6325 26.3018 55.7413 26.5644 55.7413 26.8382V37.1611C55.7413 37.4349 55.6325 37.6975 55.4389 37.8911C55.2453 38.0847 54.9827 38.1935 54.7089 38.1935C54.435 38.1935 54.1724 38.0847 53.9788 37.8911C53.7852 37.6975 53.6764 37.4349 53.6764 37.1611V26.8382ZM35.0969 2.06415H58.5944L51.613 5.55593V58.4441L58.5944 61.9351H44.8451C45.2166 61.3104 45.4148 60.5979 45.4191 59.871V47.484H47.5767L45.9706 28.8054C45.8502 27.3051 45.3501 25.8602 44.5172 24.6065C43.6844 23.3529 42.5463 22.3317 41.21 21.6392C41.785 21.3125 42.319 20.9184 42.8006 20.4652C43.1371 21.1147 43.6405 21.6629 44.2589 22.0535C44.8774 22.4442 45.5887 22.6631 46.3198 22.6879C47.0509 22.7126 47.7754 22.5423 48.4189 22.1945C49.0624 21.8466 49.6017 21.3337 49.9814 20.7085C50.361 20.0832 50.5674 19.3682 50.5794 18.6368C50.5913 17.9053 50.4083 17.184 50.0491 16.5467C49.69 15.9094 49.1677 15.3792 48.5359 15.0106C47.9041 14.6419 47.1855 14.4481 46.454 14.4491C46.1024 14.4526 45.7528 14.5022 45.4142 14.5966C45.4142 14.5467 45.4212 14.4983 45.4212 14.4491C45.426 13.1874 45.1404 11.9415 44.5867 10.8077C44.033 9.67402 43.2259 8.68286 42.2279 7.91093C41.2298 7.13899 40.0676 6.60697 38.8311 6.35601C37.5946 6.10505 36.3169 6.14188 35.0969 6.46365V2.06415ZM46.4512 16.516C46.8596 16.5159 47.2589 16.6369 47.5985 16.8637C47.9382 17.0905 48.203 17.4129 48.3594 17.7902C48.5158 18.1675 48.5567 18.5827 48.4771 18.9833C48.3976 19.3839 48.201 19.7519 47.9122 20.0407C47.6235 20.3296 47.2555 20.5263 46.855 20.606C46.4544 20.6858 46.0392 20.6449 45.6619 20.4886C45.2845 20.3324 44.962 20.0677 44.7351 19.7281C44.5081 19.3886 44.387 18.9893 44.387 18.5809C44.3884 18.5228 44.3936 18.4648 44.4025 18.4074C44.6097 18.024 44.7857 17.6246 44.9287 17.213C45.1189 16.9959 45.3529 16.8216 45.6153 16.7015C45.8777 16.5814 46.1626 16.5182 46.4512 16.516ZM37.1611 8.25802C38.3127 8.2561 39.4419 8.57586 40.4216 9.18126C41.4012 9.78666 42.1923 10.6536 42.7057 11.6845C43.219 12.7153 43.4343 13.869 43.3272 15.0157C43.2201 16.1623 42.7949 17.2562 42.0995 18.1741L40.2257 14.8945C39.611 13.8186 38.7227 12.9243 37.6511 12.3022C36.5794 11.6801 35.3623 11.3524 34.1232 11.3521H31.8047C32.3477 10.4121 33.1282 9.63129 34.0681 9.08799C35.0079 8.54469 36.0741 8.25799 37.1597 8.25661L37.1611 8.25802ZM30.9679 14.4519C30.9699 14.1056 31.0009 13.7602 31.0607 13.4191H34.1232C34.9978 13.4196 35.8569 13.6511 36.6133 14.0904C37.3697 14.5296 37.9966 15.1608 38.4306 15.9203L40.5489 19.627C39.5434 20.292 38.3644 20.646 37.159 20.645C35.517 20.6434 33.9427 19.9903 32.7816 18.8293C31.6205 17.6682 30.9675 16.0939 30.9658 14.4519H30.9679ZM26.8382 23.742V24.2338L20.645 26.5572V22.7099H25.8061C26.0797 22.7105 26.3419 22.8194 26.5353 23.0128C26.7287 23.2062 26.8377 23.4684 26.8382 23.742ZM14.4512 22.7099H18.5802V26.8382H14.4512V22.7099ZM22.7099 44.387V60.9031C22.7095 61.1767 22.6007 61.439 22.4072 61.6324C22.2137 61.8259 21.9514 61.9348 21.6778 61.9351H3.09693C2.82332 61.9348 2.56103 61.8259 2.36755 61.6324C2.17408 61.439 2.06523 61.1767 2.06486 60.9031V44.387C2.06523 44.1134 2.17408 43.8511 2.36755 43.6576C2.56103 43.4642 2.82332 43.3553 3.09693 43.355H8.25802V49.5481H16.516V43.355H21.6771C21.9509 43.3551 22.2133 43.4639 22.407 43.6574C22.6006 43.8509 22.7095 44.1133 22.7099 44.387ZM10.3229 43.355H14.4519V47.484H10.3229V43.355ZM26.8382 40.2573C26.8378 40.5309 26.729 40.7932 26.5355 40.9867C26.342 41.1802 26.0797 41.289 25.8061 41.2894H7.22594C6.95233 41.289 6.69004 41.1802 6.49656 40.9867C6.30309 40.7932 6.19424 40.5309 6.19387 40.2573V23.742C6.19442 23.4684 6.30334 23.2062 6.49677 23.0128C6.6902 22.8194 6.95239 22.7105 7.22594 22.7099H12.387V28.9031H17.0943C16.7839 29.4284 16.5947 30.0163 16.5404 30.624C16.486 31.2317 16.568 31.8439 16.7802 32.4159C17.1641 33.4401 17.9387 34.2702 18.934 34.7238C19.9293 35.1775 21.0639 35.2177 22.0888 34.8356L26.8382 33.0546V40.2573ZM21.3673 32.9014C20.854 33.0813 20.2911 33.0559 19.7962 32.8304C19.3013 32.605 18.9126 32.1969 18.7116 31.6916C18.5202 31.1789 18.5399 30.6113 18.7662 30.1131C18.9926 29.6149 19.4073 29.2268 19.9193 29.0337L20.2706 28.9024H20.6465V28.7619L36.4417 22.8378C36.6716 22.7521 36.915 22.7084 37.1604 22.7085C38.8655 22.7171 40.5053 23.3654 41.7553 24.5252C43.0053 25.6849 43.7745 27.2715 43.9107 28.9712L45.3236 45.4191H31.1056L32.9506 30.7621L38.6091 28.6396L37.8847 26.7061L21.3673 32.9014ZM33.03 58.8375V47.484H37.159V59.871C37.1609 60.4616 37.2908 61.0448 37.5398 61.5803C37.0696 61.8283 36.5432 61.9502 36.0119 61.9341C35.4806 61.918 34.9626 61.7645 34.5083 61.4885C34.054 61.2125 33.6791 60.8234 33.42 60.3593C33.1609 59.8952 33.0265 59.3719 33.03 58.8403V58.8375ZM39.2238 59.8696V47.484H43.3528V59.871C43.3429 60.4119 43.121 60.9274 42.7349 61.3064C42.3488 61.6854 41.8294 61.8978 41.2883 61.8978C40.7473 61.8978 40.2279 61.6854 39.8418 61.3064C39.4557 60.9274 39.2338 60.4119 39.2238 59.871V59.8696Z" fill="#393186"/>
<path d="M8.25781 57.8066H10.3227V59.8708H8.25781V57.8066Z" fill="#393186"/>
<path d="M4.12891 57.8066H6.19376V59.8708H4.12891V57.8066Z" fill="#393186"/>
<path d="M12.3867 57.8066H14.4516V59.8708H12.3867V57.8066Z" fill="#393186"/>
<path d="M16.5156 37.1602H18.5805V39.225H16.5156V37.1602Z" fill="#393186"/>
<path d="M12.3867 37.1602H14.4516V39.225H12.3867V37.1602Z" fill="#393186"/>
<path d="M8.25781 37.1602H10.3227V39.225H8.25781V37.1602Z" fill="#393186"/>
</g>
<defs>
<clipPath id="clip0_136_9589">
<rect width="64" height="64" fill="white"/>
</clipPath>
</defs>
</svg>
