<svg width="74" height="73" viewBox="0 0 74 73" fill="none" xmlns="http://www.w3.org/2000/svg">
<path d="M24.269 45.5909H39.987L42.6842 47.0413L43.6912 48.1973L44.7053 51.1308V52.8901L42.6842 55.402L40.8594 57.2667H27.1189L24.2727 55.402L24.269 45.5909Z" fill="#D6992B"/>
<path d="M44.6434 52.6648C43.8509 52.6648 43.2075 52.0214 43.2075 51.229V16.8086C43.2075 16.0161 42.5641 15.3727 41.7717 15.3727H7.35126C6.55882 15.3727 5.91543 16.0161 5.91543 16.8086V42.6248C5.91543 43.4172 6.55882 44.0606 7.35126 44.0606H24.5633C25.3557 44.0606 25.9991 44.704 25.9991 45.4965C25.9991 46.2889 25.3557 46.9323 24.5633 46.9323H7.35126C4.97757 46.9287 3.051 45.0057 3.04736 42.6284V16.8122C3.051 14.4385 4.97393 12.5119 7.35126 12.5083H41.7717C44.1453 12.5119 46.0719 14.4349 46.0755 16.8122V51.2326C46.0792 52.0214 45.4358 52.6648 44.6434 52.6648Z" fill="#393186"/>
<path d="M67.5915 58.4009H27.4314C25.0577 58.3973 23.1311 56.4743 23.1274 54.097V45.4928C23.1274 44.7004 23.7709 44.057 24.5633 44.057C25.3558 44.057 25.9991 44.7004 25.9991 45.4928V54.097C25.9991 54.8894 26.6425 55.5328 27.435 55.5328H67.5951C68.3876 55.5328 69.031 54.8894 69.031 54.097V28.2808C69.031 27.4884 68.3876 26.8449 67.5951 26.8449H44.647C43.8546 26.8449 43.2111 26.2015 43.2111 25.4091C43.2111 24.6167 43.8546 23.9733 44.647 23.9733H67.5951C69.9688 23.9769 71.8954 25.8998 71.899 28.2772V54.0934C71.8918 56.4743 69.9688 58.3973 67.5915 58.4009Z" fill="#393186"/>
<path d="M38.9072 58.4009H30.303C29.5106 58.4009 28.8672 57.7575 28.8672 56.9651C28.8672 56.1726 29.5106 55.5292 30.303 55.5292H38.9072C41.2846 55.5292 43.2111 53.6026 43.2111 51.2253C43.2111 48.848 41.2846 46.9214 38.9072 46.9214H24.5633C23.7709 46.9214 23.1274 46.278 23.1274 45.4855C23.1274 44.6931 23.7709 44.0497 24.5633 44.0497H38.9072C42.8695 44.0497 46.0792 47.2594 46.0792 51.2216C46.0792 55.1839 42.8695 58.4009 38.9072 58.4009Z" fill="#393186"/>
<path d="M33.1714 23.9805H13.0913C12.2989 23.9805 11.6555 23.3371 11.6555 22.5447C11.6555 21.7522 12.2989 21.1088 13.0913 21.1088H33.1714C33.9638 21.1088 34.6073 21.7522 34.6073 22.5447C34.6073 23.3371 33.9638 23.9805 33.1714 23.9805Z" fill="#393186"/>
<path d="M36.0388 38.3208H27.4346C26.6422 38.3208 25.9988 37.6774 25.9988 36.885C25.9988 36.0925 26.6422 35.4491 27.4346 35.4491H36.0388C36.8313 35.4491 37.4747 36.0925 37.4747 36.885C37.4747 37.6774 36.8313 38.3208 36.0388 38.3208Z" fill="#393186"/>
<path d="M64.7236 35.4529H50.3797C49.5873 35.4529 48.9438 34.8095 48.9438 34.0171C48.9438 33.2246 49.5873 32.5812 50.3797 32.5812H64.7236C65.5161 32.5812 66.1595 33.2246 66.1595 34.0171C66.1595 34.8095 65.5161 35.4529 64.7236 35.4529Z" fill="#393186"/>
<path d="M64.7236 46.9287H50.3797C49.5873 46.9287 48.9438 46.2853 48.9438 45.4929C48.9438 44.7005 49.5873 44.0571 50.3797 44.0571H64.7236C65.5161 44.0571 66.1595 44.7005 66.1595 45.4929C66.1595 46.2853 65.5161 46.9287 64.7236 46.9287Z" fill="#393186"/>
</svg>
