<svg width="64" height="64" viewBox="0 0 64 64" fill="none" xmlns="http://www.w3.org/2000/svg">
<g clip-path="url(#clip0_136_9494)">
<path d="M54.7607 20.284L57.7371 17.4395L60.957 18.1153L62.159 20.284V46.3622L58.6811 54.5632L54.7607 46.3622V20.284Z" fill="#D6992B"/>
<path d="M12.0488 6.71365H17.6221L19.8876 3.59222L21.9836 1.90578L23.9184 1.07422L26.6683 1.90578L29.1555 4.35586L29.8676 6.14865H31.1369L35.9301 6.71571V13.6711L34.2669 14.4687L25.8965 14.9027H14.3548L12.0495 13.2406L12.0488 6.71365Z" fill="#D6992B"/>
<path d="M41.333 63.9998H6.6667C4.89921 63.9978 3.20469 63.2947 1.95489 62.0449C0.705084 60.7951 0.00204539 59.1006 0 57.3331L0 14.6667C0.00204539 12.8992 0.705084 11.2047 1.95489 9.95489C3.20469 8.70508 4.89921 8.00205 6.6667 8H11.9999C12.3539 8 12.6935 8.14064 12.9438 8.39098C13.1942 8.64132 13.3348 8.98085 13.3348 9.33488C13.3348 9.68892 13.1942 10.0285 12.9438 10.2788C12.6935 10.5291 12.3539 10.6698 11.9999 10.6698H6.6667C5.60727 10.6718 4.59183 11.0936 3.8427 11.8427C3.09357 12.5918 2.67181 13.6073 2.66977 14.6667V57.3331C2.67107 58.3935 3.09289 59.4101 3.8427 60.1599C4.59252 60.9097 5.60911 61.3316 6.66951 61.3329H41.333C42.3933 61.3316 43.4099 60.9097 44.1598 60.1599C44.9096 59.4101 45.3314 58.3935 45.3327 57.3331V14.6667C45.3306 13.6068 44.9085 12.5909 44.1588 11.8417C43.409 11.0925 42.3929 10.6711 41.333 10.6698H35.9997C35.6457 10.6698 35.3062 10.5291 35.0558 10.2788C34.8055 10.0285 34.6649 9.68892 34.6649 9.33488C34.6649 8.98085 34.8055 8.64132 35.0558 8.39098C35.3062 8.14064 35.6457 8 35.9997 8H41.333C43.1004 8.00205 44.795 8.70508 46.0448 9.95489C47.2946 11.2047 47.9976 12.8992 47.9996 14.6667V57.3331C47.9976 59.1006 47.2946 60.7951 46.0448 62.0449C44.795 63.2947 43.1004 63.9978 41.333 63.9998Z" fill="#393186"/>
<path d="M33.3324 15.9991H14.6658C13.6054 15.9978 12.5888 15.5759 11.8389 14.8261C11.0891 14.0763 10.6673 13.0597 10.666 11.9993V6.66611C10.666 6.31208 10.8067 5.97255 11.057 5.72221C11.3073 5.47187 11.6469 5.33123 12.0009 5.33123H17.4676C17.7745 3.82475 18.5925 2.47058 19.7832 1.49799C20.9739 0.525405 22.4641 -0.00585938 24.0015 -0.00585938C25.5389 -0.00585938 27.0291 0.525405 28.2198 1.49799C29.4105 2.47058 30.2285 3.82475 30.5354 5.33123H36.0021C36.3562 5.33123 36.6957 5.47187 36.946 5.72221C37.1964 5.97255 37.337 6.31208 37.337 6.66611V11.9993C37.3357 13.0606 36.9132 14.0779 36.1623 14.8279C35.4115 15.5778 34.3936 15.9991 33.3324 15.9991ZM13.3358 7.99959V11.9993C13.3358 12.3534 13.4764 12.6929 13.7268 12.9432C13.9771 13.1936 14.3166 13.3342 14.6707 13.3342H33.3324C33.6864 13.3342 34.0259 13.1936 34.2763 12.9432C34.5266 12.6929 34.6672 12.3534 34.6672 11.9993V7.99959H29.3326C28.9786 7.99959 28.6391 7.85895 28.3887 7.60861C28.1384 7.35828 27.9977 7.01874 27.9977 6.66471C27.9977 5.60382 27.5763 4.58638 26.8261 3.83622C26.076 3.08606 25.0585 2.66462 23.9977 2.66462C22.9368 2.66462 21.9193 3.08606 21.1692 3.83622C20.419 4.58638 19.9976 5.60382 19.9976 6.66471C19.9976 7.01874 19.8569 7.35828 19.6066 7.60861C19.3562 7.85895 19.0167 7.99959 18.6627 7.99959H13.3358Z" fill="#393186"/>
<path d="M58.6662 55.9995C58.4184 55.9997 58.1754 55.9309 57.9645 55.8009C57.7536 55.6709 57.583 55.4847 57.4719 55.2632L54.0356 48.3885C53.5742 47.4625 53.3337 46.4421 53.333 45.4075V21.3332C53.333 19.9188 53.8949 18.5622 54.8951 17.5621C55.8952 16.5619 57.2518 16 58.6662 16C60.0807 16 61.4372 16.5619 62.4374 17.5621C63.4375 18.5622 63.9994 19.9188 63.9994 21.3332V45.4075C63.9987 46.4421 63.7583 47.4625 63.2969 48.3885L59.8599 55.2632C59.7488 55.4847 59.5782 55.6709 59.3672 55.8009C59.1563 55.9309 58.914 55.9997 58.6662 55.9995ZM58.6662 18.6663C57.9582 18.6663 57.2791 18.9475 56.7784 19.4482C56.2777 19.9489 55.9965 20.628 55.9965 21.336V45.4075C55.9978 46.0284 56.1421 46.6407 56.418 47.197L58.6662 51.685L60.9145 47.197C61.1904 46.6407 61.3346 46.0284 61.336 45.4075V21.3332C61.3343 20.6262 61.0523 19.9488 60.5518 19.4495C60.0513 18.9502 59.3732 18.6698 58.6662 18.6698V18.6663Z" fill="#393186"/>
<path d="M38.6665 26.6698H9.33488C8.98085 26.6698 8.64132 26.5291 8.39098 26.2788C8.14064 26.0285 8 25.6889 8 25.3349C8 24.9809 8.14064 24.6413 8.39098 24.391C8.64132 24.1406 8.98085 24 9.33488 24H38.6665C39.0205 24 39.3601 24.1406 39.6104 24.391C39.8608 24.6413 40.0014 24.9809 40.0014 25.3349C40.0014 25.6889 39.8608 26.0285 39.6104 26.2788C39.3601 26.5291 39.0205 26.6698 38.6665 26.6698Z" fill="#393186"/>
<path d="M38.6665 34.6698H9.33488C8.98085 34.6698 8.64132 34.5291 8.39098 34.2788C8.14064 34.0285 8 33.6889 8 33.3349C8 32.9809 8.14064 32.6413 8.39098 32.391C8.64132 32.1406 8.98085 32 9.33488 32H38.6665C39.0205 32 39.3601 32.1406 39.6104 32.391C39.8608 32.6413 40.0014 32.9809 40.0014 33.3349C40.0014 33.6889 39.8608 34.0285 39.6104 34.2788C39.3601 34.5291 39.0205 34.6698 38.6665 34.6698Z" fill="#393186"/>
<path d="M38.6665 42.6678H9.33488C9.15959 42.6678 8.986 42.6333 8.82405 42.5662C8.66209 42.4991 8.51493 42.4008 8.39098 42.2768C8.26702 42.1529 8.1687 42.0057 8.10161 41.8438C8.03453 41.6818 8 41.5082 8 41.3329C8 41.1576 8.03453 40.984 8.10161 40.8221C8.1687 40.6601 8.26702 40.513 8.39098 40.389C8.51493 40.2651 8.66209 40.1667 8.82405 40.0997C8.986 40.0326 9.15959 39.998 9.33488 39.998H38.6665C38.8418 39.998 39.0154 40.0326 39.1774 40.0997C39.3393 40.1667 39.4865 40.2651 39.6104 40.389C39.7344 40.513 39.8327 40.6601 39.8998 40.8221C39.9669 40.984 40.0014 41.1576 40.0014 41.3329C40.0014 41.5082 39.9669 41.6818 39.8998 41.8438C39.8327 42.0057 39.7344 42.1529 39.6104 42.2768C39.4865 42.4008 39.3393 42.4991 39.1774 42.5662C39.0154 42.6333 38.8418 42.6678 38.6665 42.6678Z" fill="#393186"/>
<path d="M38.6665 50.6698H9.33488C8.98085 50.6698 8.64132 50.5291 8.39098 50.2788C8.14064 50.0285 8 49.6889 8 49.3349C8 48.9809 8.14064 48.6413 8.39098 48.391C8.64132 48.1406 8.98085 48 9.33488 48H38.6665C39.0205 48 39.3601 48.1406 39.6104 48.391C39.8608 48.6413 40.0014 48.9809 40.0014 49.3349C40.0014 49.6889 39.8608 50.0285 39.6104 50.2788C39.3601 50.5291 39.0205 50.6698 38.6665 50.6698Z" fill="#393186"/>
</g>
<defs>
<clipPath id="clip0_136_9494">
<rect width="64" height="64" fill="white"/>
</clipPath>
</defs>
</svg>
