<svg width="64" height="64" viewBox="0 0 64 64" fill="none" xmlns="http://www.w3.org/2000/svg">
<g clip-path="url(#clip0_136_9550)">
<path d="M8.06337 10.8633H1.74023V30.5353H8.06337V10.8633Z" fill="#D6992B"/>
<path d="M20.0069 62.1524C22.723 62.1524 24.9249 59.9505 24.9249 57.2344C24.9249 54.5183 22.723 52.3164 20.0069 52.3164C17.2907 52.3164 15.0889 54.5183 15.0889 57.2344C15.0889 59.9505 17.2907 62.1524 20.0069 62.1524Z" fill="#D6992B"/>
<path d="M52.3256 62.855C55.4298 62.855 57.9462 60.4958 57.9462 57.5857C57.9462 54.6755 55.4298 52.3164 52.3256 52.3164C49.2215 52.3164 46.7051 54.6755 46.7051 57.5857C46.7051 60.4958 49.2215 62.855 52.3256 62.855Z" fill="#D6992B"/>
<path d="M14.3674 58.6666H6.66789C6.31386 58.6666 5.97433 58.5259 5.72399 58.2756C5.47365 58.0253 5.33301 57.6857 5.33301 57.3317V36.1337C5.33301 35.7797 5.47365 35.4401 5.72399 35.1898C5.97433 34.9395 6.31386 34.7988 6.66789 34.7988C7.02193 34.7988 7.36146 34.9395 7.6118 35.1898C7.86214 35.4401 8.00278 35.7797 8.00278 36.1337V56.0003H14.3709C14.7249 56.0003 15.0644 56.141 15.3148 56.3913C15.5651 56.6416 15.7058 56.9812 15.7058 57.3352C15.7058 57.6892 15.5651 58.0288 15.3148 58.2791C15.0644 58.5294 14.7249 58.6701 14.3709 58.6701L14.3674 58.6666Z" fill="#393186"/>
<path d="M44.0001 58.666H25.3349C24.9809 58.666 24.6413 58.5254 24.391 58.275C24.1406 58.0247 24 57.6852 24 57.3311C24 56.9771 24.1406 56.6376 24.391 56.3872C24.6413 56.1369 24.9809 55.9962 25.3349 55.9962H42.6666V29.3358H35.9999C35.6459 29.3358 35.3063 29.1951 35.056 28.9448C34.8057 28.6945 34.665 28.3549 34.665 28.0009C34.665 27.6469 34.8057 27.3073 35.056 27.057C35.3063 26.8067 35.6459 26.666 35.9999 26.666H44.0001C44.3541 26.666 44.6937 26.8067 44.944 27.057C45.1943 27.3073 45.335 27.6469 45.335 28.0009V57.3325C45.3346 57.6863 45.1938 58.0255 44.9435 58.2755C44.6932 58.5256 44.3539 58.666 44.0001 58.666Z" fill="#393186"/>
<path d="M62.6661 58.6678H57.3329C56.9789 58.6678 56.6393 58.5271 56.389 58.2768C56.1386 58.0265 55.998 57.6869 55.998 57.3329C55.998 56.9789 56.1386 56.6393 56.389 56.389C56.6393 56.1386 56.9789 55.998 57.3329 55.998H61.3326V46.7206C61.3304 44.6213 60.4956 42.6085 59.0114 41.1239C57.5271 39.6393 55.5147 38.804 53.4154 38.8012H45.3358V56.0008H46.6707C47.0247 56.0008 47.3642 56.1415 47.6146 56.3918C47.8649 56.6421 48.0056 56.9817 48.0056 57.3357C48.0056 57.6897 47.8649 58.0293 47.6146 58.2796C47.3642 58.5299 47.0247 58.6706 46.6707 58.6706H44.0009C43.8256 58.6706 43.652 58.6361 43.4901 58.569C43.3281 58.5019 43.181 58.4036 43.057 58.2796C42.933 58.1557 42.8347 58.0085 42.7676 57.8465C42.7005 57.6846 42.666 57.511 42.666 57.3357V37.4677C42.666 37.2924 42.7005 37.1188 42.7676 36.9569C42.8347 36.7949 42.933 36.6477 43.057 36.5238C43.181 36.3998 43.3281 36.3015 43.4901 36.2344C43.652 36.1673 43.8256 36.1328 44.0009 36.1328H53.4154C56.2219 36.1367 58.9123 37.2536 60.8965 39.2384C62.8806 41.2233 63.9966 43.914 63.9996 46.7206V57.3343C63.9992 57.6878 63.8586 58.0268 63.6086 58.2768C63.3586 58.5268 63.0196 58.6674 62.6661 58.6678Z" fill="#393186"/>
<path d="M19.9997 63.9994C18.6812 63.9994 17.3922 63.6084 16.2959 62.8759C15.1996 62.1433 14.3451 61.1021 13.8405 59.8839C13.3359 58.6658 13.2039 57.3253 13.4611 56.0321C13.7183 54.7389 14.3533 53.551 15.2856 52.6186C16.218 51.6863 17.4059 51.0514 18.6991 50.7941C19.9923 50.5369 21.3328 50.6689 22.5509 51.1735C23.7691 51.6781 24.8103 52.5326 25.5429 53.6289C26.2754 54.7252 26.6664 56.0142 26.6664 57.3327C26.6644 59.1002 25.9613 60.7947 24.7115 62.0445C23.4617 63.2943 21.7672 63.9974 19.9997 63.9994ZM19.9997 53.333C19.2086 53.333 18.4353 53.5676 17.7776 54.0071C17.1198 54.4466 16.6072 55.0712 16.3044 55.8021C16.0017 56.5329 15.9225 57.3372 16.0768 58.113C16.2312 58.8889 16.6121 59.6016 17.1715 60.161C17.7308 60.7203 18.4435 61.1013 19.2194 61.2556C19.9953 61.4099 20.7995 61.3307 21.5303 61.028C22.2612 60.7253 22.8859 60.2126 23.3254 59.5548C23.7649 58.8971 23.9994 58.1238 23.9994 57.3327C23.9974 56.2728 23.5753 55.2569 22.8255 54.5077C22.0758 53.7585 21.0596 53.3371 19.9997 53.3358V53.333Z" fill="#393186"/>
<path d="M51.9997 63.9994C50.6812 63.9994 49.3922 63.6084 48.2959 62.8759C47.1996 62.1433 46.3451 61.1021 45.8405 59.8839C45.3359 58.6658 45.2039 57.3253 45.4611 56.0321C45.7183 54.7389 46.3533 53.551 47.2856 52.6186C48.218 51.6863 49.4059 51.0514 50.6991 50.7941C51.9923 50.5369 53.3328 50.6689 54.5509 51.1735C55.7691 51.6781 56.8103 52.5326 57.5429 53.6289C58.2754 54.7252 58.6664 56.0142 58.6664 57.3327C58.6644 59.1002 57.9613 60.7947 56.7115 62.0445C55.4617 63.2943 53.7672 63.9974 51.9997 63.9994ZM51.9997 53.333C51.2086 53.333 50.4353 53.5676 49.7776 54.0071C49.1198 54.4466 48.6072 55.0712 48.3044 55.8021C48.0017 56.5329 47.9225 57.3372 48.0768 58.113C48.2312 58.8889 48.6121 59.6016 49.1715 60.161C49.7308 60.7203 50.4435 61.1013 51.2194 61.2556C51.9953 61.4099 52.7995 61.3307 53.5303 61.028C54.2612 60.7253 54.8859 60.2126 55.3254 59.5548C55.7649 58.8971 55.9994 58.1238 55.9994 57.3327C55.9974 56.2728 55.5753 55.2569 54.8255 54.5077C54.0758 53.7585 53.0596 53.3371 51.9997 53.3358V53.333Z" fill="#393186"/>
<path d="M5.4372 31.9995H3.99974C2.93934 31.9982 1.92275 31.5763 1.17293 30.8265C0.423119 30.0767 0.00130144 29.0601 0 27.9997L0 12.9275C0.00130144 11.8671 0.423119 10.8505 1.17293 10.1007C1.92275 9.35085 2.93934 8.92904 3.99974 8.92773H5.4372C6.49759 8.92904 7.51419 9.35085 8.264 10.1007C9.01381 10.8505 9.43563 11.8671 9.43693 12.9275V27.9997C9.43563 29.0601 9.01381 30.0767 8.264 30.8265C7.51419 31.5763 6.49759 31.9982 5.4372 31.9995ZM3.99974 11.5947C3.6457 11.5947 3.30617 11.7353 3.05583 11.9857C2.80549 12.236 2.66485 12.5755 2.66485 12.9296V27.9997C2.66485 28.3538 2.80549 28.6933 3.05583 28.9436C3.30617 29.194 3.6457 29.3346 3.99974 29.3346H5.4372C5.79123 29.3346 6.13076 29.194 6.3811 28.9436C6.63144 28.6933 6.77208 28.3538 6.77208 27.9997V12.9275C6.77208 12.5734 6.63144 12.2339 6.3811 11.9836C6.13076 11.7332 5.79123 11.5926 5.4372 11.5926L3.99974 11.5947Z" fill="#393186"/>
<path d="M24.074 32H21.738C11.8261 32 7.46105 28.6691 7.27909 28.5279C7.13176 28.4233 7.00719 28.29 6.91292 28.1358C6.81866 27.9817 6.75665 27.8101 6.73067 27.6313C6.70469 27.4525 6.71527 27.2703 6.76177 27.0957C6.80827 26.9212 6.88972 26.7578 7.0012 26.6157C7.11267 26.4735 7.25184 26.3554 7.41028 26.2686C7.56872 26.1818 7.74313 26.1281 7.92295 26.1106C8.10277 26.0932 8.28426 26.1125 8.45641 26.1673C8.62857 26.222 8.78782 26.3112 8.92451 26.4293C8.95402 26.4504 12.847 29.333 21.738 29.333H24.074C24.9669 29.3354 25.8314 29.0197 26.5125 28.4426C27.1937 27.8654 27.6471 27.0645 27.7914 26.1834L29.2794 17.2558C29.3691 16.716 29.3403 16.163 29.1948 15.6354C29.0494 15.1078 28.7908 14.6182 28.4371 14.2006C28.0834 13.7829 27.643 13.4473 27.1465 13.217C26.65 12.9867 26.1094 12.8672 25.5621 12.8669H17.9118C17.6708 12.8662 17.4346 12.8004 17.228 12.6763C17.0215 12.5522 16.8524 12.3745 16.7386 12.1621C16.6249 11.9497 16.5708 11.7104 16.582 11.4698C16.5932 11.2291 16.6694 10.9959 16.8024 10.795C17.5295 9.45796 17.8929 7.95352 17.8563 6.43204C17.8563 3.69201 16.7174 2.66696 16.0001 2.66696C15.9054 2.65887 15.81 2.66889 15.7191 2.69647C15.7135 2.71263 15.4205 3.09412 15.4205 5.16038C15.4205 10.3657 9.00179 13.8428 8.7299 13.9896C8.4187 14.1448 8.05924 14.1724 7.728 14.0665C7.39676 13.9607 7.1199 13.7298 6.95631 13.4229C6.79272 13.1161 6.75533 12.7575 6.85209 12.4235C6.94885 12.0895 7.17212 11.8065 7.4744 11.6346C8.94348 10.8477 12.7542 8.14631 12.7542 5.15757C12.7542 3.35478 12.7542 0 15.9994 0C18.1774 0 20.5218 2.01357 20.5218 6.43485C20.5253 7.71279 20.3319 8.98365 19.9486 10.2027H25.5621C26.4965 10.2032 27.4197 10.4071 28.2674 10.8003C29.115 11.1935 29.867 11.7666 30.4709 12.4797C31.0748 13.1927 31.5162 14.0288 31.7644 14.9296C32.0127 15.8305 32.0618 16.7746 31.9084 17.6964L30.4176 26.6239C30.1714 28.1281 29.3974 29.4954 28.2344 30.4806C27.0714 31.4658 25.5954 32.0045 24.0712 32H24.074Z" fill="#393186"/>
</g>
<defs>
<clipPath id="clip0_136_9550">
<rect width="64" height="64" fill="white"/>
</clipPath>
</defs>
</svg>
