<svg width="70" height="64" viewBox="0 0 70 64" fill="none" xmlns="http://www.w3.org/2000/svg">
<g clip-path="url(#clip0_136_9531)">
<path d="M41.1579 43.7332C48.5217 43.7332 54.4912 37.7636 54.4912 30.3998C54.4912 23.036 48.5217 17.0664 41.1579 17.0664C33.794 17.0664 27.8245 23.036 27.8245 30.3998C27.8245 37.7636 33.794 43.7332 41.1579 43.7332Z" fill="#D6992B"/>
<path d="M62.636 58.1813H7.36408C5.4359 58.1793 3.58728 57.4124 2.22379 56.0491C0.860297 54.6857 0.0932961 52.8372 0.0910645 50.909L0.0910645 7.27302C0.0936668 5.34489 0.860764 3.49648 2.22416 2.13309C3.58755 0.7697 5.43595 0.00260231 7.36408 0H62.636C64.5642 0.00260231 66.4126 0.7697 67.776 2.13309C69.1393 3.49648 69.9064 5.34489 69.909 7.27302V50.909C69.9068 52.8372 69.1398 54.6857 67.7763 56.0491C66.4128 57.4124 64.5642 58.1793 62.636 58.1813ZM7.36408 2.90935C6.20722 2.91083 5.09817 3.37105 4.28014 4.18908C3.46212 5.0071 3.0019 6.11615 3.00041 7.27302V50.909C3.0019 52.0659 3.46212 53.1749 4.28014 53.9929C5.09817 54.811 6.20722 55.2712 7.36408 55.2727H62.636C63.7929 55.2712 64.9019 54.811 65.72 53.9929C66.538 53.1749 66.9982 52.0659 66.9997 50.909V7.27302C66.9984 6.1161 66.5382 5.00694 65.7202 4.18887C64.9021 3.37081 63.793 2.91065 62.636 2.90935H7.36408Z" fill="#393186"/>
<path d="M59.7276 52.3637H13.1823C12.0254 52.3622 10.9164 51.902 10.0983 51.084C9.28031 50.2659 8.82009 49.1569 8.8186 48V42.182C8.8186 41.7962 8.97186 41.4262 9.24467 41.1534C9.51747 40.8806 9.88747 40.7274 10.2733 40.7274C10.6591 40.7274 11.0291 40.8806 11.3019 41.1534C11.5747 41.4262 11.7279 41.7962 11.7279 42.182V48C11.7287 48.3855 11.8822 48.755 12.1547 49.0276C12.4273 49.3001 12.7968 49.4536 13.1823 49.4543H59.7276C60.1131 49.4536 60.4826 49.3001 60.7551 49.0276C61.0277 48.755 61.1812 48.3855 61.1819 48V10.182C61.1817 9.79638 61.0284 9.42657 60.7557 9.15387C60.4831 8.88117 60.1132 8.72789 59.7276 8.72771H13.1823C12.7966 8.72789 12.4268 8.88117 12.1541 9.15387C11.8814 9.42657 11.7281 9.79638 11.7279 10.182V16C11.7279 16.3858 11.5747 16.7558 11.3019 17.0286C11.0291 17.3014 10.6591 17.4547 10.2733 17.4547C9.88747 17.4547 9.51747 17.3014 9.24467 17.0286C8.97186 16.7558 8.8186 16.3858 8.8186 16V10.182C8.82009 9.02517 9.28031 7.91612 10.0983 7.09809C10.9164 6.28007 12.0254 5.81985 13.1823 5.81836H59.7276C60.8845 5.81985 61.9935 6.28007 62.8115 7.09809C63.6296 7.91612 64.0898 9.02517 64.0913 10.182V48C64.0898 49.1569 63.6296 50.2659 62.8115 51.084C61.9935 51.902 60.8845 52.3622 59.7276 52.3637Z" fill="#393186"/>
<path d="M10.2729 34.9078C9.88727 34.9076 9.51747 34.7543 9.24477 34.4816C8.97207 34.209 8.81879 33.8391 8.8186 33.4535V24.7262C8.8186 24.3404 8.97186 23.9704 9.24467 23.6975C9.51747 23.4247 9.88747 23.2715 10.2733 23.2715C10.6591 23.2715 11.0291 23.4247 11.3019 23.6975C11.5747 23.9704 11.7279 24.3404 11.7279 24.7262V33.4535C11.7278 33.8393 11.5744 34.2092 11.3015 34.4819C11.0287 34.7546 10.6587 34.9078 10.2729 34.9078Z" fill="#393186"/>
<path d="M11.7274 26.1809H8.81877C8.04763 26.1798 7.30838 25.873 6.76303 25.3278C6.21768 24.7826 5.91072 24.0434 5.90942 23.2723V17.4543C5.91054 16.683 6.21742 15.9436 6.76278 15.3983C7.30815 14.8529 8.04751 14.546 8.81877 14.5449H11.7281C12.4994 14.546 13.2387 14.8529 13.7841 15.3983C14.3295 15.9436 14.6363 16.683 14.6375 17.4543V23.2723C14.6362 24.0435 14.3291 24.7828 13.7836 25.328C13.2381 25.8733 12.4987 26.18 11.7274 26.1809ZM8.81877 17.4543V23.2723H11.7281V17.4543H8.81877Z" fill="#393186"/>
<path d="M11.7274 43.636H8.81877C8.04751 43.6352 7.30805 43.3286 6.76262 42.7833C6.21719 42.238 5.91035 41.4986 5.90942 40.7273V34.9093C5.91054 34.1381 6.21742 33.3987 6.76278 32.8534C7.30815 32.308 8.04751 32.0011 8.81877 32H11.7281C12.4994 32.0011 13.2387 32.308 13.7841 32.8534C14.3295 33.3987 14.6363 34.1381 14.6375 34.9093V40.7273C14.6365 41.4987 14.3296 42.2382 13.784 42.7835C13.2384 43.3288 12.4988 43.6354 11.7274 43.636ZM8.81877 34.9093V40.7273H11.7281V34.9093H8.81877Z" fill="#393186"/>
<path d="M21.9085 63.9992H13.1811C12.7955 63.999 12.4257 63.8457 12.153 63.573C11.8803 63.3003 11.727 62.9305 11.7268 62.5448V56.7262C11.7268 56.3404 11.8801 55.9704 12.1529 55.6975C12.4257 55.4247 12.7957 55.2715 13.1815 55.2715C13.5673 55.2715 13.9373 55.4247 14.2101 55.6975C14.4829 55.9704 14.6362 56.3404 14.6362 56.7262V61.0898H20.4541V56.7262C20.4541 56.3404 20.6074 55.9704 20.8802 55.6975C21.153 55.4247 21.523 55.2715 21.9088 55.2715C22.2946 55.2715 22.6646 55.4247 22.9374 55.6975C23.2102 55.9704 23.3635 56.3404 23.3635 56.7262V62.5441C23.3635 62.93 23.2102 63.3001 22.9373 63.573C22.6645 63.8459 22.2944 63.9992 21.9085 63.9992Z" fill="#393186"/>
<path d="M56.8176 63.9992H48.0903C47.7047 63.999 47.3349 63.8457 47.0622 63.573C46.7895 63.3003 46.6362 62.9305 46.636 62.5448V56.7262C46.636 56.3404 46.7892 55.9704 47.0621 55.6975C47.3349 55.4247 47.7049 55.2715 48.0907 55.2715C48.4765 55.2715 48.8465 55.4247 49.1193 55.6975C49.3921 55.9704 49.5453 56.3404 49.5453 56.7262V61.0898H55.3633V56.7262C55.3633 56.3404 55.5166 55.9704 55.7894 55.6975C56.0622 55.4247 56.4322 55.2715 56.818 55.2715C57.2038 55.2715 57.5738 55.4247 57.8466 55.6975C58.1194 55.9704 58.2727 56.3404 58.2727 56.7262V62.5441C58.2727 62.93 58.1194 63.3001 57.8465 63.573C57.5736 63.8459 57.2035 63.9992 56.8176 63.9992Z" fill="#393186"/>
<path d="M40.8159 45.0904C37.9396 45.0904 35.1278 44.2374 32.7361 42.6394C30.3445 41.0413 28.4805 38.77 27.3797 36.1126C26.279 33.4552 25.991 30.531 26.5522 27.7099C27.1133 24.8888 28.4984 22.2974 30.5323 20.2635C32.5662 18.2296 35.1576 16.8445 37.9787 16.2834C40.7998 15.7222 43.724 16.0102 46.3814 17.1109C49.0388 18.2117 51.3101 20.0757 52.9082 22.4674C54.5062 24.859 55.3591 27.6708 55.3591 30.5471C55.3541 34.4027 53.8203 38.0989 51.094 40.8252C48.3677 43.5515 44.6715 45.0853 40.8159 45.0904ZM40.8159 18.9083C38.5146 18.9089 36.2651 19.5918 34.3519 20.8708C32.4388 22.1498 30.9478 23.9674 30.0676 26.0937C29.1873 28.22 28.9574 30.5596 29.4068 32.8166C29.8562 35.0736 30.9648 37.1467 32.5924 38.7737C34.2199 40.4007 36.2934 41.5085 38.5506 41.9571C40.8077 42.4057 43.1472 42.1749 45.2733 41.2939C47.3993 40.4129 49.2163 38.9213 50.4946 37.0076C51.7729 35.094 52.455 32.8442 52.4547 30.5429C52.451 27.4577 51.2234 24.5 49.0414 22.3189C46.8594 20.1378 43.9011 18.9108 40.8159 18.9083Z" fill="#393186"/>
<path d="M40.8178 24.7277C40.4322 24.7275 40.0624 24.5742 39.7897 24.3015C39.517 24.0288 39.3637 23.659 39.3635 23.2734V17.4547C39.3635 17.2636 39.4012 17.0745 39.4743 16.898C39.5474 16.7215 39.6545 16.5611 39.7896 16.4261C39.9247 16.291 40.085 16.1838 40.2615 16.1107C40.438 16.0376 40.6272 16 40.8182 16C41.0092 16 41.1984 16.0376 41.3749 16.1107C41.5514 16.1838 41.7117 16.291 41.8468 16.4261C41.9819 16.5611 42.089 16.7215 42.1621 16.898C42.2352 17.0745 42.2729 17.2636 42.2729 17.4547V23.2727C42.2729 23.6586 42.1196 24.0287 41.8467 24.3015C41.5738 24.5744 41.2037 24.7277 40.8178 24.7277Z" fill="#393186"/>
<path d="M40.8176 45.091C40.4319 45.0908 40.0621 44.9375 39.7894 44.6648C39.5168 44.3921 39.3635 44.0223 39.3633 43.6366V37.818C39.3633 37.6269 39.4009 37.4378 39.474 37.2613C39.5471 37.0848 39.6543 36.9244 39.7893 36.7893C39.9244 36.6543 40.0848 36.5471 40.2613 36.474C40.4378 36.4009 40.6269 36.3633 40.818 36.3633C41.009 36.3633 41.1981 36.4009 41.3746 36.474C41.5511 36.5471 41.7115 36.6543 41.8466 36.7893C41.9816 36.9244 42.0888 37.0848 42.1619 37.2613C42.235 37.4378 42.2726 37.6269 42.2726 37.818V43.6359C42.2726 44.0218 42.1193 44.3919 41.8465 44.6648C41.5736 44.9377 41.2035 45.091 40.8176 45.091Z" fill="#393186"/>
<path d="M33.5461 31.9992H27.7274C27.3416 31.9992 26.9716 31.8459 26.6988 31.5731C26.426 31.3003 26.2727 30.9303 26.2727 30.5445C26.2727 30.1587 26.426 29.7887 26.6988 29.5159C26.9716 29.2431 27.3416 29.0898 27.7274 29.0898H33.5454C33.9312 29.0898 34.3012 29.2431 34.574 29.5159C34.8468 29.7887 35 30.1587 35 30.5445C35 30.9303 34.8468 31.3003 34.574 31.5731C34.3012 31.8459 33.9319 31.9992 33.5461 31.9992Z" fill="#393186"/>
<path d="M53.9094 31.9992H48.0907C47.7049 31.9992 47.3349 31.8459 47.0621 31.5731C46.7892 31.3003 46.636 30.9303 46.636 30.5445C46.636 30.1587 46.7892 29.7887 47.0621 29.5159C47.3349 29.2431 47.7049 29.0898 48.0907 29.0898H53.9086C54.2945 29.0898 54.6645 29.2431 54.9373 29.5159C55.2101 29.7887 55.3633 30.1587 55.3633 30.5445C55.3633 30.9303 55.2101 31.3003 54.9373 31.5731C54.6645 31.8459 54.2952 31.9992 53.9094 31.9992Z" fill="#393186"/>
</g>
<defs>
<clipPath id="clip0_136_9531">
<rect width="69.818" height="64" fill="white" transform="translate(0.0910645)"/>
</clipPath>
</defs>
</svg>
