<svg width="73" height="73" viewBox="0 0 73 73" fill="none" xmlns="http://www.w3.org/2000/svg">
<path d="M36.6596 21.9302H17.2739C14.9802 21.9302 13.119 20.0691 13.119 17.7754C13.119 15.4817 14.9802 13.6205 17.2739 13.6205H36.6596C38.9534 13.6205 40.8145 15.4817 40.8145 17.7754C40.8145 20.0691 38.9534 21.9302 36.6596 21.9302ZM17.2739 16.3904C16.5105 16.3904 15.8889 17.012 15.8889 17.7754C15.8889 18.5387 16.5105 19.1603 17.2739 19.1603H36.6596C37.423 19.1603 38.0446 18.5387 38.0446 17.7754C38.0446 17.012 37.423 16.3904 36.6596 16.3904H17.2739Z" fill="white"/>
<path d="M33.8896 16.3904C33.1226 16.3904 32.5047 15.7688 32.5047 15.0018C32.5047 14.5838 32.6973 14.184 33.0245 13.9222L40.7017 7.77534C41.1707 7.41547 41.3524 6.79025 41.1452 6.23408C40.9598 5.67428 40.4291 5.29986 39.8366 5.31076H14.0858C13.4933 5.29986 12.9626 5.67429 12.7772 6.23772C12.57 6.79389 12.7481 7.41911 13.2207 7.77898L20.9016 13.9259C21.4795 14.4239 21.545 15.2999 21.047 15.8779C20.5744 16.4268 19.7565 16.5177 19.1749 16.0887L11.4904 9.94183C10.0982 8.84767 9.56383 6.98653 10.16 5.31804C10.7343 3.64228 12.3156 2.52631 14.0858 2.54085H39.8402C41.6105 2.52631 43.1881 3.64591 43.7625 5.31804C44.3622 6.9829 43.8242 8.84767 42.432 9.94183L34.7511 16.0887C34.5076 16.2814 34.2022 16.3904 33.8896 16.3904Z" fill="white"/>
<path d="M29.7347 69.0079H17.2738C6.75389 69.0079 2.04285 59.9675 2.04285 51.0071C2.04285 38.1499 8.82951 24.8347 18.1789 19.3458C18.3897 19.2222 18.6333 19.1567 18.8804 19.1567H35.0528C35.3 19.1567 35.5399 19.2222 35.7544 19.3458C39.8584 21.8758 43.2862 25.3654 45.7435 29.5167C46.1434 30.1673 45.9435 31.0216 45.2891 31.4251C44.6348 31.8286 43.7842 31.625 43.3807 30.9707C41.2179 27.3211 38.2335 24.2276 34.6639 21.9303H19.2585C10.8688 27.063 4.80912 39.2186 4.80912 51.0071C4.80912 58.0337 8.07342 66.238 17.2701 66.238H29.7311C30.4944 66.238 31.116 66.8596 31.116 67.623C31.116 68.3864 30.4981 69.0079 29.7347 69.0079Z" fill="white"/>
<path d="M48.8984 70.3384C58.2598 70.3384 65.8487 62.7495 65.8487 53.3881C65.8487 44.0268 58.2598 36.4379 48.8984 36.4379C39.537 36.4379 31.9481 44.0268 31.9481 53.3881C31.9481 62.7495 39.537 70.3384 48.8984 70.3384Z" fill="#D6992B"/>
<path d="M48.8984 70.3384C39.5527 70.3384 31.9481 62.7339 31.9481 53.3881C31.9481 44.0424 39.5527 36.4379 48.8984 36.4379C58.2441 36.4379 65.8487 44.0424 65.8487 53.3881C65.8487 62.7339 58.2441 70.3384 48.8984 70.3384ZM48.8984 39.0987C41.0176 39.0987 34.609 45.511 34.609 53.3881C34.609 61.2653 41.0212 67.6776 48.8984 67.6776C56.7756 67.6776 63.1878 61.2653 63.1878 53.3881C63.1878 45.511 56.7792 39.0987 48.8984 39.0987Z" fill="white"/>
<path d="M53.7481 49.2986C53.679 49.2332 53.5881 49.1968 53.4936 49.2005H51.6034C51.4943 48.6225 51.2508 48.0736 50.8945 47.6047H53.4718C53.6608 47.6119 53.8171 47.4665 53.8244 47.2812C53.8244 47.2702 53.8244 47.263 53.8244 47.2521V46.1252C53.8317 45.9362 53.6863 45.7799 53.4972 45.7726C53.49 45.7726 53.4791 45.7726 53.4718 45.7726H44.2678C44.0788 45.7653 43.9225 45.9107 43.9152 46.0998C43.9152 46.107 43.9152 46.1179 43.9152 46.1252V47.5974C43.9189 47.7901 44.0752 47.9464 44.2678 47.95H45.8709C47.4267 47.95 48.4154 48.368 48.8335 49.2005H44.2642C44.0752 49.1932 43.9189 49.3386 43.9116 49.5276C43.9116 49.5349 43.9116 49.5458 43.9116 49.5531V50.6836C43.9043 50.8726 44.0497 51.0289 44.2387 51.0362C44.246 51.0362 44.2569 51.0362 44.2642 51.0362H48.9861C48.8262 51.6396 48.4118 52.1412 47.852 52.4175C47.1177 52.7665 46.3107 52.9264 45.5001 52.8937H44.2606C44.0679 52.8973 43.9116 53.0536 43.908 53.2463V54.6531C43.908 54.7439 43.9407 54.8312 44.0061 54.8966C45.4201 56.4015 47.2595 58.5062 49.5132 61.2107C49.5787 61.2979 49.6804 61.3488 49.7895 61.3452H51.9451C52.0832 61.3561 52.2141 61.2761 52.265 61.1453C52.3413 61.0253 52.3231 60.869 52.2213 60.7708C50.0694 58.1318 48.3754 56.1543 47.1432 54.8421C48.2591 54.7512 49.3242 54.3259 50.1966 53.6243C50.9745 52.9664 51.4834 52.0467 51.6252 51.0362H53.4863C53.6754 51.0434 53.8317 50.898 53.8389 50.709C53.8389 50.7017 53.8389 50.6908 53.8389 50.6836V49.5531C53.8498 49.4549 53.8135 49.364 53.7481 49.2986Z" fill="white"/>
</svg>
