<svg width="65" height="69" viewBox="0 0 65 69" fill="none" xmlns="http://www.w3.org/2000/svg">
<path d="M35.308 20.0793H15.9222C13.6285 20.0793 11.7673 18.2182 11.7673 15.9245C11.7673 13.6308 13.6285 11.7696 15.9222 11.7696H35.308C37.6017 11.7696 39.4628 13.6308 39.4628 15.9245C39.4628 18.2182 37.6017 20.0793 35.308 20.0793ZM15.9222 14.5395C15.1588 14.5395 14.5372 15.1611 14.5372 15.9245C14.5372 16.6878 15.1588 17.3094 15.9222 17.3094H35.308C36.0713 17.3094 36.6929 16.6878 36.6929 15.9245C36.6929 15.1611 36.0713 14.5395 35.308 14.5395H15.9222Z" fill="#393186"/>
<path d="M32.5378 14.5395C31.7708 14.5395 31.1529 13.9179 31.1529 13.151C31.1529 12.7329 31.3455 12.3331 31.6727 12.0714L39.3499 5.92445C39.8188 5.56458 40.0006 4.93936 39.7934 4.38319C39.608 3.82339 39.0773 3.44897 38.4848 3.45987H12.734C12.1415 3.44897 11.6108 3.8234 11.4254 4.38683C11.2182 4.94299 11.3963 5.56822 11.8689 5.92809L19.5498 12.075C20.1277 12.573 20.1932 13.449 19.6952 14.027C19.2226 14.5759 18.4047 14.6668 17.8231 14.2378L10.1386 8.09093C8.74636 6.99678 8.21202 5.13564 8.80817 3.46715C9.38251 1.79139 10.9638 0.67542 12.734 0.68996H38.4884C40.2587 0.67542 41.8363 1.79502 42.4106 3.46715C43.0104 5.13201 42.4724 6.99678 41.0802 8.09093L33.3993 14.2378C33.1558 14.4305 32.8504 14.5395 32.5378 14.5395Z" fill="#393186"/>
<path d="M28.383 67.1571H15.9221C5.40221 67.1571 0.691162 58.1167 0.691162 49.1562C0.691162 36.299 7.47782 22.9838 16.8272 17.4949C17.038 17.3713 17.2816 17.3058 17.5288 17.3058H33.7011C33.9483 17.3058 34.1882 17.3713 34.4027 17.4949C38.5067 20.0249 41.9345 23.5145 44.3918 27.6658C44.7917 28.3164 44.5918 29.1707 43.9375 29.5742C43.2831 29.9777 42.4325 29.7741 42.0291 29.1198C39.8662 25.4702 36.8818 22.3768 33.3122 20.0794H17.9068C9.51708 25.2121 3.45744 37.3677 3.45744 49.1562C3.45744 56.1828 6.72173 64.3871 15.9184 64.3871H28.3794C29.1428 64.3871 29.7644 65.0088 29.7644 65.7721C29.7644 66.5355 29.1464 67.1571 28.383 67.1571Z" fill="#393186"/>
<path d="M47.5467 68.4875C56.9081 68.4875 64.497 60.8986 64.497 51.5372C64.497 42.1759 56.9081 34.587 47.5467 34.587C38.1853 34.587 30.5964 42.1759 30.5964 51.5372C30.5964 60.8986 38.1853 68.4875 47.5467 68.4875Z" fill="#D6992B"/>
<path d="M47.5467 68.4875C38.201 68.4875 30.5964 60.883 30.5964 51.5372C30.5964 42.1915 38.201 34.587 47.5467 34.587C56.8924 34.587 64.497 42.1915 64.497 51.5372C64.497 60.883 56.8924 68.4875 47.5467 68.4875ZM47.5467 37.2478C39.6659 37.2478 33.2573 43.6601 33.2573 51.5372C33.2573 59.4144 39.6695 65.8267 47.5467 65.8267C55.4239 65.8267 61.8361 59.4144 61.8361 51.5372C61.8361 43.6601 55.4275 37.2478 47.5467 37.2478Z" fill="#393186"/>
<path d="M52.3965 47.4478C52.3274 47.3823 52.2366 47.346 52.142 47.3496H50.2518C50.1428 46.7717 49.8992 46.2228 49.543 45.7538H52.1202C52.3093 45.7611 52.4656 45.6157 52.4728 45.4303C52.4728 45.4194 52.4728 45.4121 52.4728 45.4012V44.2744C52.4801 44.0853 52.3347 43.929 52.1457 43.9218C52.1384 43.9218 52.1275 43.9218 52.1202 43.9218H42.9163C42.7272 43.9145 42.5709 44.0599 42.5637 44.2489C42.5637 44.2562 42.5637 44.2671 42.5637 44.2744V45.7466C42.5673 45.9392 42.7236 46.0955 42.9163 46.0992H44.5193C46.0751 46.0992 47.0639 46.5172 47.4819 47.3496H42.9126C42.7236 47.3424 42.5673 47.4878 42.56 47.6768C42.56 47.6841 42.56 47.695 42.56 47.7022V48.8327C42.5528 49.0218 42.6982 49.1781 42.8872 49.1853C42.8945 49.1853 42.9054 49.1853 42.9126 49.1853H47.6346C47.4746 49.7888 47.0602 50.2904 46.5004 50.5667C45.7662 50.9156 44.9592 51.0756 44.1486 51.0428H42.909C42.7163 51.0465 42.56 51.2028 42.5564 51.3955V52.8022C42.5564 52.8931 42.5891 52.9803 42.6545 53.0458C44.0686 54.5507 45.9079 56.6554 48.1617 59.3599C48.2271 59.4471 48.3289 59.498 48.4379 59.4944H50.5935C50.7316 59.5053 50.8625 59.4253 50.9134 59.2944C50.9897 59.1745 50.9716 59.0182 50.8698 58.92C48.7178 56.281 47.0239 54.3035 45.7916 52.9912C46.9076 52.9004 47.9726 52.4751 48.845 51.7735C49.6229 51.1156 50.1319 50.1959 50.2736 49.1853H52.1348C52.3238 49.1926 52.4801 49.0472 52.4874 48.8582C52.4874 48.8509 52.4874 48.84 52.4874 48.8327V47.7022C52.4983 47.6041 52.4619 47.5132 52.3965 47.4478Z" fill="#393186"/>
</svg>
