<svg width="73" height="73" viewBox="0 0 73 73" fill="none" xmlns="http://www.w3.org/2000/svg">
<path d="M3.18079 37.4702V62.3486H11.6832L17.5756 39.6113L3.18079 37.4702Z" fill="#D6992B"/>
<path d="M53.3338 43.29C60.5611 43.29 66.42 37.4311 66.42 30.2038C66.42 22.9764 60.5611 17.1176 53.3338 17.1176C46.1065 17.1176 40.2476 22.9764 40.2476 30.2038C40.2476 37.4311 46.1065 43.29 53.3338 43.29Z" fill="#D6992B"/>
<path d="M53.3335 44.326C45.4091 44.326 38.986 37.8992 38.986 29.9748C38.986 22.0503 45.4127 15.6272 53.3372 15.6272C61.2616 15.6272 67.6847 22.0503 67.6847 29.9748C67.6775 37.8956 61.258 44.3151 53.3335 44.326ZM53.3335 18.4953C46.994 18.4953 41.854 23.6352 41.854 29.9748C41.854 36.3143 46.994 41.4543 53.3335 41.4543C59.6731 41.4543 64.8131 36.3143 64.8131 29.9748C64.8094 23.6389 59.6731 18.5025 53.3335 18.4953Z" fill="white"/>
<path d="M34.795 29.2877C34.635 29.2877 34.4787 29.2623 34.3261 29.2114C26.8269 26.6378 22.8356 18.4698 25.4093 10.9743C27.9829 3.47877 36.1508 -0.516166 43.6463 2.05746C47.8339 3.4933 51.1236 6.78308 52.5631 10.9707C52.8358 11.7159 52.4504 12.541 51.7053 12.81C50.9601 13.0826 50.1349 12.6973 49.8659 11.9521C49.8587 11.9376 49.855 11.9194 49.8478 11.9049C47.7903 5.90701 41.2581 2.7118 35.2566 4.77288C29.2588 6.83032 26.0636 13.3625 28.1246 19.364C29.2733 22.7155 31.9087 25.3473 35.2603 26.496C36.0091 26.7541 36.4089 27.572 36.1472 28.3208C35.9509 28.8988 35.4093 29.2877 34.795 29.2877Z" fill="white"/>
<path d="M11.7197 64.4132H3.10824C2.3158 64.4132 1.67236 63.7698 1.67236 62.9774V37.1466C1.67236 36.3542 2.3158 35.7108 3.10824 35.7108C12.8684 35.7108 18.0265 39.0006 18.241 39.1387C18.7535 39.4731 18.9971 40.0983 18.848 40.6945L13.1083 63.33C12.952 63.9734 12.3776 64.4205 11.7197 64.4132ZM4.54771 61.5452H10.6074L15.7946 41.0834C12.2504 39.5058 8.42268 38.6661 4.54407 38.6079V61.5452H4.54771Z" fill="white"/>
<path d="M38.9863 70.153C32.2142 70.153 19.1171 64.4605 11.916 61.0617C11.1999 60.7237 10.8909 59.8694 11.229 59.1533C11.5671 58.4372 12.4213 58.1282 13.1374 58.4663C18.7609 61.1199 32.5414 67.2813 38.9863 67.2813C45.9693 67.2813 62.4179 59.0843 67.1507 56.6451C66.4056 55.6673 64.8643 54.366 61.9454 54.366C59.2954 54.366 55.9402 55.4238 52.6905 56.4525C49.2372 57.5394 45.6639 58.6699 42.5741 58.6699C36.649 58.6699 28.7827 55.8345 28.4556 55.7146C27.7104 55.442 27.3251 54.6204 27.5977 53.8752C27.8703 53.13 28.6918 52.7447 29.437 53.0174C29.5097 53.0464 37.1615 55.8018 42.5778 55.8018C45.2277 55.8018 48.5829 54.744 51.8326 53.7153C55.2859 52.6284 58.8592 51.4979 61.949 51.4979C68.6484 51.4979 70.4114 56.5688 70.4914 56.7833C70.7095 57.4485 70.4187 58.1755 69.8044 58.5063C68.9065 58.9788 47.8559 70.153 38.9863 70.153Z" fill="white"/>
<path d="M49.0298 57.4994C48.2373 57.4994 47.5939 56.8596 47.5939 56.0672V54.6313C47.6085 52.6466 46.2453 50.9163 44.3115 50.4655L16.6123 43.7771C15.8417 43.5917 15.3691 42.8138 15.5545 42.0431C15.7399 41.2725 16.5178 40.7999 17.2885 40.9853L44.9767 47.6702C48.2082 48.4263 50.4838 51.3162 50.4656 54.6313V56.0672C50.4656 56.856 49.8222 57.4994 49.0298 57.4994Z" fill="white"/>
</svg>
