<svg width="70" height="70" viewBox="0 0 70 70" fill="none" xmlns="http://www.w3.org/2000/svg">
<path d="M1.82886 36.6193V61.4977H10.3313L16.2237 38.7604L1.82886 36.6193Z" fill="#D6992B"/>
<path d="M51.982 42.439C59.2093 42.439 65.0682 36.5801 65.0682 29.3527C65.0682 22.1254 59.2093 16.2665 51.982 16.2665C44.7546 16.2665 38.8958 22.1254 38.8958 29.3527C38.8958 36.5801 44.7546 42.439 51.982 42.439Z" fill="#D6992B"/>
<path d="M51.9816 43.475C44.0572 43.475 37.634 37.0482 37.634 29.1238C37.634 21.1994 44.0608 14.7762 51.9852 14.7762C59.9097 14.7762 66.3328 21.1994 66.3328 29.1238C66.3255 37.0446 59.906 43.4641 51.9816 43.475ZM51.9816 17.6443C45.6421 17.6443 40.5021 22.7843 40.5021 29.1238C40.5021 35.4634 45.6421 40.6034 51.9816 40.6034C58.3211 40.6034 63.4611 35.4634 63.4611 29.1238C63.4575 22.7879 58.3211 17.6516 51.9816 17.6443Z" fill="#393186"/>
<path d="M33.4433 28.4367C33.2833 28.4367 33.1271 28.4113 32.9744 28.3604C25.4753 25.7868 21.484 17.6188 24.0576 10.1233C26.6312 2.62782 34.7991 -1.36712 42.2946 1.2065C46.4822 2.64235 49.772 5.93213 51.2114 10.1197C51.4841 10.8649 51.0988 11.69 50.3536 11.959C49.6084 12.2317 48.7833 11.8464 48.5143 11.1012C48.507 11.0866 48.5033 11.0684 48.4961 11.0539C46.4386 5.05606 39.9064 1.86085 33.9049 3.92193C27.9071 5.97937 24.7119 12.5116 26.773 18.5131C27.9216 21.8646 30.5571 24.4964 33.9086 25.645C34.6574 25.9031 35.0572 26.721 34.7955 27.4699C34.5992 28.0478 34.0576 28.4367 33.4433 28.4367Z" fill="#393186"/>
<path d="M10.3679 63.5623H1.75643C0.963989 63.5623 0.320557 62.9189 0.320557 62.1264V36.2957C0.320557 35.5033 0.963989 34.8599 1.75643 34.8599C11.5166 34.8599 16.6747 38.1496 16.8892 38.2877C17.4017 38.6222 17.6452 39.2474 17.4962 39.8435L11.7565 62.479C11.6002 63.1224 11.0258 63.5695 10.3679 63.5623ZM3.1959 60.6942H9.25556L14.4427 40.2325C10.8986 38.6549 7.07087 37.8152 3.19226 37.757V60.6942H3.1959Z" fill="#393186"/>
<path d="M37.6344 69.3021C30.8623 69.3021 17.7652 63.6096 10.5641 60.2108C9.84801 59.8727 9.53902 59.0185 9.87708 58.3024C10.2151 57.5863 11.0694 57.2773 11.7855 57.6153C17.4089 60.2689 31.1894 66.4304 37.6344 66.4304C44.6173 66.4304 61.066 58.2333 65.7988 55.7942C65.0536 54.8164 63.5124 53.515 60.5934 53.515C57.9435 53.515 54.5883 54.5728 51.3385 55.6016C47.8852 56.6884 44.312 57.8189 41.2222 57.8189C35.297 57.8189 27.4308 54.9836 27.1036 54.8636C26.3584 54.591 25.9731 53.7695 26.2458 53.0243C26.5184 52.2791 27.3399 51.8938 28.0851 52.1664C28.1578 52.1955 35.8096 54.9509 41.2258 54.9509C43.8758 54.9509 47.2309 53.8931 50.4807 52.8643C53.934 51.7775 57.5073 50.647 60.5971 50.647C67.2965 50.647 69.0595 55.7178 69.1395 55.9323C69.3576 56.5975 69.0668 57.3245 68.4524 57.6553C67.5546 58.1279 46.5039 69.3021 37.6344 69.3021Z" fill="#393186"/>
<path d="M47.6778 56.6485C46.8854 56.6485 46.242 56.0087 46.242 55.2163V53.7804C46.2566 51.7957 44.8934 50.0654 42.9595 49.6146L15.2604 42.9262C14.4897 42.7408 14.0172 41.9629 14.2026 41.1922C14.388 40.4216 15.1659 39.949 15.9365 40.1344L43.6247 46.8193C46.8563 47.5754 49.1319 50.4653 49.1137 53.7804V55.2163C49.1137 56.0051 48.4703 56.6485 47.6778 56.6485Z" fill="#393186"/>
</svg>
