<svg xmlns="http://www.w3.org/2000/svg" version="1.1" xmlns:xlink="http://www.w3.org/1999/xlink" xmlns:svgjs="http://svgjs.com/svgjs" width="512" height="512" x="0" y="0" viewBox="0 0 512 512" style="enable-background:new 0 0 512 512" xml:space="preserve" class=""><g><path d="M1.655 218.199a21.693 21.693 0 0 1 4.701-23.64l98.699-98.699c8.475-8.475 22.208-8.475 30.682 0 8.472 8.47 8.472 22.208 0 30.678l-61.665 61.665h416.233c11.981 0 21.695 9.712 21.695 21.695s-9.714 21.695-21.695 21.695H21.697a21.695 21.695 0 0 1-20.042-13.394zm488.648 62.208H21.695C9.714 280.407 0 290.119 0 302.102s9.714 21.695 21.695 21.695h416.233l-61.667 61.665c-8.47 8.47-8.472 22.208 0 30.678a21.626 21.626 0 0 0 15.341 6.356 21.63 21.63 0 0 0 15.341-6.356l98.701-98.699a21.695 21.695 0 0 0-15.341-37.034z" fill="#777777" data-original="#000000" class=""></path></g></svg>