<svg width="585" height="331" viewBox="0 0 585 331" fill="none" xmlns="http://www.w3.org/2000/svg">
<path d="M22.8 329C22.9 326.6 -33.6 254.5 32.2 187.9C61.9 157.8 112.2 174.1 104.2 86.3C97.3 10.5 215.9 -34 289.6 33.6C337.2 77.3 385.4 19 460.9 52.1C536.4 85.2 486.7 175.1 517.7 183.6C578.8 200.3 609.1 273.8 560.4 328.1L22.8 329Z" fill="#ECF3FB"/>
<path d="M277.3 153.8C277 153.1 276.6 152.5 276.3 151.8L277.4 151.2C277.8 151.9 278.2 152.6 278.5 153.3L277.3 153.8ZM275.1 149.9C274.7 149.3 274.3 148.7 273.8 148L274.8 147.3C275.3 147.9 275.7 148.6 276.1 149.2L275.1 149.9ZM153.6 163.3C152.8 163.4 152 163.4 151.3 163.5L151.2 162.3C151.9 162.3 152.7 162.2 153.5 162.1L153.6 163.3ZM155.9 163L155.7 161.8C156.4 161.7 157.2 161.6 157.9 161.4L158.1 162.6C157.4 162.8 156.6 162.9 155.9 163ZM148.9 163.6C148.1 163.6 147.3 163.6 146.6 163.6L146.7 162.4C147.4 162.4 148.2 162.4 149 162.4L148.9 163.6ZM160.4 162.1L160.1 160.9C160.8 160.7 161.6 160.5 162.3 160.3L162.6 161.5C161.9 161.8 161.2 162 160.4 162.1ZM144.3 163.4C143.5 163.3 142.8 163.2 142 163.1L142.2 161.9C142.9 162 143.7 162.1 144.4 162.2L144.3 163.4ZM164.9 160.9L164.5 159.7C165.2 159.5 165.9 159.2 166.6 159L167 160.1C166.3 160.4 165.6 160.6 164.9 160.9ZM169.2 159.3L168.7 158.2C169.4 157.9 170.1 157.6 170.8 157.3L171.3 158.4C170.6 158.7 169.9 159 169.2 159.3ZM139.7 162.7C138.9 162.5 138.2 162.3 137.4 162.1L137.7 160.9C138.4 161.1 139.1 161.3 139.9 161.5L139.7 162.7ZM272.4 146.2C271.9 145.6 271.4 145 270.9 144.5L271.8 143.7C272.3 144.3 272.8 144.9 273.3 145.5L272.4 146.2ZM173.4 157.4L172.9 156.3C173.6 156 174.3 155.6 174.9 155.3L175.5 156.4C174.8 156.7 174.1 157 173.4 157.4ZM135.2 161.3C134.5 161 133.7 160.7 133 160.4L133.5 159.3C134.2 159.6 134.9 159.9 135.6 160.2L135.2 161.3ZM177.5 155.2L176.9 154.1C177.6 153.7 178.2 153.4 178.9 153L179.5 154.1C178.9 154.5 178.2 154.9 177.5 155.2ZM269.4 142.9C268.9 142.4 268.3 141.8 267.8 141.3L268.6 140.4C269.2 140.9 269.7 141.5 270.3 142L269.4 142.9ZM131 159.4C130.3 159 129.6 158.6 129 158.2L129.7 157.2C130.3 157.6 131 158 131.6 158.3L131 159.4ZM181.5 152.9L180.8 151.9C181.4 151.5 182.1 151.1 182.7 150.7L183.4 151.7C182.8 152 182.1 152.5 181.5 152.9ZM185.3 150.3L184.6 149.3C185.2 148.9 185.8 148.4 186.4 148L187.1 149C186.6 149.4 186 149.9 185.3 150.3ZM127.1 156.9C126.5 156.4 125.9 155.9 125.3 155.4L126.1 154.5C126.7 155 127.2 155.5 127.8 155.9L127.1 156.9ZM266 139.8C265.4 139.3 264.8 138.9 264.2 138.4L264.9 137.4C265.5 137.9 266.1 138.3 266.7 138.8L266 139.8ZM189 147.6L188.3 146.6L188.5 146.5C189.1 146.1 189.6 145.7 190.1 145.2L190.8 146.2C190.3 146.6 189.7 147 189.2 147.4L189 147.6ZM262.4 137.1C261.8 136.7 261.1 136.3 260.5 135.9L261.1 134.9C261.8 135.3 262.4 135.7 263.1 136.1L262.4 137.1ZM123.6 153.8C123.1 153.2 122.5 152.7 122 152.1L122.9 151.3C123.4 151.9 123.9 152.4 124.4 153L123.6 153.8ZM192.7 144.9L192 143.9C192.6 143.5 193.3 143 193.9 142.6L194.6 143.6C193.9 144 193.3 144.4 192.7 144.9ZM258.5 134.8C257.8 134.4 257.2 134.1 256.5 133.8L257 132.7C257.7 133 258.4 133.4 259.1 133.8L258.5 134.8ZM196.4 142.3L195.7 141.3C196.3 140.9 197 140.5 197.6 140.1L198.3 141.1C197.7 141.4 197.1 141.8 196.4 142.3ZM120.6 150.2C120.2 149.6 119.7 148.9 119.3 148.2L120.4 147.6C120.8 148.2 121.2 148.9 121.6 149.5L120.6 150.2ZM200.3 139.8L199.7 138.8C200.4 138.4 201 138 201.7 137.6L202.3 138.7C201.6 139.1 201 139.4 200.3 139.8ZM254.4 132.8C253.7 132.5 253 132.2 252.3 132L252.7 130.9C253.4 131.2 254.1 131.5 254.9 131.8L254.4 132.8ZM204.3 137.6L203.7 136.5C204.4 136.1 205.1 135.8 205.7 135.4L206.2 136.5C205.6 136.9 204.9 137.2 204.3 137.6ZM250.2 131.3C249.5 131.1 248.8 130.9 248 130.7L248.3 129.5C249 129.7 249.8 129.9 250.5 130.1L250.2 131.3ZM208.3 135.5L207.8 134.4C208.5 134.1 209.2 133.8 209.9 133.4L210.4 134.5C209.7 134.9 209 135.2 208.3 135.5ZM118.2 146.2C117.9 145.5 117.5 144.8 117.3 144.1L118.4 143.7C118.7 144.4 119 145.1 119.3 145.8L118.2 146.2ZM245.8 130.1C245.1 129.9 244.3 129.8 243.6 129.7L243.8 128.5C244.6 128.6 245.3 128.8 246.1 128.9L245.8 130.1ZM212.5 133.7L212 132.6C212.7 132.3 213.4 132 214.2 131.8L214.6 132.9C213.9 133.2 213.2 133.4 212.5 133.7ZM241.3 129.4C240.6 129.3 239.8 129.2 239 129.2L239.1 128C239.9 128.1 240.6 128.1 241.4 128.2L241.3 129.4ZM216.8 132.2L216.4 131C217.1 130.8 217.9 130.5 218.6 130.3L218.9 131.5C218.2 131.7 217.5 131.9 216.8 132.2ZM236.8 129C236.1 129 235.3 129 234.5 129V127.8C235.3 127.8 236.1 127.8 236.8 127.8V129ZM221.1 130.9L220.8 129.7C221.5 129.5 222.3 129.3 223.1 129.2L223.4 130.4C222.6 130.5 221.9 130.7 221.1 130.9ZM232.3 129.1C231.6 129.1 230.8 129.2 230 129.3L229.9 128.1C230.7 128 231.4 128 232.2 127.9L232.3 129.1ZM225.6 129.9L225.4 128.7C226.2 128.6 226.9 128.4 227.7 128.3L227.9 129.5C227.1 129.7 226.3 129.8 225.6 129.9ZM116.5 141.8C116.3 141.1 116.1 140.3 115.9 139.5L117.1 139.2C117.3 139.9 117.5 140.7 117.7 141.4L116.5 141.8ZM115.5 137.3C115.5 137 115.4 136.7 115.4 136.5C115.3 136 115.3 135.5 115.3 135L116.5 134.9C116.5 135.4 116.6 135.9 116.6 136.3C116.6 136.6 116.7 136.8 116.7 137.1L115.5 137.3ZM116.4 132.6H115.2C115.2 131.8 115.2 131 115.3 130.3L116.5 130.4C116.4 131.1 116.4 131.9 116.4 132.6ZM116.6 128.1L115.4 128C115.5 127.2 115.6 126.5 115.7 125.7L116.9 125.9C116.8 126.6 116.7 127.4 116.6 128.1ZM117.4 123.6L116.2 123.3C116.4 122.5 116.6 121.8 116.8 121.1L118 121.4C117.8 122.2 117.6 122.9 117.4 123.6ZM159.3 117.5C158.5 117.6 157.7 117.6 156.9 117.6L157 116.4C157.7 116.4 158.5 116.4 159.2 116.3L159.3 117.5ZM161.6 117.1L161.3 115.9C162 115.7 162.7 115.5 163.4 115.3L163.8 116.5C163.1 116.7 162.4 116.9 161.6 117.1ZM154.5 117.2C153.7 117 152.9 116.8 152.2 116.5L152.7 115.4C153.3 115.7 154 115.9 154.8 116.1L154.5 117.2ZM166.1 115.6L165.6 114.5C166.3 114.2 166.9 113.9 167.6 113.5L168.2 114.6C167.5 114.9 166.8 115.3 166.1 115.6ZM170.1 113.3L169.4 112.3C170 111.9 170.6 111.4 171.2 110.9L172 111.8C171.4 112.3 170.8 112.8 170.1 113.3ZM118.6 119.3L117.4 118.9C117.6 118.2 117.9 117.4 118.2 116.7L119.3 117.1C119.1 117.8 118.9 118.6 118.6 119.3ZM150.1 115.3C149.5 114.8 148.9 114.3 148.3 113.6L149.2 112.8C149.7 113.3 150.2 113.8 150.8 114.3L150.1 115.3ZM173.7 110.2L172.8 109.4C173.3 108.9 173.8 108.3 174.3 107.7L175.3 108.5C174.8 109.1 174.3 109.6 173.7 110.2ZM120.2 115L119.1 114.5C119.4 113.8 119.7 113.1 120.1 112.4L121.2 112.9C120.8 113.6 120.5 114.3 120.2 115ZM147 111.6C146.6 110.9 146.3 110.2 146.1 109.4L147.3 109C147.5 109.7 147.8 110.4 148.1 111L147 111.6ZM176.6 106.5L175.6 105.8C176 105.2 176.4 104.5 176.7 103.9L177.8 104.4C177.4 105.2 177 105.9 176.6 106.5ZM122.1 111L121 110.4C121.4 109.7 121.7 109 122.1 108.4L123.2 109C122.9 109.6 122.5 110.3 122.1 111ZM145.6 107.1C145.6 106.9 145.5 106.7 145.5 106.5C145.4 106 145.4 105.4 145.4 104.8H146.6C146.6 105.3 146.7 105.9 146.7 106.4C146.7 106.6 146.8 106.8 146.8 107L145.6 107.1ZM178.7 102.3L177.5 101.9C177.7 101.2 177.9 100.5 178.1 99.8L179.3 100.1C179.1 100.8 178.9 101.5 178.7 102.3ZM124.5 107.1L123.5 106.4C123.9 105.8 124.4 105.1 124.8 104.5L125.8 105.2C125.3 105.8 124.9 106.4 124.5 107.1ZM146.6 102.4H145.4C145.4 101.6 145.5 100.8 145.6 100.1L146.8 100.2C146.7 100.9 146.6 101.7 146.6 102.4ZM179.6 97.7L178.4 97.6C178.5 96.9 178.5 96.1 178.5 95.4H179.7C179.7 96.1 179.7 96.9 179.6 97.7ZM127.1 103.4L126.1 102.6C126.6 102 127.1 101.4 127.6 100.8L128.5 101.6C128.1 102.2 127.6 102.8 127.1 103.4ZM130.1 100L129.2 99.2C129.7 98.6 130.3 98.1 130.8 97.6L131.6 98.5C131.2 98.9 130.6 99.5 130.1 100ZM147.1 98L145.9 97.8C146 97 146.2 96.3 146.4 95.5L147.6 95.8C147.4 96.5 147.2 97.2 147.1 98ZM178.2 93.2C178 92.5 177.8 91.8 177.5 91.2L178.6 90.7C179 91.4 179.2 92.2 179.4 93L178.2 93.2ZM133.4 96.9L132.6 96C133.2 95.5 133.8 95 134.4 94.5L135.2 95.5C134.5 95.9 134 96.4 133.4 96.9ZM148.2 93.6L147 93.2C147.3 92.5 147.6 91.7 147.9 91L149 91.5C148.8 92.2 148.5 92.9 148.2 93.6ZM176.3 89.4C175.8 88.9 175.3 88.4 174.7 87.9L175.4 86.9C176.1 87.4 176.6 88 177.2 88.6L176.3 89.4ZM136.9 94.1L136.2 93.1C136.8 92.6 137.5 92.2 138.1 91.8L138.8 92.8C138.2 93.2 137.6 93.6 136.9 94.1ZM140.7 91.6L140.1 90.6C140.8 90.2 141.4 89.8 142.1 89.5L142.7 90.6C142 90.8 141.4 91.2 140.7 91.6ZM150.1 89.6L149 89C149.3 88.4 149.7 87.8 150.1 87.2C149.7 87.3 149.3 87.5 148.9 87.6L148.5 86.5C149.2 86.2 150 86 150.7 85.7L151.1 86.9C150.9 87 150.7 87 150.5 87.1L151.3 87.7C150.8 88.3 150.4 88.9 150.1 89.6ZM172.9 86.7C172.3 86.4 171.6 86.1 170.9 85.8L171.3 84.6C172.1 84.9 172.8 85.2 173.5 85.5L172.9 86.7ZM144.7 89.4L144.2 88.3C144.9 88 145.6 87.6 146.3 87.3L146.8 88.4C146.1 88.8 145.4 89.1 144.7 89.4ZM168.7 85.3C168 85.1 167.3 85 166.5 84.9L166.6 83.7C167.4 83.8 168.2 83.9 168.9 84.1L168.7 85.3ZM153.2 86.2L153 85.3C152.9 85.5 152.7 85.6 152.6 85.8L151.6 85C152.1 84.4 152.6 83.8 153.1 83.2L154 84C153.8 84.3 153.5 84.5 153.3 84.8C153.9 84.6 154.5 84.5 155.1 84.4L155.4 85.6C154.6 85.8 153.9 86 153.2 86.2ZM164.3 84.8C163.6 84.8 162.8 84.8 162.1 84.8V83.6C162.9 83.6 163.7 83.6 164.4 83.6L164.3 84.8ZM157.6 85.3L157.4 84.1C158.2 84 159 83.9 159.7 83.8L159.8 85C159.1 85 158.3 85.1 157.6 85.3ZM155.5 82.5L154.7 81.6C155.2 81.1 155.8 80.5 156.4 80L157.2 80.9C156.6 81.5 156.1 82 155.5 82.5ZM159 79.6L158.3 78.6C158.9 78.1 159.5 77.7 160.2 77.3L160.9 78.3C160.2 78.7 159.6 79.1 159 79.6ZM162.7 77L162.1 76C162.7 75.6 163.4 75.2 164.1 74.8L164.7 75.9C164 76.3 163.3 76.7 162.7 77ZM166.7 74.9L166.2 73.8C166.9 73.5 167.6 73.1 168.3 72.8L168.8 73.9C168.1 74.2 167.4 74.6 166.7 74.9ZM170.8 73.1L170.3 72C171 71.7 171.7 71.4 172.5 71.2L172.9 72.4C172.3 72.5 171.5 72.8 170.8 73.1ZM175.1 71.5L174.7 70.3C175.4 70.1 176.2 69.8 176.9 69.6L177.2 70.8C176.6 71.1 175.8 71.3 175.1 71.5ZM179.5 70.3L179.2 69.1C179.9 68.9 180.7 68.7 181.4 68.6L181.7 69.8C181 69.9 180.2 70.1 179.5 70.3ZM184 69.2L183.8 68C184.6 67.8 185.3 67.7 186.1 67.6L186.3 68.8C185.5 68.9 184.7 69.1 184 69.2ZM190.7 68.2C190.7 68.2 189.9 68.3 188.5 68.5L188.3 67.3C189.8 67.1 190.6 67 190.6 67L190.7 68.2Z" fill="#919BCE"/>
<path d="M196.7 202.9H148V327.8H196.7V202.9Z" fill="#C0D1EC"/>
<path d="M272.4 162.1H223.7V327.9H272.4V162.1Z" fill="#C0D1EC"/>
<path d="M345.8 118H292.5V327.8H345.8V118Z" fill="#C0D1EC"/>
<path d="M413.5 88.9H364.8V327.8H413.5V88.9Z" fill="#C0D1EC"/>
<path d="M345.8 187.9L448 138.4L402.4 235.6L394.7 191.5L345.8 187.9Z" fill="#EA3E96"/>
<path d="M322.2 154.8C319.7 144.5 326 134.2 336.3 131.7C346.6 129.2 356.9 135.5 359.4 145.8C361.9 156.1 355.6 166.4 345.3 168.9C335.1 171.4 324.7 165.1 322.2 154.8Z" fill="#FDB83F"/>
<path d="M345 167.4C340.5 168.5 335.8 167.8 331.8 165.4C327.8 163 325 159.1 323.9 154.6C322.8 150.1 323.5 145.4 325.9 141.4C328.3 137.4 332.2 134.6 336.7 133.5C341.2 132.4 345.9 133.1 349.9 135.5C353.9 137.9 356.7 141.8 357.8 146.3C358.9 150.8 358.2 155.5 355.8 159.5C353.4 163.5 349.6 166.3 345 167.4ZM337 134.5C328.2 136.6 322.8 145.5 324.9 154.3C327 163.1 335.9 168.5 344.7 166.4C353.5 164.3 358.9 155.4 356.8 146.6C354.7 137.8 345.8 132.4 337 134.5Z" fill="#FAA31C"/>
<path d="M455.617 112.141C462.498 104.438 461.831 92.6165 454.129 85.7362C446.426 78.8558 434.605 79.5223 427.724 87.2247C420.844 94.9271 421.51 106.749 429.213 113.629C436.915 120.509 448.737 119.843 455.617 112.141Z" fill="#FDB83F"/>
<path d="M442.4 117C437.9 117.2 433.5 115.6 430.2 112.5C426.9 109.4 424.9 105.2 424.8 100.7C424.6 96.2 426.2 91.8 429.3 88.5C432.4 85.2 436.6 83.2 441.1 83.1C445.6 82.9 450 84.5 453.3 87.6C456.6 90.7 458.6 94.9 458.7 99.4C458.9 103.9 457.3 108.3 454.2 111.6C451.1 114.8 446.9 116.8 442.4 117ZM441.1 84C432.3 84.3 425.4 91.8 425.8 100.6C426.1 109.4 433.6 116.3 442.4 115.9C451.2 115.6 458.1 108.1 457.7 99.3C457.3 90.5 449.9 83.6 441.1 84Z" fill="#FAA31C"/>
<path d="M396.7 133.6C396.6 126.5 402.2 120.6 409.3 120.5C416.4 120.4 422.3 126 422.4 133.1C422.5 140.2 416.9 146.1 409.8 146.2C402.7 146.3 396.8 140.7 396.7 133.6Z" fill="#FDB83F"/>
<path d="M409.8 145.2C406.7 145.3 403.7 144.1 401.4 141.9C399.1 139.7 397.9 136.8 397.8 133.7C397.7 130.6 398.9 127.6 401.1 125.3C403.3 123 406.2 121.8 409.3 121.7C412.4 121.6 415.4 122.8 417.7 125C420 127.2 421.2 130.1 421.3 133.2C421.4 136.3 420.2 139.3 418 141.6C415.9 143.9 412.9 145.2 409.8 145.2ZM409.4 122.5C403.3 122.6 398.5 127.6 398.6 133.7C398.7 139.8 403.7 144.6 409.8 144.5C415.9 144.4 420.7 139.4 420.6 133.3C420.5 127.2 415.5 122.4 409.4 122.5Z" fill="#FAA31C"/>
<path d="M374.431 115.33C391.733 114.155 404.806 99.1754 403.63 81.8735C402.454 64.5717 387.475 51.499 370.173 52.6748C352.871 53.8507 339.798 68.8298 340.974 86.1317C342.15 103.434 357.129 116.506 374.431 115.33Z" fill="#FDB83F"/>
<path d="M381.4 111.5C374.1 113.9 366.4 113.3 359.6 109.9C352.8 106.5 347.7 100.6 345.3 93.3C342.9 86 343.5 78.3 346.9 71.5C350.3 64.7 356.2 59.6 363.5 57.2C370.8 54.8 378.5 55.4 385.3 58.8C392.1 62.2 397.2 68.1 399.6 75.4C402 82.7 401.4 90.4 398 97.2C394.6 104 388.7 109.1 381.4 111.5ZM364 58.8C349.9 63.5 342.3 78.7 346.9 92.8C351.6 106.9 366.8 114.6 380.9 109.9C395 105.2 402.6 90 398 75.9C393.3 61.8 378.1 54.1 364 58.8Z" fill="#FAA31C"/>
<path d="M248.4 75.3C245.6 76 242.9 76.7 240.4 77.1C232.2 78.5 225.9 77.3 223.2 66.5C220.5 55.6 225.5 51.6 233.4 49C235.8 48.2 238.5 47.5 241.3 46.8C247.3 45.3 254 46 259.3 47.7C264.5 49.4 268.4 52.2 269.1 55C269.9 58.2 267.7 62.4 263.9 66.3C260 70.3 254.4 73.8 248.4 75.3Z" fill="#7A97CD"/>
<path d="M233.3 49L224 43L209.4 46.1L224.6 56.8L233.3 49Z" fill="#183660"/>
<path d="M240.3 77.1L235 86.8L220.6 90.9L229 74.3L240.3 77.1Z" fill="#183660"/>
<path d="M240.3 77.2C232.1 78.6 225.8 77.4 223.1 66.6C220.4 55.7 225.4 51.7 233.3 49.1L240.3 77.2Z" fill="#183660"/>
<path d="M204.1 71.3C204.1 71.3 208.2 61.8 215.3 63.3C222.6 64.8 221.7 72.6 216.2 73.4C210.7 74 207.3 70.5 204.1 71.3Z" fill="#F47D48"/>
<path d="M247.5 52.7001C251.3 51.8001 255.1 54.1 256 57.8C256.9 61.6 254.6 65.4 250.9 66.3C247.1 67.2 243.3 64.9001 242.4 61.2001C241.4 57.5001 243.7 53.7001 247.5 52.7001Z" fill="#183660"/>
<path d="M249.2 67.1C245.8 67.1 242.8 64.8 241.9 61.4C240.9 57.4 243.3 53.3 247.4 52.3C251.4 51.3 255.5 53.7 256.5 57.8C257 59.7 256.7 61.8 255.7 63.5C254.7 65.2 253 66.4 251.1 66.9C250.4 67 249.8 67.1 249.2 67.1ZM249.2 53C248.7 53 248.1 53.1 247.6 53.2C245.9 53.6 244.5 54.7 243.6 56.2C242.7 57.7 242.4 59.5 242.9 61.2C243.8 64.7 247.3 66.9 250.9 66C252.6 65.6 254 64.5 254.9 63C255.8 61.5 256.1 59.7 255.6 58C254.8 55 252.1 53 249.2 53Z" fill="#C0D1EC"/>
<path d="M263.9 66.4L259.3 47.8C264.5 49.5 268.4 52.3 269.1 55.1C269.9 58.2 267.8 62.5 263.9 66.4Z" fill="#F47D48"/>
<path d="M474.3 168.5C474.3 168.5 488.5 183.2 489.2 188.8C489.9 194.3 482.4 203 482.4 203L474.3 168.5Z" fill="#E24799"/>
<path d="M467.9 321.2C467.9 321.2 467.4 329 465.9 329.1C465.7 329.1 458.2 329.1 458.2 329.1L448.7 329C448.7 329 448.8 326.7 451.6 326.2C454.4 325.7 459.1 323.8 460.8 320.1C462.5 316.3 467.9 321.2 467.9 321.2Z" fill="#2F5B9A"/>
<path d="M489.1 321.3C489.1 321.3 488.6 329.1 487.1 329.2C486.9 329.2 479.4 329.2 479.4 329.2L469.9 329.1C469.9 329.1 470 326.8 472.8 326.3C475.6 325.8 480.3 323.9 482 320.2C483.7 316.3 489.1 321.3 489.1 321.3Z" fill="#1C427C"/>
<path d="M457.5 237.2C457.5 237.2 460 253.2 469.2 281.5C478.4 309.8 479.7 322.1 479.7 322.1L489.7 321.8C489.7 321.8 489.9 290.8 485.6 276.6C481.3 262.3 484.8 225.3 484.8 225.3L457.5 237.2Z" fill="#183660"/>
<path d="M452.7 226.1C452.7 226.1 452.3 250.1 456.4 279.7C460.5 309.2 459.1 321.8 459.1 321.8L469.1 322.2C469.1 322.2 475.1 292.7 473.4 277.9C471.7 263.1 481.7 227.2 481.7 227.2L452.7 226.1Z" fill="#1C478A"/>
<path d="M472.1 169.8L466.8 173.3L459.1 171.9C459.2 171.3 459.7 168.7 460.2 166.4C460.2 166.3 460.3 166.1 460.3 166C460.7 164 461 162.3 461 162.3L468.2 159.2L470.9 158C470.9 158 470.7 160.2 470.7 160.5C470.1 166 472.1 169.8 472.1 169.8Z" fill="#FAB17E"/>
<path d="M461.1 168.1C461.2 168 470.3 165.4 471.3 165.7C472.3 166 472.9 167.9 472.9 167.9L458 171.2C458 171.2 459.2 168.9 461.1 168.1Z" fill="#E24799"/>
<path d="M485.4 229.1C483.8 236.1 458.2 236.9 451.6 230.5C450.8 229.8 450.8 226.4 451.1 221.8C451.7 212.9 453.5 199.5 453.6 192.6C453.6 189.3 454.1 185.9 454.7 182.8C456 176.3 458 171.1 458 171.1C458 171.1 470.5 167.1 472.9 167.8C484.2 171.2 487 222.1 485.4 229.1Z" fill="#E24799"/>
<path d="M451.1 221.8C451.7 212.9 453.5 199.5 453.6 192.6C453.6 189.3 454.1 185.9 454.7 182.8L462.2 181.5C462.3 181.6 469.6 211.7 451.1 221.8Z" fill="#E24799"/>
<path d="M455.3 209.4C455.3 209.4 455.8 210.6 454.7 211.5C453.6 212.3 452.9 213.7 453.2 214.6C453.4 215.6 455.8 217.2 456.6 216.9C457.4 216.6 459.1 215.4 458.9 214.8C458.7 214.3 460 210.3 458 208.7C456 207.3 455.3 209.4 455.3 209.4Z" fill="#FAB17E"/>
<path d="M463.8 169.4C463.8 169.4 456.4 170.8 450.6 179.4C444.7 188 440.9 194.4 441.9 197.5C443 200.6 452.8 211.4 454.5 211.4C456.2 211.4 458.9 210.2 459.1 207.4C459.1 207.4 452.2 197 453.6 195.5C454.2 194.8 462.6 188 463.8 191.1C465.7 196.3 463.8 169.4 463.8 169.4Z" fill="#E24799"/>
<path d="M470.1 160.6C468.5 163.3 462.7 165.6 460.2 166.4C460.2 166.3 460.3 166.1 460.3 166C460.7 164 461 162.3 461 162.3L468.2 159.2C469.8 159.1 470.7 159.5 470.1 160.6Z" fill="#F9A56C"/>
<path d="M458.3 161.8C458.3 161.8 469.8 165.4 472 158.2C474.1 151 477.1 146.6 469.8 144C462.5 141.4 460.3 143.7 459 145.9C457.7 148.2 455.4 160.7 458.3 161.8Z" fill="#FAB17E"/>
<path d="M459.4 145.3C459.4 145.3 460.1 153.7 461.9 153.3C463.6 152.9 465.2 152.7 465 155.2C464.7 157.7 462.3 160.7 467.7 161.1C473.1 161.6 480.8 147.8 479.3 145.1C475 137.6 453.3 136 459.4 145.3Z" fill="#183660"/>
<path d="M403.5 324.3V327.3C403.5 327.5 403.4 327.8 403.3 328C403.1 328.2 402.9 328.3 402.7 328.4C402.6 328.4 402.5 328.4 402.4 328.5C402.3 328.5 402.2 328.5 402.2 328.5H344.9C344.2 328.5 343.6 328.1 343.5 327.5V327.4C343.5 327.4 343.5 327.4 343.5 327.3V324.3C343.5 324.3 343.5 324.3 343.5 324.2V324.1C343.6 323.5 344.2 323.1 344.9 323.1H402.2C402.3 323.1 402.4 323.1 402.4 323.1C402.5 323.1 402.6 323.1 402.7 323.2C403 323.3 403.2 323.4 403.3 323.6C403.4 323.8 403.5 324 403.5 324.3Z" fill="#FDB83F"/>
<path d="M375.3 328.5H344.6C344 328.5 343.6 328.1 343.4 327.6V327.5V327.4C343.4 327.4 343.4 327.4 343.4 327.3V324.3C343.4 324.3 343.4 324.3 343.4 324.2V324.1V324C343.5 323.5 344 323.1 344.6 323.1H371.5C372 324.7 373 326.9 375.3 328.5Z" fill="#FAA31C"/>
<path d="M396.6 323.1H395.9V328.5H396.6V323.1Z" fill="#FAA31C"/>
<path d="M394.4 323.1H393.7V328.5H394.4V323.1Z" fill="#FAA31C"/>
<path d="M391.7 323.1H391V328.5H391.7V323.1Z" fill="#FAA31C"/>
<path d="M387.7 323.1H387V328.5H387.7V323.1Z" fill="#FAA31C"/>
<path d="M383.4 323.1H382.7V328.5H383.4V323.1Z" fill="#FAA31C"/>
<path d="M376.8 323.1H376.1V328.5H376.8V323.1Z" fill="#FAA31C"/>
<path d="M370.7 323.1H370V328.5H370.7V323.1Z" fill="#FAA31C"/>
<path d="M365.2 323.1H364.5V328.5H365.2V323.1Z" fill="#FAA31C"/>
<path d="M398.7 323.1H398V328.5H398.7V323.1Z" fill="#FAA31C"/>
<path d="M400.1 323.1H399.4V328.5H400.1V323.1Z" fill="#FAA31C"/>
<path d="M401.4 323.1H400.7V328.5H401.4V323.1Z" fill="#FAA31C"/>
<path d="M402.4 323.1V328.4C402.3 328.4 402.2 328.4 402.2 328.4H401.8V323H402.2C402.2 323.1 402.3 323.1 402.4 323.1Z" fill="#FAA31C"/>
<path d="M403.3 323.6V327.9C403.1 328.1 402.9 328.2 402.6 328.3V323.1C402.9 323.3 403.1 323.4 403.3 323.6Z" fill="#FAA31C"/>
<path d="M397.4 318.9V321.9C397.4 322.1 397.3 322.4 397.2 322.6L397.1 322.7C397 322.8 396.8 322.9 396.6 323C396.5 323 396.4 323 396.3 323.1C396.2 323.1 396.1 323.1 396.1 323.1H338.8C338.1 323.1 337.5 322.7 337.4 322.1V322C337.4 322 337.4 322 337.4 321.9V318.9C337.4 318.9 337.4 318.9 337.4 318.8V318.7C337.5 318.1 338.1 317.7 338.8 317.7H396H396.1C396.1 317.7 396.1 317.7 396.2 317.7C396.3 317.7 396.4 317.7 396.5 317.8C396.5 317.8 396.6 317.8 396.6 317.9H396.7C396.7 317.9 396.7 317.9 396.8 317.9C396.9 317.9 396.9 318 397 318C397 318 397 318 397.1 318.1C397.3 318.5 397.4 318.7 397.4 318.9Z" fill="#FDB83F"/>
<path d="M369.2 323.1H338.5C337.9 323.1 337.5 322.7 337.3 322.2V322.1V322C337.3 322 337.3 322 337.3 321.9V318.9C337.3 318.9 337.3 318.9 337.3 318.8V318.7V318.6C337.4 318.1 337.9 317.7 338.5 317.7H365.4V317.8C365.9 319.5 366.9 321.6 369.2 323.1Z" fill="#FAA31C"/>
<path d="M390.4 317.8H389.7V323.2H390.4V317.8Z" fill="#FAA31C"/>
<path d="M388.2 317.8H387.5V323.2H388.2V317.8Z" fill="#FAA31C"/>
<path d="M385.6 317.8H384.9V323.2H385.6V317.8Z" fill="#FAA31C"/>
<path d="M381.5 317.8H380.8V323.2H381.5V317.8Z" fill="#FAA31C"/>
<path d="M377.3 317.8H376.6V323.2H377.3V317.8Z" fill="#FAA31C"/>
<path d="M370.7 317.8H370V323.2H370.7V317.8Z" fill="#FAA31C"/>
<path d="M364.5 317.8H363.8V323.2H364.5V317.8Z" fill="#FAA31C"/>
<path d="M359 317.8H358.3V323.2H359V317.8Z" fill="#FAA31C"/>
<path d="M392.5 317.8H391.8V323.2H392.5V317.8Z" fill="#FAA31C"/>
<path d="M393.9 317.8H393.2V323.2H393.9V317.8Z" fill="#FAA31C"/>
<path d="M395.3 317.8H394.6V323.2H395.3V317.8Z" fill="#FAA31C"/>
<path d="M396.2 317.8V323.1C396.1 323.1 396 323.1 396 323.1H395.6V317.7H396C396.1 317.8 396.2 317.8 396.2 317.8Z" fill="#FAA31C"/>
<path d="M397.1 318.3V322.6C396.9 322.8 396.7 322.9 396.4 323V317.8C396.8 317.9 397 318.1 397.1 318.3Z" fill="#FAA31C"/>
<path d="M400.3 313.7V316.7C400.3 316.9 400.2 317.2 400.1 317.4C399.9 317.6 399.7 317.7 399.4 317.8C399.3 317.8 399.2 317.8 399.1 317.9C399 317.9 398.9 317.9 398.9 317.9H341.6C341.4 317.9 341.2 317.9 341 317.8C340.6 317.6 340.3 317.3 340.3 317V316.9C340.3 316.9 340.3 316.9 340.3 316.8C340.3 316.8 340.3 316.8 340.3 316.7V313.7C340.3 313.7 340.3 313.7 340.3 313.6V313.5C340.4 312.9 341 312.5 341.7 312.5H399C399.1 312.5 399.2 312.5 399.2 312.5C399.3 312.5 399.4 312.5 399.5 312.6C399.8 312.7 400 312.8 400.2 313C400.3 313.2 400.3 313.5 400.3 313.7Z" fill="#FDB83F"/>
<path d="M372.2 317.9H341.5C341.3 317.9 341.1 317.9 340.9 317.8C340.6 317.6 340.3 317.3 340.2 317V316.9C340.2 316.9 340.2 316.9 340.2 316.8C340.2 316.8 340.2 316.8 340.2 316.7V313.7C340.2 313.7 340.2 313.7 340.2 313.6V313.5V313.4C340.3 312.9 340.8 312.5 341.4 312.5H368.3C368.7 314 369.7 316.1 371.9 317.7C372.1 317.8 372.1 317.9 372.2 317.9Z" fill="#FAA31C"/>
<path d="M393.4 312.5H392.7V317.9H393.4V312.5Z" fill="#FAA31C"/>
<path d="M391.2 312.5H390.5V317.9H391.2V312.5Z" fill="#FAA31C"/>
<path d="M388.6 312.5H387.9V317.9H388.6V312.5Z" fill="#FAA31C"/>
<path d="M384.5 312.5H383.8V317.9H384.5V312.5Z" fill="#FAA31C"/>
<path d="M380.2 312.5H379.5V317.9H380.2V312.5Z" fill="#FAA31C"/>
<path d="M373.6 312.5H372.9V317.9H373.6V312.5Z" fill="#FAA31C"/>
<path d="M367.5 312.5H366.8V317.9H367.5V312.5Z" fill="#FAA31C"/>
<path d="M362 312.5H361.3V317.9H362V312.5Z" fill="#FAA31C"/>
<path d="M395.5 312.5H394.8V317.9H395.5V312.5Z" fill="#FAA31C"/>
<path d="M396.9 312.5H396.2V317.9H396.9V312.5Z" fill="#FAA31C"/>
<path d="M398.2 312.5H397.5V317.9H398.2V312.5Z" fill="#FAA31C"/>
<path d="M399.2 312.6V317.9C399.1 317.9 399 317.9 399 317.9H398.6V312.5H399C399 312.5 399.1 312.6 399.2 312.6Z" fill="#FAA31C"/>
<path d="M400.1 313.1V317.4C399.9 317.6 399.7 317.7 399.4 317.8V312.6C399.7 312.7 399.9 312.9 400.1 313.1Z" fill="#FAA31C"/>
<path d="M401.7 308.4V311.4C401.7 311.6 401.6 311.9 401.5 312.1C401.5 312.1 401.5 312.1 401.4 312.2C401.3 312.3 401.2 312.4 401 312.5C400.9 312.5 400.9 312.6 400.8 312.6C400.7 312.6 400.6 312.6 400.5 312.7H400.4H400.3H343C342.3 312.7 341.7 312.3 341.6 311.7V311.6V308.5C341.6 307.9 342.2 307.5 342.8 307.4C342.9 307.4 342.9 307.4 343 307.4H400.3H400.4H400.5C400.6 307.4 400.7 307.4 400.8 307.5C401.1 307.6 401.3 307.7 401.5 307.9C401.6 307.9 401.7 308.1 401.7 308.4Z" fill="#FDB83F"/>
<path d="M373.6 312.5H342.9C342.3 312.5 341.9 312.1 341.7 311.6V311.5V311.4V308.3C341.7 307.7 342.2 307.3 342.8 307.2H342.9H369.8C370.2 308.8 371.2 311 373.6 312.5Z" fill="#FAA31C"/>
<path d="M394.8 307.2H394.1V312.6H394.8V307.2Z" fill="#FAA31C"/>
<path d="M392.6 307.2H391.9V312.6H392.6V307.2Z" fill="#FAA31C"/>
<path d="M389.9 307.2H389.2V312.6H389.9V307.2Z" fill="#FAA31C"/>
<path d="M385.9 307.2H385.2V312.6H385.9V307.2Z" fill="#FAA31C"/>
<path d="M381.6 307.2H380.9V312.6H381.6V307.2Z" fill="#FAA31C"/>
<path d="M375 307.2H374.3V312.6H375V307.2Z" fill="#FAA31C"/>
<path d="M368.9 307.2H368.2V312.6H368.9V307.2Z" fill="#FAA31C"/>
<path d="M363.4 307.2H362.7V312.6H363.4V307.2Z" fill="#FAA31C"/>
<path d="M396.9 307.2H396.2V312.6H396.9V307.2Z" fill="#FAA31C"/>
<path d="M398.3 307.2H397.6V312.6H398.3V307.2Z" fill="#FAA31C"/>
<path d="M399.6 307.2H398.9V312.6H399.6V307.2Z" fill="#FAA31C"/>
<path d="M400.6 307.2V312.5C400.5 312.5 400.4 312.5 400.4 312.5H400V307.1H400.4C400.4 307.2 400.5 307.2 400.6 307.2Z" fill="#FAA31C"/>
<path d="M401.5 307.7V312C401.3 312.2 401.1 312.3 400.8 312.4V307.2C401.1 307.4 401.3 307.5 401.5 307.7Z" fill="#FAA31C"/>
<path d="M397.5 303V306C397.5 306.2 397.4 306.5 397.3 306.7C397.1 306.9 396.9 307.1 396.6 307.1C396.5 307.1 396.4 307.1 396.3 307.2H396.2C396.2 307.2 396.2 307.2 396.1 307.2H338.8C338.1 307.2 337.5 306.7 337.4 306.1C337.4 306.1 337.4 306.1 337.4 306V303C337.4 303 337.4 303 337.4 302.9C337.5 302.4 337.9 302 338.4 301.9C338.5 301.9 338.6 301.9 338.7 301.9H396H396.1C396.1 301.9 396.1 301.9 396.2 301.9C396.2 301.9 396.2 301.9 396.3 301.9C396.4 301.9 396.5 301.9 396.6 302C396.9 302.1 397.1 302.2 397.3 302.4C397.4 302.5 397.5 302.8 397.5 303Z" fill="#FDB83F"/>
<path d="M369.3 307.2H338.6C337.9 307.2 337.4 306.7 337.4 306.1C337.4 306.1 337.4 306.1 337.4 306V303C337.4 303 337.4 303 337.4 302.9C337.5 302.4 337.8 302 338.4 301.9C338.4 301.9 338.4 301.9 338.5 301.9C338.6 301.9 338.6 301.9 338.7 301.9H365.6C366 303.5 367 305.6 369.3 307.2Z" fill="#FAA31C"/>
<path d="M390.6 301.8H389.9V307.2H390.6V301.8Z" fill="#FAA31C"/>
<path d="M388.4 301.8H387.7V307.2H388.4V301.8Z" fill="#FAA31C"/>
<path d="M385.7 301.8H385V307.2H385.7V301.8Z" fill="#FAA31C"/>
<path d="M381.7 301.8H381V307.2H381.7V301.8Z" fill="#FAA31C"/>
<path d="M377.4 301.8H376.7V307.2H377.4V301.8Z" fill="#FAA31C"/>
<path d="M370.8 301.8H370.1V307.2H370.8V301.8Z" fill="#FAA31C"/>
<path d="M364.6 301.8H363.9V307.2H364.6V301.8Z" fill="#FAA31C"/>
<path d="M359.1 301.8H358.4V307.2H359.1V301.8Z" fill="#FAA31C"/>
<path d="M392.7 301.8H392V307.2H392.7V301.8Z" fill="#FAA31C"/>
<path d="M394.1 301.8H393.4V307.2H394.1V301.8Z" fill="#FAA31C"/>
<path d="M395.4 301.8H394.7V307.2H395.4V301.8Z" fill="#FAA31C"/>
<path d="M396.4 301.9V307.2C396.3 307.2 396.2 307.2 396.2 307.2H395.8V301.8H396.2C396.2 301.8 396.3 301.9 396.4 301.9Z" fill="#FAA31C"/>
<path d="M397.3 302.4V306.7C397.1 306.9 396.9 307 396.6 307.1V301.9C396.9 302 397.1 302.2 397.3 302.4Z" fill="#FAA31C"/>
<path d="M397.4 297.7V300.7C397.4 300.9 397.3 301.2 397.2 301.4L397.1 301.5C397 301.6 396.8 301.7 396.6 301.8C396.5 301.8 396.5 301.8 396.4 301.9C396.4 301.9 396.4 301.9 396.3 301.9C396.2 301.9 396.1 301.9 396.1 301.9H338.8C338.7 301.9 338.7 301.9 338.6 301.9C338.6 301.9 338.6 301.9 338.5 301.9C337.9 301.8 337.5 301.4 337.4 300.9V300.8C337.4 300.8 337.4 300.8 337.4 300.7V297.7C337.4 297.7 337.4 297.7 337.4 297.6V297.5C337.5 296.9 338.1 296.5 338.8 296.5H396H396.1C396.1 296.5 396.1 296.5 396.2 296.5C396.3 296.5 396.4 296.5 396.5 296.6C396.5 296.6 396.6 296.6 396.6 296.7C396.8 296.8 396.9 296.9 397.1 297C397.1 297 397.1 297 397.2 297.1C397.3 297.2 397.4 297.5 397.4 297.7Z" fill="#FDB83F"/>
<path d="M369.2 301.9H338.5C338.5 301.9 338.5 301.9 338.4 301.9H338.3C337.7 301.8 337.3 301.4 337.2 300.9V300.8C337.2 300.8 337.2 300.8 337.2 300.7V297.7C337.2 297.7 337.2 297.7 337.2 297.6V297.5V297.4C337.3 296.9 337.8 296.5 338.4 296.5H365.3V296.6C365.9 298.2 366.9 300.3 369.2 301.9Z" fill="#FAA31C"/>
<path d="M390.4 296.5H389.7V301.9H390.4V296.5Z" fill="#FAA31C"/>
<path d="M388.2 296.5H387.5V301.9H388.2V296.5Z" fill="#FAA31C"/>
<path d="M385.6 296.5H384.9V301.9H385.6V296.5Z" fill="#FAA31C"/>
<path d="M381.5 296.5H380.8V301.9H381.5V296.5Z" fill="#FAA31C"/>
<path d="M377.3 296.5H376.6V301.9H377.3V296.5Z" fill="#FAA31C"/>
<path d="M370.7 296.5H370V301.9H370.7V296.5Z" fill="#FAA31C"/>
<path d="M364.5 296.5H363.8V301.9H364.5V296.5Z" fill="#FAA31C"/>
<path d="M359 296.5H358.3V301.9H359V296.5Z" fill="#FAA31C"/>
<path d="M392.5 296.5H391.8V301.9H392.5V296.5Z" fill="#FAA31C"/>
<path d="M393.9 296.5H393.2V301.9H393.9V296.5Z" fill="#FAA31C"/>
<path d="M395.3 296.5H394.6V301.9H395.3V296.5Z" fill="#FAA31C"/>
<path d="M396.2 296.6V301.9C396.1 301.9 396 301.9 396 301.9H395.6V296.5H396C396.1 296.5 396.2 296.5 396.2 296.6Z" fill="#FAA31C"/>
<path d="M397.1 297V301.3C396.9 301.5 396.7 301.6 396.4 301.7V296.5C396.8 296.7 397 296.9 397.1 297Z" fill="#FAA31C"/>
<path d="M400.3 292.5V295.5C400.3 295.7 400.2 296 400.1 296.2C399.9 296.4 399.7 296.5 399.4 296.6C399.3 296.6 399.2 296.6 399.1 296.7C399 296.7 398.9 296.7 398.9 296.7H341.6C341.4 296.7 341.2 296.7 341 296.6C340.6 296.4 340.3 296.1 340.3 295.8V295.7C340.3 295.7 340.3 295.7 340.3 295.6C340.3 295.6 340.3 295.6 340.3 295.5V292.5C340.3 292.5 340.3 292.5 340.3 292.4V292.3C340.4 291.7 341 291.3 341.7 291.3H399C399.1 291.3 399.2 291.3 399.2 291.3C399.3 291.3 399.4 291.3 399.5 291.4C399.8 291.5 400 291.6 400.2 291.8C400.3 292 400.3 292.2 400.3 292.5Z" fill="#FDB83F"/>
<path d="M372.2 296.7H341.5C341.3 296.7 341.1 296.7 340.9 296.6C340.6 296.4 340.3 296.1 340.2 295.8V295.7C340.2 295.7 340.2 295.7 340.2 295.6C340.2 295.6 340.2 295.6 340.2 295.5V292.5C340.2 292.5 340.2 292.5 340.2 292.4V292.3V292.2C340.3 291.7 340.8 291.3 341.4 291.3H368.3C368.7 292.8 369.7 294.9 371.9 296.5C372.1 296.6 372.1 296.6 372.2 296.7Z" fill="#FAA31C"/>
<path d="M393.4 291.3H392.7V296.7H393.4V291.3Z" fill="#FAA31C"/>
<path d="M391.2 291.3H390.5V296.7H391.2V291.3Z" fill="#FAA31C"/>
<path d="M388.6 291.3H387.9V296.7H388.6V291.3Z" fill="#FAA31C"/>
<path d="M384.5 291.3H383.8V296.7H384.5V291.3Z" fill="#FAA31C"/>
<path d="M380.2 291.3H379.5V296.7H380.2V291.3Z" fill="#FAA31C"/>
<path d="M373.6 291.3H372.9V296.7H373.6V291.3Z" fill="#FAA31C"/>
<path d="M367.5 291.3H366.8V296.7H367.5V291.3Z" fill="#FAA31C"/>
<path d="M362 291.3H361.3V296.7H362V291.3Z" fill="#FAA31C"/>
<path d="M395.5 291.3H394.8V296.7H395.5V291.3Z" fill="#FAA31C"/>
<path d="M396.9 291.3H396.2V296.7H396.9V291.3Z" fill="#FAA31C"/>
<path d="M398.2 291.3H397.5V296.7H398.2V291.3Z" fill="#FAA31C"/>
<path d="M399.2 291.3V296.6C399.1 296.6 399 296.6 399 296.6H398.6V291.2H399C399 291.3 399.1 291.3 399.2 291.3Z" fill="#FAA31C"/>
<path d="M400.1 291.8V296.1C399.9 296.3 399.7 296.4 399.4 296.5V291.3C399.7 291.5 399.9 291.6 400.1 291.8Z" fill="#FAA31C"/>
<path d="M405 287.1V290.1C405 290.3 404.9 290.6 404.8 290.7C404.8 290.7 404.8 290.7 404.7 290.8C404.6 290.9 404.5 291 404.4 291C404.3 291 404.3 291.1 404.2 291.1H404.1C404 291.1 403.9 291.1 403.8 291.2C403.7 291.2 403.6 291.2 403.6 291.2H346.3C345.6 291.2 345 290.8 344.9 290.2V290.1C344.9 290.1 344.9 290.1 344.9 290V287C344.9 287 344.9 287 344.9 286.9C344.9 286.3 345.5 285.9 346.1 285.8C346.2 285.8 346.2 285.8 346.3 285.8H403.6C403.7 285.8 403.8 285.8 403.8 285.8C403.9 285.8 404 285.8 404.1 285.9C404.3 286 404.5 286.1 404.7 286.3C404.7 286.3 404.7 286.3 404.8 286.4C404.9 286.7 405 286.9 405 287.1Z" fill="#FDB83F"/>
<path d="M376.9 291.3H346.2C345.6 291.3 345.1 290.9 345 290.4V290.3V290.2C345 290.2 345 290.2 345 290.1V287.1C345 287.1 345 287.1 345 287C345 286.4 345.5 286 346.1 285.9H346.2H373.1C373.5 287.5 374.5 289.7 376.9 291.3Z" fill="#FAA31C"/>
<path d="M398.1 286H397.4V291.4H398.1V286Z" fill="#FAA31C"/>
<path d="M395.9 286H395.2V291.4H395.9V286Z" fill="#FAA31C"/>
<path d="M393.2 286H392.5V291.4H393.2V286Z" fill="#FAA31C"/>
<path d="M389.2 286H388.5V291.4H389.2V286Z" fill="#FAA31C"/>
<path d="M384.9 286H384.2V291.4H384.9V286Z" fill="#FAA31C"/>
<path d="M378.3 286H377.6V291.4H378.3V286Z" fill="#FAA31C"/>
<path d="M372.2 286H371.5V291.4H372.2V286Z" fill="#FAA31C"/>
<path d="M366.7 286H366V291.4H366.7V286Z" fill="#FAA31C"/>
<path d="M400.2 286H399.5V291.4H400.2V286Z" fill="#FAA31C"/>
<path d="M401.6 286H400.9V291.4H401.6V286Z" fill="#FAA31C"/>
<path d="M402.9 286H402.2V291.4H402.9V286Z" fill="#FAA31C"/>
<path d="M403.9 286V291.3C403.8 291.3 403.7 291.3 403.7 291.3H403.3V286H403.7C403.7 286 403.8 286 403.9 286Z" fill="#FAA31C"/>
<path d="M404.8 286.5V290.8C404.6 291 404.4 291.1 404.1 291.2V286C404.4 286.1 404.6 286.3 404.8 286.5Z" fill="#FAA31C"/>
<path d="M397.5 281.8V284.8C397.5 285 397.4 285.3 397.3 285.5C397.1 285.7 396.9 285.9 396.6 285.9C396.5 285.9 396.4 285.9 396.3 286H396.2C396.2 286 396.2 286 396.1 286C396.1 286 396.1 286 396 286H338.7C338.2 286 337.8 285.8 337.5 285.4C337.4 285.2 337.3 285.1 337.3 284.9C337.3 284.9 337.3 284.9 337.3 284.8V281.8C337.3 281.8 337.3 281.8 337.3 281.7C337.3 281.2 337.7 280.8 338.3 280.6C338.4 280.6 338.6 280.5 338.7 280.5H396C396 280.5 396 280.5 396.1 280.5H396.2C396.3 280.5 396.4 280.5 396.5 280.6H396.6C396.8 280.7 396.9 280.7 397 280.9L397.1 281C397.4 281.3 397.5 281.5 397.5 281.8Z" fill="#FDB83F"/>
<path d="M369.3 286H338.6C338.2 286 337.8 285.8 337.6 285.5C337.5 285.3 337.4 285.1 337.4 284.9C337.4 284.9 337.4 284.9 337.4 284.8V281.8C337.4 281.8 337.4 281.8 337.4 281.7C337.4 281.2 337.8 280.7 338.4 280.6C338.5 280.6 338.6 280.6 338.7 280.6H365.6V280.7C366 282.3 367.1 284.4 369.3 286Z" fill="#FAA31C"/>
<path d="M390.6 280.6H389.9V286H390.6V280.6Z" fill="#FAA31C"/>
<path d="M388.4 280.6H387.7V286H388.4V280.6Z" fill="#FAA31C"/>
<path d="M385.7 280.6H385V286H385.7V280.6Z" fill="#FAA31C"/>
<path d="M381.7 280.6H381V286H381.7V280.6Z" fill="#FAA31C"/>
<path d="M377.4 280.6H376.7V286H377.4V280.6Z" fill="#FAA31C"/>
<path d="M370.8 280.6H370.1V286H370.8V280.6Z" fill="#FAA31C"/>
<path d="M364.6 280.6H363.9V286H364.6V280.6Z" fill="#FAA31C"/>
<path d="M359.1 280.6H358.4V286H359.1V280.6Z" fill="#FAA31C"/>
<path d="M392.7 280.6H392V286H392.7V280.6Z" fill="#FAA31C"/>
<path d="M394.1 280.6H393.4V286H394.1V280.6Z" fill="#FAA31C"/>
<path d="M395.4 280.6H394.7V286H395.4V280.6Z" fill="#FAA31C"/>
<path d="M396.4 280.6V285.9C396.3 285.9 396.2 285.9 396.2 285.9H395.8V280.5H396.2C396.2 280.6 396.3 280.6 396.4 280.6Z" fill="#FAA31C"/>
<path d="M397.3 281.1V285.4C397.1 285.6 396.9 285.7 396.6 285.8V280.6C396.9 280.8 397.1 280.9 397.3 281.1Z" fill="#FAA31C"/>
<path d="M401.7 276.5V279.5C401.7 279.7 401.6 280 401.5 280.2C401.3 280.4 401.1 280.5 400.8 280.6C400.7 280.6 400.6 280.6 400.5 280.7C400.4 280.7 400.3 280.7 400.3 280.7H343C342.8 280.7 342.6 280.7 342.4 280.6C342 280.4 341.7 280.1 341.6 279.7C341.6 279.7 341.6 279.7 341.6 279.6V276.6C341.6 276.6 341.6 276.6 341.6 276.5C341.6 275.9 342.2 275.5 342.8 275.4C342.9 275.4 342.9 275.4 343 275.4H400.3C400.4 275.4 400.5 275.4 400.5 275.4C400.6 275.4 400.7 275.4 400.8 275.5C401.1 275.6 401.3 275.7 401.5 275.9C401.6 276.1 401.7 276.3 401.7 276.5Z" fill="#FDB83F"/>
<path d="M373.6 280.7H342.9C342.7 280.7 342.5 280.7 342.3 280.6C341.9 280.4 341.7 280.1 341.6 279.7C341.6 279.7 341.6 279.7 341.6 279.6V276.6C341.6 276.6 341.6 276.6 341.6 276.5C341.6 275.9 342.1 275.5 342.7 275.4H342.8H369.7C370.1 276.9 371.1 279 373.3 280.6C373.4 280.7 373.5 280.7 373.6 280.7Z" fill="#FAA31C"/>
<path d="M394.8 275.4H394.1V280.8H394.8V275.4Z" fill="#FAA31C"/>
<path d="M392.6 275.4H391.9V280.8H392.6V275.4Z" fill="#FAA31C"/>
<path d="M389.9 275.4H389.2V280.8H389.9V275.4Z" fill="#FAA31C"/>
<path d="M385.9 275.4H385.2V280.8H385.9V275.4Z" fill="#FAA31C"/>
<path d="M381.6 275.4H380.9V280.8H381.6V275.4Z" fill="#FAA31C"/>
<path d="M375 275.4H374.3V280.8H375V275.4Z" fill="#FAA31C"/>
<path d="M368.9 275.4H368.2V280.8H368.9V275.4Z" fill="#FAA31C"/>
<path d="M363.4 275.4H362.7V280.8H363.4V275.4Z" fill="#FAA31C"/>
<path d="M396.9 275.4H396.2V280.8H396.9V275.4Z" fill="#FAA31C"/>
<path d="M398.3 275.4H397.6V280.8H398.3V275.4Z" fill="#FAA31C"/>
<path d="M399.6 275.4H398.9V280.8H399.6V275.4Z" fill="#FAA31C"/>
<path d="M400.6 275.4V280.7C400.5 280.7 400.4 280.7 400.4 280.7H400V275.3H400.4C400.4 275.4 400.5 275.4 400.6 275.4Z" fill="#FAA31C"/>
<path d="M401.5 275.9V280.2C401.3 280.4 401.1 280.5 400.8 280.6V275.4C401.1 275.5 401.3 275.7 401.5 275.9Z" fill="#FAA31C"/>
<path d="M403.5 271.2V274.2C403.5 274.4 403.4 274.7 403.3 274.9C403.1 275.1 402.9 275.2 402.6 275.3C402.5 275.3 402.4 275.3 402.3 275.4H402.2C402.2 275.4 402.2 275.4 402.1 275.4H344.8C344.1 275.4 343.5 274.9 343.4 274.3C343.4 274.3 343.4 274.3 343.4 274.2V271.2C343.4 271.2 343.4 271.2 343.4 271.1C343.4 270.5 344 270 344.8 270H402.1C402.2 270 402.3 270 402.3 270C402.4 270 402.5 270 402.6 270.1C402.9 270.2 403.1 270.3 403.3 270.5C403.4 270.7 403.5 271 403.5 271.2Z" fill="#FDB83F"/>
<path d="M375.3 275.4H344.6C343.9 275.4 343.4 274.9 343.4 274.3C343.4 274.3 343.4 274.3 343.4 274.2V271.2C343.4 271.2 343.4 271.2 343.4 271.1C343.4 270.5 344 270 344.6 270H371.5C372 271.6 373 273.8 375.3 275.4Z" fill="#FAA31C"/>
<path d="M396.6 270H395.9V275.4H396.6V270Z" fill="#FAA31C"/>
<path d="M394.4 270H393.7V275.4H394.4V270Z" fill="#FAA31C"/>
<path d="M391.7 270H391V275.4H391.7V270Z" fill="#FAA31C"/>
<path d="M387.7 270H387V275.4H387.7V270Z" fill="#FAA31C"/>
<path d="M383.4 270H382.7V275.4H383.4V270Z" fill="#FAA31C"/>
<path d="M376.8 270H376.1V275.4H376.8V270Z" fill="#FAA31C"/>
<path d="M370.7 270H370V275.4H370.7V270Z" fill="#FAA31C"/>
<path d="M365.2 270H364.5V275.4H365.2V270Z" fill="#FAA31C"/>
<path d="M398.7 270H398V275.4H398.7V270Z" fill="#FAA31C"/>
<path d="M400.1 270H399.4V275.4H400.1V270Z" fill="#FAA31C"/>
<path d="M401.4 270H400.7V275.4H401.4V270Z" fill="#FAA31C"/>
<path d="M402.4 270.1V275.4C402.3 275.4 402.2 275.4 402.2 275.4H401.8V270H402.2C402.2 270 402.3 270 402.4 270.1Z" fill="#FAA31C"/>
<path d="M403.3 270.6V274.9C403.1 275.1 402.9 275.2 402.6 275.3V270.1C402.9 270.2 403.1 270.4 403.3 270.6Z" fill="#FAA31C"/>
<path opacity="0.5" d="M363.7 301.8C363.7 301.9 363.7 301.9 363.7 301.8C363.6 303.6 363.3 305.4 362.8 307.1C362.7 307.4 362.7 307.6 362.6 307.9C362.1 309.5 361.5 311 360.7 312.5C359.7 314.4 358.5 316.1 357.1 317.7L357 317.8C355.2 319.8 353.1 321.6 350.7 323C350.2 323.3 349.7 323.6 349.1 323.9C348.7 324.1 348.4 324.3 348 324.4C347.7 324.6 347.3 324.8 346.9 325C345.9 325.6 344.6 326.1 343.3 326.5V324.1C343.3 324.1 343.3 324.1 343.3 324V323.9V323.8C343.4 323.3 343.9 322.9 344.5 322.9H338.4C337.8 322.9 337.4 322.5 337.2 322V321.9V321.8C337.2 321.8 337.2 321.8 337.2 321.7V318.7C337.2 318.7 337.2 318.7 337.2 318.6V318.5V318.4C337.3 317.9 337.8 317.5 338.4 317.5H340.8C340.5 317.3 340.2 317 340.1 316.7V316.6C340.1 316.6 340.1 316.6 340.1 316.5C340.1 316.5 340.1 316.5 340.1 316.4V313.4C340.1 313.4 340.1 313.4 340.1 313.3V313.2V313.1C340.2 312.6 340.7 312.2 341.3 312.2H342.7C342.1 312.2 341.7 311.8 341.5 311.3V311.2V311.1V308C341.5 307.4 342 307 342.6 306.9H338.5C337.8 306.9 337.3 306.4 337.3 305.8C337.3 305.8 337.3 305.8 337.3 305.7V302.7C337.3 302.7 337.3 302.7 337.3 302.6C337.4 302.1 337.7 301.7 338.3 301.6C337.7 301.5 337.3 301.1 337.2 300.6V300.5C337.2 300.5 337.2 300.5 337.2 300.4V297.4C337.2 297.4 337.2 297.4 337.2 297.3V297.2V297.1C337.3 296.6 337.8 296.2 338.4 296.2H340.8C340.5 296 340.2 295.7 340.1 295.4V295.3C340.1 295.3 340.1 295.3 340.1 295.2C340.1 295.2 340.1 295.2 340.1 295.1V292.1C340.1 292.1 340.1 292.1 340.1 292V291.9V291.8C340.2 291.3 340.7 290.9 341.3 290.9H346C345.4 290.9 344.9 290.5 344.8 290V289.9V289.8C344.8 289.8 344.8 289.8 344.8 289.7V286.7C344.8 286.7 344.8 286.7 344.8 286.6C344.8 286 345.3 285.6 345.9 285.5H338.5C338.1 285.5 337.7 285.3 337.5 285L338.3 280.3L339.4 273.5C340.7 273.7 342 273.9 343.2 274.3C343.3 274.3 343.3 274.3 343.4 274.4C344.1 274.6 344.8 274.8 345.5 275.1C348.7 276.3 351.8 278 354.4 280.3L354.5 280.4C355.9 281.6 357.1 282.9 358.2 284.4C358.4 284.7 358.6 285 358.9 285.3C359 285.4 359 285.5 359.1 285.6C359.4 286.1 359.8 286.6 360.1 287.1C360.8 288.3 361.4 289.6 361.9 290.9C362.6 292.6 363 294.4 363.3 296.1V296.2C363.8 298.4 363.8 300.1 363.7 301.8Z" fill="#E18226"/>
<path d="M304.5 312.7C297 299.1 301.9 281.9 315.6 274.4C329.2 266.9 346.4 271.8 353.9 285.5C361.4 299.1 356.5 316.3 342.8 323.8C329.2 331.3 312 326.3 304.5 312.7Z" fill="#E18226"/>
<path d="M341.7 324.4C341.4 324.6 341 324.8 340.6 325C340.5 325.1 340.4 325.1 340.2 325.2C339.9 325.3 339.6 325.5 339.4 325.6C326 332.2 309.6 327.1 302.3 313.9C295.3 301.3 299.1 285.6 310.5 277.4C311.4 276.7 312.4 276.1 313.4 275.6C313.8 275.4 314.1 275.2 314.5 275C314.9 274.8 315.2 274.7 315.6 274.5C316.7 274 317.8 273.6 319 273.3C320.7 272.8 322.4 272.5 324.1 272.3C329.4 271.7 334.8 272.7 339.5 275C344.5 277.5 348.9 281.4 351.8 286.7C359.1 299.9 354.6 316.6 341.7 324.4Z" fill="#FDB83F"/>
<path d="M327.3 325.8C324.9 325.8 322.6 325.5 320.2 324.8C313.7 322.9 308.3 318.6 305.1 312.7C301.8 306.8 301.1 300 303 293.5C304.9 287 309.2 281.6 315.1 278.4C327.3 271.7 342.7 276.1 349.4 288.3C356.1 300.5 351.7 315.9 339.5 322.6C335.6 324.8 331.5 325.8 327.3 325.8ZM327.2 276C323.2 276 319.1 277 315.4 279.1C309.6 282.3 305.5 287.5 303.6 293.8C301.8 300.1 302.5 306.8 305.7 312.5C308.9 318.3 314.1 322.4 320.4 324.3C326.7 326.1 333.4 325.4 339.1 322.2C351 315.7 355.3 300.7 348.8 288.8C344.3 280.6 335.9 276 327.2 276Z" fill="#FAA31C"/>
<g opacity="0.7">
<path d="M528.6 297.3C528.6 297.3 534 291 528.9 287C528.9 287 525.2 284.8 522.2 284.9C522.2 284.9 526.5 292.1 525.1 292.8C523.7 293.5 520.9 284.4 520.9 284.4C520.9 284.4 512.4 283.6 509.7 284.9C509.7 284.9 516.9 290.8 515.4 291.2C513.9 291.6 506.1 285.7 506.1 285.7C506.1 285.7 498.2 287 498.7 291.8C499.1 296.6 501.8 298.1 503 298C504.2 297.9 511.2 295.2 511.3 296.2C511.5 297.2 507.3 300.4 504.3 300.5C504.3 300.5 509.8 306.6 513.5 304.9C517.2 303.1 517.5 300.3 519.8 299.3C522.1 298.3 524.1 298.3 523.1 299.3C522.2 300.4 518 301.4 516.7 303.7C515.4 306 514.2 307.6 518 307C521.8 306.4 528 303.6 528.3 300.4C528.6 297.3 528.6 297.3 528.6 297.3Z" fill="#7BA3D6"/>
<path d="M502.5 292C502.5 292 523.9 291.2 528.6 297.3C528.6 297.3 529.6 300.4 532.9 303.3L533.4 304.7C533.4 304.7 529.7 300.8 528.4 300.6C528.3 300.5 530.4 292.9 502.5 292Z" fill="#7BA3D6"/>
<path d="M532.8 303.3C532.8 303.3 537.4 306.7 537.7 312.8L536.9 312.9C536.9 312.9 535.4 306.6 532.8 304.2C530.1 301.7 532.8 303.3 532.8 303.3Z" fill="#7BA3D6"/>
<path d="M545.3 292.1C545.3 292.1 537.7 287.8 541.2 282.1C541.2 282.1 544 278.6 547.1 277.6C547.1 277.6 545.5 286.2 547.1 286.4C548.7 286.6 548.2 276.7 548.2 276.7C548.2 276.7 556.2 272.8 559.3 273.2C559.3 273.2 554.3 281.6 556 281.4C557.6 281.2 563.2 272.7 563.2 272.7C563.2 272.7 571.4 271.2 572.7 276C574 280.9 571.9 283.3 570.7 283.6C569.5 283.9 561.7 283.8 561.9 284.8C562.1 285.8 567.4 287.4 570.3 286.5C570.3 286.5 567.1 294.5 562.8 294.1C558.5 293.7 557.2 291.1 554.6 290.9C552 290.7 550 291.4 551.4 292.1C552.7 292.8 557.2 292.3 559.3 294.1C561.4 295.9 563.2 297 559.2 297.8C555.2 298.6 548.2 298.1 546.7 295.1C545.3 292.1 545.3 292.1 545.3 292.1Z" fill="#7BA3D6"/>
<path d="M569 277.6C569 277.6 547.7 284.5 545.3 292.2C545.3 292.2 545.4 295.6 543.3 299.6V301.1C543.3 301.1 545.5 295.9 546.7 295.2C546.7 295.2 541.9 288.5 569 277.6Z" fill="#7BA3D6"/>
<path d="M543.2 299.5C543.2 299.5 539.9 304.5 541.8 310.6L542.6 310.4C542.6 310.4 541.8 303.7 543.5 300.4C545.3 297 543.2 299.5 543.2 299.5Z" fill="#7BA3D6"/>
<path d="M533.8 282.7C533.8 282.7 545.2 276.3 539.9 267.7C539.9 267.7 535.7 262.4 531.1 261C531.1 261 533.5 273.9 531.1 274.2C528.7 274.5 529.4 259.7 529.4 259.7C529.4 259.7 517.4 253.9 512.7 254.4C512.7 254.4 520.1 267 517.7 266.7C515.3 266.4 506.9 253.7 506.9 253.7C506.9 253.7 494.6 251.4 492.7 258.7C490.7 266 493.9 269.6 495.7 270.1C497.5 270.6 509.2 270.4 508.9 271.9C508.6 273.4 500.7 275.8 496.3 274.5C496.3 274.5 501.1 286.5 507.5 285.9C513.9 285.3 515.8 281.4 519.8 281.1C523.7 280.8 526.6 281.9 524.6 282.9C522.6 284 516 283.2 512.8 286C509.6 288.7 507 290.4 513 291.6C518.9 292.8 529.5 292.1 531.6 287.5C533.8 282.7 533.8 282.7 533.8 282.7Z" fill="#A3C0E5"/>
<path d="M498.3 260.9C498.3 260.9 530.1 271.2 533.8 282.7C533.8 282.7 533.6 287.9 536.8 293.8V296.1C536.8 296.1 533.5 288.4 531.6 287.3C531.7 287.3 538.8 277.3 498.3 260.9Z" fill="#A3C0E5"/>
<path d="M536.8 293.8C536.8 293.8 541.7 301.3 538.9 310.3L537.6 310C537.6 310 538.8 300 536.3 295C533.8 289.9 536.8 293.8 536.8 293.8Z" fill="#A3C0E5"/>
<path d="M533.5 327.9C522.7 327.9 513.9 319.1 513.9 308.3H553.2C553.1 319.2 544.3 327.9 533.5 327.9Z" fill="#A3C0E5"/>
<path d="M513.518 308.931H553.818V308.331H513.518V308.931Z" fill="#7BA3D6"/>
<path d="M541.9 327.9H523.5C523.5 327 524.2 326.3 525.1 326.3H540.3C541.2 326.4 541.9 327.1 541.9 327.9Z" fill="#7BA3D6"/>
</g>
<path d="M413.9 196.2C388.6 216.8 358.4 232.6 324 243.2C296 251.8 265.1 257.1 231.9 258.9C222.9 259.4 214.1 259.6 205.6 259.6C188.5 259.6 172.7 258.7 158.9 257.5L164.5 231.2C183.5 232.7 206.1 233.6 230.6 232.2C261.8 230.5 290.8 225.6 316.9 217.5C348.3 207.8 375.7 193.5 398.5 175L413.9 196.2Z" fill="#EA3E96"/>
<path d="M225.6 143.6C222.1 141.8 219.3 142.9 219.3 142.9C208.6 141.6 205.4 154.2 205.6 158.5C205.7 162.8 206.2 167.4 201.4 173C187.5 189.2 216.6 189.9 216.6 189.9C216.8 177 232.3 181.7 231.7 183C251.5 187.8 233.6 147.8 225.6 143.6Z" fill="#183660"/>
<path d="M184.1 197.5C184.1 197.5 182.2 194.6 180.7 194.6C179.2 194.5 176.4 193.8 176.6 194.3C176.8 194.9 178.6 194.9 178.7 195.3C178.9 195.6 176.1 196.1 175.3 196.2C174.5 196.3 172.6 196.2 172.7 196.6C172.8 197 176.1 198.6 178.4 198.4C180.7 198.2 183.6 199.1 183.6 199.1L184.1 197.5Z" fill="#FAB17E"/>
<path d="M211.5 198.4C211.5 198.4 210.5 200.4 208.6 202.8C206.4 205.6 202.9 208.9 198.5 209.5C196.4 209.8 194.4 209.4 192.5 208.5C187.2 206.2 183.3 200.8 183.3 200.8C182.4 198.3 183.9 196.5 183.9 196.5C183.9 196.5 194.6 198.9 195.6 198.4C196.6 197.9 202.5 180.8 203.9 178.7C205.3 176.6 210.1 175.4 210.1 175.4L211.5 198.4Z" fill="#E859A0"/>
<path d="M208.6 202.8C206.4 205.6 202.9 208.9 198.5 209.5C196.4 209.8 194.4 209.4 192.5 208.5C192.7 208.5 198 209.2 200.1 205.4C202.2 201.6 204.6 195.5 207.7 197.5C209.2 198.5 209.1 200.6 208.6 202.8Z" fill="#E787B8"/>
<path d="M251.2 313.5C251.2 313.5 254.5 316.5 253.8 318.6C253.2 320.7 250.2 322.1 249.8 324.7C249.4 327.3 247.8 328.7 246.4 328.7C245 328.7 239.6 328.7 239.6 328.7C239.6 328.7 238.5 326.9 241.1 326.3C243.6 325.8 244.6 322.7 244.4 319.9C244.2 317.1 244.6 313.3 244.6 313.3L250 312.1L251.2 313.5Z" fill="#385A9F"/>
<path d="M223.7 314.8C223.7 314.8 224.9 327.4 223.4 328.1H205.1C205.1 328.1 205.1 326 208 325.5C210.9 325 216.1 323.3 217 319.5C218 315.6 223.7 314.8 223.7 314.8Z" fill="#2B488C"/>
<path d="M236.7 224.6C232.9 216.2 230.6 213.7 231.1 211.1C231.4 209.2 230.1 174.8 230.1 174.8C229.7 174.7 228.8 174.5 228.3 174.4C226.8 174.1 225.5 173 224.9 171.5C224.3 169.7 223.8 167.1 223.8 163.7L223.3 163.8L215.2 165.4C215.2 165.4 215.4 167.9 215.4 170.4C215.4 170.4 215.4 170.4 215.4 170.5C215.4 172.6 214 174.4 212 175C211 175.3 210.1 175.5 210.1 175.5C210.1 175.5 207.1 184 206.6 192.7C206 201.4 212 205.2 206.6 222.6C201 240.4 238.8 229.2 236.7 224.6Z" fill="#FAB17E"/>
<path d="M215.2 165.4C215.2 165.4 215.4 167.9 215.4 170.4C219.9 170.3 222.3 166.1 223.3 163.8L215.2 165.4Z" fill="#E9955C"/>
<path d="M213.7 167.7C213.7 167.7 224.4 167.9 224.4 161.2C224.4 154.5 225.8 150 218.9 149.6C212.1 149.2 210.7 151.8 210.2 154C209.7 156.2 210.9 167.5 213.7 167.7Z" fill="#FAB17E"/>
<path d="M214.1 149.5C214.1 149.5 217 157.3 221.5 158.5C226 159.7 228 158.5 228 158.5C228 158.5 224.5 155.8 223.8 151C223.8 150.9 216.3 145.7 214.1 149.5Z" fill="#183660"/>
<path d="M214.8 150.1C214.8 150.1 212.6 150.9 211.7 152.5C210.8 154.1 210.1 156.1 210.3 158.6C210.3 158.6 208.1 153.3 210.6 150.3C213.2 147.1 214.8 150.1 214.8 150.1Z" fill="#183660"/>
<path d="M216 163.5C216 163.5 215.3 164.5 213.8 164.4C212.6 164.3 212.1 163.3 212.1 163.3C212.1 163.3 214.4 162.8 216 163.5Z" fill="#ECF3FB"/>
<path d="M237.8 190C237.8 190 238.1 193.8 237.8 198.4C237.6 201.5 234.5 205.5 234.1 206.6C233 209.1 231.8 209.6 231.8 209.6L222.2 212L218.8 212.8L208.2 209.6C208.2 209.6 203.4 196.1 205.3 188.5C207.2 180.9 210.2 175.6 210.2 175.6C210.2 175.6 218.9 184.1 230.2 174.9L237.8 190Z" fill="#E859A0"/>
<path d="M208.8 211.6C208.8 211.6 203.5 228 203.2 233.6C202.9 239.2 213.3 312.9 213.7 315.5C214.1 317.9 217.1 319.5 217.1 319.5C217.1 319.5 218.5 320.3 220.5 319.8C223.2 319 224.1 318.1 224.1 318.1C224.1 318.1 228.2 265.5 225.7 246.7C223.2 227.9 223.1 211.7 223.1 211.7H208.8V211.6Z" fill="#243962"/>
<path d="M231.1 211.1C231.1 211.1 239.1 221.9 239.9 229.2C240.6 236.5 241.1 262.1 242.7 269.2C244.3 276.3 250.2 290 250.2 312.1C250.2 312.1 249.6 313.4 247.7 314C247.1 314.2 246.3 314.4 245.5 314.6C243.9 315 242.4 314.2 241.6 312.8C237.6 304.8 225 279.1 224.4 273.7C223.9 269.9 220 244.9 211.3 230.2C209.2 226.7 212.6 212.6 212.6 212.6L231.1 211.1Z" fill="#2B488C"/>
<path d="M215.8 163.7C215.8 163.7 215.6 164.5 213.7 164.4C213.7 164.4 212.1 164.3 212.1 163.4C212.1 163.4 213.7 162.8 215.8 163.7Z" fill="white"/>
<path d="M207.9 209C207.9 209 210 210.7 214.2 210.8C219.2 210.9 231.7 209.5 231.7 209.5C231.7 209.5 232.3 211 232.2 212.7C232.2 212.7 217 216.5 208.2 213.3C208.3 213.3 207.1 211.1 207.9 209Z" fill="#243962"/>
<path d="M213.1 215.1C211.8 215.1 210.8 213.9 210.8 212.5C210.8 211.1 211.8 209.9 213.1 209.9C214.4 209.9 215.4 211.1 215.4 212.5C215.4 214 214.3 215.1 213.1 215.1ZM213.1 210.7C212.3 210.7 211.6 211.5 211.6 212.5C211.6 213.5 212.3 214.3 213.1 214.3C213.9 214.3 214.6 213.5 214.6 212.5C214.6 211.5 213.9 210.7 213.1 210.7Z" fill="white"/>
<path d="M229.503 190.742L213.966 204.271L232.485 225.539L248.022 212.011L229.503 190.742Z" fill="#B6473D"/>
<path d="M228.2 212.1C228.2 212.1 222.5 212.8 222.5 214.1C222.5 215.5 223.9 218.2 224.6 218.4C225.3 218.5 229.2 214.6 229.2 214.6L228.2 212.1Z" fill="#FAB17E"/>
<path d="M230.1 174.8C230.1 174.8 237.7 175.3 240.6 182.4C243.5 189.5 249.1 201.4 249.1 203.4C249.1 205.4 246 211.6 229.4 215.1C229.4 215.1 227.7 213.3 227.8 211.9C227.8 211.9 238.2 203 238.1 202C238 200 236.4 197.4 227.3 188.3C224.9 185.8 230.1 174.8 230.1 174.8Z" fill="#E859A0"/>
<path d="M65.4 328.7C64.9 328.7 64.5 328.3 64.5 327.9L65.7 276L69.2 275.6L66.2 327.9C66.3 328.3 65.9 328.7 65.4 328.7Z" fill="#99BFE5"/>
<path d="M122.1 328.7C122.6 328.7 123 328.3 123 327.9L121.8 276L118.3 275.6L121.3 327.9C121.3 328.3 121.7 328.7 122.1 328.7Z" fill="#B5D3EF"/>
<path d="M63.1 272.7V237.1C63.1 230.8 68.2 225.8 74.4 225.8H100C106.3 225.8 111.3 230.9 111.3 237.1V274L63.1 272.7Z" fill="#B5D3EF"/>
<path d="M116 278.4H68.3C65.4 278.4 63.1 276.1 63.1 273.2V272.8H116V278.4Z" fill="#99BFE5"/>
<path d="M121.8 278.4H84.6C83.2 278.4 82 277.2 82 275.8V275.4C82 274 83.2 272.8 84.6 272.8H121.9C123.3 272.8 124.5 274 124.5 275.4V275.8C124.4 277.2 123.2 278.4 121.8 278.4Z" fill="#B5D3EF"/>
<path d="M120.4 263.9C116.7 270.3 112.1 272.8 112.1 272.8H93C93 272.7 123.2 259 120.4 263.9Z" fill="#243962"/>
<path d="M105.7 313.3C105.2 313.9 105.1 314.5 105.4 315.2C105.9 316.5 107.4 317.9 109.1 319.3C109.3 319.5 109.5 319.6 109.7 319.8L109.8 319.9L109.9 320C111.5 321.5 110.9 321.9 113.9 324.9C117.3 328.4 119.6 328.5 120.2 328.1C120.8 327.8 119.6 326 118.4 323.9C118.3 323.8 118.3 323.7 118.2 323.6C118 323.3 117.9 323 117.7 322.8C116.2 320.3 116.6 319.1 117 315.4C117.3 312.4 121.7 298.5 121.7 298.5L115.3 297.4C115.3 297.4 113.4 308.5 111.2 310.2C110.1 311.1 108.8 311.1 107.7 311.8C107.6 311.8 107.5 311.9 107.5 311.9C106.8 312.3 106.2 312.7 105.7 313.3Z" fill="#FAB17E"/>
<path d="M105.7 313.3C105.2 313.9 105.1 314.5 105.4 315.2C106 316.5 107.4 317.9 109.1 319.3C109.3 319.5 109.5 319.7 109.7 319.8L109.8 319.9L109.9 320C111.5 321.5 110.9 321.9 113.9 324.9C117.3 328.4 119.6 328.5 120.2 328.1C120.8 327.8 119.6 326 118.4 323.9C117.7 323.7 114.7 322.4 112.4 319.5C110.4 316.9 109 313.6 107.7 311.7C107.6 311.7 107.5 311.8 107.5 311.8C106.8 312.3 106.2 312.7 105.7 313.3Z" fill="#243962"/>
<path d="M157.6 309.3C158 311.3 160.8 311 164 310.2C167.2 309.4 166.4 310.3 170.9 309.8C175.4 309.3 176.8 307.6 176.9 307C177 306.4 174.8 306.2 172.4 305.9C172.1 305.9 171.8 305.8 171.5 305.8C168.8 305.5 166.8 303.7 164.4 302.3C162.1 300.9 158.6 295.4 158.6 295.4L152.4 295.9C152.4 295.9 155.6 300.8 156.9 303C157.6 304.3 157.6 305.9 157.5 307.2C157.5 307.9 157.4 308.6 157.6 309.3Z" fill="#FAB17E"/>
<path d="M164 310.2C167.2 309.4 166.4 310.3 170.9 309.8C175.4 309.3 176.8 307.6 176.9 307C177 306.4 174.8 306.2 172.4 305.9C172.4 305.9 169.7 307.8 166 307.9C162.9 308 159.7 307.1 157.6 307.1C157.6 307.8 157.5 308.5 157.6 309.2C158 311.3 160.8 310.9 164 310.2Z" fill="#243962"/>
<path d="M133.9 269.8L128.1 285.3L120.6 305.6C120.6 305.6 118.6 305.8 116.6 305.2C114.8 304.7 112.7 303.3 112.7 303.3C112.7 303.3 114.8 281.5 118.7 269C119.7 265.8 120.8 263.2 122.1 261.7C128.1 254.7 133.9 269.8 133.9 269.8Z" fill="#243962"/>
<path d="M128 245.1C124.2 243.9 113.4 245.4 102.6 247.6L100.3 243.9L77 242C77 242 69.3 259.1 73.5 270C74.1 271.6 75.4 272.6 77.5 272.7H77.8C77.8 272.7 91.7 272.7 96.2 272.7C107.8 272.7 120.8 264.7 122.5 264.4C125.3 263.8 126.4 269.4 129.1 275.1C131.9 280.9 155 300.7 155 300.7C155 300.7 158.6 300.7 160 300.2C161.6 299.6 162.2 298.8 162.2 298.8C162.2 298.8 136.6 247.9 128 245.1Z" fill="#2B488C"/>
<path d="M99.5 175.7C96.5 174.1 91.9 173.9 91.2 173.8C82.3 172.6 77 185.5 76.7 189.4C76.1 196.6 72.3 197.7 67 202.2C56.3 211.2 59.4 221.7 65.3 225.6C68.8 227.9 75 225.6 75 225.6C75.1 225.7 92 216.2 100.3 211.6C112.7 209.9 107.1 179.8 99.5 175.7Z" fill="#B6473D"/>
<path d="M93.3 207.7C93.3 207.7 89.2 209.1 86.4 207.9C83.8 206.8 81.8 202.5 81.9 202.5C83.1 202.4 84.4 201.4 85.4 194.6L85.9 194.8L94.4 197.8C94.4 197.8 93.8 200.5 93.4 203.1C93 205.4 92.8 207.4 93.3 207.7Z" fill="#FAB17E"/>
<path d="M94.3 197.9C94.3 197.9 93.7 200.6 93.3 203.2C88.4 202.3 86.5 197.5 85.8 194.8L94.3 197.9Z" fill="#EE985E"/>
<path d="M95.6 200.6C95.6 200.6 84 199 85.1 191.8C86.2 184.6 85.4 179.5 92.9 180.2C100.3 180.9 101.4 183.9 101.6 186.3C101.8 188.9 98.6 200.8 95.6 200.6Z" fill="#FAB17E"/>
<path d="M101.1 182.4C101.1 182.4 93.7 188.8 88.6 189.3C83.6 189.8 81.6 188.2 81.6 188.2C81.6 188.2 84.6 185.7 86.4 181.7C86.9 180.5 88 179.7 89.3 179.6C93 179.4 99.8 179.2 101.1 182.4Z" fill="#B6473D"/>
<path d="M96.5 181.9C96.5 181.9 99 184.3 99.8 186.1C100.6 187.8 100.8 191.9 100.2 193.6C100.2 193.6 104.1 186.1 101.9 182.4C99.5 178.5 96.5 181.9 96.5 181.9Z" fill="#B6473D"/>
<path d="M103 224.8C102.6 248.3 102.9 243.4 100.3 245.6C99.7 246.1 97.9 246.5 95.7 246.6C88.5 247.1 75.9 245.9 75.4 244.6C73.7 240 74.9 238.6 73.5 231.5C73.4 230.8 73.2 229.9 73 229.1C71.8 224.3 70.7 222.6 74.8 214.8C78.5 207.8 82.4 202 82.7 202.2C92.5 208 93.3 203.1 93.3 203.1C93.3 203.1 103.2 213.4 103 224.8Z" fill="#E859A0"/>
<path d="M128.1 285.3L120.6 305.6C120.6 305.6 118.6 305.8 116.6 305.2C114.8 304.7 112.7 303.3 112.7 303.3C112.7 303.3 114.8 281.5 118.7 269L128.1 285.3Z" fill="#2B488C"/>
<path d="M93.3 203.2C93.3 203.2 103.4 204.9 104.6 209.3C105.8 213.6 112.8 239.2 112.8 239.2C112.8 239.2 107.7 240.1 105.3 237.8C102.9 235.4 97.1 215.8 97.1 215.8L93.3 203.2Z" fill="#E859A0"/>
<path d="M95.7 246.6C88.5 247.1 75.9 245.9 75.4 244.6C73.7 240 74.9 238.6 73.5 231.5L77 221.7C77 221.7 76.4 232.6 79.6 235.4C82.8 238.3 92.7 240.9 94.3 243.3C95.1 244.5 95.6 245.7 95.7 246.6Z" fill="#E04799"/>
<path d="M87.5 242C87.5 242 94.6 240.4 95.7 241C96.8 241.6 99.6 243.9 100 244.7C100.4 245.5 97.4 244.1 96.5 243.8C95.9 243.6 94.3 244.2 93.5 244.5C90.1 245.6 88.1 245 88.1 245L87.5 242Z" fill="#FAB17E"/>
<path d="M82.7 202.3C82.7 202.3 73.2 202.9 69.9 207.5C65.3 214 56 241.6 61.3 245.3C67.2 249.4 88.4 246.4 88.4 246.4C88.4 246.4 89.1 243.1 88.1 241.5C87.1 239.9 71.2 237.3 70.5 236.6C69.8 235.9 79.7 222.3 79.7 220.1C79.7 217.8 82.7 202.3 82.7 202.3Z" fill="#E859A0"/>
<path d="M96.1 243.1C96.1 243.1 97.6 245 98.1 245.2C98.6 245.4 98.9 245.4 98.9 245.4L97.9 243.6L96.1 243.1Z" fill="#FAB17E"/>
<path d="M95.7 241.1L100 243.2C100 243.2 99.8 243.5 99.3 243.5C98.8 243.5 97.4 243 97.4 243L95.7 241.1Z" fill="#FAB17E"/>
<path d="M96.4999 248.2H133L143.9 222.6H107.5L96.4999 248.2Z" fill="#4A494A"/>
<path d="M133.4 246.5H85.2V248.1H133L133.4 246.5Z" fill="#5C585C"/>
<path d="M123.7 235.4C124 234.5 123.4 233.8 122.5 233.8C121.5 233.8 120.5 234.5 120.3 235.4C120 236.3 120.6 237 121.5 237C122.5 237 123.5 236.3 123.7 235.4Z" fill="#ECF3FB"/>
<path d="M186.9 329.4C187.6 329.4 188.1 328.9 188 328.2L186.4 252.5L181.7 251.9L185.7 328.2C185.8 328.9 186.3 329.4 186.9 329.4Z" fill="#243962"/>
<path d="M88.6 329.4C87.9 329.4 87.4 328.9 87.5 328.2L89.1 252.5L93.8 251.9L89.8 328.2C89.7 328.9 89.2 329.4 88.6 329.4Z" fill="#243962"/>
<path d="M187.9 253.6H83.3C81.9 253.6 80.8 252.5 80.8 251.1V250.7C80.8 249.3 81.9 248.2 83.3 248.2H187.9C189.3 248.2 190.4 249.3 190.4 250.7V251.1C190.4 252.5 189.3 253.6 187.9 253.6Z" fill="#243962"/>
<path d="M576.8 330.4H1.49996C0.899964 330.4 0.399963 329.9 0.399963 329.3V329.1C0.399963 328.5 0.899964 328 1.49996 328H576.7C577.3 328 577.8 328.5 577.8 329.1V329.3C577.9 329.9 577.4 330.4 576.8 330.4Z" fill="#2E3652"/>
</svg>
