<svg width="244" height="165" viewBox="0 0 244 165" fill="none" xmlns="http://www.w3.org/2000/svg">
<path d="M25.9 140.902H27.6H122.9H218.2H219.9C220.1 140.902 220.3 140.902 220.4 140.902C225.6 124.302 236 89.5016 239.7 65.5016C238.8 65.8016 237.7 65.9016 236.7 65.9016C234 65.9016 231.5 65.1016 229.7 63.7016C223.2 70.2016 211.8 78.0016 194.6 79.2016C190.5 79.5016 186.1 79.4016 181.4 78.8016C162.8 76.5016 149.9 66.9016 141.4 54.7016C131.4 40.3016 127.4 22.3016 127 8.90161C125.8 9.30161 124.4 9.60162 122.9 9.60162C121.4 9.60162 120.1 9.30161 118.8 8.90161C118.4 22.4016 114.4 40.3016 104.4 54.7016C95.9 66.9016 83.1 76.6016 64.4 78.8016C59.6 79.4016 55.2 79.5016 51.2 79.2016C33.9 78.0016 22.6 70.2016 16.1 63.7016C14.2 65.1016 11.8 65.9016 9.09998 65.9016C8.09998 65.9016 6.99998 65.8016 6.09998 65.5016C9.79998 89.5016 20.2 124.202 25.4 140.902C25.5 141.002 25.7 140.902 25.9 140.902Z" fill="url(#paint0_linear_43_19)"/>
<path d="M17.8 61.2016C17.8 66.0016 13.8 69.9016 8.89999 69.9016C3.99999 69.9016 0 66.0016 0 61.2016C0 56.4016 3.99999 52.5016 8.89999 52.5016C13.8 52.5016 17.8 56.4016 17.8 61.2016Z" fill="url(#paint1_linear_43_19)"/>
<path d="M133.4 10.2016C133.4 15.8016 128.7 20.4016 122.9 20.4016C117.1 20.4016 112.4 15.8016 112.4 10.2016C112.4 4.6016 117.1 0.00160011 122.9 0.00160011C128.7 -0.0983999 133.4 4.5016 133.4 10.2016Z" fill="url(#paint2_linear_43_19)"/>
<path d="M244 61.2016C244 66.0016 240 69.9016 235.1 69.9016C230.2 69.9016 226.2 66.0016 226.2 61.2016C226.2 56.4016 230.2 52.5016 235.1 52.5016C240 52.5016 244 56.4016 244 61.2016Z" fill="url(#paint3_linear_43_19)"/>
<path d="M219.9 148.202H218.2H122.9H27.6H25.9C23.5 148.202 21.6 149.802 21.6 151.802L24.1 161.102C24.1 163.102 26 164.702 28.4 164.702H122.9H217.4C219.8 164.702 221.7 163.102 221.7 161.102L224.2 151.802C224.2 149.802 222.3 148.202 219.9 148.202Z" fill="url(#paint4_linear_43_19)"/>
<defs>
<linearGradient id="paint0_linear_43_19" x1="6.05768" y1="74.9268" x2="239.768" y2="74.9268" gradientUnits="userSpaceOnUse">
<stop stop-color="#FFD624"/>
<stop offset="0.4413" stop-color="#FFD166"/>
<stop offset="0.7486" stop-color="#BD880E"/>
<stop offset="1" stop-color="#F0C86C"/>
</linearGradient>
<linearGradient id="paint1_linear_43_19" x1="0.0645" y1="61.1619" x2="17.7919" y2="61.1619" gradientUnits="userSpaceOnUse">
<stop stop-color="#FFD624"/>
<stop offset="0.4413" stop-color="#FFD166"/>
<stop offset="0.7486" stop-color="#BD880E"/>
<stop offset="1" stop-color="#F0C86C"/>
</linearGradient>
<linearGradient id="paint2_linear_43_19" x1="112.449" y1="10.1581" x2="133.373" y2="10.1581" gradientUnits="userSpaceOnUse">
<stop stop-color="#FFD624"/>
<stop offset="0.4413" stop-color="#FFD166"/>
<stop offset="0.7486" stop-color="#BD880E"/>
<stop offset="1" stop-color="#F0C86C"/>
</linearGradient>
<linearGradient id="paint3_linear_43_19" x1="226.273" y1="61.1619" x2="244" y2="61.1619" gradientUnits="userSpaceOnUse">
<stop stop-color="#FFD624"/>
<stop offset="0.4413" stop-color="#FFD166"/>
<stop offset="0.7486" stop-color="#BD880E"/>
<stop offset="1" stop-color="#F0C86C"/>
</linearGradient>
<linearGradient id="paint4_linear_43_19" x1="21.6091" y1="156.434" x2="224.217" y2="156.434" gradientUnits="userSpaceOnUse">
<stop stop-color="#FFD624"/>
<stop offset="0.4413" stop-color="#FFD166"/>
<stop offset="0.7486" stop-color="#BD880E"/>
<stop offset="1" stop-color="#F0C86C"/>
</linearGradient>
</defs>
</svg>
