<svg width="421" height="377" viewBox="0 0 421 377" fill="none" xmlns="http://www.w3.org/2000/svg">
<g clip-path="url(#clip0_1_2)">
<path d="M461.8 331.4H-38.2V331.7H461.8V331.4Z" fill="#EBEBEB"/>
<path d="M411.7 347.5H378.6V347.8H411.7V347.5Z" fill="#EBEBEB"/>
<path d="M293 350.2H284.3V350.5H293V350.2Z" fill="#EBEBEB"/>
<path d="M377.6 338.2H358.4V338.5H377.6V338.2Z" fill="#EBEBEB"/>
<path d="M57.5 339.9H14.3V340.2H57.5V339.9Z" fill="#EBEBEB"/>
<path d="M72.6 339.9H66.3V340.2H72.6V339.9Z" fill="#EBEBEB"/>
<path d="M187 344.1H93.3V344.4H187V344.1Z" fill="#EBEBEB"/>
<path d="M251.448 123.09L389.248 123.09V32.8902L251.448 32.8902V123.09Z" fill="#E6E6E6"/>
<path d="M247.28 123.09L387.28 123.09V32.8902L247.28 32.8902V123.09Z" fill="#F0F0F0"/>
<path d="M251.448 140.725L389.248 140.725V123.025L251.448 123.025V140.725Z" fill="#E6E6E6"/>
<path d="M240.273 140.725L380.273 140.725V123.025L240.273 123.025V140.725Z" fill="#F0F0F0"/>
<path d="M381.435 117.255V38.7551L253.235 38.7551L253.235 117.255L381.435 117.255Z" fill="#FAFAFA"/>
<path d="M352.5 117.2L336.1 38.7H310.6L326.9 117.2H352.5Z" fill="white"/>
<path d="M378.7 111.3C378.9 111.3 379.1 111.1 379.1 110.9V42.5C379.1 42.3 378.9 42.1 378.7 42.1C378.5 42.1 378.3 42.3 378.3 42.5V110.8C378.3 111.1 378.5 111.3 378.7 111.3Z" fill="#F0F0F0"/>
<path d="M321.4 117.2L305.1 38.7H295.1L311.5 117.2H321.4Z" fill="white"/>
<path d="M253.884 117.206L253.884 38.7061H253.184L253.184 117.206H253.884Z" fill="#E6E6E6"/>
<path opacity="0.6" d="M245.9 47.6H383.7L384.2 41H246.4L245.9 47.6Z" fill="#EBEBEB"/>
<path opacity="0.6" d="M245.9 58.4H383.7L384.2 51.8H246.4L245.9 58.4Z" fill="#EBEBEB"/>
<path opacity="0.6" d="M245.9 69.2H383.7L384.2 62.6H246.4L245.9 69.2Z" fill="#EBEBEB"/>
<path opacity="0.6" d="M245.9 80H383.7L384.2 73.4H246.4L245.9 80Z" fill="#EBEBEB"/>
<path opacity="0.6" d="M245.9 90.8H383.7L384.2 84.2H246.4L245.9 90.8Z" fill="#EBEBEB"/>
<path opacity="0.6" d="M245.9 101.6H383.7L384.2 95H246.4L245.9 101.6Z" fill="#EBEBEB"/>
<path d="M369.5 265.8H340.6V271.5H369.5V265.8Z" fill="#E6E6E6"/>
<path d="M286.134 331.432H291.434V200.332H286.134V331.432Z" fill="#E6E6E6"/>
<path d="M267.621 271.458H340.621V265.758H267.621V271.458Z" fill="#F5F5F5"/>
<path d="M369.5 296.9H340.6V302.6H369.5V296.9Z" fill="#E6E6E6"/>
<path d="M267.621 302.691H340.621V296.991H267.621V302.691Z" fill="#F5F5F5"/>
<path d="M369.5 203.4H340.6V209.1H369.5V203.4Z" fill="#E6E6E6"/>
<path d="M267.621 209.191H340.621V203.491H267.621V209.191Z" fill="#F5F5F5"/>
<path d="M369.5 234.6H340.6V240.3H369.5V234.6Z" fill="#E6E6E6"/>
<path d="M267.621 240.325H340.621V234.625H267.621V240.325Z" fill="#F5F5F5"/>
<path d="M359.061 331.432H364.361V200.332H359.061V331.432Z" fill="#E6E6E6"/>
<path d="M335.251 331.432H340.551V200.332H335.251V331.432Z" fill="#F5F5F5"/>
<path d="M267.691 331.432H272.991V200.332H267.691V331.432Z" fill="#F5F5F5"/>
<path d="M27.1114 331.406H81.7114L81.7114 225.506H27.1114L27.1114 331.406Z" fill="#E6E6E6"/>
<path d="M41.7 331.4H27.2V316.8H57L41.7 331.4Z" fill="#FAFAFA"/>
<path d="M175.931 331.406H230.531V225.506H175.931V331.406Z" fill="#E6E6E6"/>
<path d="M27.1624 326.375H188.662V225.475H27.1624V326.375Z" fill="#FAFAFA"/>
<path d="M174.1 331.4H188.7V316.8H158.8L174.1 331.4Z" fill="#FAFAFA"/>
<path d="M38.4624 288.322H177.362V263.122H38.4624V288.322Z" fill="#F0F0F0"/>
<path d="M38.4624 318.994H177.362V293.794H38.4624V318.994Z" fill="#F0F0F0"/>
<path d="M64.9 265.8H151C153.5 265.8 155.6 263.8 155.6 261.2V260.9H60.3V261.2C60.3 263.7 62.3 265.8 64.9 265.8Z" fill="#FAFAFA"/>
<path d="M38.4624 257.651H177.362V232.451L38.4624 232.451V257.651Z" fill="#F0F0F0"/>
<path d="M64.9 235.2H151C153.5 235.2 155.6 233.2 155.6 230.6V230.3H60.3V230.6C60.3 233.1 62.3 235.2 64.9 235.2Z" fill="#FAFAFA"/>
<path d="M64.9 296.4H151C153.5 296.4 155.6 294.4 155.6 291.8V291.5H60.3V291.8C60.3 294.4 62.3 296.4 64.9 296.4Z" fill="#FAFAFA"/>
<path d="M35.8032 123.09L173.603 123.09V32.8902L35.8032 32.8902V123.09Z" fill="#E6E6E6"/>
<path d="M31.6349 123.09L171.635 123.09V32.8902L31.6349 32.8902V123.09Z" fill="#F0F0F0"/>
<path d="M35.8032 140.725L173.603 140.725V123.025L35.8032 123.025V140.725Z" fill="#E6E6E6"/>
<path d="M24.6275 140.725L164.627 140.725V123.025L24.6275 123.025V140.725Z" fill="#F0F0F0"/>
<path d="M165.812 117.178L165.812 38.6777L37.6125 38.6777L37.6125 117.178L165.812 117.178Z" fill="#FAFAFA"/>
<path d="M136.9 117.2L120.5 38.7H94.9L111.3 117.2H136.9Z" fill="white"/>
<path d="M163.1 111.3C163.3 111.3 163.5 111.1 163.5 110.9V42.5C163.5 42.3 163.3 42.1 163.1 42.1C162.9 42.1 162.7 42.3 162.7 42.5V110.8C162.6 111.1 162.8 111.3 163.1 111.3Z" fill="#F0F0F0"/>
<path d="M105.8 117.2L89.4 38.7H79.5L95.9 117.2H105.8Z" fill="white"/>
<path d="M38.2615 117.229L38.2615 38.7287H37.5615L37.5615 117.229H38.2615Z" fill="#E6E6E6"/>
<path opacity="0.6" d="M30.3 47.6H168L168.6 41H30.8L30.3 47.6Z" fill="#EBEBEB"/>
<path opacity="0.6" d="M30.3 51.3H168L168.6 44.7H30.8L30.3 51.3Z" fill="#EBEBEB"/>
<path opacity="0.6" d="M30.3 55H168L168.6 48.4H30.8L30.3 55Z" fill="#EBEBEB"/>
<path opacity="0.6" d="M30.3 58.7H168L168.6 52.2H30.8L30.3 58.7Z" fill="#EBEBEB"/>
<path opacity="0.6" d="M30.3 62.5H168L168.6 55.9H30.8L30.3 62.5Z" fill="#EBEBEB"/>
<path opacity="0.6" d="M30.3 66.2H168L168.6 59.6H30.8L30.3 66.2Z" fill="#EBEBEB"/>
<path d="M57.7758 222.25H62.5758L62.5758 169.15H57.7758L57.7758 222.25Z" fill="#F5F5F5"/>
<path d="M58.4849 222.276H59.7849L59.7849 169.176H58.4849L58.4849 222.276Z" fill="#FAFAFA"/>
<path d="M60.3846 222.277H60.8846L60.8846 169.177H60.3846L60.3846 222.277Z" fill="#FAFAFA"/>
<path d="M42.6 225.5H77.9C77.9 223 75.9 221.1 73.5 221.1H47C44.5 221.1 42.6 223.1 42.6 225.5Z" fill="#F0F0F0"/>
<path d="M51.6 202.1C52.4 202.1 53 201.5 53 200.7V166C53 165.2 52.4 164.6 51.6 164.6C50.8 164.6 50.2 165.2 50.2 166V200.8C50.3 201.5 50.9 202.1 51.6 202.1Z" fill="#F0F0F0"/>
<path d="M38.9 181.8H81.5L76.6 152H43.8L38.9 181.8Z" fill="#E0E0E0"/>
<path d="M211.8 376.5C318.888 376.5 405.7 371.441 405.7 365.2C405.7 358.959 318.888 353.9 211.8 353.9C104.712 353.9 17.9 358.959 17.9 365.2C17.9 371.441 104.712 376.5 211.8 376.5Z" fill="#F0F0F0"/>
<path d="M65.9355 151.384L64.9381 151.455L66.267 169.907L67.2644 169.835L65.9355 151.384Z" fill="#CA3060"/>
<path d="M67.9512 179.368L66.9538 179.44L67.4568 186.422L68.4542 186.35L67.9512 179.368Z" fill="#CA3060"/>
<path d="M299.5 264.2H85.3C80.5 264.2 76.2 260.2 75.9 255.4L65.4 109.2C65.1 104.4 68.7 100.4 73.6 100.4H287.8C292.6 100.4 296.9 104.4 297.2 109.2L307.7 255.3C308 260.2 304.3 264.2 299.5 264.2Z" fill="#3A3482"/>
<path d="M298.9 264.2H84.8C80 264.2 75.7 260.2 75.4 255.4L64.8 109.2C64.5 104.4 68.1 100.4 73 100.4H287.2C292 100.4 296.3 104.4 296.6 109.2L307.1 255.3C307.4 260.2 303.8 264.2 298.9 264.2Z" fill="#CA3060"/>
<path d="M300.7 264.2H86.5C81.7 264.2 77.4 260.2 77.1 255.4L66.6 109.2C66.3 104.4 69.9 100.4 74.8 100.4H289C293.8 100.4 298.1 104.4 298.4 109.2L308.9 255.3C309.2 260.2 305.5 264.2 300.7 264.2Z" fill="#DF829F"/>
<path d="M287.4 104.8H73.3C73.1 104.8 72.8 104.8 72.6 104.8C67.1 105.3 68.2 113.6 73.8 113.6H288.3C293.8 113.6 293.7 105.3 288.2 104.8C287.9 104.8 287.7 104.8 287.4 104.8Z" fill="#CA3060"/>
<path d="M78.9 109.2C79 110.3 78.1 111.2 77 111.2C75.9 111.2 74.9 110.3 74.8 109.2C74.7 108.1 75.6 107.2 76.7 107.2C77.8 107.2 78.8 108.1 78.9 109.2Z" fill="#FAFAFA"/>
<path d="M85.7 109.2C85.8 110.3 84.9 111.2 83.8 111.2C82.7 111.2 81.7 110.3 81.6 109.2C81.5 108.1 82.4 107.2 83.5 107.2C84.7 107.2 85.7 108.1 85.7 109.2Z" fill="#FAFAFA"/>
<path d="M92.6 109.2C92.7 110.3 91.8 111.2 90.7 111.2C89.6 111.2 88.6 110.3 88.5 109.2C88.4 108.1 89.3 107.2 90.4 107.2C91.5 107.2 92.5 108.1 92.6 109.2Z" fill="#FAFAFA"/>
<path d="M294.6 249.6H89.7C87.9 249.6 86.4 248.2 86.3 246.4L77.6 126.2C77.5 124.4 78.8 123 80.6 123H285.5C287.3 123 288.8 124.4 288.9 126.2L297.6 246.4C297.7 248.1 296.4 249.6 294.6 249.6Z" fill="white"/>
<path d="M208.3 203.8L205 157.5L194.9 151.4H167.1L170.8 203.8H208.3Z" fill="white"/>
<path d="M208.3 204.3H170.8C170.5 204.3 170.3 204.1 170.3 203.9L166.5 151.5C166.5 151.4 166.5 151.2 166.6 151.1C166.7 151 166.8 150.9 167 150.9H194.8C194.9 150.9 195 150.9 195.1 151L205.2 157.1C205.3 157.2 205.4 157.3 205.4 157.5L208.7 203.8C208.7 203.9 208.7 204.1 208.6 204.2C208.6 204.2 208.5 204.3 208.3 204.3ZM171.3 203.3H207.8L204.5 157.8L194.7 151.9H167.6L171.3 203.3Z" fill="#C2117C"/>
<path d="M205 157.5L194.9 151.4L198.6 159.5L205 157.5Z" fill="#EBEBEB"/>
<path d="M198.6 159.9C198.4 159.9 198.2 159.8 198.2 159.6L194.5 151.5C194.4 151.3 194.5 151.1 194.6 150.9C194.8 150.8 195 150.7 195.2 150.8L205.3 156.9C205.5 157 205.6 157.2 205.5 157.4C205.5 157.6 205.3 157.7 205.2 157.8L198.8 159.8C198.7 159.9 198.6 159.9 198.6 159.9ZM196 152.6L198.9 158.8L203.9 157.3L196 152.6Z" fill="#C2117C"/>
<path d="M182.8 175C182.9 176.2 182 177.1 180.8 177.1C179.6 177.1 178.6 176.2 178.5 175C178.4 173.8 179.3 172.9 180.5 172.9C181.7 172.9 182.7 173.8 182.8 175Z" fill="#C2117C"/>
<path d="M196.5 175C196.6 176.2 195.7 177.1 194.5 177.1C193.3 177.1 192.3 176.2 192.2 175C192.1 173.8 193 172.9 194.2 172.9C195.4 172.9 196.4 173.8 196.5 175Z" fill="#C2117C"/>
<path d="M200.4 188.7C200.1 188.7 199.9 188.5 199.9 188.3C199.7 184.9 194.3 182.1 188 182.1C183.8 182.1 180.1 183.3 178.2 185.3C177.4 186.2 177 187.2 177.1 188.2C177.1 188.5 176.9 188.7 176.7 188.7C176.4 188.7 176.2 188.5 176.2 188.3C176.1 187 176.6 185.8 177.6 184.7C179.6 182.5 183.7 181.1 188.1 181.1C195 181.1 200.7 184.2 201 188.2C200.9 188.5 200.7 188.7 200.4 188.7Z" fill="#C2117C"/>
<path d="M175 170.7C174.9 170.7 174.8 170.7 174.7 170.6C174.5 170.4 174.5 170.1 174.7 169.9L176.8 167.6C177 167.4 177.3 167.4 177.5 167.6C177.7 167.8 177.7 168.1 177.5 168.3L175.4 170.6C175.2 170.7 175.1 170.7 175 170.7Z" fill="#C2117C"/>
<path d="M199.4 170.7C199.3 170.7 199.2 170.7 199.1 170.6L196.6 168.3C196.4 168.1 196.4 167.8 196.6 167.6C196.8 167.4 197.1 167.4 197.3 167.6L199.8 169.9C200 170.1 200 170.4 199.8 170.6C199.6 170.7 199.5 170.7 199.4 170.7Z" fill="#C2117C"/>
<path d="M164.1 214.2H166.4L169.7 218.5L169.4 214.2H171.7L172.3 222H170L166.8 217.7L167.1 222H164.8L164.1 214.2Z" fill="#CA3060"/>
<path d="M173.1 218.1C173 216.8 173.3 215.8 174 215.1C174.7 214.4 175.6 214 176.9 214C178.2 214 179.2 214.3 180 215C180.8 215.7 181.2 216.7 181.3 217.9C181.4 218.8 181.3 219.6 181 220.2C180.7 220.8 180.3 221.2 179.8 221.6C179.2 221.9 178.5 222.1 177.7 222.1C176.8 222.1 176.1 222 175.5 221.7C174.9 221.4 174.4 221 174 220.4C173.4 219.8 173.2 219 173.1 218.1ZM175.5 218.1C175.6 218.9 175.7 219.5 176.1 219.8C176.4 220.1 176.8 220.3 177.3 220.3C177.8 220.3 178.2 220.1 178.5 219.8C178.8 219.5 178.9 218.9 178.8 218C178.7 217.3 178.6 216.7 178.2 216.4C177.8 216.1 177.5 215.9 177 215.9C176.5 215.9 176.1 216.1 175.9 216.4C175.6 216.7 175.5 217.3 175.5 218.1Z" fill="#CA3060"/>
<path d="M185.9 214.2H189.5C190.2 214.2 190.8 214.3 191.2 214.5C191.7 214.7 192 215 192.3 215.3C192.6 215.7 192.8 216.1 193 216.6C193.2 217.1 193.3 217.6 193.3 218.1C193.4 218.9 193.3 219.6 193.2 220C193 220.5 192.8 220.8 192.5 221.2C192.2 221.5 191.8 221.7 191.5 221.8C191 221.9 190.5 222 190.1 222H186.5L185.9 214.2ZM188.5 215.9L188.8 220.2H189.4C189.9 220.2 190.3 220.1 190.5 220C190.7 219.9 190.9 219.7 191 219.4C191.1 219.1 191.1 218.7 191.1 218C191 217.2 190.9 216.6 190.6 216.3C190.3 216 189.8 215.8 189.2 215.8H188.5V215.9Z" fill="#CA3060"/>
<path d="M199.2 220.7H196.5L196.2 222H193.7L196.1 214.2H198.7L202.2 222H199.7L199.2 220.7ZM198.6 219L197.5 216.2L196.8 219H198.6Z" fill="#CA3060"/>
<path d="M201.2 214.2H208.6L208.7 216.1H206.2L206.6 222H204.2L203.8 216.1H201.3L201.2 214.2Z" fill="#CA3060"/>
<path d="M214.2 220.7H211.5L211.2 222H208.7L211.1 214.2H213.7L217.2 222H214.7L214.2 220.7ZM213.5 219L212.4 216.2L211.7 219H213.5Z" fill="#CA3060"/>
</g>
<defs>
<clipPath id="clip0_1_2">
<rect width="420.8" height="376.6" fill="white"/>
</clipPath>
</defs>
</svg>
