<svg width="36" height="36" viewBox="0 0 36 36" fill="none" xmlns="http://www.w3.org/2000/svg">
<path fill-rule="evenodd" clip-rule="evenodd" d="M5.45696 22.7346C4.8543 22.8556 3.26738 23.2574 2.49335 23.4647C0.0625621 22.2392 -0.655299 18.5974 0.624899 16.7548L3.90892 15.916L5.45696 22.7346Z" fill="#CB8F30"/>
<path fill-rule="evenodd" clip-rule="evenodd" d="M0.308273 17.3417C0.395396 17.1314 0.501239 16.9341 0.625802 16.7548L3.90982 15.916L5.16554 21.4465C4.42751 21.62 3.3806 21.8872 2.79595 22.0441C1.08734 21.183 0.224751 19.1273 0.308273 17.3417Z" fill="#FCB13C"/>
<path fill-rule="evenodd" clip-rule="evenodd" d="M20.5552 4.37891L23.485 14.0416L25.6969 23.872C18.5298 22.9202 15.6173 22.139 10.9667 22.8151C11.4621 25.0342 12.8503 27.3548 13.9591 28.9093C14.1413 29.1649 14.0758 29.4968 13.926 29.7726C13.7762 30.0484 13.5321 30.2421 13.2196 30.2702L11.6968 30.4084C11.2792 30.4466 10.3806 30.0441 10.2013 29.6646L7.77917 23.4386C7.25283 23.5639 6.70201 23.7036 6.1188 23.8598C2.80886 22.0662 1.45522 17.0534 3.90185 14.133C8.73319 12.8291 10.7608 12.014 20.5552 4.37891Z" fill="#0F9DBE"/>
<path fill-rule="evenodd" clip-rule="evenodd" d="M9.74855 28.5005L7.7793 23.4395L9.39286 23.0996L11.4701 28.1059L9.74855 28.5005Z" fill="#208EA9"/>
<path fill-rule="evenodd" clip-rule="evenodd" d="M20.5542 4.37891L23.4839 14.0416L25.2833 22.0374C17.1809 20.9048 14.8631 20.169 7.18267 22.2275C4.41778 20.7291 3.01878 16.9858 4.05849 14.0913C8.77679 12.8104 10.867 11.9298 20.5542 4.37891Z" fill="#00B2CA"/>
<path d="M26.113 23.8305C27.9853 23.3286 28.3278 18.538 26.8779 13.1305C25.4281 7.723 22.735 3.74631 20.8627 4.2483C18.9904 4.75028 18.648 9.54086 20.0978 14.9484C21.5476 20.3558 24.2408 24.3325 26.113 23.8305Z" fill="#208EA9"/>
<path fill-rule="evenodd" clip-rule="evenodd" d="M24.6052 23.4316C22.9844 22.2853 21.1872 19.0236 20.0957 14.9505C18.9537 10.6894 18.9256 6.81207 19.8811 5.11426C21.5019 6.26053 23.299 9.52223 24.3906 13.5954C25.5318 17.8565 25.5606 21.7338 24.6052 23.4316Z" fill="#175664"/>
<path fill-rule="evenodd" clip-rule="evenodd" d="M23.1595 11.5303L19.5508 12.4973C19.6905 13.2914 19.8712 14.1137 20.0958 14.9511C20.3205 15.7885 20.5747 16.5913 20.8511 17.3488L24.4599 16.3818L23.1595 11.5303Z" fill="#208EA9"/>
<path fill-rule="evenodd" clip-rule="evenodd" d="M20.0723 14.8662L20.0953 14.9511C20.32 15.7885 20.5741 16.5913 20.8506 17.3488L24.4594 16.3818L23.7869 13.8711L20.0723 14.8662Z" fill="#1F8199"/>
<path fill-rule="evenodd" clip-rule="evenodd" d="M29.7521 12.744C29.4871 12.8146 29.215 12.6576 29.1444 12.3926C29.0739 12.1277 29.2308 11.8555 29.4958 11.7849L34.415 10.4666C34.6799 10.396 34.9521 10.553 35.0227 10.818C35.0932 11.0829 34.9363 11.3551 34.6713 11.4256L29.7521 12.744ZM30.655 23.4435C30.4001 23.3442 30.2734 23.0562 30.3735 22.8005C30.4736 22.5457 30.7609 22.4189 31.0165 22.519L33.8101 23.6142C34.065 23.7143 34.1918 24.0015 34.0917 24.2571C33.9923 24.512 33.7043 24.6388 33.4487 24.5387L30.655 23.4435ZM25.5105 3.55366C25.3434 3.77038 25.0316 3.80998 24.8156 3.64294C24.5989 3.47589 24.5593 3.16412 24.7264 2.94812L26.8483 0.192596C27.0153 -0.0241303 27.3271 -0.0637315 27.5431 0.103313C27.7598 0.270358 27.7994 0.582128 27.6324 0.798134L25.5105 3.55366ZM31.4629 18.1816C31.1886 18.1816 30.9661 17.9591 30.9661 17.6848C30.9661 17.4105 31.1886 17.188 31.4629 17.188H34.4632C34.7375 17.188 34.96 17.4105 34.96 17.6848C34.96 17.9591 34.7375 18.1816 34.4632 18.1816H31.4629ZM27.7958 7.29129C27.5589 7.42881 27.2551 7.34745 27.1183 7.11056C26.9807 6.87367 27.0621 6.56982 27.299 6.43302L31.4262 4.04975C31.663 3.91223 31.9669 3.99359 32.1037 4.23048C32.2412 4.46736 32.1599 4.77121 31.923 4.90802L27.7958 7.29129Z" fill="#818181"/>
<path fill-rule="evenodd" clip-rule="evenodd" d="M6.61161 34.1792C9.12161 34.3527 12.0291 34.0446 14.1682 32.6427C15.5572 31.7326 14.9948 30.4646 13.886 30.6338C15.9128 29.8288 14.9437 28.2289 13.7168 28.7178L14.48 28.4133C15.6119 27.9618 14.93 26.2518 13.7981 26.7025L13.2869 26.9063C14.4188 26.4555 13.7369 24.7462 12.6051 25.1955C11.0534 25.8111 10.1232 26.1258 9.00064 26.5434L8.2475 24.6533C7.5246 24.9449 6.90682 25.2171 6.53313 25.4151C5.53518 25.9458 5.15501 26.7666 4.17578 28.0684L6.61161 34.1792Z" fill="#B79876"/>
<path fill-rule="evenodd" clip-rule="evenodd" d="M13.8853 30.6349C13.7096 30.7076 13.5814 30.7566 13.364 30.8437C13.2272 30.8984 13.0702 30.8322 13.0155 30.6954C12.9608 30.5586 13.027 30.4016 13.1638 30.3469C13.7866 30.0963 14.9559 29.9386 15.0063 29.1517C14.8523 28.7556 14.3605 28.5072 13.801 28.6887L13.14 28.9544C13.0032 29.0091 12.8463 28.9429 12.7916 28.8061C12.7368 28.6692 12.8031 28.5123 12.9399 28.4576C14.5383 27.8146 14.7443 27.8081 15.0258 27.3199C14.8911 26.8426 14.4073 26.4617 13.7974 26.7043L13.3589 26.8793L12.7282 27.1334C12.5914 27.1882 12.4344 27.1219 12.3797 26.9851C12.325 26.8483 12.3912 26.6913 12.528 26.6366C13.729 26.1535 13.8291 26.0527 13.8291 25.818C13.6945 25.3406 13.2149 24.9554 12.6051 25.198C11.327 25.7049 10.085 26.1521 9.05969 26.5279C8.71048 26.6561 8.32238 26.4825 8.18414 26.1369L7.6866 24.8877C6.9637 25.1793 6.90682 25.2196 6.53313 25.4184C5.53518 25.949 5.15501 26.7698 4.17578 28.0716L6.31424 33.4372C8.80336 33.5683 12.1515 33.1816 14.2561 31.9173C14.9883 31.4752 14.6161 30.5046 13.8853 30.6349Z" fill="#FAD1A3"/>
<path fill-rule="evenodd" clip-rule="evenodd" d="M3.50356 27.6686L1.55374 28.4455C1.31038 28.5427 1.19085 28.8206 1.28734 29.064L3.93197 35.6997C4.02918 35.9431 4.30711 36.0626 4.55047 35.9661L6.50029 35.1892C6.74366 35.092 6.86318 34.8141 6.7667 34.5707L4.12206 27.935C4.02486 27.6909 3.74693 27.5714 3.50356 27.6686Z" fill="#A25031"/>
<path fill-rule="evenodd" clip-rule="evenodd" d="M3.50248 27.6686L1.67578 28.3965L4.26786 34.9019C4.36506 35.1453 4.64299 35.2648 4.88636 35.1683L6.71305 34.4404L4.12097 27.935C4.02377 27.6909 3.74584 27.5714 3.50248 27.6686Z" fill="#DD6E42"/>
<path fill-rule="evenodd" clip-rule="evenodd" d="M23.1579 11.5294C23.8204 11.3515 24.6484 12.294 25.0077 13.634C25.367 14.9739 25.1207 16.2037 24.4583 16.3809C23.7959 16.5587 22.9679 15.6162 22.6086 14.2762C22.2493 12.937 22.4955 11.7065 23.1579 11.5294Z" fill="#00B2CA"/>
</svg>
