<svg width="41" height="20" viewBox="0 0 41 20" fill="none" xmlns="http://www.w3.org/2000/svg">
<path d="M38.1002 7.0791C38.0976 7.38676 37.9089 7.56863 37.6012 7.57204C37.2052 7.57545 36.8083 7.57204 36.4113 7.57121C36.4113 7.57121 36.4419 10.8689 36.3994 12.5178C36.3492 14.511 35.2868 15.8666 33.3669 16.3969C31.7435 16.8457 30.1023 16.8423 28.4976 16.2975C26.8649 15.7433 25.9683 14.5721 25.7855 12.8553C25.76 12.6105 25.7523 12.3657 25.7523 12.12C25.7523 10.1558 25.7515 8.19077 25.7523 6.22664C25.7523 5.34104 26.0158 5.06561 26.8989 5.02656C27.3774 5.00529 27.856 4.98577 28.3293 5.075C28.7704 5.15742 28.994 5.409 29.0356 5.85866C29.0517 6.02782 29.0594 6.19864 29.0603 6.3678C29.0611 8.33883 29.0603 10.3098 29.0611 12.2799C29.0611 12.8357 29.2175 13.3142 29.7461 13.5922C30.0054 13.7282 30.2884 13.7877 30.5791 13.8149C31.033 13.8574 31.4834 13.854 31.9313 13.7622C32.6894 13.6075 33.0837 13.1451 33.1118 12.37C33.1135 12.3131 33.1118 12.2561 33.1127 12.2C33.1152 10.1661 33.1169 8.13228 33.1211 6.09927C33.1211 5.98619 33.1322 5.87237 33.1501 5.76103C33.2113 5.37261 33.4458 5.15161 33.8266 5.07342C34.0416 5.02922 34.2609 5.02665 34.4785 5.01651V5.01734H34.759C34.759 5.01734 34.7582 4.7513 34.7666 4.66971C34.7964 4.39603 34.9579 4.21756 35.229 4.21416C36.028 4.20311 36.8277 4.20228 37.6275 4.21249C37.9199 4.21673 38.0983 4.41988 38.1001 4.71823C38.1044 5.50505 38.1053 6.29211 38.1002 7.0791Z" fill="#BAD000"/>
<path d="M36.4138 7.56938C36.0487 7.5678 35.6828 7.55102 35.3187 7.56921C35.0004 7.58508 34.752 7.3792 34.762 7.00506C34.7782 6.39447 34.7742 5.62752 34.765 5.01709C34.765 5.01709 34.8526 5.02025 34.8987 5.02199C35.1875 5.03304 35.4766 5.0254 35.761 5.10017C36.1005 5.18949 36.304 5.3938 36.3705 5.74167C36.4315 6.06089 36.3996 6.38209 36.4064 6.70239C36.4126 6.99186 36.4105 7.28149 36.4121 7.57112C36.4119 7.57121 36.4138 7.56938 36.4138 7.56938Z" fill="#AEB702"/>
<path d="M0.564599 11.2676C0.564599 9.85735 0.564017 8.44723 0.56518 7.03703C0.565429 6.77257 0.577809 6.50819 0.640455 6.24972C0.817509 5.51998 1.33505 5.07223 2.133 5.04158C3.44682 4.99114 4.76388 4.94844 6.07505 5.07738C6.91495 5.15997 7.68141 5.44578 8.25346 6.11113C8.66456 6.58937 8.8628 7.16191 8.94979 7.7759C9.06569 8.59354 9.0534 9.40703 8.82699 10.2078C8.51019 11.328 7.74655 11.9724 6.64102 12.2466C6.14376 12.37 5.63653 12.4095 5.12522 12.4091C4.19982 12.4082 3.27433 12.4131 2.34902 12.4041C2.17853 12.4024 2.14047 12.4522 2.14147 12.6159C2.14861 13.7113 2.14463 14.8066 2.14513 15.902C2.14521 16.0616 2.13316 16.22 2.03338 16.3509C1.82276 16.6274 0.906743 16.6318 0.687731 16.3608C0.626912 16.2856 0.591269 16.1984 0.585287 16.1015C0.576812 15.9634 0.565429 15.8251 0.565263 15.6869C0.564017 14.2138 0.564599 12.7407 0.564599 11.2676ZM2.14587 8.99061C2.14587 9.58234 2.15028 10.1742 2.14247 10.7659C2.14072 10.899 2.17628 10.9315 2.30781 10.9307C3.28356 10.9249 4.25931 10.9291 5.23506 10.9266C5.49952 10.9259 5.76298 10.8995 6.02345 10.8522C6.76224 10.718 7.22312 10.3039 7.34957 9.63983C7.46232 9.04752 7.47021 8.45047 7.34824 7.85824C7.21107 7.19223 6.82182 6.7616 6.14393 6.60997C5.87232 6.54924 5.59714 6.51899 5.32105 6.51692C4.49643 6.51068 3.67165 6.51359 2.84711 6.51592C2.75347 6.51617 2.65826 6.5273 2.56662 6.54674C2.34702 6.59335 2.21126 6.72978 2.17637 6.9532C2.15792 7.07084 2.14803 7.1909 2.14745 7.30996C2.14421 7.87004 2.14579 8.43028 2.14587 8.99061Z" fill="#BAD000"/>
<path d="M19.131 19.9912C18.7149 19.9998 18.5557 19.8742 18.4625 19.4641C18.4347 19.3417 18.4046 19.2186 18.3927 19.0941C18.3664 18.8199 18.4725 18.6809 18.7448 18.631C18.9859 18.5868 19.2328 18.5693 19.4704 18.512C20.03 18.3771 20.4287 18.0336 20.6892 17.5233C20.8038 17.2988 20.8997 17.0669 20.98 16.8287C21.0005 16.768 21.066 16.6957 21.0102 16.639C20.9668 16.5949 20.8917 16.6396 20.8315 16.6509C20.5313 16.707 20.2303 16.7084 19.9306 16.6541C19.3042 16.5406 18.9067 16.1478 18.6556 15.5867C18.3899 14.9931 18.259 14.3567 18.0871 13.734C17.6123 12.0139 17.1461 10.2914 16.6784 8.56934C16.5156 7.96955 16.6515 7.79582 17.2724 7.79748C17.3229 7.79765 17.3732 7.7974 17.4236 7.79939C17.8739 7.81684 18.0715 7.96814 18.1939 8.40517C18.3496 8.96142 18.4978 9.51984 18.6499 10.0773C19.0531 11.5558 19.4566 13.0343 19.8604 14.5126C19.8752 14.5671 19.8953 14.6203 19.9134 14.6738C20.1114 15.2608 20.3639 15.3878 21.0364 15.3045C21.2847 15.2739 21.426 15.0888 21.5184 14.8703C21.6686 14.5152 21.7306 14.1349 21.8208 13.7633C22.2521 11.987 22.6774 10.2094 23.1063 8.4325C23.2182 7.96922 23.4121 7.81152 23.8853 7.79873C24.042 7.79449 24.1993 7.78868 24.3557 7.82141C24.6128 7.87517 24.7059 7.98966 24.7002 8.25429C24.6968 8.41348 24.6505 8.56428 24.6125 8.71624C23.9491 11.3711 23.2866 14.0264 22.618 16.6799C22.4406 17.3843 22.1904 18.061 21.7707 18.6635C21.2381 19.4282 20.4919 19.8311 19.5817 19.9559C19.482 19.9696 19.382 19.9815 19.2818 19.9905C19.2319 19.9949 19.1812 19.9912 19.131 19.9912Z" fill="#BAD000"/>
<path d="M16.0839 12.1392C16.0839 12.8 16.1004 13.4612 16.0803 14.1215C16.0439 15.3212 15.4478 16.1174 14.2948 16.4483C13.1252 16.784 11.9335 16.8294 10.7593 16.4734C9.47342 16.0835 8.91185 15.0997 8.96652 13.8147C8.99485 13.1495 9.17839 12.5504 9.69509 12.095C10.0883 11.7483 10.5641 11.5721 11.0673 11.4629C11.5422 11.3597 12.0248 11.3229 12.5101 11.3223C13.1269 11.3214 13.7438 11.3158 14.3605 11.3262C14.5313 11.3291 14.5772 11.2756 14.5673 11.112C14.5476 10.7858 14.5792 10.4583 14.5432 10.1314C14.488 9.63091 14.2251 9.29334 13.7588 9.11886C13.2297 8.92104 12.6749 8.91048 12.1204 8.92976C11.5543 8.94937 10.9918 9.00753 10.4368 9.13041C10.0357 9.21923 9.84049 9.06303 9.81573 8.65043C9.77585 7.98583 9.88602 7.81775 10.5444 7.70276C11.7434 7.49322 12.9471 7.44503 14.1365 7.76399C14.9524 7.98276 15.5999 8.4261 15.9123 9.25462C16.0399 9.59336 16.0921 9.94605 16.0913 10.3077C16.09 10.9182 16.091 11.5287 16.091 12.1393C16.0886 12.1392 16.0862 12.1392 16.0839 12.1392ZM14.564 13.32C14.564 13.1375 14.5543 12.9542 14.567 12.7726C14.5775 12.6236 14.5306 12.5789 14.379 12.5806C13.712 12.5886 13.0447 12.5836 12.3777 12.5843C12.1191 12.5845 11.8629 12.6128 11.6098 12.6641C10.9005 12.8076 10.5794 13.1402 10.504 13.8055C10.4285 14.4729 10.7188 15.005 11.3244 15.1866C12.1596 15.4371 13.0047 15.4021 13.826 15.1103C14.2621 14.9554 14.4823 14.6061 14.5379 14.1494C14.5716 13.8733 14.5623 13.5966 14.564 13.32Z" fill="#BAD000"/>
<path d="M40.5632 2.98607C40.5632 3.26889 40.5644 3.5518 40.5629 3.83462C40.5614 4.08861 40.4344 4.22628 40.1867 4.22728C39.6084 4.22969 39.03 4.22794 38.4518 4.22237C38.2355 4.22021 38.0929 4.08969 38.09 3.87068C38.0821 3.27371 38.0814 2.67633 38.0915 2.07936C38.0954 1.84764 38.2369 1.72725 38.4705 1.726C39.0363 1.72284 39.6021 1.72293 40.1678 1.72575C40.4347 1.72708 40.5612 1.85586 40.5628 2.1185C40.5644 2.40771 40.5631 2.69685 40.5632 2.98607Z" fill="#BAD000"/>
<path d="M36.414 0.871712C36.414 0.683026 36.4113 0.494256 36.4148 0.305653C36.4181 0.121786 36.4956 0.0467604 36.6809 0.0460957C37.0646 0.0446001 37.4482 0.0444339 37.8319 0.0461787C38.015 0.0470096 38.098 0.123282 38.1002 0.306983C38.105 0.690586 38.1048 1.07427 38.1009 1.45788C38.099 1.64282 38.007 1.73654 37.8202 1.73904C37.4429 1.74386 37.0655 1.74294 36.6882 1.73837C36.5011 1.73613 36.4146 1.64424 36.4117 1.45646C36.4087 1.26155 36.411 1.06655 36.411 0.871628C36.4121 0.871712 36.4131 0.871712 36.414 0.871712Z" fill="#BAD000"/>
</svg>
