<svg width="30" height="30" viewBox="0 0 30 30" fill="none" xmlns="http://www.w3.org/2000/svg">
<g clip-path="url(#clip0_1024_10764)">
<path d="M27.4924 20.4839L25.7584 22.2179C27.0304 20.6399 26.9344 18.3299 25.4704 16.8659L23.4004 14.8019L17.8144 9.21594C17.7124 9.11394 17.6044 9.01794 17.4904 8.92794C15.9124 7.65594 13.5964 7.75194 12.1324 9.21594L9.06641 12.2819C9.15641 12.1739 9.25241 12.0659 9.35441 11.9579L14.9404 6.37194L17.0104 4.30194C18.5764 2.73594 21.1204 2.73594 22.6864 4.30194L25.7524 7.36794L27.7024 9.31794C30.2824 12.6059 30.2104 17.2859 27.4924 20.4839Z" fill="#EA4544"/>
<path d="M25.7531 7.37397L22.6871 4.30797C21.1211 2.74197 18.5771 2.74197 17.0111 4.30797L14.9411 6.37797L9.35509 11.964C9.25309 12.066 9.15709 12.174 9.06709 12.288C7.88509 13.752 7.88509 15.858 9.06709 17.322L6.55309 14.808L4.48309 12.738C2.91709 11.172 2.91709 8.62797 4.48309 7.06197L7.51909 4.01997L9.35509 2.18397C12.6071 -0.504031 17.3351 -0.504031 20.5931 2.18397L25.4651 7.05597C25.5671 7.15797 25.6631 7.26597 25.7531 7.37397Z" fill="#EE804D"/>
<path d="M17.4909 20.6759L14.9409 23.2259L12.8709 25.2959C11.4069 26.7599 9.09095 26.8559 7.51895 25.5839C7.50095 25.5719 7.48295 25.5539 7.46495 25.5419L2.94695 21.0239C-0.371052 17.7059 -0.497052 12.4079 2.56295 8.93988L7.18895 4.31388C7.29095 4.21188 7.39895 4.11588 7.51295 4.02588L4.47695 7.06188C2.91095 8.62788 2.91095 11.1719 4.47695 12.7379L6.54695 14.8079L9.06095 17.3219L12.1269 20.3879C13.6029 21.8519 15.9129 21.9479 17.4909 20.6759Z" fill="#EE694B"/>
<path opacity="0.52" d="M7.51836 4.01973C7.40436 4.10973 7.30236 4.20573 7.19436 4.30773L2.56836 8.93373C2.68836 8.79573 2.81436 8.65774 2.95236 8.52574L8.73036 2.74773C8.93436 2.54373 9.14436 2.35773 9.36036 2.17773L7.51836 4.01973Z" fill="#606161"/>
<path d="M25.7535 22.2237C25.6635 22.3377 25.5675 22.4457 25.4655 22.5477L20.9715 27.0417C17.5935 30.1737 12.3555 30.1737 8.97753 27.0417L7.51953 25.5837C9.09753 26.8557 11.4075 26.7597 12.8715 25.2957L14.9415 23.2257L17.4915 20.6757L20.5275 17.6397C22.0935 16.0737 22.0935 13.5297 20.5275 11.9637L17.4915 8.92773C17.5995 9.01773 17.7075 9.11373 17.8155 9.21573L23.4015 14.8017L25.4715 16.8717C26.9295 18.3297 27.0255 20.6457 25.7535 22.2237Z" fill="#EB5948"/>
<path opacity="0.52" d="M27.4926 20.4839C27.3366 20.6699 27.1746 20.8439 27.0006 21.0179L21.2226 26.7959C21.1446 26.8739 21.0606 26.9579 20.9766 27.0299L25.4706 22.5359C25.5726 22.4339 25.6686 22.3259 25.7586 22.2119L27.4926 20.4839Z" fill="#606161"/>
<path opacity="0.52" d="M25.4657 7.05608L20.5938 2.18408C20.8098 2.36408 21.0198 2.55008 21.2238 2.75408L27.0017 8.53208C27.2537 8.78408 27.4937 9.05408 27.7097 9.33008L25.7597 7.38008C25.6637 7.26608 25.5677 7.15808 25.4657 7.05608Z" fill="#606161"/>
</g>
<defs>
<clipPath id="clip0_1024_10764">
<rect width="30" height="30" fill="white"/>
</clipPath>
</defs>
</svg>
