<svg width="104" height="36" viewBox="0 0 104 36" fill="none" xmlns="http://www.w3.org/2000/svg">
<g clip-path="url(#clip0_290_366)">
<path d="M95.3955 0.904897H8.88664C8.57131 0.904897 8.25976 0.904897 7.94525 0.906622C7.68199 0.908347 7.42082 0.913358 7.15502 0.917576C6.57759 0.924391 6.00152 0.975343 5.43181 1.06999C4.8629 1.16669 4.31182 1.34901 3.79719 1.61078C3.28319 1.87475 2.81354 2.21777 2.40527 2.62737C1.99485 3.03582 1.65274 3.50794 1.39208 4.02556C1.13071 4.54215 0.949469 5.09573 0.854627 5.66717C0.758883 6.23789 0.707363 6.8152 0.700528 7.3939C0.692548 7.65834 0.691705 7.92366 0.6875 8.18814V28.1242C0.691705 28.392 0.692548 28.6514 0.700528 28.9193C0.707365 29.498 0.758886 30.0753 0.854627 30.646C0.949207 31.2177 1.13046 31.7716 1.39208 32.2884C1.65262 32.8044 1.99478 33.2746 2.40527 33.6808C2.81199 34.0922 3.28195 34.4354 3.79719 34.6974C4.31181 34.9599 4.86284 35.1433 5.43181 35.2415C6.00162 35.3353 6.57763 35.3863 7.15502 35.3939C7.42082 35.3998 7.68199 35.4032 7.94525 35.4032C8.25975 35.4049 8.57133 35.4049 8.88664 35.4049H95.3955C95.7046 35.4049 96.0186 35.4049 96.3277 35.4032C96.5897 35.4032 96.8585 35.3998 97.1205 35.3939C97.6968 35.3867 98.2717 35.3357 98.8403 35.2415C99.4111 35.1426 99.9641 34.9592 100.481 34.6974C100.996 34.4353 101.466 34.092 101.872 33.6808C102.281 33.273 102.624 32.8031 102.888 32.2884C103.148 31.7713 103.327 31.2174 103.42 30.646C103.516 30.0752 103.57 29.4981 103.58 28.9193C103.583 28.6514 103.583 28.392 103.583 28.1242C103.59 27.8108 103.59 27.4992 103.59 27.1808V9.12981C103.59 8.81395 103.59 8.50062 103.583 8.18814C103.583 7.92366 103.583 7.65834 103.58 7.39386C103.57 6.81511 103.516 6.23794 103.42 5.66714C103.327 5.09603 103.147 4.54249 102.888 4.02553C102.357 2.988 101.515 2.14347 100.481 1.6107C99.9641 1.34957 99.4111 1.1673 98.8403 1.06991C98.2718 0.974848 97.6968 0.923879 97.1205 0.917455C96.8585 0.913246 96.5897 0.908192 96.3277 0.90651C96.0186 0.904785 95.7046 0.904785 95.3955 0.904785V0.904897Z" fill="#A6A6A6"/>
<path d="M7.94958 34.6503C7.68758 34.6503 7.4319 34.6469 7.17195 34.6411C6.63345 34.634 6.09621 34.587 5.56463 34.5004C5.06896 34.4148 4.58878 34.2555 4.13995 34.0278C3.69523 33.802 3.28961 33.506 2.93863 33.151C2.58257 32.8002 2.28613 32.3933 2.06106 31.9465C1.83352 31.4968 1.67604 31.0148 1.59412 30.5172C1.50566 29.9825 1.45779 29.4419 1.45094 28.9C1.44549 28.7181 1.43835 28.1125 1.43835 28.1125V8.18822C1.43835 8.18822 1.44596 7.59188 1.45099 7.41668C1.45754 6.87562 1.50513 6.33584 1.59333 5.80202C1.6754 5.30308 1.833 4.81965 2.06067 4.36846C2.28491 3.92196 2.5797 3.51479 2.93362 3.16273C3.28713 2.80733 3.69405 2.50975 4.13953 2.28085C4.58733 2.05391 5.0666 1.89576 5.56126 1.8117C6.09459 1.72421 6.6337 1.67691 7.17407 1.6702L7.95 1.65967H96.3236L97.1088 1.67062C97.6443 1.677 98.1785 1.72388 98.7069 1.81086C99.2066 1.89597 99.6909 2.05522 100.144 2.28338C101.036 2.74468 101.762 3.47451 102.221 4.37057C102.445 4.81864 102.6 5.29813 102.681 5.79276C102.77 6.33096 102.82 6.87498 102.83 7.42048C102.833 7.66474 102.833 7.92711 102.833 8.18822C102.839 8.51166 102.839 8.81951 102.839 9.12989V27.1809C102.839 27.4942 102.839 27.8 102.833 28.1082C102.833 28.3887 102.833 28.6457 102.829 28.9101C102.819 29.4459 102.77 29.9802 102.682 30.5087C102.602 31.0099 102.446 31.4957 102.218 31.9491C101.991 32.3911 101.697 32.7944 101.345 33.1443C100.993 33.5012 100.587 33.799 100.141 34.0262C99.6896 34.2556 99.2061 34.4155 98.7069 34.5004C98.1754 34.5875 97.6381 34.6345 97.0995 34.6411C96.8477 34.6469 96.5839 34.6503 96.3278 34.6503L95.3957 34.652L7.94958 34.6503Z" fill="black"/>
<path d="M37.0641 24.3131H32.9937L32.0162 27.2081H30.2921L34.1475 16.4976H35.9388L39.7942 27.2081H38.0407L37.0641 24.3131ZM33.4152 22.9773H36.6417L35.0511 18.279H35.0066L33.4152 22.9773Z" fill="white"/>
<path d="M48.121 23.3039C48.121 25.7305 46.8261 27.2896 44.8719 27.2896C44.3769 27.3156 43.8846 27.2012 43.4514 26.9596C43.0181 26.718 42.6615 26.3589 42.4223 25.9234H42.3853V29.7912H40.7872V19.3991H42.3341V20.6979H42.3635C42.6137 20.2645 42.9764 19.9073 43.4129 19.6642C43.8494 19.4211 44.3435 19.3012 44.8425 19.3174C46.8185 19.3174 48.121 20.884 48.121 23.3039ZM46.4784 23.3039C46.4784 21.7229 45.6638 20.6835 44.421 20.6835C43.1999 20.6835 42.3786 21.7448 42.3786 23.3039C42.3786 24.8773 43.1999 25.931 44.421 25.931C45.6638 25.931 46.4784 24.8992 46.4784 23.3039Z" fill="white"/>
<path d="M56.6892 23.3039C56.6892 25.7305 55.3943 27.2896 53.4402 27.2896C52.9451 27.3156 52.4528 27.2012 52.0196 26.9596C51.5864 26.7179 51.2297 26.3588 50.9905 25.9234H50.9536V29.7912H49.3555V19.3991H50.9023V20.6979H50.9317C51.1819 20.2645 51.5446 19.9072 51.9811 19.6642C52.4176 19.4211 52.9117 19.3012 53.4107 19.3174C55.3868 19.3174 56.6892 20.884 56.6892 23.3039ZM55.0466 23.3039C55.0466 21.7229 54.2321 20.6835 52.9892 20.6835C51.7682 20.6835 50.9469 21.7448 50.9469 23.3039C50.9469 24.8773 51.7682 25.931 52.9892 25.931C54.2321 25.931 55.0466 24.8992 55.0466 23.3039H55.0466Z" fill="white"/>
<path d="M62.3538 24.2237C62.4722 25.2859 63.5009 25.9832 64.9067 25.9832C66.2537 25.9832 67.2228 25.2858 67.2228 24.3281C67.2228 23.4968 66.6383 22.999 65.2544 22.6579L63.8704 22.3235C61.9096 21.8485 60.9992 20.9287 60.9992 19.4361C60.9992 17.5882 62.6049 16.3188 64.8849 16.3188C67.1413 16.3188 68.6882 17.5882 68.7403 19.4361H67.1271C67.0305 18.3673 66.1496 17.7221 64.8622 17.7221C63.5748 17.7221 62.6939 18.3749 62.6939 19.325C62.6939 20.0822 63.2565 20.5278 64.6329 20.8688L65.8094 21.1586C68.0004 21.6783 68.9107 22.561 68.9107 24.1276C68.9107 26.1314 67.3194 27.3864 64.7883 27.3864C62.4201 27.3864 60.8212 26.1609 60.7179 24.2237L62.3538 24.2237Z" fill="white"/>
<path d="M72.3589 17.551V19.399H73.8394V20.6683H72.3589V24.9732C72.3589 25.642 72.6553 25.9537 73.3061 25.9537C73.4819 25.9506 73.6574 25.9382 73.8318 25.9166V27.1783C73.5392 27.2332 73.2418 27.258 72.9442 27.2524C71.3679 27.2524 70.7532 26.6586 70.7532 25.1442V20.6683H69.6212V19.399H70.7532V17.551H72.3589Z" fill="white"/>
<path d="M74.6973 23.3038C74.6973 20.8469 76.14 19.303 78.3898 19.303C80.6471 19.303 82.0831 20.8469 82.0831 23.3038C82.0831 25.7675 80.6546 27.3047 78.3898 27.3047C76.1257 27.3047 74.6973 25.7675 74.6973 23.3038ZM80.4548 23.3038C80.4548 21.6184 79.6847 20.6237 78.3897 20.6237C77.0948 20.6237 76.3256 21.626 76.3256 23.3038C76.3256 24.996 77.0948 25.9831 78.3897 25.9831C79.6847 25.9831 80.4547 24.996 80.4547 23.3038H80.4548Z" fill="white"/>
<path d="M83.4006 19.3992H84.9248V20.7283H84.9618C85.0649 20.3132 85.3074 19.9464 85.6484 19.6895C85.9895 19.4325 86.4083 19.3012 86.8345 19.3175C87.0187 19.3169 87.2023 19.3369 87.382 19.3773V20.8766C87.1495 20.8053 86.907 20.7726 86.664 20.7797C86.4318 20.7703 86.2004 20.8113 85.9855 20.9001C85.7707 20.9888 85.5775 21.1231 85.4193 21.2938C85.2611 21.4645 85.1416 21.6675 85.069 21.8889C84.9964 22.1103 84.9724 22.3448 84.9987 22.5763V27.208H83.4006L83.4006 19.3992Z" fill="white"/>
<path d="M94.7495 24.9143C94.5345 26.3318 93.1581 27.3047 91.3971 27.3047C89.1322 27.3047 87.7264 25.7827 87.7264 23.3409C87.7264 20.8915 89.1398 19.303 91.3299 19.303C93.4839 19.303 94.8385 20.7871 94.8385 23.1547V23.7039H89.3397V23.8008C89.3143 24.0882 89.3501 24.3777 89.4449 24.6501C89.5396 24.9225 89.6911 25.1716 89.8892 25.3808C90.0873 25.59 90.3275 25.7545 90.5938 25.8634C90.8602 25.9724 91.1466 26.0232 91.434 26.0126C91.8117 26.0481 92.1907 25.9604 92.5146 25.7625C92.8386 25.5646 93.0902 25.2671 93.232 24.9143L94.7495 24.9143ZM89.3472 22.5837H93.2396C93.2539 22.3253 93.2148 22.0667 93.1248 21.8241C93.0348 21.5816 92.8958 21.3603 92.7165 21.1742C92.5372 20.9881 92.3214 20.8412 92.0828 20.7427C91.8442 20.6442 91.5879 20.5962 91.3299 20.6018C91.0697 20.6002 90.8117 20.6504 90.5709 20.7493C90.3301 20.8483 90.1112 20.9941 89.9268 21.1784C89.7425 21.3626 89.5964 21.5817 89.4969 21.8229C89.3974 22.0641 89.3465 22.3227 89.3472 22.5837V22.5837Z" fill="white"/>
<path d="M33.2148 8.43553C33.5499 8.41141 33.8861 8.46218 34.1992 8.58417C34.5123 8.70615 34.7945 8.89632 35.0255 9.14094C35.2564 9.38557 35.4304 9.67856 35.5348 9.99878C35.6392 10.319 35.6714 10.6585 35.6292 10.9927C35.6292 12.6368 34.7432 13.5819 33.2148 13.5819H31.3615V8.43553H33.2148ZM32.1584 12.8541H33.1258C33.3652 12.8685 33.6048 12.8291 33.8271 12.7389C34.0495 12.6486 34.2489 12.5098 34.411 12.3325C34.5731 12.1552 34.6937 11.9439 34.7641 11.7139C34.8345 11.484 34.8529 11.2412 34.818 11.0032C34.8504 10.7661 34.8301 10.5248 34.7587 10.2966C34.6872 10.0683 34.5662 9.85871 34.4045 9.68282C34.2428 9.50693 34.0443 9.36909 33.8232 9.27919C33.6022 9.18929 33.364 9.14954 33.1258 9.1628H32.1584V12.8541Z" fill="white"/>
<path d="M36.5293 11.6384C36.5049 11.3832 36.534 11.1257 36.6147 10.8824C36.6954 10.6391 36.8259 10.4154 36.9979 10.2257C37.1698 10.036 37.3794 9.88435 37.6131 9.78062C37.8469 9.67688 38.0997 9.62329 38.3554 9.62329C38.611 9.62329 38.8638 9.67688 39.0976 9.78062C39.3313 9.88435 39.5409 10.036 39.7129 10.2257C39.8848 10.4154 40.0153 10.6391 40.096 10.8824C40.1767 11.1257 40.2058 11.3832 40.1814 11.6384C40.2063 11.8939 40.1775 12.1518 40.097 12.3955C40.0165 12.6391 39.8861 12.8632 39.7141 13.0533C39.5421 13.2434 39.3324 13.3954 39.0984 13.4993C38.8644 13.6033 38.6113 13.657 38.3554 13.657C38.0994 13.657 37.8463 13.6033 37.6123 13.4993C37.3783 13.3954 37.1686 13.2434 36.9966 13.0533C36.8246 12.8632 36.6942 12.6391 36.6137 12.3955C36.5332 12.1518 36.5045 11.8939 36.5293 11.6384ZM39.3954 11.6384C39.3954 10.7966 39.0183 10.3042 38.3566 10.3042C37.6924 10.3042 37.3187 10.7966 37.3187 11.6384C37.3187 12.487 37.6924 12.9756 38.3566 12.9756C39.0184 12.9755 39.3954 12.4836 39.3954 11.6384H39.3954Z" fill="white"/>
<path d="M45.0365 13.5818H44.2438L43.4435 10.7214H43.383L42.5861 13.5818H41.8009L40.7335 9.698H41.5086L42.2023 12.6615H42.2594L43.0555 9.698H43.7886L44.5847 12.6615H44.6452L45.3355 9.698H46.0997L45.0365 13.5818Z" fill="white"/>
<path d="M46.9972 9.69793H47.7328V10.3149H47.7899C47.8868 10.0933 48.0502 9.90755 48.2573 9.78352C48.4645 9.65949 48.705 9.60336 48.9455 9.62296C49.1339 9.60876 49.3231 9.63725 49.499 9.70633C49.6749 9.77541 49.8331 9.88332 49.9618 10.022C50.0906 10.1608 50.1865 10.3268 50.2426 10.5077C50.2987 10.6887 50.3134 10.88 50.2857 11.0675V13.5817H49.5216V11.26C49.5216 10.6358 49.2512 10.3254 48.686 10.3254C48.5581 10.3195 48.4304 10.3413 48.3116 10.3895C48.1929 10.4376 48.086 10.5109 47.9982 10.6044C47.9104 10.6979 47.8437 10.8093 47.8029 10.931C47.762 11.0528 47.7478 11.1819 47.7614 11.3096V13.5817H46.9972L46.9972 9.69793Z" fill="white"/>
<path d="M51.5038 8.18188H52.268V13.5818H51.5038V8.18188Z" fill="white"/>
<path d="M53.331 11.6382C53.3067 11.383 53.3358 11.1255 53.4165 10.8822C53.4972 10.6389 53.6278 10.4152 53.7997 10.2255C53.9717 10.0357 54.1813 9.88411 54.415 9.78037C54.6488 9.67663 54.9017 9.62305 55.1573 9.62305C55.413 9.62305 55.6658 9.67663 55.8996 9.78037C56.1334 9.88411 56.3429 10.0357 56.5149 10.2255C56.6868 10.4152 56.8174 10.6389 56.8981 10.8822C56.9788 11.1255 57.0079 11.383 56.9836 11.6382C57.0084 11.8937 56.9796 12.1516 56.8991 12.3953C56.8186 12.639 56.6881 12.8631 56.5161 13.0532C56.3441 13.2433 56.1344 13.3952 55.9004 13.4991C55.6664 13.6031 55.4132 13.6568 55.1573 13.6568C54.9014 13.6568 54.6483 13.6031 54.4142 13.4991C54.1802 13.3952 53.9705 13.2433 53.7985 13.0532C53.6265 12.8631 53.496 12.639 53.4155 12.3953C53.335 12.1516 53.3062 11.8937 53.331 11.6382ZM56.1971 11.6382C56.1971 10.7964 55.8201 10.3041 55.1584 10.3041C54.4941 10.3041 54.1204 10.7964 54.1204 11.6383C54.1204 12.4869 54.4941 12.9754 55.1584 12.9754C55.8201 12.9754 56.1972 12.4835 56.1972 11.6382H56.1971Z" fill="white"/>
<path d="M57.7871 12.4834C57.7871 11.7843 58.3061 11.3813 59.2273 11.324L60.2762 11.2634V10.9282C60.2762 10.518 60.0058 10.2863 59.4835 10.2863C59.0569 10.2863 58.7613 10.4434 58.6764 10.718H57.9366C58.0147 10.0509 58.6403 9.62305 59.5187 9.62305C60.4895 9.62305 61.037 10.1078 61.037 10.9282V13.5818H60.3014V13.036H60.2409C60.1182 13.2318 59.9459 13.3914 59.7415 13.4985C59.5372 13.6056 59.3082 13.6565 59.0778 13.6458C58.9153 13.6627 58.751 13.6453 58.5955 13.5947C58.4401 13.5441 58.297 13.4613 58.1754 13.3518C58.0538 13.2423 57.9564 13.1085 57.8895 12.9589C57.8226 12.8093 57.7877 12.6474 57.7871 12.4834ZM60.2762 12.1516V11.8269L59.3306 11.8875C58.7974 11.9233 58.5555 12.1053 58.5555 12.4476C58.5555 12.7972 58.8578 13.0006 59.2735 13.0006C59.3953 13.013 59.5184 13.0006 59.6353 12.9643C59.7523 12.928 59.8608 12.8685 59.9543 12.7893C60.0479 12.7101 60.1246 12.6128 60.1799 12.5032C60.2352 12.3937 60.2679 12.2741 60.2762 12.1516Z" fill="white"/>
<path d="M62.041 11.6382C62.041 10.411 62.67 9.63358 63.6483 9.63358C63.8903 9.62239 64.1305 9.68053 64.3408 9.80119C64.5511 9.92185 64.7227 10.1 64.8358 10.315H64.8929V8.18188H65.6571V13.5818H64.9248V12.9682H64.8643C64.7426 13.1816 64.5649 13.3576 64.3506 13.477C64.1362 13.5965 63.8934 13.6548 63.6483 13.6458C62.6633 13.6458 62.041 12.8684 62.041 11.6382ZM62.8304 11.6382C62.8304 12.462 63.2176 12.9577 63.865 12.9577C64.5091 12.9577 64.9072 12.4548 64.9072 11.6416C64.9072 10.8321 64.5049 10.3221 63.865 10.3221C63.2217 10.3221 62.8304 10.8212 62.8304 11.6382H62.8304Z" fill="white"/>
<path d="M68.8193 11.6382C68.795 11.3829 68.8241 11.1254 68.9048 10.8821C68.9855 10.6389 69.116 10.4152 69.2879 10.2254C69.4598 10.0357 69.6694 9.88411 69.9032 9.78037C70.137 9.67663 70.3898 9.62305 70.6454 9.62305C70.901 9.62305 71.1538 9.67663 71.3876 9.78037C71.6214 9.88411 71.8309 10.0357 72.0029 10.2254C72.1748 10.4152 72.3053 10.6389 72.386 10.8821C72.4667 11.1254 72.4958 11.3829 72.4715 11.6382C72.4963 11.8937 72.4675 12.1515 72.387 12.3952C72.3066 12.6389 72.1761 12.863 72.0042 13.0531C71.8322 13.2432 71.6224 13.3951 71.3884 13.4991C71.1544 13.603 70.9013 13.6567 70.6454 13.6567C70.3895 13.6567 70.1364 13.603 69.9023 13.4991C69.6683 13.3951 69.4586 13.2432 69.2866 13.0531C69.1146 12.863 68.9842 12.6389 68.9037 12.3952C68.8233 12.1515 68.7945 11.8937 68.8193 11.6382ZM71.6854 11.6382C71.6854 10.7963 71.3084 10.304 70.6467 10.304C69.9824 10.304 69.6087 10.7963 69.6087 11.6382C69.6087 12.4868 69.9824 12.9753 70.6467 12.9753C71.3084 12.9753 71.6854 12.4834 71.6854 11.6382Z" fill="white"/>
<path d="M73.4974 9.69793H74.2331V10.3149H74.2902C74.3871 10.0933 74.5505 9.90755 74.7576 9.78352C74.9647 9.65949 75.2053 9.60336 75.4457 9.62296C75.6341 9.60876 75.8233 9.63725 75.9992 9.70633C76.1752 9.77541 76.3334 9.88332 76.4621 10.022C76.5908 10.1608 76.6868 10.3268 76.7428 10.5077C76.7989 10.6887 76.8136 10.88 76.786 11.0675V13.5817H76.0218V11.26C76.0218 10.6358 75.7514 10.3254 75.1862 10.3254C75.0583 10.3195 74.9306 10.3413 74.8119 10.3895C74.6932 10.4376 74.5862 10.5109 74.4984 10.6044C74.4106 10.6979 74.344 10.8093 74.3031 10.931C74.2622 11.0528 74.2481 11.1819 74.2616 11.3096V13.5817H73.4974V9.69793Z" fill="white"/>
<path d="M81.1035 8.73096V9.71559H81.9424V10.3612H81.1035V12.3583C81.1035 12.7651 81.2706 12.9432 81.651 12.9432C81.7484 12.9429 81.8457 12.937 81.9424 12.9255V13.564C81.8052 13.5886 81.6662 13.6017 81.5267 13.6031C80.6769 13.6031 80.3385 13.3033 80.3385 12.5545V10.3612H79.7238V9.71555H80.3385V8.73096H81.1035Z" fill="white"/>
<path d="M82.9867 8.18188H83.7442V10.3221H83.8046C83.9062 10.0985 84.0741 9.91166 84.2854 9.78716C84.4967 9.66266 84.7411 9.60653 84.9853 9.62641C85.1727 9.61618 85.3601 9.64756 85.5341 9.71833C85.708 9.78909 85.8642 9.89748 85.9916 10.0358C86.119 10.1741 86.2144 10.3388 86.2709 10.5184C86.3275 10.6979 86.3439 10.8877 86.3189 11.0743V13.5818H85.5539V11.2634C85.5539 10.643 85.2658 10.3289 84.7259 10.3289C84.5946 10.3181 84.4624 10.3362 84.3388 10.3819C84.2152 10.4277 84.103 10.5 84.0101 10.5938C83.9173 10.6876 83.8459 10.8006 83.8012 10.9249C83.7564 11.0492 83.7392 11.1818 83.7509 11.3135V13.5818H82.9867L82.9867 8.18188Z" fill="white"/>
<path d="M90.7742 12.5332C90.6704 12.8882 90.4455 13.1952 90.1387 13.4006C89.832 13.606 89.463 13.6967 89.0964 13.6568C88.8413 13.6636 88.5877 13.6146 88.3534 13.5132C88.1191 13.4118 87.9095 13.2605 87.7394 13.0698C87.5692 12.8791 87.4424 12.6535 87.3679 12.4087C87.2933 12.1639 87.2728 11.9057 87.3077 11.6522C87.2737 11.3978 87.2946 11.1391 87.369 10.8936C87.4433 10.6481 87.5694 10.4215 87.7387 10.229C87.908 10.0366 88.1165 9.88298 88.3502 9.77843C88.5839 9.67389 88.8372 9.62092 89.093 9.62311C90.1704 9.62311 90.8204 10.3614 90.8204 11.581V11.8484H88.0861V11.8914C88.0741 12.0339 88.092 12.1774 88.1386 12.3126C88.1851 12.4478 88.2593 12.5717 88.3564 12.6765C88.4535 12.7812 88.5713 12.8645 88.7024 12.9209C88.8334 12.9773 88.9748 13.0056 89.1174 13.004C89.3002 13.026 89.4854 12.993 89.6494 12.9092C89.8134 12.8253 89.9489 12.6945 90.0386 12.5332L90.7742 12.5332ZM88.0861 11.2816H90.0419C90.0516 11.1512 90.0339 11.0203 89.9901 10.8972C89.9463 10.7741 89.8773 10.6616 89.7875 10.5668C89.6977 10.4721 89.5892 10.3972 89.4689 10.347C89.3485 10.2968 89.2191 10.2725 89.0888 10.2755C88.9566 10.2738 88.8254 10.2987 88.703 10.3487C88.5806 10.3986 88.4694 10.4727 88.3759 10.5665C88.2825 10.6602 88.2087 10.7718 88.1589 10.8946C88.1092 11.0174 88.0844 11.149 88.0861 11.2816H88.0861Z" fill="white"/>
<path d="M21.9873 18.3622C21.9966 17.6445 22.1872 16.9408 22.5415 16.3165C22.8959 15.6922 23.4023 15.1677 24.0138 14.7918C23.6253 14.237 23.1129 13.7804 22.5171 13.4583C21.9213 13.1362 21.2586 12.9575 20.5817 12.9363C19.1377 12.7847 17.7377 13.8004 17.0019 13.8004C16.2518 13.8004 15.1188 12.9514 13.8988 12.9765C13.1097 13.002 12.3406 13.2314 11.6666 13.6425C10.9925 14.0536 10.4364 14.6323 10.0524 15.3222C8.38935 18.2016 9.62987 22.4334 11.223 24.7609C12.0201 25.9006 12.9516 27.1737 14.1705 27.1285C15.3633 27.0791 15.8088 26.3679 17.2485 26.3679C18.6749 26.3679 19.0929 27.1285 20.3365 27.0998C21.6164 27.0791 22.4228 25.9551 23.1919 24.8046C23.7646 23.9925 24.2053 23.0949 24.4977 22.1452C23.7541 21.8307 23.1195 21.3043 22.6731 20.6316C22.2267 19.9589 21.9882 19.1696 21.9873 18.3622Z" fill="white"/>
<path d="M19.6382 11.4057C20.3361 10.568 20.6799 9.4912 20.5967 8.40405C19.5305 8.51603 18.5456 9.02559 17.8384 9.8312C17.4925 10.2248 17.2277 10.6826 17.0589 11.1786C16.8902 11.6746 16.8208 12.199 16.8549 12.7218C17.3881 12.7272 17.9157 12.6117 18.3978 12.3837C18.88 12.1557 19.3041 11.8214 19.6382 11.4057Z" fill="white"/>
</g>
<defs>
<clipPath id="clip0_290_366">
<rect width="102.903" height="34.5" fill="white" transform="translate(0.6875 0.905029)"/>
</clipPath>
</defs>
</svg>
