<?xml version="1.0" encoding="utf-8"?>
<!-- Generator: Adobe Illustrator 24.0.1, SVG Export Plug-In . SVG Version: 6.00 Build 0)  -->
<svg version="1.1" id="Layer_1" xmlns="http://www.w3.org/2000/svg" xmlns:xlink="http://www.w3.org/1999/xlink" x="0px" y="0px"
	 viewBox="0 0 512 512" style="enable-background:new 0 0 512 512;" xml:space="preserve">
<style type="text/css">
	.st0{fill:none;stroke:#373386;stroke-width:26;stroke-miterlimit:10;}
	.st1{fill:#363385;stroke:#373386;stroke-width:20;stroke-miterlimit:10;}
	.st2{fill:none;stroke:#373386;stroke-width:22;stroke-miterlimit:13.3333;}
	.st3{fill-rule:evenodd;clip-rule:evenodd;fill:#E3097F;}
	.st4{stroke:#373386;stroke-width:26;stroke-miterlimit:10;}
	.st5{fill:#353385;}
	.st6{fill:none;stroke:#353385;stroke-width:26;stroke-miterlimit:10;}
	.st7{fill:#E3097F;}
	.st8{fill:none;stroke:#353385;stroke-width:6;stroke-miterlimit:10;}
	.st9{fill:none;stroke:#353385;stroke-width:12;stroke-miterlimit:10;}
	.st10{fill:none;stroke:#E3097F;stroke-width:12;stroke-miterlimit:10;}
	.st11{fill:none;stroke:#E3097F;stroke-width:22;stroke-miterlimit:10;}
	.st12{fill:none;stroke:#E3097F;stroke-width:11;stroke-miterlimit:13.3333;}
	.st13{fill:none;stroke:#E3097F;stroke-width:18;stroke-linecap:round;stroke-linejoin:round;stroke-miterlimit:13.3333;}
	.st14{fill:none;stroke:#353385;stroke-width:18;stroke-linecap:round;stroke-linejoin:round;stroke-miterlimit:13.3333;}
	.st15{fill:none;stroke:#353385;stroke-width:26;stroke-linecap:round;stroke-linejoin:round;stroke-miterlimit:13.3333;}
	.st16{fill:none;stroke:#E3097F;stroke-width:26;stroke-linecap:round;stroke-linejoin:round;stroke-miterlimit:13.3333;}
	.st17{fill:none;stroke:#E3097F;stroke-width:26;stroke-miterlimit:10;}
	.st18{fill:none;stroke:#E3097F;stroke-width:8;stroke-miterlimit:10;}
	.st19{fill:none;stroke:#353385;stroke-width:18;stroke-miterlimit:10;}
	.st20{fill:none;stroke:#E3097F;stroke-width:18;stroke-miterlimit:10;}
	.st21{fill:none;stroke:#E3097F;stroke-width:6;stroke-miterlimit:10;}
	.st22{fill-rule:evenodd;clip-rule:evenodd;fill:none;stroke:#353385;stroke-width:26;stroke-miterlimit:10;}
	.st23{fill-rule:evenodd;clip-rule:evenodd;fill:none;stroke:#E3097F;stroke-width:20;stroke-miterlimit:10;}
	.st24{fill:none;stroke:#353385;stroke-width:16;stroke-linecap:round;stroke-miterlimit:10;}
	.st25{fill:none;stroke:#E3097F;stroke-width:14;stroke-miterlimit:13.3333;}
	.st26{clip-path:url(#SVGID_2_);}
	.st27{fill:none;stroke:#E3097F;stroke-width:12;stroke-miterlimit:13.3333;}
</style>
<path class="st6" d="M369,283.8H46.4c-18,0-32.3,14.5-32.3,32.3v80.6c0,17.7,14.3,32.3,32.3,32.3h8v24.2c0,4.5,3.6,8.1,8.1,8.1H119
	c4.5,0,8.1-3.6,8.1-8.1V429h258.1v24.2c0,4.5,3.6,8.1,8.1,8.1h56.4c4.5,0,8.1-3.6,8.1-8.1V429h8c18,0,32.3-14.5,32.3-32.3V316
	c0-17.7-14.2-32.3-32.3-32.3h-16.1H369z"/>
<path class="st7" d="M265.3,73.5C210,73.5,157,95.7,118,135.3c-7.9,7.3,4.2,19.3,11.5,11.3c36.1-36.5,84.9-57,135.9-57
	c51,0,99.9,20.5,136,57c7.3,8.1,19.3-4,11.5-11.3C373.7,95.7,320.6,73.5,265.3,73.5L265.3,73.5z"/>
<path class="st7" d="M265.3,124.2c-42,0-82.3,16.9-111.9,46.9c-8.3,7.1,4.6,19.5,11.4,11.3c26.7-27,62.8-42.2,100.5-42.2
	c37.7,0,73.8,15.2,100.5,42.2c7.4,7.8,19.2-3.8,11.5-11.3C347.7,141.1,307.4,124.2,265.3,124.2L265.3,124.2z"/>
<path class="st7" d="M265.3,174.9c-28.7,0-56.2,11.5-76.5,32c-7.8,7.2,4.1,19.4,11.4,11.4c17.3-17.5,40.7-27.3,65.1-27.3
	c24.4,0,47.9,9.8,65.2,27.3c7.5,7.9,19.2-3.9,11.5-11.4C321.7,186.4,294.1,174.9,265.3,174.9L265.3,174.9z"/>
<path class="st7" d="M265.3,225.6c-15.5,0-30.2,6.2-41.1,17.2c-7.9,7.7,3.9,19.4,11.5,11.4c7.9-8,18.5-12.4,29.7-12.4
	c11.1,0,21.8,4.5,29.7,12.4c7.6,7.9,19.3-3.8,11.4-11.4C295.6,231.8,280.8,225.6,265.3,225.6L265.3,225.6z"/>
<rect x="71.4" y="427.8" class="st8" width="39" height="15.6"/>
<rect x="401.8" y="427.9" class="st8" width="38.6" height="15.4"/>
<line class="st6" x1="127" y1="352.9" x2="412.6" y2="352.9"/>
<g id="Layer_2">
</g>
<g id="g1287_3_" transform="matrix(1.3333333,0,0,-1.3333333,0,682.66667)">
	<g id="g1289_3_">
		<g>
			<g>
				<defs>
					<polyline id="SVGID_1_" points="988.6,574.8 375.5,574.8 375.5,-38.3 988.6,-38.3 					"/>
				</defs>
				<clipPath id="SVGID_2_">
					<use xlink:href="#SVGID_1_"  style="overflow:visible;"/>
				</clipPath>
			</g>
		</g>
	</g>
</g>
</svg>
