<svg width="512" height="512" viewBox="0 0 512 512" fill="none" xmlns="http://www.w3.org/2000/svg">
<path d="M495.2 441.9C495.2 449.5 489.1 455.6 481.5 455.6H30.4C22.8 455.6 16.7 449.5 16.7 441.9V137C16.7 129.4 22.8 123.3 30.4 123.3H481.5C489.1 123.3 495.2 129.4 495.2 137V441.9Z" stroke="#353385" stroke-width="26" stroke-miterlimit="13.3333" stroke-linecap="round" stroke-linejoin="round"/>
<path d="M349.904 186H102.096C97.0973 186 93.0819 190.096 93 195.093V383.907C93 388.904 97.0973 393 102.096 393H349.904C354.903 393 358.918 388.904 359 383.907V195.011C358.918 190.014 354.903 186 349.904 186Z" stroke="#E3097F" stroke-width="26" stroke-miterlimit="10"/>
<path d="M465.7 175.3H411.7C405.9 175.3 401.2 180 401.2 185.8C401.2 191.6 405.9 196.3 411.7 196.3H465.7C471.5 196.3 476.2 191.6 476.2 185.8C476.2 180 471.5 175.3 465.7 175.3Z" fill="#353385"/>
<path d="M465.7 223.4H411.7C405.9 223.4 401.2 228.1 401.2 233.9C401.2 239.7 405.9 244.4 411.7 244.4H465.7C471.5 244.4 476.2 239.7 476.2 233.9C476.2 228.1 471.5 223.4 465.7 223.4Z" fill="#353385"/>
<path d="M294.6 109.5L386.2 55.7C391.2 52.8 392.9 46.3 389.9 41.3C387 36.3 380.5 34.6 375.5 37.6L256 107.8L136.3 37.8C131.3 34.9 124.9 36.6 121.9 41.6C118.9 46.6 120.7 53 125.7 56L217.3 109.6H294.6V109.5Z" fill="#E3097F"/>
</svg>
