<?xml version="1.0" encoding="utf-8"?>
<!-- Generator: Adobe Illustrator 24.0.1, SVG Export Plug-In . SVG Version: 6.00 Build 0)  -->
<svg version="1.1" id="Layer_1" xmlns="http://www.w3.org/2000/svg" xmlns:xlink="http://www.w3.org/1999/xlink" x="0px" y="0px"
	 viewBox="0 0 512 512" style="enable-background:new 0 0 512 512;" xml:space="preserve">
<style type="text/css">
	.st0{fill:none;stroke:#373386;stroke-width:26;stroke-miterlimit:10;}
	.st1{fill:#363385;stroke:#373386;stroke-width:20;stroke-miterlimit:10;}
	.st2{fill:none;stroke:#373386;stroke-width:22;stroke-miterlimit:13.3333;}
	.st3{fill-rule:evenodd;clip-rule:evenodd;fill:#E3097F;}
	.st4{stroke:#373386;stroke-width:26;stroke-miterlimit:10;}
	.st5{fill:#353385;}
	.st6{fill:none;stroke:#353385;stroke-width:26;stroke-miterlimit:10;}
	.st7{fill:#E3097F;}
	.st8{fill:none;stroke:#353385;stroke-width:6;stroke-miterlimit:10;}
	.st9{fill:none;stroke:#353385;stroke-width:12;stroke-miterlimit:10;}
	.st10{fill:none;stroke:#E3097F;stroke-width:12;stroke-miterlimit:10;}
	.st11{fill:none;stroke:#E3097F;stroke-width:22;stroke-miterlimit:10;}
	.st12{fill:none;stroke:#E3097F;stroke-width:11;stroke-miterlimit:13.3333;}
	.st13{fill:none;stroke:#E3097F;stroke-width:18;stroke-linecap:round;stroke-linejoin:round;stroke-miterlimit:13.3333;}
	.st14{fill:none;stroke:#353385;stroke-width:18;stroke-linecap:round;stroke-linejoin:round;stroke-miterlimit:13.3333;}
	.st15{fill:none;stroke:#353385;stroke-width:26;stroke-linecap:round;stroke-linejoin:round;stroke-miterlimit:13.3333;}
	.st16{fill:none;stroke:#E3097F;stroke-width:26;stroke-linecap:round;stroke-linejoin:round;stroke-miterlimit:13.3333;}
	.st17{fill:none;stroke:#E3097F;stroke-width:26;stroke-miterlimit:10;}
	.st18{fill:none;stroke:#E3097F;stroke-width:8;stroke-miterlimit:10;}
	.st19{fill:none;stroke:#353385;stroke-width:18;stroke-miterlimit:10;}
	.st20{fill:none;stroke:#E3097F;stroke-width:18;stroke-miterlimit:10;}
	.st21{fill:none;stroke:#E3097F;stroke-width:6;stroke-miterlimit:10;}
	.st22{fill-rule:evenodd;clip-rule:evenodd;fill:none;stroke:#353385;stroke-width:26;stroke-miterlimit:10;}
	.st23{fill-rule:evenodd;clip-rule:evenodd;fill:none;stroke:#E3097F;stroke-width:20;stroke-miterlimit:10;}
	.st24{fill:none;stroke:#353385;stroke-width:16;stroke-linecap:round;stroke-miterlimit:10;}
	.st25{fill:none;stroke:#E3097F;stroke-width:14;stroke-miterlimit:13.3333;}
	.st26{clip-path:url(#SVGID_2_);}
	.st27{fill:none;stroke:#E3097F;stroke-width:12;stroke-miterlimit:13.3333;}
</style>
<g>
	<path class="st6" d="M435.4,307.9c-8-29.7-60.5-76.9-131.5-118.4l12.7-21.8c4,1.5,8.4,2.3,13,2.4c20.4,0,37.4-17,37.3-37.4
		c-0.1-20.6-16.9-37.5-37.5-37.5c-34.1,0-49.9,43.9-24.1,65.9L292.6,183c-40.6-22.7-80.9-40.1-114.1-49
		c-37.9-10.2-62.2-8.2-70.3,5.8c-18.3,31.5-14,82-3.6,115.1c11.3,36.2,35.4,69.2,66.1,91.4c-14.5,16.9-13.8,41.5,2.7,56.3l-40,88.4
		c-1.9,4.3,1.3,9.2,6,9.2h124.1c4.7,0,7.9-5,6-9.2l-40-88.4c5.8-5.2,10.1-12,12.3-19.7c66.5,21.4,141.4,0.5,187.8-51.5
		c1.8-1.5,3.2-3.2,4.3-5.1C436.8,321.2,437.3,315,435.4,307.9L435.4,307.9z"/>
	<g>
		<path class="st7" d="M406.4,119.2c-3.6,0-6.5-2.9-6.5-6.5c-0.1-28.2-21.9-51.2-48.6-51.2c-3.6,0-6.5-2.9-6.5-6.6
			c0-3.6,2.9-6.5,6.5-6.5h0c33.9,0.1,61.5,28.9,61.6,64.3C413,116.3,410,119.2,406.4,119.2C406.4,119.2,406.4,119.2,406.4,119.2
			L406.4,119.2z"/>
	</g>
	<g>
		<path class="st7" d="M451.5,106.3c-3.6,0-6.5-2.9-6.5-6.5c-0.1-46.7-36.3-84.8-80.7-84.9c-3.6,0-6.5-2.9-6.5-6.6
			c0-3.6,2.9-6.5,6.5-6.5h0c51.5,0.2,93.6,44.1,93.7,98C458.1,103.3,455.1,106.3,451.5,106.3C451.5,106.3,451.5,106.3,451.5,106.3z"
			/>
	</g>
</g>
<path class="st6" d="M102.6,151.8c0,0,78.5,73,158.8,114.3s174,56.7,174,56.7"/>
<circle class="st9" cx="201.1" cy="374.9" r="16.7"/>
<g id="Layer_2">
</g>
</svg>
