<svg width="512" height="512" viewBox="0 0 512 512" fill="none" xmlns="http://www.w3.org/2000/svg">
<g clip-path="url(#clip0_2111_5452)">
<path d="M139.9 60.5996C170.2 31.4996 209.8 15.3996 251.4 15.0996C251.8 15.0996 252.2 15.0996 252.6 15.0996C295.9 15.0996 336.7 31.8996 367.4 62.3996C398.4 93.1996 415.5 134.3 415.5 178.1C415.5 238.8 382.1 294.1 328.4 322.4C317.2 328.3 310.3 339.8 310.3 352.5V372H194.8V352.4C194.8 339.7 187.8 328.2 176.5 322.2C123.4 294.1 90.1 239.5 89.6 179.6C89.3 144.6 100 111 120.7 82.5996L139.9 60.5996ZM310.4 387.2V406.9V422.1V443.3H194.8V422.1V406.9V387.2H310.4ZM266.7 499.1H238.5C215.4 499.1 196.5 481.1 194.9 458.4H310.2C308.7 481.1 289.8 499.1 266.7 499.1Z" stroke="#353385" stroke-width="26" stroke-miterlimit="10"/>
<path d="M302.4 194H258.267L273.867 132L216.933 222.667H261.067L245.467 284.667L302.4 194Z" stroke="#E3097F" stroke-width="16" stroke-miterlimit="13.3333"/>
</g>
<defs>
<clipPath id="clip0_2111_5452">
<rect width="512" height="512" fill="white"/>
</clipPath>
</defs>
</svg>
