<?xml version="1.0" encoding="utf-8"?>
<!-- Generator: Adobe Illustrator 24.0.1, SVG Export Plug-In . SVG Version: 6.00 Build 0)  -->
<svg version="1.1" id="Layer_1" xmlns="http://www.w3.org/2000/svg" xmlns:xlink="http://www.w3.org/1999/xlink" x="0px" y="0px"
	 viewBox="0 0 512 512" style="enable-background:new 0 0 512 512;" xml:space="preserve">
<style type="text/css">
	.st0{fill:none;stroke:#373386;stroke-width:26;stroke-miterlimit:10;}
	.st1{fill:#363385;stroke:#373386;stroke-width:20;stroke-miterlimit:10;}
	.st2{fill:none;stroke:#373386;stroke-width:22;stroke-miterlimit:13.3333;}
	.st3{fill-rule:evenodd;clip-rule:evenodd;fill:#E3097F;}
	.st4{stroke:#373386;stroke-width:26;stroke-miterlimit:10;}
	.st5{fill:#353385;}
	.st6{fill:none;stroke:#353385;stroke-width:26;stroke-miterlimit:10;}
	.st7{fill:#E3097F;}
	.st8{fill:none;stroke:#353385;stroke-width:6;stroke-miterlimit:10;}
	.st9{fill:none;stroke:#353385;stroke-width:12;stroke-miterlimit:10;}
	.st10{fill:none;stroke:#E3097F;stroke-width:12;stroke-miterlimit:10;}
	.st11{fill:none;stroke:#E3097F;stroke-width:22;stroke-miterlimit:10;}
	.st12{fill:none;stroke:#E3097F;stroke-width:11;stroke-miterlimit:13.3333;}
	.st13{fill:none;stroke:#E3097F;stroke-width:18;stroke-linecap:round;stroke-linejoin:round;stroke-miterlimit:13.3333;}
	.st14{fill:none;stroke:#353385;stroke-width:18;stroke-linecap:round;stroke-linejoin:round;stroke-miterlimit:13.3333;}
	.st15{fill:none;stroke:#353385;stroke-width:26;stroke-linecap:round;stroke-linejoin:round;stroke-miterlimit:13.3333;}
	.st16{fill:none;stroke:#E3097F;stroke-width:26;stroke-linecap:round;stroke-linejoin:round;stroke-miterlimit:13.3333;}
	.st17{fill:none;stroke:#E3097F;stroke-width:26;stroke-miterlimit:10;}
	.st18{fill:none;stroke:#E3097F;stroke-width:8;stroke-miterlimit:10;}
	.st19{fill:none;stroke:#353385;stroke-width:18;stroke-miterlimit:10;}
	.st20{fill:none;stroke:#E3097F;stroke-width:18;stroke-miterlimit:10;}
	.st21{fill:none;stroke:#E3097F;stroke-width:6;stroke-miterlimit:10;}
	.st22{fill-rule:evenodd;clip-rule:evenodd;fill:none;stroke:#353385;stroke-width:26;stroke-miterlimit:10;}
	.st23{fill-rule:evenodd;clip-rule:evenodd;fill:none;stroke:#E3097F;stroke-width:20;stroke-miterlimit:10;}
	.st24{fill:none;stroke:#353385;stroke-width:16;stroke-linecap:round;stroke-miterlimit:10;}
	.st25{fill:none;stroke:#E3097F;stroke-width:14;stroke-miterlimit:13.3333;}
	.st26{clip-path:url(#SVGID_2_);}
	.st27{fill:none;stroke:#E3097F;stroke-width:12;stroke-miterlimit:13.3333;}
</style>
<g id="Layer_2">
</g>
<path class="st15" d="M29.7,484.3h97.6v-94.9c0-6.1-4.9-11-11-11H40.7c-6.1,0-11,4.9-11,11L29.7,484.3z"/>
<path class="st6" d="M100.2,368.4H56.7c-3.8,0-6.9-3.1-6.9-6.9V144.4c0-3.8,3.1-6.9,6.9-6.9h43.5c3.8,0,6.9,3.1,6.9,6.9v217.1
	C103.3,361.6,100.2,364.6,100.2,368.4z"/>
<path class="st6" d="M191.9,343.5L191.9,343.5c-0.6,0-1.1-0.1-1.7-0.2c-3.7-0.9-5.9-4.7-5-8.3c0,0,0,0,0,0l24.5-98.3
	c3.3-13.5,15.4-22.9,29.3-22.9h165.5c13.9,0,26,9.4,29.3,22.9l24.5,98.3c0.9,3.7-1.3,7.4-5,8.4"/>
<path class="st6" d="M476.6,333.1h-27.2c-3.1,0-5.8-2.1-6.6-5.1l-6.9-27.7c-0.9-3.6,1.3-7.3,4.9-8.2c0.5-0.1,1.1-0.2,1.6-0.2h34.1
	c7.8,0,14.1,6.3,14.1,14.1V319C490.6,326.8,484.3,333.1,476.6,333.1z"/>
<path class="st6" d="M192.4,341.5h-27.7c-7.9,0-14.3-6.4-14.3-14.3v-13.4c0-7.9,6.4-14.3,14.3-14.3h34.7c3.8,0,6.9,3.1,6.9,6.9
	c0,0.6-0.1,1.1-0.2,1.7l-7,28.2C198.3,339.3,195.6,341.5,192.4,341.5L192.4,341.5z"/>
<path class="st15" d="M204.6,341.3c-17.2,0-31.2,14-31.2,31.2v61.2c0,4.8,3.9,8.6,8.6,8.6h279.4c4.8,0,8.6-3.9,8.6-8.6v-61.2
	c0-17.2-14-31.2-31.2-31.2H204.6z"/>
<path class="st15" d="M238.9,498.1h-28.5c-9.9,0-18-8.1-18-18v-30.8c0-3.8,3.1-6.9,6.9-6.9H250c3.8,0,6.9,3.1,6.9,6.9v30.8
	C256.9,490,248.9,498.1,238.9,498.1z"/>
<path class="st6" d="M426.5,498.5h-27.9c-9.7,0-17.6-7.9-17.6-17.7v-30.3c0-3.7,3-6.8,6.8-6.8h49.7c3.7,0,6.8,3,6.8,6.8v30.3
	C444.1,490.6,436.2,498.5,426.5,498.5L426.5,498.5z"/>
<path class="st7" d="M224.7,420.8c-16,0-28.9-13-28.9-28.9s13-28.9,28.9-28.9c16,0,28.9,13,28.9,28.9
	C253.6,407.8,240.7,420.8,224.7,420.8z M224.7,376.7c-8.4,0-15.2,6.8-15.2,15.2s6.8,15.2,15.2,15.2c8.4,0,15.2-6.8,15.2-15.2
	C239.9,383.5,233.1,376.7,224.7,376.7C224.7,376.7,224.7,376.7,224.7,376.7L224.7,376.7z"/>
<path class="st7" d="M415.7,410.9c-15.7,0-28.4-12.7-28.4-28.4c0-15.7,12.7-28.4,28.4-28.4c15.7,0,28.4,12.7,28.4,28.4l0,0
	C444.1,398.2,431.4,410.9,415.7,410.9L415.7,410.9z M415.7,367.6c-8.2,0-14.9,6.7-14.9,14.9s6.7,14.9,14.9,14.9s14.9-6.7,14.9-14.9
	C430.6,374.3,424,367.6,415.7,367.6C415.8,367.6,415.8,367.6,415.7,367.6L415.7,367.6z"/>
<path class="st5" d="M354.1,384.7h-58.3c-3.8,0-6.9-3.1-6.9-6.9s3.1-6.9,6.9-6.9h58.3c3.8,0,6.9,3.1,6.9,6.9
	S357.9,384.7,354.1,384.7z"/>
<path class="st5" d="M344.6,412.8h-39.2c-3.8,0-6.9-3.1-6.9-6.9s3.1-6.9,6.9-6.9h39.2c3.8,0,6.9,3.1,6.9,6.9
	S348.4,412.8,344.6,412.8z"/>
<path class="st7" d="M195.8,136.4c-3.8,0-6.9-3.1-6.9-6.9c0-1.4,0.4-2.7,1.1-3.8L261,18.9c2.2-3.1,6.4-3.9,9.6-1.8
	c3.1,2.1,3.9,6.3,1.9,9.4l-70.9,106.8C200.3,135.2,198.1,136.4,195.8,136.4z"/>
<path class="st7" d="M248.4,136.4c-3.8,0-6.9-3.1-6.9-6.9c0-1.4,0.4-2.7,1.1-3.8l70.9-106.8c2.2-3.1,6.4-3.9,9.6-1.8
	c3.1,2.1,3.9,6.3,1.9,9.4l-70.9,106.8C252.9,135.2,250.7,136.4,248.4,136.4z"/>
<path class="st7" d="M301.1,136.4c-3.8,0-6.9-3.1-6.9-6.9c0-1.4,0.4-2.7,1.1-3.8l70.9-106.8c2-3.2,6.3-4.1,9.5-2.1
	c3.2,2,4.1,6.3,2.1,9.5c0,0.1-0.1,0.1-0.1,0.2l-70.9,106.8C305.5,135.2,303.4,136.4,301.1,136.4z"/>
<path class="st7" d="M353.7,136.4c-3.8,0-6.9-3.1-6.9-6.9c0-1.4,0.4-2.7,1.1-3.8l70.9-106.8c2.3-3,6.6-3.6,9.7-1.3
	c2.8,2.1,3.6,5.9,1.8,9l-70.9,106.8C358.2,135.2,356,136.4,353.7,136.4z"/>
<path class="st15" d="M473.4,136.4H38.6c-12.5,0-22.7-10.2-22.7-22.7V38.5C15.9,26,26,15.8,38.6,15.8h434.9
	c12.5,0,22.7,10.2,22.7,22.7v75.2C496.1,126.2,486,136.3,473.4,136.4z"/>
</svg>
