<?xml version="1.0" encoding="utf-8"?>
<!-- Generator: Adobe Illustrator 24.0.1, SVG Export Plug-In . SVG Version: 6.00 Build 0)  -->
<svg version="1.1" id="Layer_1" xmlns="http://www.w3.org/2000/svg" xmlns:xlink="http://www.w3.org/1999/xlink" x="0px" y="0px"
	 viewBox="0 0 512 512" style="enable-background:new 0 0 512 512;" xml:space="preserve">
<style type="text/css">
	.st0{fill:none;stroke:#373386;stroke-width:26;stroke-miterlimit:10;}
	.st1{fill:#363385;stroke:#373386;stroke-width:20;stroke-miterlimit:10;}
	.st2{fill:none;stroke:#373386;stroke-width:22;stroke-miterlimit:13.3333;}
	.st3{fill-rule:evenodd;clip-rule:evenodd;fill:#E3097F;}
	.st4{stroke:#373386;stroke-width:26;stroke-miterlimit:10;}
	.st5{fill:#353385;}
	.st6{fill:none;stroke:#353385;stroke-width:26;stroke-miterlimit:10;}
	.st7{fill:#E3097F;}
	.st8{fill:none;stroke:#353385;stroke-width:6;stroke-miterlimit:10;}
	.st9{fill:none;stroke:#353385;stroke-width:12;stroke-miterlimit:10;}
	.st10{fill:none;stroke:#E3097F;stroke-width:12;stroke-miterlimit:10;}
	.st11{fill:none;stroke:#E3097F;stroke-width:22;stroke-miterlimit:10;}
	.st12{fill:none;stroke:#E3097F;stroke-width:11;stroke-miterlimit:13.3333;}
	.st13{fill:none;stroke:#E3097F;stroke-width:18;stroke-linecap:round;stroke-linejoin:round;stroke-miterlimit:13.3333;}
	.st14{fill:none;stroke:#353385;stroke-width:18;stroke-linecap:round;stroke-linejoin:round;stroke-miterlimit:13.3333;}
	.st15{fill:none;stroke:#353385;stroke-width:26;stroke-linecap:round;stroke-linejoin:round;stroke-miterlimit:13.3333;}
	.st16{fill:none;stroke:#E3097F;stroke-width:26;stroke-linecap:round;stroke-linejoin:round;stroke-miterlimit:13.3333;}
	.st17{fill:none;stroke:#E3097F;stroke-width:26;stroke-miterlimit:10;}
	.st18{fill:none;stroke:#E3097F;stroke-width:8;stroke-miterlimit:10;}
	.st19{fill:none;stroke:#353385;stroke-width:18;stroke-miterlimit:10;}
	.st20{fill:none;stroke:#E3097F;stroke-width:18;stroke-miterlimit:10;}
	.st21{fill:none;stroke:#E3097F;stroke-width:6;stroke-miterlimit:10;}
	.st22{fill-rule:evenodd;clip-rule:evenodd;fill:none;stroke:#353385;stroke-width:26;stroke-miterlimit:10;}
	.st23{fill-rule:evenodd;clip-rule:evenodd;fill:none;stroke:#E3097F;stroke-width:20;stroke-miterlimit:10;}
	.st24{fill:none;stroke:#353385;stroke-width:16;stroke-linecap:round;stroke-miterlimit:10;}
	.st25{fill:none;stroke:#E3097F;stroke-width:14;stroke-miterlimit:13.3333;}
	.st26{clip-path:url(#SVGID_2_);}
	.st27{fill:none;stroke:#E3097F;stroke-width:12;stroke-miterlimit:13.3333;}
</style>
<g id="Layer_2">
</g>
<g>
	<g>
		<path class="st22" d="M158.2,387.4c8.3,38.8,3,66.8-6.2,83.7c-8.2,14.9-19.9,21.8-29.8,22.1H76.8c-16.4,0-32.1-6.5-43.6-18.1
			s-18.1-27.3-18.1-43.6V26c0-4.9,3.9-8.8,8.8-8.8h352.9c4.9,0,8.8,3.9,8.8,8.8v352.6c0,4.9-3.9,8.8-8.8,8.8L158.2,387.4z"/>
		<path class="st22" d="M498.4,388.2c0-4.5-3.7-8.2-8.3-8.2H156c-2.6,0-5,1.2-6.6,3.2c-1.6,2-2.1,4.7-1.4,7.1
			c9.7,35.9,6.4,61.5-1.8,76.3c-4.1,7.4-9,12-13.9,12.1c-4.5,0.1-8.1,3.9-8,8.3c0.1,4.5,3.8,8.1,8.3,8.1h274.8
			c50.4,0,91.2-40.5,91.2-90.5C498.4,394.8,498.4,388.2,498.4,388.2L498.4,388.2z"/>
		<path class="st23" d="M83.6,87.3V65.4c0-4.3,3.5-7.8,7.8-7.8H115c4.3,0,7.8,3.5,7.8,7.8v21.9h21.9c4.3,0,7.8,3.5,7.8,7.8v23.7
			c0,4.3-3.5,7.8-7.8,7.8h-21.9v21.9c0,4.3-3.5,7.8-7.8,7.8H91.4c-4.3,0-7.8-3.5-7.8-7.8v-21.9H61.7c-4.3,0-7.8-3.5-7.8-7.8V95.1
			c0-4.3,3.5-7.8,7.8-7.8H83.6z"/>
	</g>
	<line class="st24" x1="52.4" y1="199" x2="351.2" y2="199"/>
	<line class="st24" x1="52.4" y1="227.4" x2="351.2" y2="227.4"/>
	<line class="st24" x1="52.4" y1="255.7" x2="351.2" y2="255.7"/>
</g>
</svg>
