<?xml version="1.0" encoding="utf-8"?>
<!-- Generator: Adobe Illustrator 24.0.1, SVG Export Plug-In . SVG Version: 6.00 Build 0)  -->
<svg version="1.1" id="Layer_1" xmlns="http://www.w3.org/2000/svg" xmlns:xlink="http://www.w3.org/1999/xlink" x="0px" y="0px"
	 viewBox="0 0 512 512" style="enable-background:new 0 0 512 512;" xml:space="preserve">
<style type="text/css">
	.st0{fill:none;stroke:#373386;stroke-width:26;stroke-miterlimit:10;}
	.st1{fill:#363385;stroke:#373386;stroke-width:20;stroke-miterlimit:10;}
	.st2{fill:none;stroke:#373386;stroke-width:22;stroke-miterlimit:13.3333;}
	.st3{fill-rule:evenodd;clip-rule:evenodd;fill:#E3097F;}
	.st4{stroke:#373386;stroke-width:26;stroke-miterlimit:10;}
	.st5{fill:#353385;}
	.st6{fill:none;stroke:#353385;stroke-width:26;stroke-miterlimit:10;}
	.st7{fill:#E3097F;}
	.st8{fill:none;stroke:#353385;stroke-width:6;stroke-miterlimit:10;}
	.st9{fill:none;stroke:#353385;stroke-width:12;stroke-miterlimit:10;}
	.st10{fill:none;stroke:#E3097F;stroke-width:12;stroke-miterlimit:10;}
	.st11{fill:none;stroke:#E3097F;stroke-width:22;stroke-miterlimit:10;}
	.st12{fill:none;stroke:#E3097F;stroke-width:11;stroke-miterlimit:13.3333;}
	.st13{fill:none;stroke:#E3097F;stroke-width:18;stroke-linecap:round;stroke-linejoin:round;stroke-miterlimit:13.3333;}
	.st14{fill:none;stroke:#353385;stroke-width:18;stroke-linecap:round;stroke-linejoin:round;stroke-miterlimit:13.3333;}
	.st15{fill:none;stroke:#353385;stroke-width:26;stroke-linecap:round;stroke-linejoin:round;stroke-miterlimit:13.3333;}
	.st16{fill:none;stroke:#E3097F;stroke-width:26;stroke-linecap:round;stroke-linejoin:round;stroke-miterlimit:13.3333;}
	.st17{fill:none;stroke:#E3097F;stroke-width:26;stroke-miterlimit:10;}
	.st18{fill:none;stroke:#E3097F;stroke-width:8;stroke-miterlimit:10;}
	.st19{fill:none;stroke:#353385;stroke-width:18;stroke-miterlimit:10;}
	.st20{fill:none;stroke:#E3097F;stroke-width:18;stroke-miterlimit:10;}
	.st21{fill:none;stroke:#E3097F;stroke-width:6;stroke-miterlimit:10;}
	.st22{fill-rule:evenodd;clip-rule:evenodd;fill:none;stroke:#353385;stroke-width:26;stroke-miterlimit:10;}
	.st23{fill-rule:evenodd;clip-rule:evenodd;fill:none;stroke:#E3097F;stroke-width:20;stroke-miterlimit:10;}
	.st24{fill:none;stroke:#353385;stroke-width:16;stroke-linecap:round;stroke-miterlimit:10;}
	.st25{fill:none;stroke:#E3097F;stroke-width:14;stroke-miterlimit:13.3333;}
	.st26{clip-path:url(#SVGID_2_);}
	.st27{fill:none;stroke:#E3097F;stroke-width:12;stroke-miterlimit:13.3333;}
</style>
<g id="Layer_2">
</g>
<g>
	<g>
		<path class="st5" d="M503.1,398.6h-40.8l-17.6-12.2c-28.1-19.5-64.9-22.7-96-8.4l-21.6,9.9H281c-22.1,0-40.3,16.9-42.2,38.5
			l-101.2-27.1c-13.5-3.6-27.7,2.9-33.9,15.4c-3.6,7.4-4,16-0.9,23.7c3,7.7,9.2,13.7,16.9,16.6l67.1,25.3l5.3-14L125,441.2
			c-3.8-1.4-6.8-4.3-8.3-8.1c-1.5-3.8-1.3-7.9,0.5-11.6c3-6.1,10-9.3,16.6-7.5l115,30.8c1.5,0.5,3.2,0.8,4.9,0.8h86.2
			c4.1,0,7.5-3.3,7.5-7.5c0-4.1-3.3-7.5-7.5-7.5h-86.2c-0.1,0-0.1,0-0.1-0.1c0-15.2,12.3-27.5,27.5-27.5h47.7c1.1,0,2.1-0.2,3.1-0.7
			l23.1-10.6c26.3-12.1,57.5-9.4,81.3,7.1l19.5,13.5c1.2,0.9,2.7,1.3,4.3,1.3h35.7v64.4h-38.3c-0.4,0-0.9,0-1.3,0.1l-105.6,18.6
			c-35.1,6.2-71.4,2.8-104.7-9.8l-25.6-9.7l-5.3,14l25.6,9.7c24.2,9.2,49.9,13.8,75.6,13.8c12.4,0,24.7-1.1,37-3.2l105-18.5h45.1
			c4.1,0,7.5-3.3,7.5-7.5v-79.3C510.6,402,507.2,398.6,503.1,398.6L503.1,398.6z"/>
		<path class="st5" d="M105.6,81.3L82.9,99.4h-74c-4.1,0-7.5,3.3-7.5,7.5v134c0,4.1,3.3,7.5,7.5,7.5h51c16.8,0,33.6,4,48.7,11.5
			l30,15c1.7,17.3,7.6,32.1,17.7,44.3c23.6,28.5,68.6,42.4,137.5,42.4c21.2,0,40.5-1.4,57.3-4.1l30.3-7.1
			c25.8-8.3,44.5-21.4,55.7-39.1c12.1-19.2,15.5-43.9,9.9-73.3c-8.6-45.6-32.9-79.7-51.7-100.3c-11.4-12.5-22.2-21.6-29.6-27.2
			c4.4-4.3,7.1-10.3,7.1-16.9c0-11-7.5-20.3-17.7-23L368,35.8c2.6-6.9,1.7-14.6-2.5-20.7c-4.2-6.1-11.1-9.7-18.5-9.7H240.5
			c-7.4,0-14.3,3.6-18.4,9.7c-4.2,6.1-5.1,13.8-2.5,20.7l6.4,17c-31.4-15.8-69.3-11.9-96.9,9.9L105.6,81.3z M138.4,74.4
			c23.3-18.5,55.3-21.6,81.7-7.9l79.7,41.3c-7.8,13.1-23.7,18.8-38,13.6L210,102.7c-2.1-0.8-4.5-0.5-6.4,0.6
			c-1.9,1.2-3.2,3.2-3.5,5.4c0,0.2-2.4,17.8-13.9,35.5c-0.6,0.9-1.2,1.9-1.9,2.8c-1.7,2.5-3.6,4.8-5.5,7c-0.1,0.1-0.2,0.2-0.2,0.3
			c-14.9,16.7-35.5,25.2-61.4,25.2c-4.1,0-7.5,3.3-7.5,7.5c0,4.1,3.3,7.5,7.5,7.5c16.3,0,29.8-3,41.1-7.8
			c-8.3,16.4-14.2,33.5-17.5,51.1c-1.3,7-2.1,13.6-2.5,20l-23-11.5c-17.1-8.5-36.2-13-55.3-13H16.4v-119h69.1c1.7,0,3.3-0.6,4.6-1.6
			L114.9,93L138.4,74.4z M348.7,342.6c-16,2.6-34.5,3.9-54.9,3.9c-63.3,0-105.6-12.4-125.9-37c-8.8-10.7-13.7-23.6-14.7-39.2
			c0-0.5,0-1-0.1-1.5c-0.4-8.6,0.4-18,2.3-28.2c5.2-27.3,16.9-53.2,34.7-76.9c2.1-2.4,4.2-5.1,6.2-7.8
			c11.4-13.8,22.9-24.1,31.3-30.9l29,10.5c20.5,7.4,43.1-0.3,54.9-18.3h37.3c0.2,0,0.4,0,0.6,0c4.8,3.3,19.3,13.7,34.9,30.8
			c17.4,19.1,39.8,50.6,47.8,92.6c4.9,25.6,2.2,46.7-7.8,62.5c-9.2,14.6-25.3,25.7-47.6,32.9L348.7,342.6z M234.3,23.6
			c1.4-2.1,3.7-3.2,6.2-3.2h106.6c5.1-0.2,8.9,5.4,7,10.1l-14.9,39.2h-80.6l-12.7-6.6l-12.3-32.6C232.6,28.2,232.9,25.7,234.3,23.6z
			 M287.4,84.6h61.4c4.9,0,8.8,4,8.8,8.8c0,4.9-4,8.8-8.8,8.8h-35.1c-1.3-3.2-3.7-5.9-6.8-7.5L287.4,84.6z"/>
		<g>
			<g>
				<path class="st18" d="M332.7,193.4h-13.3c-1.1-5-3-9.6-5.8-13.9h19.1c5.5,0,9.9-4.5,9.9-9.9s-4.5-9.9-9.9-9.9h-77.8
					c-5.5,0-9.9,4.5-9.9,9.9s4.5,9.9,9.9,9.9h22.3c9.3,0,17.5,6,21.2,13.9h-43.5c-5.5,0-9.9,4.5-9.9,9.9c0,5.5,4.5,9.9,9.9,9.9h43.5
					c-1.3,2.3-2.8,4.4-4.6,6.3c-4.5,4.4-10.4,6.8-16.6,6.7h-22.3c-5.6,0.1-10,4.6-9.9,10.1c0,2.7,1.2,5.3,3.1,7.2l55.6,52.6
					c4,3.8,10.2,3.6,14-0.4c3.8-4,3.6-10.2-0.4-14l-37.5-35.5c10.5-0.6,20.5-5,27.9-12.4c5.7-5.7,9.6-12.7,11.6-20.5h13.3
					c5.5,0,9.9-4.5,9.9-9.9C342.6,197.8,338.1,193.4,332.7,193.4z"/>
			</g>
		</g>
	</g>
	<polygon class="st5" points="191.7,466.4 220,477.1 214.9,490.8 186.7,480.5 	"/>
</g>
</svg>
