<?xml version="1.0" encoding="utf-8"?>
<!-- Generator: Adobe Illustrator 24.0.1, SVG Export Plug-In . SVG Version: 6.00 Build 0)  -->
<svg version="1.1" id="Layer_1" xmlns="http://www.w3.org/2000/svg" xmlns:xlink="http://www.w3.org/1999/xlink" x="0px" y="0px"
	 viewBox="0 0 512 512" style="enable-background:new 0 0 512 512;" xml:space="preserve">
<style type="text/css">
	.st0{fill:none;stroke:#373386;stroke-width:26;stroke-miterlimit:10;}
	.st1{fill:#363385;stroke:#373386;stroke-width:20;stroke-miterlimit:10;}
	.st2{fill:none;stroke:#373386;stroke-width:22;stroke-miterlimit:13.3333;}
	.st3{fill-rule:evenodd;clip-rule:evenodd;fill:#E3097F;}
	.st4{stroke:#373386;stroke-width:26;stroke-miterlimit:10;}
	.st5{fill:#353385;}
	.st6{fill:none;stroke:#353385;stroke-width:26;stroke-miterlimit:10;}
	.st7{fill:#E3097F;}
	.st8{fill:none;stroke:#353385;stroke-width:6;stroke-miterlimit:10;}
	.st9{fill:none;stroke:#353385;stroke-width:12;stroke-miterlimit:10;}
	.st10{fill:none;stroke:#E3097F;stroke-width:12;stroke-miterlimit:10;}
	.st11{fill:none;stroke:#E3097F;stroke-width:22;stroke-miterlimit:10;}
	.st12{fill:none;stroke:#E3097F;stroke-width:11;stroke-miterlimit:13.3333;}
	.st13{fill:none;stroke:#E3097F;stroke-width:18;stroke-linecap:round;stroke-linejoin:round;stroke-miterlimit:13.3333;}
	.st14{fill:none;stroke:#353385;stroke-width:18;stroke-linecap:round;stroke-linejoin:round;stroke-miterlimit:13.3333;}
	.st15{fill:none;stroke:#353385;stroke-width:26;stroke-linecap:round;stroke-linejoin:round;stroke-miterlimit:13.3333;}
	.st16{fill:none;stroke:#E3097F;stroke-width:26;stroke-linecap:round;stroke-linejoin:round;stroke-miterlimit:13.3333;}
	.st17{fill:none;stroke:#E3097F;stroke-width:26;stroke-miterlimit:10;}
	.st18{fill:none;stroke:#E3097F;stroke-width:8;stroke-miterlimit:10;}
	.st19{fill:none;stroke:#353385;stroke-width:18;stroke-miterlimit:10;}
	.st20{fill:none;stroke:#E3097F;stroke-width:18;stroke-miterlimit:10;}
	.st21{fill:none;stroke:#E3097F;stroke-width:6;stroke-miterlimit:10;}
	.st22{fill-rule:evenodd;clip-rule:evenodd;fill:none;stroke:#353385;stroke-width:26;stroke-miterlimit:10;}
	.st23{fill-rule:evenodd;clip-rule:evenodd;fill:none;stroke:#E3097F;stroke-width:20;stroke-miterlimit:10;}
	.st24{fill:none;stroke:#353385;stroke-width:16;stroke-linecap:round;stroke-miterlimit:10;}
	.st25{fill:none;stroke:#E3097F;stroke-width:14;stroke-miterlimit:13.3333;}
	.st26{clip-path:url(#SVGID_2_);}
	.st27{fill:none;stroke:#E3097F;stroke-width:12;stroke-miterlimit:13.3333;}
</style>
<g id="Layer_2">
</g>
<g id="Subscription_1_">
	<path class="st5" d="M463,105.8H12c-5.4,0-9.8-4.4-9.8-9.8c0-5.4,4.4-9.8,9.8-9.8h451c5.4,0,9.8,4.4,9.8,9.8
		C472.8,101.4,468.4,105.8,463,105.8z"/>
	<path class="st7" d="M306.2,380.3c-5.4,0-9.8-4.4-9.8-9.8v-39.2c0-5.4,4.4-9.8,9.8-9.8s9.8,4.4,9.8,9.8v39.2
		C316,375.9,311.6,380.3,306.2,380.3z"/>
	<path class="st5" d="M257.1,370.5c0,5.4-4.4,9.8-9.8,9.8H41.5c-21.7,0-39.2-17.6-39.2-39.2v-88.2c0-5.4,4.4-9.8,9.8-9.8l0,0
		c5.4,0,9.8,4.4,9.8,9.8v88.2c0,10.8,8.8,19.6,19.6,19.6h205.9C252.7,360.7,257.1,365.1,257.1,370.5z"/>
	<path class="st5" d="M472.8,47v279.4c0,5.4-4.4,9.8-9.8,9.8s-9.8-4.4-9.8-9.8V47c0-10.8-8.8-19.6-19.6-19.6H306.2
		c-5.4,0-9.8-4.4-9.8-9.8l0,0c0-5.4,4.4-9.8,9.8-9.8h127.4C455.3,7.8,472.8,25.3,472.8,47z"/>
	<path class="st5" d="M387.6,233.3h-32.5c-5.4,0-9.8-4.4-9.8-9.8s4.4-9.8,9.8-9.8h32.9c4.4,0,8.7-1.6,12-4.5c2.8-2.5,4.5-6,4.6-9.8
		c-0.3-8.7-7.5-15.4-16.2-15.1c-0.3,0-0.6,0-0.9,0.1h-84.5c-4.4,0-8.7,1.6-12,4.5c-2.8,2.5-4.5,6-4.6,9.8
		c0.3,8.7,7.6,15.4,16.2,15.1c0.1,0,0.2,0,0.3,0h3.8c5.4,0,9.8,4.4,9.8,9.8s-4.4,9.8-9.8,9.8h-3.8c-19.4,0.4-35.6-14.9-36.2-34.3
		c0.1-9.3,4-18.2,10.9-24.5c6.9-6.3,15.9-9.8,25.3-9.8h84.5c19.4-0.4,35.6,14.9,36.2,34.3c-0.1,9.3-4,18.2-10.9,24.5
		C406,229.8,397,233.3,387.6,233.3z"/>
	<path class="st7" d="M512,347.4v50.5c0,15.1-2.4,30.2-7.2,44.5c-1.8,5.1-7.4,7.8-12.5,5.9c-1.4-0.5-2.6-1.3-3.6-2.3l0,0
		c-2.5-2.6-3.4-6.4-2.3-9.8c4-12.4,6-25.3,6-38.3v-50.5c0.3-7.9-5.3-14.8-13.1-16.1c-4.2-0.5-8.4,0.9-11.5,3.7
		c-3.1,2.8-4.8,6.8-4.8,11c0,5.4-4.4,9.8-9.8,9.8s-9.8-4.4-9.8-9.8v-18.2c0.3-7.9-5.3-14.8-13.1-16.1c-4.2-0.5-8.4,0.9-11.5,3.7
		c-3.1,2.8-4.8,6.8-4.8,11c0,5.4-4.4,9.8-9.8,9.8s-9.8-4.4-9.8-9.8V318c0.3-7.9-5.3-14.8-13.1-16.1c-4.2-0.5-8.4,0.9-11.5,3.7
		c-3.1,2.8-4.8,6.8-4.8,11c0,5.4-4.4,9.8-9.8,9.8s-9.8-4.4-9.8-9.8v-88.2c0-8.1-6.5-14.7-14.6-14.8c-0.6,0-1.1,0-1.7,0.1
		c-7.8,1.2-13.5,8.2-13.1,16.1v101.6c0,5.4-4.4,9.8-9.8,9.8s-9.8-4.4-9.8-9.8c0-16.2-13.2-29.4-29.4-29.4c-0.3,0-0.7,0-1,0
		c-5,0.5-8.8,4.8-8.8,9.8v86.2c0,40.9,20.4,79.1,54.4,101.8c4.2,3.4,4.9,9.6,1.5,13.8c-3,3.7-8.1,4.7-12.3,2.5
		c-39.4-26.2-63.2-70.3-63.2-117.6v-86.6c0-15.6,12.2-28.6,27.8-29.4c11.1-0.3,22.1,3.1,31,9.8v-62.4c-0.3-18,12.9-33.3,30.8-35.7
		c18.8-2,35.6,11.6,37.7,30.4c0.1,1.3,0.2,2.6,0.2,3.9v57.3c5.7-2.7,12-3.9,18.2-3.3c10.5,1.2,19.8,7.2,25.3,16.2
		c15.2-11.1,36.5-7.8,47.5,7.4c2.2,3,3.9,6.4,5,10c6.2-3.4,13.2-4.8,20.2-4.1C499.1,314,512.3,329.4,512,347.4z"/>
	<path class="st5" d="M12,223.5L12,223.5c-5.4,0-9.8-4.4-9.8-9.8v-13.2V47c0-21.7,17.6-39.2,39.2-39.2h186.3c5.4,0,5.4,19.6,0,19.6
		H41.5c-10.8,0-19.6,8.8-19.6,19.6v166.7C21.8,219.1,17.5,223.5,12,223.5z"/>
	<path class="st5" d="M227.7,252.9H61.1c-5.4,0-9.8-4.4-9.8-9.8v-98c0-5.4,4.4-9.8,9.8-9.8h166.7c5.4,0,9.8,4.4,9.8,9.8v98
		C237.5,248.5,233.1,252.9,227.7,252.9z M70.9,233.3h147.1v-78.4H70.9V233.3z"/>
	<path class="st5" d="M217.9,292.1H70.9c-5.4,0-9.8-4.4-9.8-9.8s4.4-9.8,9.8-9.8h147.1c5.4,0,9.8,4.4,9.8,9.8
		S223.3,292.1,217.9,292.1z"/>
	<path class="st5" d="M159.1,331.3H70.9c-5.4,0-9.8-4.4-9.8-9.8s4.4-9.8,9.8-9.8h88.2c5.4,0,9.8,4.4,9.8,9.8
		S164.5,331.3,159.1,331.3z"/>
	<rect x="227.7" y="7.8" class="st5" width="81.2" height="19.6"/>
	<polyline class="st5" points="2.2,255.2 2.2,187.3 21.8,187.3 21.8,262.7 	"/>
</g>
</svg>
