<svg width="17" height="4" viewBox="0 0 17 4" fill="none" xmlns="http://www.w3.org/2000/svg">
<path d="M8.00364 0C6.98535 0 6.15668 0.828672 6.15668 1.84697C6.15668 2.86526 6.98535 3.69393 8.00364 3.69393C9.02194 3.69393 9.85061 2.86526 9.85061 1.84697C9.85061 0.828672 9.02194 0 8.00364 0Z" fill="#393186"/>
<path d="M1.84697 0C0.828672 0 0 0.828672 0 1.84697C0 2.86526 0.828672 3.69393 1.84697 3.69393C2.86526 3.69393 3.69393 2.86526 3.69393 1.84697C3.69393 0.828672 2.86526 0 1.84697 0Z" fill="#393186"/>
<path d="M14.1603 0C13.142 0 12.3133 0.828672 12.3133 1.84697C12.3133 2.86526 13.142 3.69393 14.1603 3.69393C15.1786 3.69393 16.0072 2.86526 16.0072 1.84697C16.0072 0.828672 15.1786 0 14.1603 0Z" fill="#393186"/>
</svg>
