<?xml version="1.0" encoding="utf-8"?>
<!-- Generator: Adobe Illustrator 24.0.1, SVG Export Plug-In . SVG Version: 6.00 Build 0)  -->
<svg version="1.1" id="Layer_1" xmlns="http://www.w3.org/2000/svg" xmlns:xlink="http://www.w3.org/1999/xlink" x="0px" y="0px"
	 viewBox="0 0 512 512" style="enable-background:new 0 0 512 512;" xml:space="preserve">
<style type="text/css">
	.st0{fill:none;stroke:#373386;stroke-width:26;stroke-miterlimit:10;}
	.st1{fill:#363385;stroke:#373386;stroke-width:20;stroke-miterlimit:10;}
	.st2{fill:none;stroke:#373386;stroke-width:22;stroke-miterlimit:13.3333;}
	.st3{fill-rule:evenodd;clip-rule:evenodd;fill:#E3097F;}
	.st4{stroke:#373386;stroke-width:26;stroke-miterlimit:10;}
	.st5{fill:#353385;}
	.st6{fill:none;stroke:#353385;stroke-width:26;stroke-miterlimit:10;}
	.st7{fill:#E3097F;}
	.st8{fill:none;stroke:#353385;stroke-width:6;stroke-miterlimit:10;}
	.st9{fill:none;stroke:#353385;stroke-width:12;stroke-miterlimit:10;}
	.st10{fill:none;stroke:#E3097F;stroke-width:12;stroke-miterlimit:10;}
	.st11{fill:none;stroke:#E3097F;stroke-width:22;stroke-miterlimit:10;}
	.st12{fill:none;stroke:#E3097F;stroke-width:11;stroke-miterlimit:13.3333;}
	.st13{fill:none;stroke:#E3097F;stroke-width:18;stroke-linecap:round;stroke-linejoin:round;stroke-miterlimit:13.3333;}
	.st14{fill:none;stroke:#353385;stroke-width:18;stroke-linecap:round;stroke-linejoin:round;stroke-miterlimit:13.3333;}
	.st15{fill:none;stroke:#353385;stroke-width:26;stroke-linecap:round;stroke-linejoin:round;stroke-miterlimit:13.3333;}
	.st16{fill:none;stroke:#E3097F;stroke-width:26;stroke-linecap:round;stroke-linejoin:round;stroke-miterlimit:13.3333;}
	.st17{fill:none;stroke:#E3097F;stroke-width:26;stroke-miterlimit:10;}
	.st18{fill:none;stroke:#E3097F;stroke-width:8;stroke-miterlimit:10;}
	.st19{fill:none;stroke:#353385;stroke-width:18;stroke-miterlimit:10;}
	.st20{fill:none;stroke:#E3097F;stroke-width:18;stroke-miterlimit:10;}
	.st21{fill:none;stroke:#E3097F;stroke-width:6;stroke-miterlimit:10;}
	.st22{fill-rule:evenodd;clip-rule:evenodd;fill:none;stroke:#353385;stroke-width:26;stroke-miterlimit:10;}
	.st23{fill-rule:evenodd;clip-rule:evenodd;fill:none;stroke:#E3097F;stroke-width:20;stroke-miterlimit:10;}
	.st24{fill:none;stroke:#353385;stroke-width:16;stroke-linecap:round;stroke-miterlimit:10;}
	.st25{fill:none;stroke:#E3097F;stroke-width:14;stroke-miterlimit:13.3333;}
	.st26{clip-path:url(#SVGID_2_);}
	.st27{fill:none;stroke:#E3097F;stroke-width:12;stroke-miterlimit:13.3333;}
</style>
<g id="Layer_2">
</g>
<g>
	<g>
		<path class="st6" d="M311.2,67.2c-11.2-16.5-21.1-31.6-30.3-45.4c-1.3-2-3.3-3.9-5.3-5.3c-7.9-5.3-18.4-2.6-23.7,5.3
			c-8.6,13.8-18.4,28.3-30.3,45.4c-52,76.3-129.6,191.5-129.6,257.3c0,48,19.7,91.5,51.3,123.1c31.6,30.9,75,50.7,123.1,50.7
			s91.5-19.7,123.1-51.3s51.3-75,51.3-123.1C440.9,258,363.2,143.5,311.2,67.2z"/>
	</g>
</g>
<g>
	<g>
		<path class="st7" d="M355.7,305c-8.1-0.6-15,5.8-15.5,13.8c-0.6,12.7-4.6,24.8-10.9,35.1c-6.3,10.4-15.5,19.6-26.5,25.3
			c-6.9,4-9.8,13.2-5.8,20.1c4.6,8.1,13.8,10.4,20.7,6.3c15.5-8.6,28.2-21.3,36.8-35.7c9.2-14.4,14.4-31.7,15-49.5
			C370.1,312.5,363.8,305.6,355.7,305z"/>
	</g>
</g>
</svg>
