<?xml version="1.0" encoding="utf-8"?>
<!-- Generator: Adobe Illustrator 24.0.1, SVG Export Plug-In . SVG Version: 6.00 Build 0)  -->
<svg version="1.1" id="Layer_1" xmlns="http://www.w3.org/2000/svg" xmlns:xlink="http://www.w3.org/1999/xlink" x="0px" y="0px"
	 viewBox="0 0 512 512" style="enable-background:new 0 0 512 512;" xml:space="preserve">
<style type="text/css">
	.st0{fill:none;stroke:#FFFFFF;stroke-width:26;stroke-miterlimit:10;}
	.st1{fill-rule:evenodd;clip-rule:evenodd;fill:#E3097F;}
	.st2{stroke:#FFFFFF;stroke-width:26;stroke-miterlimit:10;}
	.st3{fill:#FFFFFF;}
	.st4{fill:#E3097F;}
	.st5{fill:none;stroke:#FFFFFF;stroke-width:6;stroke-miterlimit:10;}
	.st6{fill:none;stroke:#FFFFFF;stroke-width:12;stroke-miterlimit:10;}
	.st7{fill:none;stroke:#E3097F;stroke-width:12;stroke-miterlimit:10;}
	.st8{fill:none;stroke:#E3097F;stroke-width:22;stroke-miterlimit:10;}
	.st9{fill:none;stroke:#E3097F;stroke-width:11;stroke-miterlimit:13.3333;}
	.st10{fill:none;stroke:#E3097F;stroke-width:18;stroke-linecap:round;stroke-linejoin:round;stroke-miterlimit:13.3333;}
	.st11{fill:none;stroke:#353385;stroke-width:18;stroke-linecap:round;stroke-linejoin:round;stroke-miterlimit:13.3333;}
	.st12{fill:none;stroke:#FFFFFF;stroke-width:26;stroke-linecap:round;stroke-linejoin:round;stroke-miterlimit:13.3333;}
	.st13{fill:none;stroke:#E3097F;stroke-width:26;stroke-linecap:round;stroke-linejoin:round;stroke-miterlimit:13.3333;}
	.st14{fill:none;stroke:#E3097F;stroke-width:26;stroke-miterlimit:10;}
	.st15{fill:none;stroke:#E3097F;stroke-width:8;stroke-miterlimit:10;}
	.st16{fill:none;stroke:#FFFFFF;stroke-width:18;stroke-miterlimit:10;}
	.st17{fill:none;stroke:#E3097F;stroke-width:18;stroke-miterlimit:10;}
	.st18{fill:none;stroke:#E3097F;stroke-width:6;stroke-miterlimit:10;}
	.st19{fill-rule:evenodd;clip-rule:evenodd;fill:none;stroke:#FFFFFF;stroke-width:26;stroke-miterlimit:10;}
	.st20{fill-rule:evenodd;clip-rule:evenodd;fill:none;stroke:#E3097F;stroke-width:20;stroke-miterlimit:10;}
	.st21{fill:none;stroke:#FFFFFF;stroke-width:16;stroke-linecap:round;stroke-miterlimit:10;}
	.st22{fill:#FFFFFF;stroke:#FFFFFF;stroke-width:20;stroke-miterlimit:10;}
	.st23{fill:none;stroke:#FFFFFF;stroke-width:22;stroke-miterlimit:13.3333;}
	.st24{fill:none;stroke:#E3097F;stroke-width:14;stroke-miterlimit:13.3333;}
	.st25{clip-path:url(#SVGID_2_);}
	.st26{fill:none;stroke:#E3097F;stroke-width:12;stroke-miterlimit:13.3333;}
</style>
<g id="Layer_2">
</g>
<g>
	<path class="st3" d="M449,109.5l-25-80.8c-4.7-15.2-20.5-23.9-35.9-19.9l-145,38.3L10.4,108.8c-3.7,1-6.7,4-7.4,7.8
		c-0.2,0.8-0.2,1.7-0.2,2.6V472c0,11.1,9,20.2,20.2,20.2h411.4c40.3,0,73-32.7,73-73V172C507.3,138.9,481.5,111.8,449,109.5
		L449,109.5z M393.2,28c5.1-1.4,10.4,1.6,12,6.6l19,61.4c2.1,6.6-2.9,13.3-9.8,13.3H164.2c-12.1,0-14.3-17.2-2.6-20.2L393.2,28z
		 M223.2,52.4L93.8,86.6 M435.8,363.4h41.4c5.7,0,10.3,4.6,10.3,10.3v55.8c0,23.7-19.3,42.9-42.9,42.9v0H32.8
		c-5.7,0-10.3-4.6-10.3-10.3V139.4c0-5.7,4.6-10.3,10.3-10.3h411.8c23.7,0,43,19.2,43,43v55.7c0,5.7-4.6,10.3-10.3,10.3H362
		c-34.4,0-63.2,27.3-63.7,61.8c-0.5,35,27.8,63.6,62.7,63.6H435.8z M361.9,343.7c-25,0-41.2-20.4-39.8-45.4
		c1.3-22.5,16.1-40.5,38.9-40.5h116.2c5.7,0,10.3,4.6,10.3,10.3v65.3c0,5.7-4.6,10.3-10.3,10.3h-41H361.9z"/>
	<path class="st9" d="M403.8,271.1c-16.3,0-29.6,13.3-29.6,29.6c0,16.3,13.3,29.6,29.6,29.6c16.3,0,29.6-13.3,29.6-29.6
		C433.4,284.4,420.1,271.1,403.8,271.1z"/>
</g>
</svg>
