<svg width="18" height="4" viewBox="0 0 18 4" fill="none" xmlns="http://www.w3.org/2000/svg">
<path d="M9.00029 0.152832C7.98199 0.152832 7.15332 0.981504 7.15332 1.9998C7.15332 3.01809 7.98199 3.84676 9.00029 3.84676C10.0186 3.84676 10.8473 3.01809 10.8473 1.9998C10.8473 0.981504 10.0186 0.152832 9.00029 0.152832Z" fill="white"/>
<path d="M2.84355 0.152832C1.82525 0.152832 0.996582 0.981504 0.996582 1.9998C0.996582 3.01809 1.82525 3.84676 2.84355 3.84676C3.86184 3.84676 4.69051 3.01809 4.69051 1.9998C4.69051 0.981504 3.86184 0.152832 2.84355 0.152832Z" fill="white"/>
<path d="M15.157 0.152832C14.1387 0.152832 13.3101 0.981504 13.3101 1.9998C13.3101 3.01809 14.1387 3.84676 15.157 3.84676C16.1753 3.84676 17.004 3.01809 17.004 1.9998C17.004 0.981504 16.1753 0.152832 15.157 0.152832Z" fill="white"/>
</svg>
