<?xml version="1.0" encoding="utf-8"?>
<!-- Generator: Adobe Illustrator 24.0.1, SVG Export Plug-In . SVG Version: 6.00 Build 0)  -->
<svg version="1.1" id="Layer_1" xmlns="http://www.w3.org/2000/svg" xmlns:xlink="http://www.w3.org/1999/xlink" x="0px" y="0px"
	 viewBox="0 0 512 512" style="enable-background:new 0 0 512 512;" xml:space="preserve">
<style type="text/css">
	.st0{fill:none;stroke:#FFFFFF;stroke-width:26;stroke-miterlimit:10;}
	.st1{fill-rule:evenodd;clip-rule:evenodd;fill:#E3097F;}
	.st2{stroke:#FFFFFF;stroke-width:26;stroke-miterlimit:10;}
	.st3{fill:#FFFFFF;}
	.st4{fill:#E3097F;}
	.st5{fill:none;stroke:#FFFFFF;stroke-width:6;stroke-miterlimit:10;}
	.st6{fill:none;stroke:#FFFFFF;stroke-width:12;stroke-miterlimit:10;}
	.st7{fill:none;stroke:#E3097F;stroke-width:12;stroke-miterlimit:10;}
	.st8{fill:none;stroke:#E3097F;stroke-width:22;stroke-miterlimit:10;}
	.st9{fill:none;stroke:#E3097F;stroke-width:11;stroke-miterlimit:13.3333;}
	.st10{fill:none;stroke:#E3097F;stroke-width:18;stroke-linecap:round;stroke-linejoin:round;stroke-miterlimit:13.3333;}
	.st11{fill:none;stroke:#353385;stroke-width:18;stroke-linecap:round;stroke-linejoin:round;stroke-miterlimit:13.3333;}
	.st12{fill:none;stroke:#FFFFFF;stroke-width:26;stroke-linecap:round;stroke-linejoin:round;stroke-miterlimit:13.3333;}
	.st13{fill:none;stroke:#E3097F;stroke-width:26;stroke-linecap:round;stroke-linejoin:round;stroke-miterlimit:13.3333;}
	.st14{fill:none;stroke:#E3097F;stroke-width:26;stroke-miterlimit:10;}
	.st15{fill:none;stroke:#E3097F;stroke-width:8;stroke-miterlimit:10;}
	.st16{fill:none;stroke:#FFFFFF;stroke-width:18;stroke-miterlimit:10;}
	.st17{fill:none;stroke:#E3097F;stroke-width:18;stroke-miterlimit:10;}
	.st18{fill:none;stroke:#E3097F;stroke-width:6;stroke-miterlimit:10;}
	.st19{fill-rule:evenodd;clip-rule:evenodd;fill:none;stroke:#FFFFFF;stroke-width:26;stroke-miterlimit:10;}
	.st20{fill-rule:evenodd;clip-rule:evenodd;fill:none;stroke:#E3097F;stroke-width:20;stroke-miterlimit:10;}
	.st21{fill:none;stroke:#FFFFFF;stroke-width:16;stroke-linecap:round;stroke-miterlimit:10;}
	.st22{fill:#FFFFFF;stroke:#FFFFFF;stroke-width:20;stroke-miterlimit:10;}
	.st23{fill:none;stroke:#FFFFFF;stroke-width:22;stroke-miterlimit:13.3333;}
	.st24{fill:none;stroke:#E3097F;stroke-width:14;stroke-miterlimit:13.3333;}
	.st25{clip-path:url(#SVGID_2_);}
	.st26{fill:none;stroke:#E3097F;stroke-width:12;stroke-miterlimit:13.3333;}
</style>
<g id="Layer_2">
</g>
<g>
	<path class="st4" d="M235.5,356.2h41.1v27.4h-41.1L235.5,356.2z"/>
	<path class="st4" d="M343.4,372h-37.4v-25h37.4V372z"/>
	<path class="st4" d="M168.7,347h37.4v25h-37.4V347z"/>
	<path class="st4" d="M235.5,287.7h41.1v27.4h-41.1L235.5,287.7z"/>
	<path class="st4" d="M343.4,309.6h-37.4v-25h37.4V309.6z"/>
	<path class="st4" d="M168.7,284.6h37.4v25h-37.4V284.6z"/>
	<path class="st0" d="M410.4,456.3H101.6c-18.9,0-34.2-15.3-34.3-34.3v-33.1c0-0.7,0.1-1.4,0.2-2.1
		c11.2-56.1,88.7-128.9,106.7-145.2v-19.1c0-5.8,4.7-10.5,10.5-10.5c0,0,0,0,0,0h47.5c5.8,0,10.5,4.7,10.5,10.5c0,0,0,0,0,0v13.2
		h26.5v-13.2c0-5.8,4.7-10.5,10.5-10.5c0,0,0,0,0,0h47.5c5.8,0,10.5,4.7,10.5,10.5c0,0,0,0,0,0v19.1c18,16.3,95.5,89.1,106.7,145.2
		c0.1,0.7,0.2,1.4,0.2,2.1V422C444.7,441,429.3,456.3,410.4,456.3z"/>
	<path class="st0" d="M466.4,241.3c-1.1,0-2.2-0.2-3.3-0.5l-92.1-26.3c-6.3-1.8-10-8.3-8.4-14.6l10.5-42
		c-37.7-13.1-77.2-20.4-117.1-21.6c-39.9,1.2-79.4,8.5-117.1,21.6l10.5,42c1.6,6.3-2.1,12.8-8.4,14.6l-92.1,26.3
		c-6.4,1.8-13.1-1.9-15-8.3c-0.1-0.4-0.2-0.7-0.3-1.1l-20-105c-0.9-4.9,1.2-9.9,5.5-12.6C23.9,111,135.6,42.2,256,42.2
		s232.1,68.7,236.8,71.7c4.3,2.6,6.4,7.6,5.5,12.6l-20,105C477.3,237.1,472.3,241.3,466.4,241.3L466.4,241.3z"/>
</g>
</svg>
