<?xml version="1.0" encoding="utf-8"?>
<!-- Generator: Adobe Illustrator 24.0.1, SVG Export Plug-In . SVG Version: 6.00 Build 0)  -->
<svg version="1.1" id="Layer_1" xmlns="http://www.w3.org/2000/svg" xmlns:xlink="http://www.w3.org/1999/xlink" x="0px" y="0px"
	 viewBox="0 0 512 512" style="enable-background:new 0 0 512 512;" xml:space="preserve">
<style type="text/css">
	.st0{fill:none;stroke:#FFFFFF;stroke-width:26;stroke-miterlimit:10;}
	.st1{fill-rule:evenodd;clip-rule:evenodd;fill:#E3097F;}
	.st2{stroke:#FFFFFF;stroke-width:26;stroke-miterlimit:10;}
	.st3{fill:#FFFFFF;}
	.st4{fill:#E3097F;}
	.st5{fill:none;stroke:#FFFFFF;stroke-width:6;stroke-miterlimit:10;}
	.st6{fill:none;stroke:#FFFFFF;stroke-width:12;stroke-miterlimit:10;}
	.st7{fill:none;stroke:#E3097F;stroke-width:12;stroke-miterlimit:10;}
	.st8{fill:none;stroke:#E3097F;stroke-width:22;stroke-miterlimit:10;}
	.st9{fill:none;stroke:#E3097F;stroke-width:11;stroke-miterlimit:13.3333;}
	.st10{fill:none;stroke:#E3097F;stroke-width:18;stroke-linecap:round;stroke-linejoin:round;stroke-miterlimit:13.3333;}
	.st11{fill:none;stroke:#353385;stroke-width:18;stroke-linecap:round;stroke-linejoin:round;stroke-miterlimit:13.3333;}
	.st12{fill:none;stroke:#FFFFFF;stroke-width:26;stroke-linecap:round;stroke-linejoin:round;stroke-miterlimit:13.3333;}
	.st13{fill:none;stroke:#E3097F;stroke-width:26;stroke-linecap:round;stroke-linejoin:round;stroke-miterlimit:13.3333;}
	.st14{fill:none;stroke:#E3097F;stroke-width:26;stroke-miterlimit:10;}
	.st15{fill:none;stroke:#E3097F;stroke-width:8;stroke-miterlimit:10;}
	.st16{fill:none;stroke:#FFFFFF;stroke-width:18;stroke-miterlimit:10;}
	.st17{fill:none;stroke:#E3097F;stroke-width:18;stroke-miterlimit:10;}
	.st18{fill:none;stroke:#E3097F;stroke-width:6;stroke-miterlimit:10;}
	.st19{fill-rule:evenodd;clip-rule:evenodd;fill:none;stroke:#FFFFFF;stroke-width:26;stroke-miterlimit:10;}
	.st20{fill-rule:evenodd;clip-rule:evenodd;fill:none;stroke:#E3097F;stroke-width:20;stroke-miterlimit:10;}
	.st21{fill:none;stroke:#FFFFFF;stroke-width:16;stroke-linecap:round;stroke-miterlimit:10;}
	.st22{fill:#FFFFFF;stroke:#FFFFFF;stroke-width:20;stroke-miterlimit:10;}
	.st23{fill:none;stroke:#FFFFFF;stroke-width:22;stroke-miterlimit:13.3333;}
	.st24{fill:none;stroke:#E3097F;stroke-width:14;stroke-miterlimit:13.3333;}
	.st25{clip-path:url(#SVGID_2_);}
	.st26{fill:none;stroke:#E3097F;stroke-width:12;stroke-miterlimit:13.3333;}
</style>
<g id="Layer_2">
</g>
<g>
	<path class="st3" d="M480.1,224.9c-14.5,0-27.2,9.8-30.8,23.8h-41.4c-1.8-34.8-15.5-67.9-38.9-93.7l22.9-22.9
		c22.6,16.3,54.1,11.3,70.5-11.3c16.3-22.6,11.3-54.1-11.3-70.5c-22.6-16.3-54.1-11.3-70.5,11.3c-12.8,17.7-12.8,41.5,0,59.2
		l-22.9,22.9c-25.8-23.3-58.9-37.1-93.7-38.9V63.4c17-4.4,27.2-21.8,22.8-38.8C282.4,7.6,265-2.7,248,1.8s-27.2,21.8-22.8,38.8
		c2.9,11.2,11.6,19.9,22.8,22.8v41.4c-34.8,1.8-67.9,15.5-93.7,38.9l-22.9-22.9c16.3-22.6,11.2-54-11.3-70.4S66,39.2,49.7,61.8
		s-11.2,54,11.3,70.4c17.6,12.7,41.4,12.7,59,0L143,155c-23.3,25.8-37.1,58.9-38.9,93.7H62.7c-4.4-17-21.8-27.2-38.8-22.8
		c-17,4.4-27.2,21.8-22.8,38.8c4.4,17,21.8,27.2,38.8,22.8c11.2-2.9,19.9-11.6,22.8-22.8h41.4c1.8,34.8,15.5,67.9,38.9,93.7
		l-22.9,22.9C97.5,365,66,370.1,49.7,392.7S38.4,446.8,61,463.1s54.1,11.2,70.4-11.3c12.8-17.6,12.7-41.5,0-59.1l22.9-22.9
		c25.8,23.3,58.9,37.1,93.7,38.9V450c-17,4.4-27.2,21.8-22.8,38.8c4.4,17,21.8,27.2,38.8,22.8c17-4.4,27.2-21.8,22.8-38.8
		c-2.9-11.2-11.6-19.9-22.8-22.8v-41.4c34.8-1.8,67.9-15.5,93.7-38.9l22.9,22.9c-16.3,22.6-11.3,54.1,11.3,70.5
		c22.6,16.3,54.1,11.3,70.5-11.3c16.3-22.6,11.3-54.1-11.3-70.5c-17.6-12.8-41.5-12.8-59.2,0L369,358.4
		c23.3-25.8,37.1-58.9,38.9-93.7h41.4c4.4,17,21.8,27.2,38.8,22.8c17-4.4,27.2-21.8,22.8-38.8C507.3,234.7,494.7,224.9,480.1,224.9
		L480.1,224.9z M397.1,66.9c13.5-13.5,35.3-13.5,48.7,0c13.5,13.5,13.5,35.3,0,48.7c-13.5,13.5-35.3,13.5-48.7,0
		c-13.5-13.4-13.5-35.1-0.1-48.6C397,67,397.1,66.9,397.1,66.9z M240.2,32.6c0-8.8,7.1-15.8,15.8-15.8s15.8,7.1,15.8,15.8
		s-7.1,15.8-15.8,15.8c0,0,0,0,0,0C247.3,48.4,240.2,41.3,240.2,32.6L240.2,32.6z M66.2,115.6c-13.5-13.5-13.5-35.3,0-48.7
		s35.3-13.5,48.7,0s13.5,35.3,0,48.7c0,0,0,0,0,0C101.4,129.1,79.6,129.1,66.2,115.6z M31.9,272.6c-8.8,0-15.8-7.1-15.8-15.8
		c0-8.8,7.1-15.8,15.8-15.8c8.8,0,15.8,7.1,15.8,15.8c0,0,0,0,0,0v0C47.7,265.5,40.6,272.6,31.9,272.6L31.9,272.6z M114.9,446.6
		c-13.5,13.5-35.3,13.5-48.7,0c-13.5-13.5-13.5-35.3,0-48.7s35.3-13.5,48.7,0C128.3,411.3,128.3,433.1,114.9,446.6z M271.8,480.9
		c0,8.8-7.1,15.8-15.8,15.8c-8.8,0-15.8-7.1-15.8-15.8c0-8.8,7.1-15.8,15.8-15.8c0,0,0,0,0,0C264.7,465,271.8,472.1,271.8,480.9
		L271.8,480.9z M421.5,387.8c19,0,34.5,15.4,34.5,34.4c0,9.1-3.6,17.9-10.1,24.4c-13.4,13.5-35.3,13.5-48.7,0
		c-13.5-13.4-13.5-35.3,0-48.7C403.5,391.4,412.3,387.8,421.5,387.8L421.5,387.8z M256,392.9c-75.1,0-136.1-61.1-136.1-136.1
		S180.9,120.6,256,120.6s136.1,61.1,136.1,136.1S331.1,392.9,256,392.9z M480.1,272.6c-8.7,0-15.8-7.1-15.8-15.8v0
		c0-8.8,7.1-15.8,15.9-15.8c8.8,0,15.8,7.1,15.8,15.9C496,265.5,488.9,272.6,480.1,272.6L480.1,272.6z"/>
	<g>
		<path class="st4" d="M324.4,274.6c-15.3-5-30-11.9-43.6-20.4c-3.8-2.3-8.9-1.2-11.2,2.5c-0.1,0.1-0.1,0.2-0.1,0.2l-14.9,25.2
			L239.7,257c-2.3-3.8-7.2-5.1-11.1-2.9c-0.1,0-0.2,0.1-0.2,0.1c-13.6,8.5-28.3,15.4-43.6,20.4c-1.8,0.6-3.3,1.7-4.3,3.3
			c-10.8,16.4-14,36.6-8.7,55.4c0.6,2.2,2.1,4,4.2,5c25.4,12.6,52.1,18.9,78.7,18.9s53.3-6.3,78.7-18.9c2-1,3.6-2.8,4.2-5
			c5.3-18.8,2.1-39-8.7-55.4C327.8,276.4,326.2,275.2,324.4,274.6z M322.6,325.7c-44,20.7-92,20.7-136,0
			c-2.6-12.6-0.5-25.7,6.1-36.8c12.9-4.4,25.3-10.1,37.1-16.9l17.8,30.2c2.3,3.8,7.2,5.1,11.1,2.9c1.2-0.7,2.3-1.7,3-2.9l17.8-30.2
			c11.8,6.8,24.2,12.4,37.1,16.9C323.1,300,325.2,313.1,322.6,325.7L322.6,325.7z M253.3,258.2c0.2,0,0.4,0,0.7,0
			c17.3,0,38.2-15.7,41.2-60c0-0.3,0-0.5,0-0.8c-0.6-22.9-19.3-41.2-42.1-41.2h0c-22.8,0-41.5,18.2-42.1,41.2v0.4
			c0.4,17,4.8,31.8,12.7,42.9C231.5,251.6,242.3,257.9,253.3,258.2L253.3,258.2z M254.6,172.2c14.4,0,26.3,11.2,26.9,25.3
			c-2.2,31.2-14.8,44.9-26.3,44.7c-13.1-0.3-26.9-17-27.6-44.5C228.2,183.5,240.1,172.2,254.6,172.2L254.6,172.2z"/>
	</g>
</g>
</svg>
