<?xml version="1.0" encoding="utf-8"?>
<!-- Generator: Adobe Illustrator 24.0.1, SVG Export Plug-In . SVG Version: 6.00 Build 0)  -->
<svg version="1.1" id="Layer_1" xmlns="http://www.w3.org/2000/svg" xmlns:xlink="http://www.w3.org/1999/xlink" x="0px" y="0px"
	 viewBox="0 0 512 512" style="enable-background:new 0 0 512 512;" xml:space="preserve">
<style type="text/css">
	.st0{fill:none;stroke:#FFFFFF;stroke-width:26;stroke-miterlimit:10;}
	.st1{fill-rule:evenodd;clip-rule:evenodd;fill:#E3097F;}
	.st2{stroke:#FFFFFF;stroke-width:26;stroke-miterlimit:10;}
	.st3{fill:#FFFFFF;}
	.st4{fill:#E3097F;}
	.st5{fill:none;stroke:#FFFFFF;stroke-width:6;stroke-miterlimit:10;}
	.st6{fill:none;stroke:#FFFFFF;stroke-width:12;stroke-miterlimit:10;}
	.st7{fill:none;stroke:#E3097F;stroke-width:12;stroke-miterlimit:10;}
	.st8{fill:none;stroke:#E3097F;stroke-width:22;stroke-miterlimit:10;}
	.st9{fill:none;stroke:#E3097F;stroke-width:11;stroke-miterlimit:13.3333;}
	.st10{fill:none;stroke:#E3097F;stroke-width:18;stroke-linecap:round;stroke-linejoin:round;stroke-miterlimit:13.3333;}
	.st11{fill:none;stroke:#353385;stroke-width:18;stroke-linecap:round;stroke-linejoin:round;stroke-miterlimit:13.3333;}
	.st12{fill:none;stroke:#FFFFFF;stroke-width:26;stroke-linecap:round;stroke-linejoin:round;stroke-miterlimit:13.3333;}
	.st13{fill:none;stroke:#E3097F;stroke-width:26;stroke-linecap:round;stroke-linejoin:round;stroke-miterlimit:13.3333;}
	.st14{fill:none;stroke:#E3097F;stroke-width:26;stroke-miterlimit:10;}
	.st15{fill:none;stroke:#E3097F;stroke-width:8;stroke-miterlimit:10;}
	.st16{fill:none;stroke:#FFFFFF;stroke-width:18;stroke-miterlimit:10;}
	.st17{fill:none;stroke:#E3097F;stroke-width:18;stroke-miterlimit:10;}
	.st18{fill:none;stroke:#E3097F;stroke-width:6;stroke-miterlimit:10;}
	.st19{fill-rule:evenodd;clip-rule:evenodd;fill:none;stroke:#FFFFFF;stroke-width:26;stroke-miterlimit:10;}
	.st20{fill-rule:evenodd;clip-rule:evenodd;fill:none;stroke:#E3097F;stroke-width:20;stroke-miterlimit:10;}
	.st21{fill:none;stroke:#FFFFFF;stroke-width:16;stroke-linecap:round;stroke-miterlimit:10;}
	.st22{fill:#FFFFFF;stroke:#FFFFFF;stroke-width:20;stroke-miterlimit:10;}
	.st23{fill:none;stroke:#FFFFFF;stroke-width:22;stroke-miterlimit:13.3333;}
	.st24{fill:none;stroke:#E3097F;stroke-width:14;stroke-miterlimit:13.3333;}
	.st25{clip-path:url(#SVGID_2_);}
	.st26{fill:none;stroke:#E3097F;stroke-width:12;stroke-miterlimit:13.3333;}
</style>
<g>
	<path class="st7" d="M250.8,80l-47.9-14.6L229,39.6c8.5-8.4,22.7-8.4,31.1,0.2c8.5,8.6,8.5,22.6-0.2,31.1L250.8,80z"/>
	<path class="st7" d="M123.3,13c9.9-9.9,17.3,0.8,16.6,0c4.6,4.6,4.6,12,0,16.6l-3.2,3.2l-25.5-7.6L123.3,13z"/>
	<path class="st7" d="M477.2,368.1c4.6-4.6,12-4.6,16.6,0c9.9,9.9,9.9,6.7,0,16.6l-12.2,12.2l-7.6-25.5L477.2,368.1z"/>
	<path class="st7" d="M436.8,230.4c8.6-8.6,22.5-8.6,31.1,0c8.5,8.5,8.5,22.6,0,31.1l-26,26l-14.3-48L436.8,230.4z"/>
	<path class="st0" d="M343.1,327.8l114.5,156.4c3,4.1,9.1,4.6,12.7,1l21.4-21.4c2.2-2.2,3-5.4,2.1-8.3l-24.7-83l-20.3-68.3
		L410.8,177c8.3-8,16.3-15.9,23.9-23.4c21.7-21.7,39.4-44.7,49.7-64.7c17.5-33.8,10.2-51.9,0.9-61.1c-9.2-9.2-27.3-16.5-61.1,1
		c-20,10.3-43,28-64.7,49.7C352,86,344.1,94,336.1,102.3L208.9,64.4l-68.3-20.3l-83-24.7c-3-0.9-6.2-0.1-8.3,2.1L28,42.8
		c-3.6,3.6-3.1,9.7,1,12.7l209.4,153.3c-47.2,53.2-92.7,106.5-124.8,144.6l-61.6-23.7c-3.1-1.2-6.6-0.4-8.9,1.9L17.7,357
		c-3.3,3.3-3.3,8.6,0,11.9l126.6,126.6c3.2,3.2,8.6,3.2,11.9,0l25.3-25.3c2.3-2.3,3.1-5.9,1.9-9l-23.7-61.6
		c38.1-32.1,91.4-77.6,144.6-124.8l16.6,22.7L343.1,327.8z"/>
</g>
<g id="Layer_2">
</g>
<g>
	<g id="g1287_3_" transform="matrix(1.3333333,0,0,-1.3333333,0,682.66667)">
		<g id="g1289_3_">
			<g>
				<g>
					<defs>
						<polyline id="SVGID_1_" points="114.6,574.8 -498.6,574.8 -498.6,-38.3 114.6,-38.3 						"/>
					</defs>
					<clipPath id="SVGID_2_">
						<use xlink:href="#SVGID_1_"  style="overflow:visible;"/>
					</clipPath>
				</g>
			</g>
		</g>
	</g>
</g>
</svg>
