<?xml version="1.0" encoding="utf-8"?>
<!-- Generator: Adobe Illustrator 24.0.1, SVG Export Plug-In . SVG Version: 6.00 Build 0)  -->
<svg version="1.1" id="Layer_1" xmlns="http://www.w3.org/2000/svg" xmlns:xlink="http://www.w3.org/1999/xlink" x="0px" y="0px"
	 viewBox="0 0 512 512" style="enable-background:new 0 0 512 512;" xml:space="preserve">
<style type="text/css">
	.st0{fill:none;stroke:#FFFFFF;stroke-width:26;stroke-miterlimit:10;}
	.st1{fill-rule:evenodd;clip-rule:evenodd;fill:#E3097F;}
	.st2{stroke:#FFFFFF;stroke-width:26;stroke-miterlimit:10;}
	.st3{fill:#FFFFFF;}
	.st4{fill:#E3097F;}
	.st5{fill:none;stroke:#FFFFFF;stroke-width:6;stroke-miterlimit:10;}
	.st6{fill:none;stroke:#FFFFFF;stroke-width:12;stroke-miterlimit:10;}
	.st7{fill:none;stroke:#E3097F;stroke-width:12;stroke-miterlimit:10;}
	.st8{fill:none;stroke:#E3097F;stroke-width:22;stroke-miterlimit:10;}
	.st9{fill:none;stroke:#E3097F;stroke-width:11;stroke-miterlimit:13.3333;}
	.st10{fill:none;stroke:#E3097F;stroke-width:18;stroke-linecap:round;stroke-linejoin:round;stroke-miterlimit:13.3333;}
	.st11{fill:none;stroke:#353385;stroke-width:18;stroke-linecap:round;stroke-linejoin:round;stroke-miterlimit:13.3333;}
	.st12{fill:none;stroke:#FFFFFF;stroke-width:26;stroke-linecap:round;stroke-linejoin:round;stroke-miterlimit:13.3333;}
	.st13{fill:none;stroke:#E3097F;stroke-width:26;stroke-linecap:round;stroke-linejoin:round;stroke-miterlimit:13.3333;}
	.st14{fill:none;stroke:#E3097F;stroke-width:26;stroke-miterlimit:10;}
	.st15{fill:none;stroke:#E3097F;stroke-width:8;stroke-miterlimit:10;}
	.st16{fill:none;stroke:#FFFFFF;stroke-width:18;stroke-miterlimit:10;}
	.st17{fill:none;stroke:#E3097F;stroke-width:18;stroke-miterlimit:10;}
	.st18{fill:none;stroke:#E3097F;stroke-width:6;stroke-miterlimit:10;}
	.st19{fill-rule:evenodd;clip-rule:evenodd;fill:none;stroke:#FFFFFF;stroke-width:26;stroke-miterlimit:10;}
	.st20{fill-rule:evenodd;clip-rule:evenodd;fill:none;stroke:#E3097F;stroke-width:20;stroke-miterlimit:10;}
	.st21{fill:none;stroke:#FFFFFF;stroke-width:16;stroke-linecap:round;stroke-miterlimit:10;}
	.st22{fill:#FFFFFF;stroke:#FFFFFF;stroke-width:20;stroke-miterlimit:10;}
	.st23{fill:none;stroke:#FFFFFF;stroke-width:22;stroke-miterlimit:13.3333;}
	.st24{fill:none;stroke:#E3097F;stroke-width:14;stroke-miterlimit:13.3333;}
	.st25{clip-path:url(#SVGID_2_);}
	.st26{fill:none;stroke:#E3097F;stroke-width:12;stroke-miterlimit:13.3333;}
</style>
<g id="Layer_2">
</g>
<g>
	<g>
		<path class="st0" d="M400,204.8c0-46.9-36.3-85.5-82.3-89.2v-96c0-3.9-3.2-7.1-7.1-7.1H187.1c-3.9,0-7.1,3.2-7.1,7.1v96
			c-46,3.7-82.3,42.2-82.3,89.2v0l0,205.8c0,24.2,17.9,44.3,41.1,47.8v34.5c0,3.9,3.2,7.1,7.1,7.1h205.8c3.9,0,7.1-3.2,7.1-7.1
			v-34.5c23.2-3.5,41.1-23.5,41.1-47.7c0,0,0,0,0,0c0,0,0,0,0,0L400,204.8z M235.8,88l-19.8,0V54.1h67.7V88l-19.8,0"/>
	</g>
	<g id="_181677416_3_">
		<path class="st1" d="M247,392c-36.3,0-58.7-32.3-66.9-62.3c-9-30.2-5.8-60.2,7.4-74.8c1.6-1,4.2-2.1,5.8-1c1.6,1,2.4,3.1,2.4,5.2
			s1.6,13.5,9,16.6c1.6-34.3,13.2-57.2,23.1-70.7c11.6-15.5,23.1-21.8,23.1-22.9c2.4,0,4.2,0,5.8,1c0.8,2.1,1.6,4.2,1.6,7.3
			c-0.8,1-7.4,33.3,10.8,58.2c14.9-7.3,19.8-28.1,19.8-28.1c0.8-2.1,2.4-4.2,4.2-4.2c2.4,0,4.2,1,5,3.1c0.8,1,9,21.8,1.6,61.3
			c5,0,10.8-5.2,12.4-7.3c1.6-2.1,3.2-2.1,5-2.1c1.6,1,3.2,3.1,3.2,5.2c0.8,1,4.2,19.7,0.8,42.6c-2.4,20.8-11.6,49.9-40.5,64.4
			C269.3,389.9,257.8,392,247,392z M189.2,272.5c-5.8,13.5-5.8,32.3,0,52c7.4,27,27.3,55.1,57.8,55.1c9.9,0,19.8-2.1,29.7-7.3
			c19.8-10.4,31.4-29.1,35.5-55.1c0.8-11.5,0.8-20.8,0-28.1c-3.2,2.1-7.4,4.2-12.4,4.2c-2.4,0-5.8-1-8.2-2.1
			c-1.6-2.1-3.2-5.2-2.4-7.3c4.2-19.7,4.2-34.3,3.2-43.6c-4.2,8.4-12.4,17.6-23.1,21.8c-1.6,0-4.2,0-5-2.1
			c-16.5-19.7-18.2-44.7-17.4-60.2c-3.2,3.1-7.4,8.4-12.4,13.5c-13.2,18.7-19.8,42.6-19.8,69.6c0,4.2-2.4,6.3-5,6.3
			C198.3,289.2,191.7,281.9,189.2,272.5z"/>
	</g>
</g>
</svg>
