<?xml version="1.0" encoding="utf-8"?>
<!-- Generator: Adobe Illustrator 24.0.1, SVG Export Plug-In . SVG Version: 6.00 Build 0)  -->
<svg version="1.1" id="Layer_1" xmlns="http://www.w3.org/2000/svg" xmlns:xlink="http://www.w3.org/1999/xlink" x="0px" y="0px"
	 viewBox="0 0 512 512" style="enable-background:new 0 0 512 512;" xml:space="preserve">
<style type="text/css">
	.st0{fill:none;stroke:#FFFFFF;stroke-width:26;stroke-miterlimit:10;}
	.st1{fill-rule:evenodd;clip-rule:evenodd;fill:#E3097F;}
	.st2{stroke:#FFFFFF;stroke-width:26;stroke-miterlimit:10;}
	.st3{fill:#FFFFFF;}
	.st4{fill:#E3097F;}
	.st5{fill:none;stroke:#FFFFFF;stroke-width:6;stroke-miterlimit:10;}
	.st6{fill:none;stroke:#FFFFFF;stroke-width:12;stroke-miterlimit:10;}
	.st7{fill:none;stroke:#E3097F;stroke-width:12;stroke-miterlimit:10;}
	.st8{fill:none;stroke:#E3097F;stroke-width:22;stroke-miterlimit:10;}
	.st9{fill:none;stroke:#E3097F;stroke-width:11;stroke-miterlimit:13.3333;}
	.st10{fill:none;stroke:#E3097F;stroke-width:18;stroke-linecap:round;stroke-linejoin:round;stroke-miterlimit:13.3333;}
	.st11{fill:none;stroke:#353385;stroke-width:18;stroke-linecap:round;stroke-linejoin:round;stroke-miterlimit:13.3333;}
	.st12{fill:none;stroke:#FFFFFF;stroke-width:26;stroke-linecap:round;stroke-linejoin:round;stroke-miterlimit:13.3333;}
	.st13{fill:none;stroke:#E3097F;stroke-width:26;stroke-linecap:round;stroke-linejoin:round;stroke-miterlimit:13.3333;}
	.st14{fill:none;stroke:#E3097F;stroke-width:26;stroke-miterlimit:10;}
	.st15{fill:none;stroke:#E3097F;stroke-width:8;stroke-miterlimit:10;}
	.st16{fill:none;stroke:#FFFFFF;stroke-width:18;stroke-miterlimit:10;}
	.st17{fill:none;stroke:#E3097F;stroke-width:18;stroke-miterlimit:10;}
	.st18{fill:none;stroke:#E3097F;stroke-width:6;stroke-miterlimit:10;}
	.st19{fill-rule:evenodd;clip-rule:evenodd;fill:none;stroke:#FFFFFF;stroke-width:26;stroke-miterlimit:10;}
	.st20{fill-rule:evenodd;clip-rule:evenodd;fill:none;stroke:#E3097F;stroke-width:20;stroke-miterlimit:10;}
	.st21{fill:none;stroke:#FFFFFF;stroke-width:16;stroke-linecap:round;stroke-miterlimit:10;}
	.st22{fill:#FFFFFF;stroke:#FFFFFF;stroke-width:20;stroke-miterlimit:10;}
	.st23{fill:none;stroke:#FFFFFF;stroke-width:22;stroke-miterlimit:13.3333;}
	.st24{fill:none;stroke:#E3097F;stroke-width:14;stroke-miterlimit:13.3333;}
	.st25{clip-path:url(#SVGID_2_);}
	.st26{fill:none;stroke:#E3097F;stroke-width:12;stroke-miterlimit:13.3333;}
</style>
<g id="Layer_2">
</g>
<g>
	<path class="st0" d="M467.8,469.7h-29.2V31c0-5.4-4.4-9.7-9.7-9.7H97.3c-5.4,0-9.7,4.4-9.7,9.7v438.7H58.3c-5.4,0-9.7,4.4-9.7,9.7
		c0,5.4,4.4,9.7,9.7,9.7h409.4c5.4,0,9.7-4.4,9.7-9.7S473.1,469.7,467.8,469.7z M298.7,486.7h-71.2c-3.6,0-6.5-3.7-6.5-8.2v-90.3
		c0-4.5,2.9-8.2,6.5-8.2h71.2c3.6,0,6.5,3.7,6.5,8.2v90.3C305.1,483,302.2,486.7,298.7,486.7z"/>
	<path class="st7" d="M148,150h63.1c5.8,0,10.5-4.7,10.5-10.5V76.3c0-5.8-4.7-10.5-10.5-10.5H148c-5.8,0-10.5,4.7-10.5,10.5v63.1
		C137.4,145.3,142.1,150,148,150z"/>
	<path class="st7" d="M318,150h63.1c5.8,0,10.5-4.7,10.5-10.5V76.3c0-5.8-4.7-10.5-10.5-10.5H318c-5.8,0-10.5,4.7-10.5,10.5v63.1
		C307.4,145.3,312.1,150,318,150z"/>
	<path class="st7" d="M148,255.2h63.1c5.8,0,10.5-4.7,10.5-10.5v-63.1c0-5.8-4.7-10.5-10.5-10.5H148c-5.8,0-10.5,4.7-10.5,10.5v63.1
		C137.4,250.5,142.1,255.2,148,255.2z"/>
	<path class="st7" d="M318,255.2h63.1c5.8,0,10.5-4.7,10.5-10.5v-63.1c0-5.8-4.7-10.5-10.5-10.5H318c-5.8,0-10.5,4.7-10.5,10.5v63.1
		C307.4,250.5,312.1,255.2,318,255.2z"/>
	<path class="st7" d="M148,360.4h63.1c5.8,0,10.5-4.7,10.5-10.5v-63.1c0-5.8-4.7-10.5-10.5-10.5H148c-5.8,0-10.5,4.7-10.5,10.5v63.1
		C137.4,355.7,142.1,360.4,148,360.4z"/>
	<path class="st7" d="M318,360.4h63.1c5.8,0,10.5-4.7,10.5-10.5v-63.1c0-5.8-4.7-10.5-10.5-10.5H318c-5.8,0-10.5,4.7-10.5,10.5v63.1
		C307.4,355.7,312.1,360.4,318,360.4z"/>
</g>
</svg>
