<?xml version="1.0" encoding="utf-8"?>
<!-- Generator: Adobe Illustrator 24.0.1, SVG Export Plug-In . SVG Version: 6.00 Build 0)  -->
<svg version="1.1" id="Layer_1" xmlns="http://www.w3.org/2000/svg" xmlns:xlink="http://www.w3.org/1999/xlink" x="0px" y="0px"
	 viewBox="0 0 512 512" style="enable-background:new 0 0 512 512;" xml:space="preserve">
<style type="text/css">
	.st0{fill:none;stroke:#FFFFFF;stroke-width:26;stroke-miterlimit:10;}
	.st1{fill-rule:evenodd;clip-rule:evenodd;fill:#E3097F;}
	.st2{stroke:#FFFFFF;stroke-width:26;stroke-miterlimit:10;}
	.st3{fill:#FFFFFF;}
	.st4{fill:#E3097F;}
	.st5{fill:none;stroke:#FFFFFF;stroke-width:6;stroke-miterlimit:10;}
	.st6{fill:none;stroke:#FFFFFF;stroke-width:12;stroke-miterlimit:10;}
	.st7{fill:none;stroke:#E3097F;stroke-width:12;stroke-miterlimit:10;}
	.st8{fill:none;stroke:#E3097F;stroke-width:22;stroke-miterlimit:10;}
	.st9{fill:none;stroke:#E3097F;stroke-width:11;stroke-miterlimit:13.3333;}
	.st10{fill:none;stroke:#E3097F;stroke-width:18;stroke-linecap:round;stroke-linejoin:round;stroke-miterlimit:13.3333;}
	.st11{fill:none;stroke:#353385;stroke-width:18;stroke-linecap:round;stroke-linejoin:round;stroke-miterlimit:13.3333;}
	.st12{fill:none;stroke:#FFFFFF;stroke-width:26;stroke-linecap:round;stroke-linejoin:round;stroke-miterlimit:13.3333;}
	.st13{fill:none;stroke:#E3097F;stroke-width:26;stroke-linecap:round;stroke-linejoin:round;stroke-miterlimit:13.3333;}
	.st14{fill:none;stroke:#E3097F;stroke-width:26;stroke-miterlimit:10;}
	.st15{fill:none;stroke:#E3097F;stroke-width:8;stroke-miterlimit:10;}
	.st16{fill:none;stroke:#FFFFFF;stroke-width:18;stroke-miterlimit:10;}
	.st17{fill:none;stroke:#E3097F;stroke-width:18;stroke-miterlimit:10;}
	.st18{fill:none;stroke:#E3097F;stroke-width:6;stroke-miterlimit:10;}
	.st19{fill-rule:evenodd;clip-rule:evenodd;fill:none;stroke:#FFFFFF;stroke-width:26;stroke-miterlimit:10;}
	.st20{fill-rule:evenodd;clip-rule:evenodd;fill:none;stroke:#E3097F;stroke-width:20;stroke-miterlimit:10;}
	.st21{fill:none;stroke:#FFFFFF;stroke-width:16;stroke-linecap:round;stroke-miterlimit:10;}
	.st22{fill:#FFFFFF;stroke:#FFFFFF;stroke-width:20;stroke-miterlimit:10;}
	.st23{fill:none;stroke:#FFFFFF;stroke-width:22;stroke-miterlimit:13.3333;}
	.st24{fill:none;stroke:#E3097F;stroke-width:14;stroke-miterlimit:13.3333;}
	.st25{clip-path:url(#SVGID_2_);}
	.st26{fill:none;stroke:#E3097F;stroke-width:12;stroke-miterlimit:13.3333;}
</style>
<g id="Layer_2">
</g>
<g>
	<path class="st3" d="M390.8,274.1h-59.3v16.9h59.3c56.1,0,101.6,45.5,101.6,101.6s-45.5,101.6-101.6,101.6s-101.6-45.5-101.6-101.6
		v-59.3h-16.9v59.3c0,65.5,53.1,118.5,118.5,118.5s118.5-53.1,118.5-118.5S456.3,274.1,390.8,274.1z"/>
	<path class="st3" d="M221.5,392.6c0,56.1-45.5,101.6-101.6,101.6S18.3,448.7,18.3,392.6s45.5-101.6,101.6-101.6h59.3v-16.9h-59.3
		c-65.5,0-118.5,53.1-118.5,118.5s53.1,118.5,118.5,118.5s118.5-53.1,118.5-118.5v-59.3h-16.9V392.6z"/>
	<path class="st3" d="M119.9,240.3h50.8v-16.9h-50.8c-56.1,0-101.6-45.5-101.6-101.6S63.8,20.2,119.9,20.2s101.6,45.5,101.6,101.6
		v8.5h16.9v-8.5c0-65.5-53.1-118.5-118.5-118.5S1.4,56.3,1.4,121.7S54.5,240.3,119.9,240.3z"/>
	<path class="st3" d="M289.2,121.7c0-56.1,45.5-101.6,101.6-101.6s101.6,45.5,101.6,101.6s-45.5,101.6-101.6,101.6H340v16.9h50.8
		c65.5,0,118.5-53.1,118.5-118.5S456.3,3.2,390.8,3.2S272.3,56.3,272.3,121.7v8.5h16.9V121.7z"/>
	<path class="st3" d="M52.2,435h135.4v16.9H52.2V435z"/>
	<path class="st3" d="M153.8,55.1l16.8-2.1l16.9,135.4l-16.8,2.1L153.8,55.1z"/>
	<path class="st3" d="M69.2,188.4L86.1,53l16.8,2.1L86,190.5L69.2,188.4z"/>
	<path class="st3" d="M119.9,155.6h16.9v33.9h-16.9V155.6z"/>
	<path class="st3" d="M119.9,104.8h16.9v33.9h-16.9V104.8z"/>
	<path class="st3" d="M119.9,54h16.9v33.9h-16.9V54z"/>
	<path class="st3" d="M382.4,37.1v8.5h-16.9c-14,0-25.4,11.4-25.4,25.4v50.8c0,9.9,5.8,18.9,14.8,23.1l-14.5,50.8l16.3,4.7l5.5-19.3
		h57.4l5.5,19.3l16.3-4.7l-14.5-50.8c9-4.1,14.8-13.2,14.8-23.1V70.9c0-14-11.4-25.4-25.4-25.4h-16.9v-8.5H382.4z M416.2,130.2
		h-50.8c-4.7,0-8.5-3.8-8.5-8.5v-8.5h67.7v8.5C424.7,126.4,420.9,130.2,416.2,130.2z M367,164.1l4.8-16.9h38l4.8,16.9H367z
		 M424.7,70.9v25.4H357V70.9c0-4.7,3.8-8.5,8.5-8.5h50.8C420.9,62.5,424.7,66.3,424.7,70.9z"/>
	<path class="st3" d="M207,333.4h-41.5l-14.6,29.2c-1.4,2.9-4.4,4.7-7.6,4.7h-4.9l8.5-50.8h-40.6l-25.4,50.8H69.1
		c-14,0-25.4,11.4-25.4,25.4c0,14,11.4,25.4,25.4,25.4H166c11.7,0,21.8-7.9,24.6-19.2L207,333.4z M116.7,333.4h10.2l-5.6,33.9H99.8
		L116.7,333.4z M174.2,394.7c-0.9,3.8-4.3,6.4-8.2,6.4H69.1c-4.7,0-8.5-3.8-8.5-8.5s3.8-8.5,8.5-8.5h74.2c9.6,0,18.4-5.4,22.7-14
		l9.9-19.8h9.3L174.2,394.7z"/>
	<path class="st3" d="M382.4,308v16.9h-50.8v16.9h8.5v31.1l-16.9,4.8v6.4c0,15.3,4.3,30.3,12.5,43.3c-0.5,0.5-1,1-1.5,1.5
		c-4.2,4.2-6.2,6-10.9,6v16.9c12,0,18.3-6.3,22.9-10.9c4.2-4.2,6.2-6,10.9-6c4.8,0,6.8,1.8,10.9,6c4.6,4.6,10.9,10.9,22.9,10.9
		c12,0,18.3-6.3,22.9-10.9c4.2-4.2,6.2-6,10.9-6c4.8,0,6.8,1.8,10.9,6c4.6,4.6,10.9,10.9,22.9,10.9V435c-4.8,0-6.8-1.8-10.9-6
		c-0.5-0.5-1-1-1.5-1.5c8.1-13,12.5-28,12.5-43.3v-6.4l-16.9-4.8v-31.1h8.5v-16.9h-50.8V308H382.4z M357,418c-2.3,0-4.6,0.3-6.8,0.8
		c-5.4-8.5-8.8-18.3-9.8-28.3l42-12v52.9c-0.8-0.7-1.6-1.5-2.5-2.4C375.3,424.4,368.9,418,357,418L357,418z M424.7,418
		c-12,0-18.3,6.3-22.9,10.9c-0.9,0.9-1.7,1.7-2.5,2.4v-52.9l42,12c-1,10.1-4.4,19.8-9.8,28.3C429.3,418.3,427,418,424.7,418
		L424.7,418z M424.7,368.1l-33.9-9.7l-33.9,9.7v-26.3h67.7V368.1z"/>
	<path class="st18" d="M230,189.5v18.6l-45.4,19.5l11.6,23.2v48.8h-8.5v16.9h135.4v-16.9h-8.5v-48.8l11.6-23.2l-45.4-19.5v-18.6
		c0-10.8-6.8-20.3-16.9-23.9v-18.4h-16.9v18.4C236.8,169.1,230,178.7,230,189.5z M213.1,257.2H230v42.3h-16.9V257.2z M263.8,257.2
		v42.3h-16.9v-42.3H263.8z M280.8,299.5v-42.3h16.9v42.3H280.8z M300.9,240.3h-91.1l-2.1-4.2l47.7-20.4L303,236L300.9,240.3z
		 M255.4,197.2l-8.5,3.6v-11.3c0-4.7,3.8-8.5,8.5-8.5c4.7,0,8.5,3.8,8.5,8.5v11.3L255.4,197.2z"/>
</g>
</svg>
