<?xml version="1.0" encoding="utf-8"?>
<!-- Generator: Adobe Illustrator 24.0.1, SVG Export Plug-In . SVG Version: 6.00 Build 0)  -->
<svg version="1.1" id="Layer_1" xmlns="http://www.w3.org/2000/svg" xmlns:xlink="http://www.w3.org/1999/xlink" x="0px" y="0px"
	 viewBox="0 0 512 512" style="enable-background:new 0 0 512 512;" xml:space="preserve">
<style type="text/css">
	.st0{fill:none;stroke:#FFFFFF;stroke-width:26;stroke-miterlimit:10;}
	.st1{fill-rule:evenodd;clip-rule:evenodd;fill:#E3097F;}
	.st2{stroke:#FFFFFF;stroke-width:26;stroke-miterlimit:10;}
	.st3{fill:#FFFFFF;}
	.st4{fill:#E3097F;}
	.st5{fill:none;stroke:#FFFFFF;stroke-width:6;stroke-miterlimit:10;}
	.st6{fill:none;stroke:#FFFFFF;stroke-width:12;stroke-miterlimit:10;}
	.st7{fill:none;stroke:#E3097F;stroke-width:12;stroke-miterlimit:10;}
	.st8{fill:none;stroke:#E3097F;stroke-width:22;stroke-miterlimit:10;}
	.st9{fill:none;stroke:#E3097F;stroke-width:11;stroke-miterlimit:13.3333;}
	.st10{fill:none;stroke:#E3097F;stroke-width:18;stroke-linecap:round;stroke-linejoin:round;stroke-miterlimit:13.3333;}
	.st11{fill:none;stroke:#353385;stroke-width:18;stroke-linecap:round;stroke-linejoin:round;stroke-miterlimit:13.3333;}
	.st12{fill:none;stroke:#FFFFFF;stroke-width:26;stroke-linecap:round;stroke-linejoin:round;stroke-miterlimit:13.3333;}
	.st13{fill:none;stroke:#E3097F;stroke-width:26;stroke-linecap:round;stroke-linejoin:round;stroke-miterlimit:13.3333;}
	.st14{fill:none;stroke:#E3097F;stroke-width:26;stroke-miterlimit:10;}
	.st15{fill:none;stroke:#E3097F;stroke-width:8;stroke-miterlimit:10;}
	.st16{fill:none;stroke:#FFFFFF;stroke-width:18;stroke-miterlimit:10;}
	.st17{fill:none;stroke:#E3097F;stroke-width:18;stroke-miterlimit:10;}
	.st18{fill:none;stroke:#E3097F;stroke-width:6;stroke-miterlimit:10;}
	.st19{fill-rule:evenodd;clip-rule:evenodd;fill:none;stroke:#FFFFFF;stroke-width:26;stroke-miterlimit:10;}
	.st20{fill-rule:evenodd;clip-rule:evenodd;fill:none;stroke:#E3097F;stroke-width:20;stroke-miterlimit:10;}
	.st21{fill:none;stroke:#FFFFFF;stroke-width:16;stroke-linecap:round;stroke-miterlimit:10;}
	.st22{fill:#FFFFFF;stroke:#FFFFFF;stroke-width:20;stroke-miterlimit:10;}
	.st23{fill:none;stroke:#FFFFFF;stroke-width:22;stroke-miterlimit:13.3333;}
	.st24{fill:none;stroke:#E3097F;stroke-width:14;stroke-miterlimit:13.3333;}
	.st25{clip-path:url(#SVGID_2_);}
	.st26{fill:none;stroke:#E3097F;stroke-width:12;stroke-miterlimit:13.3333;}
</style>
<g>
	<path class="st0" d="M328.3,334c0-3.7-3-6.7-6.7-6.7h-37.3v-21.2c69.6-11.7,122.8-72.2,122.8-145.1C407.1,79.9,341.1,14,260,14
		S112.9,80,112.9,161.1c0,72.9,53.2,133.4,122.8,145.1v21.2h-37.3c-3.7,0-6.7,3-6.7,6.7H328.3z M248.8,307.8
		c3.7,0.2,7.3,0.5,11.1,0.5c3.8,0,7.4-0.2,11.1-0.5v19.5h-22.2V307.8z M204.8,335.2h110.1v22.2H204.8V335.2z"/>
	<path class="st0" d="M463.9,308.9h-35.4c-3.7,0-6.7,3-6.7,6.7v16h-98c-3.7,0-3.7,13.2,0,13.2h98v118h-98c-3.7,0-6.7,3-6.7,6.7
		s3,6.7,6.7,6.7h98v16c0,3.7,3,6.7,6.7,6.7h35.4c3.7,0,6.7-3,6.7-6.7V315.6C470.6,311.8,467.5,308.9,463.9,308.9L463.9,308.9z"/>
	<path class="st0" d="M190.5,344.8c3.7,0,3.7-13.2,0-13.2h-98v-16c0-3.7-3-6.7-6.7-6.7H50.5c-3.7,0-6.7,3-6.7,6.7v176.6
		c0,3.7,3,6.7,6.7,6.7h35.4c3.7,0,6.7-3,6.7-6.7v-16h98c3.7,0,6.7-3,6.7-6.7s-3-6.7-6.7-6.7h-98v-118H190.5z"/>
	<g id="_181677416_1_">
		<path class="st1" d="M256.8,260.6c-33.7,0-54.4-29.9-62.1-57.8c-8.4-28-5.4-55.8,6.9-69.4c1.5-1,3.9-1.9,5.4-1
			c1.5,1,2.3,2.9,2.3,4.8c0,1.9,1.5,12.5,8.4,15.4c1.5-31.8,12.3-53,21.4-65.5C249.8,72.8,260.4,67,260.4,66c2.3,0,3.9,0,5.4,1
			c0.8,1.9,1.5,3.9,1.5,6.8c-0.8,1-6.9,30.9,10,54c13.8-6.8,18.4-26,18.4-26c0.8-1.9,2.3-3.9,3.9-3.9c2.3,0,3.9,1,4.6,2.9
			c0.8,1,8.4,20.2,1.5,56.8c4.6,0,10-4.8,11.5-6.8c1.5-1.9,3-1.9,4.6-1.9c1.5,1,3,2.9,3,4.8c0.8,1,3.9,18.3,0.8,39.5
			c-2.3,19.3-10.8,46.2-37.5,59.7C277.4,258.7,266.8,260.6,256.8,260.6z M203.2,149.8c-5.4,12.5-5.4,29.9,0,48.2
			c6.9,25.1,25.3,51.1,53.6,51.1c9.1,0,18.4-1.9,27.5-6.8c18.4-9.7,29.1-27,32.9-51.1c0.8-10.6,0.8-19.3,0-26
			c-3,1.9-6.9,3.9-11.5,3.9c-2.3,0-5.4-1-7.6-1.9c-1.5-1.9-3-4.8-2.3-6.8c3.9-18.3,3.9-31.8,3-40.4c-3.9,7.7-11.5,16.3-21.4,20.2
			c-1.5,0-3.9,0-4.6-1.9c-15.3-18.3-16.9-41.4-16.1-55.8c-3,2.9-6.9,7.7-11.5,12.5c-12.3,17.3-18.4,39.5-18.4,64.5
			c0,3.9-2.3,5.8-4.6,5.8C211.6,165.3,205.5,158.5,203.2,149.8z"/>
	</g>
	<rect x="182.4" y="462.8" class="st2" width="155.1" height="13.2"/>
	<polygon class="st3" points="183.1,344 356.3,344 356.3,357.2 182.4,357.2 	"/>
</g>
<g id="Layer_2">
</g>
</svg>
