<?xml version="1.0" encoding="utf-8"?>
<!-- Generator: Adobe Illustrator 24.0.1, SVG Export Plug-In . SVG Version: 6.00 Build 0)  -->
<svg version="1.1" id="Layer_1" xmlns="http://www.w3.org/2000/svg" xmlns:xlink="http://www.w3.org/1999/xlink" x="0px" y="0px"
	 viewBox="0 0 512 512" style="enable-background:new 0 0 512 512;" xml:space="preserve">
<style type="text/css">
	.st0{fill:none;stroke:#FFFFFF;stroke-width:26;stroke-miterlimit:10;}
	.st1{fill-rule:evenodd;clip-rule:evenodd;fill:#E3097F;}
	.st2{stroke:#FFFFFF;stroke-width:26;stroke-miterlimit:10;}
	.st3{fill:#FFFFFF;}
	.st4{fill:#E3097F;}
	.st5{fill:none;stroke:#FFFFFF;stroke-width:6;stroke-miterlimit:10;}
	.st6{fill:none;stroke:#FFFFFF;stroke-width:12;stroke-miterlimit:10;}
	.st7{fill:none;stroke:#E3097F;stroke-width:12;stroke-miterlimit:10;}
	.st8{fill:none;stroke:#E3097F;stroke-width:22;stroke-miterlimit:10;}
	.st9{fill:none;stroke:#E3097F;stroke-width:11;stroke-miterlimit:13.3333;}
	.st10{fill:none;stroke:#E3097F;stroke-width:18;stroke-linecap:round;stroke-linejoin:round;stroke-miterlimit:13.3333;}
	.st11{fill:none;stroke:#353385;stroke-width:18;stroke-linecap:round;stroke-linejoin:round;stroke-miterlimit:13.3333;}
	.st12{fill:none;stroke:#FFFFFF;stroke-width:26;stroke-linecap:round;stroke-linejoin:round;stroke-miterlimit:13.3333;}
	.st13{fill:none;stroke:#E3097F;stroke-width:26;stroke-linecap:round;stroke-linejoin:round;stroke-miterlimit:13.3333;}
	.st14{fill:none;stroke:#E3097F;stroke-width:26;stroke-miterlimit:10;}
	.st15{fill:none;stroke:#E3097F;stroke-width:8;stroke-miterlimit:10;}
	.st16{fill:none;stroke:#FFFFFF;stroke-width:18;stroke-miterlimit:10;}
	.st17{fill:none;stroke:#E3097F;stroke-width:18;stroke-miterlimit:10;}
	.st18{fill:none;stroke:#E3097F;stroke-width:6;stroke-miterlimit:10;}
	.st19{fill-rule:evenodd;clip-rule:evenodd;fill:none;stroke:#FFFFFF;stroke-width:26;stroke-miterlimit:10;}
	.st20{fill-rule:evenodd;clip-rule:evenodd;fill:none;stroke:#E3097F;stroke-width:20;stroke-miterlimit:10;}
	.st21{fill:none;stroke:#FFFFFF;stroke-width:16;stroke-linecap:round;stroke-miterlimit:10;}
	.st22{fill:#FFFFFF;stroke:#FFFFFF;stroke-width:20;stroke-miterlimit:10;}
	.st23{fill:none;stroke:#FFFFFF;stroke-width:22;stroke-miterlimit:13.3333;}
	.st24{fill:none;stroke:#E3097F;stroke-width:14;stroke-miterlimit:13.3333;}
	.st25{clip-path:url(#SVGID_2_);}
	.st26{fill:none;stroke:#E3097F;stroke-width:12;stroke-miterlimit:13.3333;}
</style>
<g id="Layer_2">
</g>
<g>
	<path class="st0" d="M60.1,72.6l188.9-52.2l188.9,52.2v156.9c0,146.4-84.7,265.4-188.9,265.4S60.1,375.9,60.1,229.5V72.6z"/>
	<path class="st14" d="M195,311.4v40.5c0,14.9,12.1,27,27,27h54c14.9,0,27-12.1,27-27v-40.5h40.5c14.9,0,27-12.1,27-27v-54
		c0-14.9-12.1-27-27-27h-40.5V163c0-14.9-12.1-27-27-27h-54c-14.9,0-27,12.1-27,27v40.5h-40.5c-14.9,0-27,12.1-27,27v54
		c0,14.9,12.1,27,27,27H195z"/>
</g>
</svg>
